<svg width="32" height="32" viewBox="0 0 32 32" fill="none" xmlns="http://www.w3.org/2000/svg">
<path d="M28 8.00016H25.3333M28 16.0002H21.3333M28 24.0002H21.3333M9.33333 26.6668V18.0818C9.33333 17.8044 9.33333 17.6658 9.30611 17.5331C9.28196 17.4155 9.24201 17.3016 9.18736 17.1946C9.12575 17.074 9.03912 16.9658 8.86585 16.7491L4.46748 11.2512C4.29421 11.0346 4.20759 10.9263 4.14597 10.8057C4.09132 10.6987 4.05137 10.5849 4.02723 10.4672C4 10.3345 4 10.1959 4 9.9185V7.46683C4 6.7201 4 6.34672 4.14532 6.06151C4.27316 5.81063 4.47713 5.60666 4.72801 5.47882C5.01323 5.3335 5.3866 5.3335 6.13333 5.3335H17.8667C18.6135 5.3335 18.9868 5.3335 19.272 5.47882C19.5229 5.60666 19.7268 5.81063 19.8547 6.06151C20 6.34672 20 6.7201 20 7.46683V9.9185C20 10.1959 20 10.3345 19.9728 10.4672C19.9487 10.5849 19.9087 10.6987 19.854 10.8057C19.7924 10.9263 19.7057 11.0346 19.5325 11.2512L15.1341 16.7491C14.9609 16.9658 14.8743 17.074 14.8127 17.1946C14.758 17.3016 14.718 17.4155 14.6939 17.5331C14.6667 17.6658 14.6667 17.8044 14.6667 18.0818V22.6668L9.33333 26.6668Z" stroke="#D3FF55" stroke-width="2" stroke-linecap="round" stroke-linejoin="round"/>
</svg>
