<svg width="32" height="32" viewBox="0 0 32 32" fill="none" xmlns="http://www.w3.org/2000/svg">
<path d="M25.8671 24C26.3783 22.9999 26.6667 21.8669 26.6667 20.6667C26.6667 16.6165 23.3835 13.3333 19.3333 13.3333C15.2832 13.3333 12 16.6165 12 20.6667C12 24.7168 15.2832 28 19.3333 28H28C28 28 26.6667 26.6667 25.8857 24.0389M25.1333 16C25.2645 15.3537 25.3333 14.6849 25.3333 14C25.3333 8.47715 20.8561 4 15.3333 4C9.81048 4 5.33333 8.47715 5.33333 14C5.33333 15.1688 5.53385 16.2908 5.90235 17.3333C7.33464 21.3489 4 24 4 24H12.6667" stroke="#D3FF55" stroke-width="2" stroke-linecap="round" stroke-linejoin="round"/>
</svg>
