<svg width="20" height="21" viewBox="0 0 20 21" fill="none" xmlns="http://www.w3.org/2000/svg">
<path d="M1.70837 1.79376H3.37504L5.59171 12.6613C5.67302 13.0593 5.88393 13.4151 6.18813 13.6674C6.49233 13.9197 6.8708 14.0528 7.25837 14.0438H15.4084C15.7877 14.0431 16.1554 13.9066 16.4509 13.6569C16.7463 13.4071 16.9518 13.059 17.0334 12.67L18.4084 6.16876H4.26671M7.50004 18.375C7.50004 18.8583 7.12694 19.25 6.66671 19.25C6.20647 19.25 5.83337 18.8583 5.83337 18.375C5.83337 17.8918 6.20647 17.5 6.66671 17.5C7.12694 17.5 7.50004 17.8918 7.50004 18.375ZM16.6667 18.375C16.6667 18.8583 16.2936 19.25 15.8334 19.25C15.3731 19.25 15 18.8583 15 18.375C15 17.8918 15.3731 17.5 15.8334 17.5C16.2936 17.5 16.6667 17.8918 16.6667 18.375Z" stroke="#D3FF55" stroke-width="1.5" stroke-linecap="round" stroke-linejoin="round"/>
</svg>
