<svg width="20" height="21" viewBox="0 0 20 21" fill="none" xmlns="http://www.w3.org/2000/svg">
<path d="M10.8334 2.16675C12.8225 2.16675 14.7302 2.95692 16.1367 4.36345C17.5432 5.76997 18.3334 7.67762 18.3334 9.66675M10.8334 5.50008C11.9385 5.50008 12.9983 5.93907 13.7797 6.72047C14.5611 7.50187 15.0001 8.56168 15.0001 9.66675M11.5267 14.3067C11.6989 14.3858 11.8927 14.4038 12.0765 14.3579C12.2602 14.3121 12.4229 14.2049 12.5376 14.0542L12.8334 13.6667C12.9887 13.4598 13.19 13.2917 13.4214 13.176C13.6528 13.0603 13.908 13.0001 14.1667 13.0001H16.6667C17.1088 13.0001 17.5327 13.1757 17.8453 13.4882C18.1578 13.8008 18.3334 14.2247 18.3334 14.6667V17.1667C18.3334 17.6088 18.1578 18.0327 17.8453 18.3453C17.5327 18.6578 17.1088 18.8334 16.6667 18.8334C12.6885 18.8334 8.87319 17.2531 6.06015 14.44C3.2471 11.627 1.66675 7.81166 1.66675 3.83341C1.66675 3.39139 1.84234 2.96746 2.1549 2.6549C2.46746 2.34234 2.89139 2.16675 3.33341 2.16675H5.83341C6.27544 2.16675 6.69937 2.34234 7.01193 2.6549C7.32449 2.96746 7.50008 3.39139 7.50008 3.83341V6.33341C7.50008 6.59216 7.43984 6.84735 7.32413 7.07877C7.20841 7.3102 7.04041 7.5115 6.83341 7.66675L6.44341 7.95925C6.29043 8.07606 6.1826 8.24224 6.13824 8.42954C6.09388 8.61684 6.11573 8.81373 6.20008 8.98675C7.33898 11.3 9.2121 13.1707 11.5267 14.3067Z" stroke="white" stroke-width="1.5" stroke-linecap="round" stroke-linejoin="round"/>
</svg>
