<svg width="20" height="21" viewBox="0 0 20 21" fill="none" xmlns="http://www.w3.org/2000/svg">
<path d="M16.6666 8.75C16.6666 13.1189 12.0508 17.6689 10.5008 19.0741C10.3564 19.1881 10.1806 19.2498 9.99998 19.2498C9.81931 19.2498 9.64354 19.1881 9.49915 19.0741C7.94915 17.6689 3.33331 13.1189 3.33331 8.75C3.33331 6.89348 4.03569 5.11301 5.28593 3.80025C6.53618 2.4875 8.23187 1.75 9.99998 1.75C11.7681 1.75 13.4638 2.4875 14.714 3.80025C15.9643 5.11301 16.6666 6.89348 16.6666 8.75Z" stroke="#F5F5F5" stroke-width="1.5" stroke-linecap="round" stroke-linejoin="round"/>
<path d="M9.99998 11.375C11.3807 11.375 12.5 10.1997 12.5 8.75C12.5 7.30025 11.3807 6.125 9.99998 6.125C8.61927 6.125 7.49998 7.30025 7.49998 8.75C7.49998 10.1997 8.61927 11.375 9.99998 11.375Z" stroke="#F5F5F5" stroke-width="1.5" stroke-linecap="round" stroke-linejoin="round"/>
</svg>
