<svg width="21" height="22" viewBox="0 0 21 22" fill="none" xmlns="http://www.w3.org/2000/svg">
<path d="M11.3333 2.25C13.3224 2.25 15.2301 3.07969 16.6366 4.55653C18.0431 6.03338 18.8333 8.03642 18.8333 10.125M11.3333 5.75C12.4384 5.75 13.4982 6.21094 14.2796 7.03141C15.061 7.85188 15.5 8.96468 15.5 10.125M12.0266 14.997C12.1987 15.08 12.3926 15.099 12.5764 15.0508C12.7601 15.0026 12.9227 14.8901 13.0375 14.7319L13.3333 14.325C13.4885 14.1077 13.6898 13.9313 13.9213 13.8098C14.1527 13.6883 14.4079 13.625 14.6666 13.625H17.1666C17.6087 13.625 18.0326 13.8094 18.3451 14.1376C18.6577 14.4658 18.8333 14.9109 18.8333 15.375V18C18.8333 18.4641 18.6577 18.9092 18.3451 19.2374C18.0326 19.5656 17.6087 19.75 17.1666 19.75C13.1884 19.75 9.37307 18.0906 6.56002 15.1369C3.74698 12.1832 2.16663 8.17716 2.16663 4C2.16663 3.53587 2.34222 3.09075 2.65478 2.76256C2.96734 2.43437 3.39127 2.25 3.83329 2.25H6.33329C6.77532 2.25 7.19924 2.43437 7.5118 2.76256C7.82436 3.09075 7.99996 3.53587 7.99996 4V6.625C7.99996 6.89668 7.93972 7.16463 7.82401 7.40762C7.70829 7.65062 7.54029 7.86199 7.33329 8.025L6.94329 8.33213C6.79031 8.45478 6.68248 8.62926 6.63812 8.82593C6.59376 9.0226 6.61561 9.22933 6.69996 9.411C7.83886 11.8399 9.71198 13.8042 12.0266 14.997Z" stroke="#06231D" stroke-width="1.5" stroke-linecap="round" stroke-linejoin="round"/>
</svg>
