<svg width="21" height="22" viewBox="0 0 21 22" fill="none" xmlns="http://www.w3.org/2000/svg">
<path d="M17.1667 9.25C17.1667 13.6189 12.5509 18.1689 11.0009 19.5741C10.8565 19.6881 10.6807 19.7498 10.5 19.7498C10.3194 19.7498 10.1436 19.6881 9.99921 19.5741C8.44921 18.1689 3.83337 13.6189 3.83337 9.25C3.83337 7.39348 4.53575 5.61301 5.786 4.30025C7.03624 2.9875 8.73193 2.25 10.5 2.25C12.2682 2.25 13.9638 2.9875 15.2141 4.30025C16.4643 5.61301 17.1667 7.39348 17.1667 9.25Z" stroke="#06231D" stroke-width="1.5" stroke-linecap="round" stroke-linejoin="round"/>
<path d="M10.5 11.875C11.8808 11.875 13 10.6997 13 9.25C13 7.80025 11.8808 6.625 10.5 6.625C9.11933 6.625 8.00004 7.80025 8.00004 9.25C8.00004 10.6997 9.11933 11.875 10.5 11.875Z" stroke="#06231D" stroke-width="1.5" stroke-linecap="round" stroke-linejoin="round"/>
</svg>
