<svg width="21" height="22" viewBox="0 0 21 22" fill="none" xmlns="http://www.w3.org/2000/svg">
<path d="M3 10.125H5.5C5.94203 10.125 6.36595 10.3094 6.67851 10.6376C6.99107 10.9658 7.16667 11.4109 7.16667 11.875V14.5C7.16667 14.9641 6.99107 15.4092 6.67851 15.7374C6.36595 16.0656 5.94203 16.25 5.5 16.25H4.66667C4.22464 16.25 3.80072 16.0656 3.48816 15.7374C3.17559 15.4092 3 14.9641 3 14.5V10.125ZM3 10.125C3 9.09084 3.19399 8.06681 3.5709 7.11137C3.94781 6.15593 4.50026 5.2878 5.1967 4.55653C5.89314 3.82527 6.71993 3.2452 7.62987 2.84945C8.53982 2.45369 9.51509 2.25 10.5 2.25C11.4849 2.25 12.4602 2.45369 13.3701 2.84945C14.2801 3.2452 15.1069 3.82527 15.8033 4.55653C16.4997 5.2878 17.0522 6.15593 17.4291 7.11137C17.806 8.06681 18 9.09084 18 10.125M18 10.125V14.5M18 10.125H15.5C15.058 10.125 14.634 10.3094 14.3215 10.6376C14.0089 10.9658 13.8333 11.4109 13.8333 11.875V14.5C13.8333 14.9641 14.0089 15.4092 14.3215 15.7374C14.634 16.0656 15.058 16.25 15.5 16.25H16.3333C16.7754 16.25 17.1993 16.0656 17.5118 15.7374C17.8244 15.4092 18 14.9641 18 14.5M18 14.5V16.25C18 17.1783 17.6488 18.0685 17.0237 18.7249C16.3986 19.3813 15.5507 19.75 14.6667 19.75H10.5" stroke="#06231D" stroke-width="1.5" stroke-linecap="round" stroke-linejoin="round"/>
</svg>
