<svg width="20" height="22" viewBox="0 0 20 22" fill="none" xmlns="http://www.w3.org/2000/svg">
<path d="M16.6667 9.25C16.6667 13.6189 12.0509 18.1689 10.5009 19.5741C10.3565 19.6881 10.1807 19.7498 10 19.7498C9.81938 19.7498 9.6436 19.6881 9.49921 19.5741C7.94921 18.1689 3.33337 13.6189 3.33337 9.25C3.33337 7.39348 4.03575 5.61301 5.286 4.30025C6.53624 2.9875 8.23193 2.25 10 2.25C11.7682 2.25 13.4638 2.9875 14.7141 4.30025C15.9643 5.61301 16.6667 7.39348 16.6667 9.25Z" stroke="#D3FF55" stroke-width="1.5" stroke-linecap="round" stroke-linejoin="round"/>
<path d="M10 11.875C11.3808 11.875 12.5 10.6997 12.5 9.25C12.5 7.80025 11.3808 6.625 10 6.625C8.61933 6.625 7.50004 7.80025 7.50004 9.25C7.50004 10.6997 8.61933 11.875 10 11.875Z" stroke="#D3FF55" stroke-width="1.5" stroke-linecap="round" stroke-linejoin="round"/>
</svg>
