<svg width="20" height="21" viewBox="0 0 20 21" fill="none" xmlns="http://www.w3.org/2000/svg">
<path d="M15 7.875H16.6667C17.1087 7.875 17.5326 8.05937 17.8452 8.38756C18.1578 8.71575 18.3334 9.16087 18.3334 9.625V19.25L15 15.75H10C9.55799 15.75 9.13407 15.5656 8.82151 15.2374C8.50895 14.9092 8.33335 14.4641 8.33335 14V13.125M11.6667 7.875C11.6667 8.33913 11.4911 8.78425 11.1785 9.11244C10.866 9.44063 10.442 9.625 10 9.625H5.00002L1.66669 13.125V3.5C1.66669 3.03587 1.84228 2.59075 2.15484 2.26256C2.4674 1.93437 2.89133 1.75 3.33335 1.75H10C10.442 1.75 10.866 1.93437 11.1785 2.26256C11.4911 2.59075 11.6667 3.03587 11.6667 3.5V7.875Z" stroke="#06231D" stroke-width="1.5" stroke-linecap="round" stroke-linejoin="round"/>
</svg>
