<svg width="21" height="22" viewBox="0 0 21 22" fill="none" xmlns="http://www.w3.org/2000/svg">
<path d="M4.34583 15.7776L5.05836 16.0117C5.13908 15.7661 5.08755 15.4961 4.922 15.2975L4.34583 15.7776ZM2.97222 19.9582L2.2597 19.7241C2.16734 20.0052 2.24887 20.3143 2.46786 20.5133C2.68684 20.7122 3.00234 20.7639 3.27333 20.6451L2.97222 19.9582ZM7.33194 18.0471L7.65129 17.3684C7.45537 17.2762 7.22915 17.2732 7.03084 17.3602L7.33194 18.0471ZM13.0056 11.5971L13.5912 12.0656L13.6408 12.0035L13.6764 11.9325L13.0056 11.5971ZM12.4083 12.3734L12.9387 12.9038L12.4083 12.3734ZM11.8708 12.4332L12.2869 11.8091L12.248 11.7832L12.2062 11.7623L11.8708 12.4332ZM10.0792 11.3582L9.57466 11.9131L9.58276 11.9205L9.59107 11.9276L10.0792 11.3582ZM8.825 9.80539L8.15418 10.1408L8.18442 10.2013L8.225 10.2554L8.825 9.80539ZM9.54167 8.61095L8.87085 8.27554L8.84701 8.32321L8.83015 8.37378L9.54167 8.61095ZM8.825 6.58039L8.11349 6.81756L8.12335 6.84716L8.13564 6.87583L8.825 6.58039ZM7.33194 6.52067L7.86228 7.051L7.89996 7.01331L7.93194 6.97067L7.33194 6.52067ZM11.2139 13.9859L10.9162 14.6744L10.9271 14.679L11.2139 13.9859ZM13.8417 14.5832L13.965 15.323L14.0118 15.3152L14.0572 15.3015L13.8417 14.5832ZM10.7361 2.0415V1.2915C5.72329 1.2915 1.625 5.38979 1.625 10.4026H2.375H3.125C3.125 6.21822 6.55171 2.7915 10.7361 2.7915V2.0415ZM2.375 10.4026H1.625C1.625 12.6224 2.47205 14.7006 3.76967 16.2578L4.34583 15.7776L4.922 15.2975C3.83073 13.988 3.125 12.2439 3.125 10.4026H2.375ZM4.34583 15.7776L3.63331 15.5435L2.2597 19.7241L2.97222 19.9582L3.68475 20.1923L5.05836 16.0117L4.34583 15.7776ZM2.97222 19.9582L3.27333 20.6451L7.63305 18.734L7.33194 18.0471L7.03084 17.3602L2.67111 19.2713L2.97222 19.9582ZM7.33194 18.0471L7.0126 18.7257C8.14125 19.2568 9.4472 19.5137 10.7361 19.5137V18.7637V18.0137C9.63614 18.0137 8.55319 17.7929 7.65129 17.3684L7.33194 18.0471ZM10.7361 18.7637V19.5137C15.7489 19.5137 19.8472 15.4154 19.8472 10.4026H19.0972H18.3472C18.3472 14.587 14.9205 18.0137 10.7361 18.0137V18.7637ZM19.0972 10.4026H19.8472C19.8472 5.38979 15.7489 1.2915 10.7361 1.2915V2.0415V2.7915C14.9205 2.7915 18.3472 6.21822 18.3472 10.4026H19.0972ZM15.3347 13.4484L16.0462 13.6856C16.1536 13.3636 16.2115 13.0652 16.2316 12.814C16.2416 12.689 16.243 12.5659 16.2331 12.4512C16.2248 12.3558 16.2034 12.1949 16.125 12.038L15.4542 12.3734L14.7833 12.7089C14.7547 12.6515 14.7444 12.6082 14.7417 12.5961C14.7382 12.5803 14.7381 12.5743 14.7387 12.5812C14.7399 12.5953 14.7413 12.6327 14.7364 12.6944C14.7267 12.8164 14.695 12.9958 14.6232 13.2113L15.3347 13.4484ZM15.4542 12.3734L16.125 12.038C15.9807 11.7495 15.7474 11.6266 15.6169 11.5686C15.57 11.5478 15.4988 11.5199 15.4772 11.5111C15.4417 11.4966 15.4083 11.4821 15.3715 11.4637L15.0361 12.1346L14.7007 12.8054C14.7834 12.8467 14.8545 12.8771 14.9104 12.8999C14.9351 12.91 14.9636 12.9213 14.9777 12.9269C14.9958 12.9342 15.0037 12.9376 15.0077 12.9394C15.0187 12.9442 14.9791 12.9284 14.9287 12.8882C14.9015 12.8664 14.873 12.8391 14.8461 12.8059C14.8192 12.7727 14.7987 12.7395 14.7833 12.7089L15.4542 12.3734ZM15.0361 12.1346L15.3715 11.4637C15.2521 11.404 14.9208 11.2384 14.5963 11.0799C14.4344 11.0008 14.2714 10.9222 14.136 10.8589C14.0204 10.8048 13.8754 10.7381 13.7802 10.7064L13.5431 11.4179L13.3059 12.1294C13.3003 12.1275 13.3569 12.1504 13.5006 12.2177C13.6247 12.2757 13.779 12.3501 13.9381 12.4278C14.2556 12.5828 14.5812 12.7456 14.7007 12.8054L15.0361 12.1346ZM13.5431 11.4179L13.7802 10.7064C13.6094 10.6494 13.358 10.6013 13.0833 10.6647C12.7747 10.7359 12.4974 10.9363 12.3347 11.2616L13.0056 11.5971L13.6764 11.9325C13.6603 11.9646 13.6286 12.0103 13.5752 12.0519C13.5223 12.093 13.4668 12.1156 13.4206 12.1263C13.3768 12.1364 13.3448 12.1352 13.3298 12.1338C13.3147 12.1324 13.3071 12.1298 13.3059 12.1294L13.5431 11.4179ZM13.0056 11.5971L12.4199 11.1285C12.2855 11.2966 12.1653 11.468 12.0765 11.5909C11.9765 11.7295 11.9193 11.8019 11.878 11.8431L12.4083 12.3734L12.9387 12.9038C13.0766 12.7659 13.1985 12.5994 13.2926 12.4692C13.3979 12.3234 13.4868 12.1961 13.5912 12.0656L13.0056 11.5971ZM12.4083 12.3734L11.878 11.8431C11.9415 11.7796 12.0025 11.7586 12.0479 11.7516C12.1016 11.7434 12.1939 11.7471 12.2869 11.8091L11.8708 12.4332L11.4548 13.0572C11.9876 13.4124 12.6174 13.2251 12.9387 12.9038L12.4083 12.3734ZM11.8708 12.4332L12.2062 11.7623C11.8897 11.6041 11.311 11.4262 10.5673 10.7887L10.0792 11.3582L9.59107 11.9276C10.5195 12.7234 11.3742 13.0234 11.5354 13.104L11.8708 12.4332ZM10.0792 11.3582L10.5837 10.8032C9.99676 10.2697 9.67158 9.68416 9.425 9.35539L8.825 9.80539L8.225 10.2554C8.33676 10.4044 8.84769 11.2522 9.57466 11.9131L10.0792 11.3582ZM8.825 9.80539L9.49582 9.46998C9.49916 9.47666 9.51857 9.51792 9.52409 9.58695C9.53003 9.66127 9.5173 9.73574 9.4915 9.80025C9.46829 9.85826 9.44122 9.89138 9.43754 9.89584C9.43666 9.89691 9.4401 9.89262 9.47478 9.85794L8.94444 9.32761L8.41411 8.79728C8.37865 8.83275 8.19611 8.99986 8.09878 9.24317C7.97445 9.554 8.0182 9.86885 8.15418 10.1408L8.825 9.80539ZM8.94444 9.32761L9.47478 9.85794C9.5345 9.79822 9.59422 9.7385 9.65394 9.67878C9.71366 9.61906 9.77339 9.55933 9.83311 9.49961L9.30278 8.96928L8.77245 8.43895C8.71273 8.49867 8.653 8.5584 8.59328 8.61812C8.53356 8.67784 8.47384 8.73756 8.41411 8.79728L8.94444 9.32761ZM9.30278 8.96928L9.83311 9.49961C9.88239 9.45033 9.97471 9.36073 10.0549 9.24844C10.1461 9.12081 10.2061 8.98942 10.2532 8.84812L9.54167 8.61095L8.83015 8.37378C8.82302 8.39517 8.81983 8.4011 8.82131 8.39805C8.82356 8.39341 8.8282 8.38514 8.83432 8.37658C8.83954 8.36927 8.84109 8.36848 8.83178 8.37854C8.82691 8.38379 8.82012 8.39091 8.80993 8.40128C8.79947 8.41192 8.78789 8.42351 8.77245 8.43895L9.30278 8.96928ZM9.54167 8.61095L10.2125 8.94636C10.3505 8.67032 10.321 8.39983 10.292 8.25483C10.26 8.09445 10.2015 7.95485 10.1528 7.85748L9.48194 8.19289L8.81112 8.5283C8.82216 8.55038 8.82338 8.56008 8.82116 8.54901C8.81971 8.54176 8.81475 8.5147 8.81697 8.47261C8.81921 8.42996 8.82969 8.35786 8.87085 8.27554L9.54167 8.61095ZM9.48194 8.19289L10.1528 7.85748C10.1544 7.86083 10.1309 7.80677 10.0742 7.6672C10.0247 7.54528 9.96207 7.38869 9.89462 7.22008C9.76206 6.88867 9.60849 6.50459 9.51436 6.28495L8.825 6.58039L8.13564 6.87583C8.22068 7.07425 8.36572 7.43669 8.50191 7.77716C8.62456 8.08379 8.76281 8.43167 8.81112 8.5283L9.48194 8.19289ZM8.825 6.58039L9.53651 6.34322C9.46451 6.12721 9.333 5.81346 9.01677 5.62373C8.72835 5.45068 8.40423 5.47206 8.34722 5.47206V6.22206V6.97206C8.37935 6.97206 8.39698 6.97211 8.41154 6.9725C8.42521 6.97286 8.42474 6.9733 8.4165 6.97232C8.39716 6.96999 8.32674 6.95899 8.24503 6.90997C8.16117 6.85965 8.11587 6.79983 8.09888 6.77284C8.08633 6.75292 8.09365 6.75806 8.11349 6.81756L8.825 6.58039ZM8.34722 6.22206V5.47206C8.34711 5.47206 8.34699 5.47206 8.34687 5.47206C8.34675 5.47206 8.34664 5.47206 8.34652 5.47206C8.3464 5.47206 8.34628 5.47206 8.34617 5.47206C8.34605 5.47206 8.34593 5.47206 8.34581 5.47206C8.34569 5.47206 8.34557 5.47206 8.34546 5.47206C8.34534 5.47206 8.34522 5.47206 8.3451 5.47206C8.34498 5.47206 8.34486 5.47206 8.34474 5.47206C8.34462 5.47206 8.3445 5.47206 8.34438 5.47206C8.34426 5.47206 8.34414 5.47206 8.34402 5.47206C8.3439 5.47206 8.34378 5.47206 8.34366 5.47206C8.34353 5.47206 8.34341 5.47206 8.34329 5.47206C8.34317 5.47206 8.34305 5.47206 8.34293 5.47206C8.3428 5.47206 8.34268 5.47206 8.34256 5.47206C8.34244 5.47206 8.34231 5.47206 8.34219 5.47206C8.34207 5.47206 8.34195 5.47206 8.34182 5.47206C8.3417 5.47206 8.34158 5.47206 8.34145 5.47206C8.34133 5.47206 8.3412 5.47206 8.34108 5.47206C8.34096 5.47206 8.34083 5.47206 8.34071 5.47206C8.34058 5.47206 8.34046 5.47206 8.34033 5.47206C8.34021 5.47206 8.34008 5.47206 8.33996 5.47206C8.33983 5.47206 8.33971 5.47206 8.33958 5.47206C8.33946 5.47206 8.33933 5.47206 8.3392 5.47206C8.33908 5.47206 8.33895 5.47206 8.33882 5.47206C8.3387 5.47206 8.33857 5.47206 8.33844 5.47206C8.33832 5.47206 8.33819 5.47206 8.33806 5.47206C8.33793 5.47206 8.33781 5.47206 8.33768 5.47206C8.33755 5.47206 8.33742 5.47206 8.33729 5.47206C8.33717 5.47206 8.33704 5.47206 8.33691 5.47206C8.33678 5.47206 8.33665 5.47206 8.33652 5.47206C8.33639 5.47206 8.33626 5.47206 8.33613 5.47206C8.336 5.47206 8.33587 5.47206 8.33574 5.47206C8.33561 5.47206 8.33548 5.47206 8.33535 5.47206C8.33522 5.47206 8.33509 5.47206 8.33496 5.47206C8.33483 5.47206 8.3347 5.47206 8.33457 5.47206C8.33444 5.47206 8.33431 5.47206 8.33418 5.47206C8.33404 5.47206 8.33391 5.47206 8.33378 5.47206C8.33365 5.47206 8.33352 5.47206 8.33338 5.47206C8.33325 5.47206 8.33312 5.47206 8.33299 5.47206C8.33285 5.47206 8.33272 5.47206 8.33259 5.47206C8.33246 5.47206 8.33232 5.47206 8.33219 5.47206C8.33206 5.47206 8.33192 5.47206 8.33179 5.47206C8.33165 5.47206 8.33152 5.47206 8.33139 5.47206C8.33125 5.47206 8.33112 5.47206 8.33098 5.47206C8.33085 5.47206 8.33071 5.47206 8.33058 5.47206C8.33044 5.47206 8.33031 5.47206 8.33017 5.47206C8.33004 5.47206 8.3299 5.47206 8.32977 5.47206C8.32963 5.47206 8.32949 5.47206 8.32936 5.47206C8.32922 5.47206 8.32909 5.47206 8.32895 5.47206C8.32881 5.47206 8.32868 5.47206 8.32854 5.47206C8.3284 5.47206 8.32827 5.47206 8.32813 5.47206C8.32799 5.47206 8.32785 5.47206 8.32772 5.47206C8.32758 5.47206 8.32744 5.47206 8.3273 5.47206C8.32717 5.47206 8.32703 5.47206 8.32689 5.47206C8.32675 5.47206 8.32661 5.47206 8.32647 5.47206C8.32633 5.47206 8.3262 5.47206 8.32606 5.47206C8.32592 5.47206 8.32578 5.47206 8.32564 5.47206C8.3255 5.47206 8.32536 5.47206 8.32522 5.47206C8.32508 5.47206 8.32494 5.47206 8.3248 5.47206C8.32466 5.47206 8.32452 5.47206 8.32438 5.47206C8.32424 5.47206 8.3241 5.47206 8.32396 5.47206C8.32382 5.47206 8.32368 5.47206 8.32354 5.47206C8.32339 5.47206 8.32325 5.47206 8.32311 5.47206C8.32297 5.47206 8.32283 5.47206 8.32269 5.47206C8.32254 5.47206 8.3224 5.47206 8.32226 5.47206C8.32212 5.47206 8.32198 5.47206 8.32183 5.47206C8.32169 5.47206 8.32155 5.47206 8.32141 5.47206C8.32126 5.47206 8.32112 5.47206 8.32098 5.47206C8.32083 5.47206 8.32069 5.47206 8.32055 5.47206C8.3204 5.47206 8.32026 5.47206 8.32012 5.47206C8.31997 5.47206 8.31983 5.47206 8.31968 5.47206C8.31954 5.47206 8.31939 5.47206 8.31925 5.47206C8.31911 5.47206 8.31896 5.47206 8.31882 5.47206C8.31867 5.47206 8.31853 5.47206 8.31838 5.47206C8.31824 5.47206 8.31809 5.47206 8.31795 5.47206C8.3178 5.47206 8.31765 5.47206 8.31751 5.47206C8.31736 5.47206 8.31722 5.47206 8.31707 5.47206C8.31692 5.47206 8.31678 5.47206 8.31663 5.47206C8.31649 5.47206 8.31634 5.47206 8.31619 5.47206C8.31605 5.47206 8.3159 5.47206 8.31575 5.47206C8.3156 5.47206 8.31546 5.47206 8.31531 5.47206C8.31516 5.47206 8.31501 5.47206 8.31487 5.47206C8.31472 5.47206 8.31457 5.47206 8.31442 5.47206C8.31428 5.47206 8.31413 5.47206 8.31398 5.47206C8.31383 5.47206 8.31368 5.47206 8.31353 5.47206C8.31338 5.47206 8.31324 5.47206 8.31309 5.47206C8.31294 5.47206 8.31279 5.47206 8.31264 5.47206C8.31249 5.47206 8.31234 5.47206 8.31219 5.47206C8.31204 5.47206 8.31189 5.47206 8.31174 5.47206C8.31159 5.47206 8.31144 5.47206 8.31129 5.47206C8.31114 5.47206 8.31099 5.47206 8.31084 5.47206C8.31069 5.47206 8.31054 5.47206 8.31039 5.47206C8.31024 5.47206 8.31009 5.47206 8.30994 5.47206C8.30979 5.47206 8.30963 5.47206 8.30948 5.47206C8.30933 5.47206 8.30918 5.47206 8.30903 5.47206C8.30888 5.47206 8.30873 5.47206 8.30857 5.47206C8.30842 5.47206 8.30827 5.47206 8.30812 5.47206C8.30797 5.47206 8.30781 5.47206 8.30766 5.47206C8.30751 5.47206 8.30736 5.47206 8.3072 5.47206C8.30705 5.47206 8.3069 5.47206 8.30674 5.47206C8.30659 5.47206 8.30644 5.47206 8.30628 5.47206C8.30613 5.47206 8.30598 5.47206 8.30582 5.47206C8.30567 5.47206 8.30552 5.47206 8.30536 5.47206C8.30521 5.47206 8.30506 5.47206 8.3049 5.47206C8.30475 5.47206 8.30459 5.47206 8.30444 5.47206C8.30428 5.47206 8.30413 5.47206 8.30397 5.47206C8.30382 5.47206 8.30367 5.47206 8.30351 5.47206C8.30336 5.47206 8.3032 5.47206 8.30304 5.47206C8.30289 5.47206 8.30273 5.47206 8.30258 5.47206C8.30242 5.47206 8.30227 5.47206 8.30211 5.47206C8.30196 5.47206 8.3018 5.47206 8.30164 5.47206C8.30149 5.47206 8.30133 5.47206 8.30118 5.47206C8.30102 5.47206 8.30086 5.47206 8.30071 5.47206C8.30055 5.47206 8.30039 5.47206 8.30024 5.47206C8.30008 5.47206 8.29992 5.47206 8.29977 5.47206C8.29961 5.47206 8.29945 5.47206 8.29929 5.47206C8.29914 5.47206 8.29898 5.47206 8.29882 5.47206C8.29867 5.47206 8.29851 5.47206 8.29835 5.47206C8.29819 5.47206 8.29803 5.47206 8.29788 5.47206C8.29772 5.47206 8.29756 5.47206 8.2974 5.47206C8.29724 5.47206 8.29708 5.47206 8.29693 5.47206C8.29677 5.47206 8.29661 5.47206 8.29645 5.47206C8.29629 5.47206 8.29613 5.47206 8.29597 5.47206C8.29581 5.47206 8.29566 5.47206 8.2955 5.47206C8.29534 5.47206 8.29518 5.47206 8.29502 5.47206C8.29486 5.47206 8.2947 5.47206 8.29454 5.47206C8.29438 5.47206 8.29422 5.47206 8.29406 5.47206C8.2939 5.47206 8.29374 5.47206 8.29358 5.47206C8.29342 5.47206 8.29326 5.47206 8.2931 5.47206C8.29294 5.47206 8.29278 5.47206 8.29262 5.47206C8.29246 5.47206 8.2923 5.47206 8.29214 5.47206C8.29197 5.47206 8.29181 5.47206 8.29165 5.47206C8.29149 5.47206 8.29133 5.47206 8.29117 5.47206C8.29101 5.47206 8.29085 5.47206 8.29069 5.47206C8.29052 5.47206 8.29036 5.47206 8.2902 5.47206C8.29004 5.47206 8.28988 5.47206 8.28971 5.47206C8.28955 5.47206 8.28939 5.47206 8.28923 5.47206C8.28907 5.47206 8.2889 5.47206 8.28874 5.47206C8.28858 5.47206 8.28842 5.47206 8.28825 5.47206C8.28809 5.47206 8.28793 5.47206 8.28777 5.47206C8.2876 5.47206 8.28744 5.47206 8.28728 5.47206C8.28711 5.47206 8.28695 5.47206 8.28679 5.47206C8.28663 5.47206 8.28646 5.47206 8.2863 5.47206C8.28614 5.47206 8.28597 5.47206 8.28581 5.47206C8.28564 5.47206 8.28548 5.47206 8.28532 5.47206C8.28515 5.47206 8.28499 5.47206 8.28483 5.47206C8.28466 5.47206 8.2845 5.47206 8.28433 5.47206C8.28417 5.47206 8.284 5.47206 8.28384 5.47206C8.28368 5.47206 8.28351 5.47206 8.28335 5.47206C8.28318 5.47206 8.28302 5.47206 8.28285 5.47206C8.28269 5.47206 8.28252 5.47206 8.28236 5.47206C8.28219 5.47206 8.28203 5.47206 8.28186 5.47206C8.2817 5.47206 8.28153 5.47206 8.28137 5.47206C8.2812 5.47206 8.28104 5.47206 8.28087 5.47206C8.28071 5.47206 8.28054 5.47206 8.28037 5.47206C8.28021 5.47206 8.28004 5.47206 8.27988 5.47206C8.27971 5.47206 8.27954 5.47206 8.27938 5.47206C8.27921 5.47206 8.27905 5.47206 8.27888 5.47206C8.27871 5.47206 8.27855 5.47206 8.27838 5.47206C8.27821 5.47206 8.27805 5.47206 8.27788 5.47206C8.27772 5.47206 8.27755 5.47206 8.27738 5.47206C8.27721 5.47206 8.27705 5.47206 8.27688 5.47206C8.27671 5.47206 8.27655 5.47206 8.27638 5.47206C8.27621 5.47206 8.27605 5.47206 8.27588 5.47206C8.27571 5.47206 8.27554 5.47206 8.27538 5.47206C8.27521 5.47206 8.27504 5.47206 8.27487 5.47206C8.27471 5.47206 8.27454 5.47206 8.27437 5.47206C8.2742 5.47206 8.27404 5.47206 8.27387 5.47206C8.2737 5.47206 8.27353 5.47206 8.27336 5.47206C8.2732 5.47206 8.27303 5.47206 8.27286 5.47206C8.27269 5.47206 8.27252 5.47206 8.27235 5.47206C8.27219 5.47206 8.27202 5.47206 8.27185 5.47206C8.27168 5.47206 8.27151 5.47206 8.27134 5.47206C8.27117 5.47206 8.27101 5.47206 8.27084 5.47206C8.27067 5.47206 8.2705 5.47206 8.27033 5.47206C8.27016 5.47206 8.26999 5.47206 8.26982 5.47206C8.26965 5.47206 8.26948 5.47206 8.26931 5.47206C8.26915 5.47206 8.26898 5.47206 8.26881 5.47206C8.26864 5.47206 8.26847 5.47206 8.2683 5.47206C8.26813 5.47206 8.26796 5.47206 8.26779 5.47206C8.26762 5.47206 8.26745 5.47206 8.26728 5.47206C8.26711 5.47206 8.26694 5.47206 8.26677 5.47206C8.2666 5.47206 8.26643 5.47206 8.26626 5.47206C8.26609 5.47206 8.26592 5.47206 8.26575 5.47206C8.26558 5.47206 8.26541 5.47206 8.26524 5.47206C8.26507 5.47206 8.2649 5.47206 8.26473 5.47206C8.26456 5.47206 8.26439 5.47206 8.26422 5.47206C8.26405 5.47206 8.26387 5.47206 8.2637 5.47206C8.26353 5.47206 8.26336 5.47206 8.26319 5.47206C8.26302 5.47206 8.26285 5.47206 8.26268 5.47206C8.26251 5.47206 8.26234 5.47206 8.26217 5.47206C8.26199 5.47206 8.26182 5.47206 8.26165 5.47206C8.26148 5.47206 8.26131 5.47206 8.26114 5.47206C8.26097 5.47206 8.2608 5.47206 8.26062 5.47206C8.26045 5.47206 8.26028 5.47206 8.26011 5.47206C8.25994 5.47206 8.25977 5.47206 8.2596 5.47206C8.25942 5.47206 8.25925 5.47206 8.25908 5.47206C8.25891 5.47206 8.25874 5.47206 8.25856 5.47206C8.25839 5.47206 8.25822 5.47206 8.25805 5.47206C8.25788 5.47206 8.25771 5.47206 8.25753 5.47206C8.25736 5.47206 8.25719 5.47206 8.25702 5.47206C8.25684 5.47206 8.25667 5.47206 8.2565 5.47206C8.25633 5.47206 8.25616 5.47206 8.25598 5.47206C8.25581 5.47206 8.25564 5.47206 8.25547 5.47206C8.25529 5.47206 8.25512 5.47206 8.25495 5.47206C8.25478 5.47206 8.2546 5.47206 8.25443 5.47206C8.25426 5.47206 8.25408 5.47206 8.25391 5.47206C8.25374 5.47206 8.25357 5.47206 8.25339 5.47206C8.25322 5.47206 8.25305 5.47206 8.25288 5.47206C8.2527 5.47206 8.25253 5.47206 8.25236 5.47206C8.25218 5.47206 8.25201 5.47206 8.25184 5.47206C8.25166 5.47206 8.25149 5.47206 8.25132 5.47206C8.25114 5.47206 8.25097 5.47206 8.2508 5.47206C8.25062 5.47206 8.25045 5.47206 8.25028 5.47206C8.25011 5.47206 8.24993 5.47206 8.24976 5.47206C8.24958 5.47206 8.24941 5.47206 8.24924 5.47206C8.24906 5.47206 8.24889 5.47206 8.24872 5.47206C8.24854 5.47206 8.24837 5.47206 8.2482 5.47206C8.24802 5.47206 8.24785 5.47206 8.24768 5.47206C8.2475 5.47206 8.24733 5.47206 8.24715 5.47206C8.24698 5.47206 8.24681 5.47206 8.24663 5.47206C8.24646 5.47206 8.24629 5.47206 8.24611 5.47206C8.24594 5.47206 8.24576 5.47206 8.24559 5.47206C8.24542 5.47206 8.24524 5.47206 8.24507 5.47206C8.24489 5.47206 8.24472 5.47206 8.24455 5.47206C8.24437 5.47206 8.2442 5.47206 8.24402 5.47206C8.24385 5.47206 8.24368 5.47206 8.2435 5.47206C8.24333 5.47206 8.24315 5.47206 8.24298 5.47206C8.2428 5.47206 8.24263 5.47206 8.24246 5.47206C8.24228 5.47206 8.24211 5.47206 8.24193 5.47206C8.24176 5.47206 8.24158 5.47206 8.24141 5.47206C8.24124 5.47206 8.24106 5.47206 8.24089 5.47206C8.24071 5.47206 8.24054 5.47206 8.24036 5.47206C8.24019 5.47206 8.24001 5.47206 8.23984 5.47206C8.23967 5.47206 8.23949 5.47206 8.23932 5.47206C8.23914 5.47206 8.23897 5.47206 8.23879 5.47206C8.23862 5.47206 8.23844 5.47206 8.23827 5.47206C8.23809 5.47206 8.23792 5.47206 8.23775 5.47206C8.23757 5.47206 8.2374 5.47206 8.23722 5.47206C8.23705 5.47206 8.23687 5.47206 8.2367 5.47206C8.23652 5.47206 8.23635 5.47206 8.23617 5.47206C8.236 5.47206 8.23582 5.47206 8.23565 5.47206C8.23547 5.47206 8.2353 5.47206 8.23512 5.47206C8.23495 5.47206 8.23477 5.47206 8.2346 5.47206C8.23443 5.47206 8.23425 5.47206 8.23408 5.47206C8.2339 5.47206 8.23373 5.47206 8.23355 5.47206C8.23338 5.47206 8.2332 5.47206 8.23303 5.47206C8.23285 5.47206 8.23268 5.47206 8.2325 5.47206C8.23233 5.47206 8.23215 5.47206 8.23198 5.47206C8.2318 5.47206 8.23163 5.47206 8.23145 5.47206C8.23128 5.47206 8.2311 5.47206 8.23093 5.47206C8.23075 5.47206 8.23058 5.47206 8.2304 5.47206C8.23023 5.47206 8.23005 5.47206 8.22988 5.47206C8.2297 5.47206 8.22953 5.47206 8.22935 5.47206C8.22918 5.47206 8.229 5.47206 8.22883 5.47206C8.22865 5.47206 8.22848 5.47206 8.2283 5.47206C8.22813 5.47206 8.22795 5.47206 8.22778 5.47206C8.2276 5.47206 8.22743 5.47206 8.22725 5.47206C8.22708 5.47206 8.2269 5.47206 8.22673 5.47206C8.22655 5.47206 8.22638 5.47206 8.2262 5.47206C8.22603 5.47206 8.22585 5.47206 8.22568 5.47206C8.2255 5.47206 8.22533 5.47206 8.22515 5.47206C8.22498 5.47206 8.2248 5.47206 8.22463 5.47206C8.22445 5.47206 8.22428 5.47206 8.2241 5.47206C8.22393 5.47206 8.22375 5.47206 8.22358 5.47206C8.2234 5.47206 8.22323 5.47206 8.22305 5.47206C8.22288 5.47206 8.22271 5.47206 8.22253 5.47206C8.22236 5.47206 8.22218 5.47206 8.22201 5.47206C8.22183 5.47206 8.22166 5.47206 8.22148 5.47206C8.22131 5.47206 8.22113 5.47206 8.22096 5.47206C8.22078 5.47206 8.22061 5.47206 8.22043 5.47206C8.22026 5.47206 8.22008 5.47206 8.21991 5.47206C8.21973 5.47206 8.21956 5.47206 8.21938 5.47206C8.21921 5.47206 8.21903 5.47206 8.21886 5.47206C8.21868 5.47206 8.21851 5.47206 8.21834 5.47206C8.21816 5.47206 8.21799 5.47206 8.21781 5.47206C8.21764 5.47206 8.21746 5.47206 8.21729 5.47206C8.21711 5.47206 8.21694 5.47206 8.21676 5.47206C8.21659 5.47206 8.21641 5.47206 8.21624 5.47206C8.21607 5.47206 8.21589 5.47206 8.21572 5.47206C8.21554 5.47206 8.21537 5.47206 8.21519 5.47206C8.21502 5.47206 8.21484 5.47206 8.21467 5.47206C8.2145 5.47206 8.21432 5.47206 8.21415 5.47206C8.21397 5.47206 8.2138 5.47206 8.21362 5.47206C8.21345 5.47206 8.21327 5.47206 8.2131 5.47206C8.21293 5.47206 8.21275 5.47206 8.21258 5.47206C8.2124 5.47206 8.21223 5.47206 8.21206 5.47206C8.21188 5.47206 8.21171 5.47206 8.21153 5.47206C8.21136 5.47206 8.21118 5.47206 8.21101 5.47206C8.21084 5.47206 8.21066 5.47206 8.21049 5.47206C8.21031 5.47206 8.21014 5.47206 8.20997 5.47206C8.20979 5.47206 8.20962 5.47206 8.20944 5.47206C8.20927 5.47206 8.2091 5.47206 8.20892 5.47206C8.20875 5.47206 8.20858 5.47206 8.2084 5.47206C8.20823 5.47206 8.20805 5.47206 8.20788 5.47206C8.20771 5.47206 8.20753 5.47206 8.20736 5.47206C8.20719 5.47206 8.20701 5.47206 8.20684 5.47206C8.20667 5.47206 8.20649 5.47206 8.20632 5.47206C8.20615 5.47206 8.20597 5.47206 8.2058 5.47206C8.20563 5.47206 8.20545 5.47206 8.20528 5.47206C8.20511 5.47206 8.20493 5.47206 8.20476 5.47206C8.20459 5.47206 8.20441 5.47206 8.20424 5.47206C8.20407 5.47206 8.20389 5.47206 8.20372 5.47206C8.20355 5.47206 8.20337 5.47206 8.2032 5.47206C8.20303 5.47206 8.20285 5.47206 8.20268 5.47206C8.20251 5.47206 8.20234 5.47206 8.20216 5.47206C8.20199 5.47206 8.20182 5.47206 8.20164 5.47206C8.20147 5.47206 8.2013 5.47206 8.20113 5.47206C8.20095 5.47206 8.20078 5.47206 8.20061 5.47206C8.20044 5.47206 8.20026 5.47206 8.20009 5.47206C8.19992 5.47206 8.19975 5.47206 8.19957 5.47206C8.1994 5.47206 8.19923 5.47206 8.19906 5.47206C8.19888 5.47206 8.19871 5.47206 8.19854 5.47206C8.19837 5.47206 8.1982 5.47206 8.19802 5.47206C8.19785 5.47206 8.19768 5.47206 8.19751 5.47206C8.19734 5.47206 8.19716 5.47206 8.19699 5.47206C8.19682 5.47206 8.19665 5.47206 8.19648 5.47206C8.1963 5.47206 8.19613 5.47206 8.19596 5.47206C8.19579 5.47206 8.19562 5.47206 8.19545 5.47206C8.19527 5.47206 8.1951 5.47206 8.19493 5.47206C8.19476 5.47206 8.19459 5.47206 8.19442 5.47206C8.19425 5.47206 8.19408 5.47206 8.1939 5.47206C8.19373 5.47206 8.19356 5.47206 8.19339 5.47206C8.19322 5.47206 8.19305 5.47206 8.19288 5.47206C8.19271 5.47206 8.19254 5.47206 8.19236 5.47206C8.19219 5.47206 8.19202 5.47206 8.19185 5.47206C8.19168 5.47206 8.19151 5.47206 8.19134 5.47206C8.19117 5.47206 8.191 5.47206 8.19083 5.47206C8.19066 5.47206 8.19049 5.47206 8.19032 5.47206C8.19015 5.47206 8.18998 5.47206 8.18981 5.47206C8.18964 5.47206 8.18947 5.47206 8.1893 5.47206C8.18913 5.47206 8.18896 5.47206 8.18879 5.47206C8.18862 5.47206 8.18845 5.47206 8.18828 5.47206C8.18811 5.47206 8.18794 5.47206 8.18777 5.47206C8.1876 5.47206 8.18743 5.47206 8.18726 5.47206C8.18709 5.47206 8.18692 5.47206 8.18675 5.47206C8.18658 5.47206 8.18641 5.47206 8.18624 5.47206C8.18607 5.47206 8.1859 5.47206 8.18573 5.47206C8.18557 5.47206 8.1854 5.47206 8.18523 5.47206C8.18506 5.47206 8.18489 5.47206 8.18472 5.47206C8.18455 5.47206 8.18438 5.47206 8.18421 5.47206C8.18405 5.47206 8.18388 5.47206 8.18371 5.47206C8.18354 5.47206 8.18337 5.47206 8.1832 5.47206C8.18303 5.47206 8.18287 5.47206 8.1827 5.47206C8.18253 5.47206 8.18236 5.47206 8.18219 5.47206C8.18203 5.47206 8.18186 5.47206 8.18169 5.47206C8.18152 5.47206 8.18135 5.47206 8.18119 5.47206C8.18102 5.47206 8.18085 5.47206 8.18068 5.47206C8.18052 5.47206 8.18035 5.47206 8.18018 5.47206C8.18001 5.47206 8.17985 5.47206 8.17968 5.47206C8.17951 5.47206 8.17934 5.47206 8.17918 5.47206C8.17901 5.47206 8.17884 5.47206 8.17868 5.47206C8.17851 5.47206 8.17834 5.47206 8.17818 5.47206C8.17801 5.47206 8.17784 5.47206 8.17768 5.47206C8.17751 5.47206 8.17734 5.47206 8.17718 5.47206C8.17701 5.47206 8.17684 5.47206 8.17668 5.47206C8.17651 5.47206 8.17634 5.47206 8.17618 5.47206C8.17601 5.47206 8.17585 5.47206 8.17568 5.47206C8.17551 5.47206 8.17535 5.47206 8.17518 5.47206C8.17502 5.47206 8.17485 5.47206 8.17469 5.47206C8.17452 5.47206 8.17435 5.47206 8.17419 5.47206C8.17402 5.47206 8.17386 5.47206 8.17369 5.47206C8.17353 5.47206 8.17336 5.47206 8.1732 5.47206C8.17303 5.47206 8.17287 5.47206 8.1727 5.47206C8.17254 5.47206 8.17237 5.47206 8.17221 5.47206C8.17205 5.47206 8.17188 5.47206 8.17172 5.47206C8.17155 5.47206 8.17139 5.47206 8.17122 5.47206C8.17106 5.47206 8.1709 5.47206 8.17073 5.47206C8.17057 5.47206 8.1704 5.47206 8.17024 5.47206C8.17008 5.47206 8.16991 5.47206 8.16975 5.47206C8.16958 5.47206 8.16942 5.47206 8.16926 5.47206C8.16909 5.47206 8.16893 5.47206 8.16877 5.47206C8.1686 5.47206 8.16844 5.47206 8.16828 5.47206C8.16812 5.47206 8.16795 5.47206 8.16779 5.47206C8.16763 5.47206 8.16746 5.47206 8.1673 5.47206C8.16714 5.47206 8.16698 5.47206 8.16681 5.47206C8.16665 5.47206 8.16649 5.47206 8.16633 5.47206C8.16617 5.47206 8.166 5.47206 8.16584 5.47206C8.16568 5.47206 8.16552 5.47206 8.16536 5.47206C8.16519 5.47206 8.16503 5.47206 8.16487 5.47206C8.16471 5.47206 8.16455 5.47206 8.16439 5.47206C8.16423 5.47206 8.16406 5.47206 8.1639 5.47206C8.16374 5.47206 8.16358 5.47206 8.16342 5.47206C8.16326 5.47206 8.1631 5.47206 8.16294 5.47206C8.16278 5.47206 8.16262 5.47206 8.16246 5.47206C8.1623 5.47206 8.16214 5.47206 8.16198 5.47206C8.16182 5.47206 8.16166 5.47206 8.1615 5.47206C8.16134 5.47206 8.16118 5.47206 8.16102 5.47206C8.16086 5.47206 8.1607 5.47206 8.16054 5.47206C8.16038 5.47206 8.16022 5.47206 8.16006 5.47206C8.1599 5.47206 8.15974 5.47206 8.15958 5.47206C8.15942 5.47206 8.15926 5.47206 8.15911 5.47206C8.15895 5.47206 8.15879 5.47206 8.15863 5.47206C8.15847 5.47206 8.15831 5.47206 8.15816 5.47206C8.158 5.47206 8.15784 5.47206 8.15768 5.47206C8.15752 5.47206 8.15736 5.47206 8.15721 5.47206C8.15705 5.47206 8.15689 5.47206 8.15673 5.47206C8.15658 5.47206 8.15642 5.47206 8.15626 5.47206C8.1561 5.47206 8.15595 5.47206 8.15579 5.47206C8.15563 5.47206 8.15548 5.47206 8.15532 5.47206C8.15516 5.47206 8.15501 5.47206 8.15485 5.47206C8.15469 5.47206 8.15454 5.47206 8.15438 5.47206C8.15422 5.47206 8.15407 5.47206 8.15391 5.47206C8.15376 5.47206 8.1536 5.47206 8.15344 5.47206C8.15329 5.47206 8.15313 5.47206 8.15298 5.47206C8.15282 5.47206 8.15267 5.47206 8.15251 5.47206C8.15236 5.47206 8.1522 5.47206 8.15205 5.47206C8.15189 5.47206 8.15174 5.47206 8.15158 5.47206C8.15143 5.47206 8.15127 5.47206 8.15112 5.47206C8.15096 5.47206 8.15081 5.47206 8.15066 5.47206C8.1505 5.47206 8.15035 5.47206 8.15019 5.47206C8.15004 5.47206 8.14989 5.47206 8.14973 5.47206C8.14958 5.47206 8.14943 5.47206 8.14927 5.47206C8.14912 5.47206 8.14897 5.47206 8.14881 5.47206C8.14866 5.47206 8.14851 5.47206 8.14835 5.47206C8.1482 5.47206 8.14805 5.47206 8.1479 5.47206C8.14774 5.47206 8.14759 5.47206 8.14744 5.47206C8.14729 5.47206 8.14713 5.47206 8.14698 5.47206C8.14683 5.47206 8.14668 5.47206 8.14653 5.47206C8.14638 5.47206 8.14622 5.47206 8.14607 5.47206C8.14592 5.47206 8.14577 5.47206 8.14562 5.47206C8.14547 5.47206 8.14532 5.47206 8.14517 5.47206C8.14502 5.47206 8.14487 5.47206 8.14472 5.47206C8.14457 5.47206 8.14441 5.47206 8.14426 5.47206C8.14411 5.47206 8.14396 5.47206 8.14381 5.47206C8.14366 5.47206 8.14352 5.47206 8.14337 5.47206C8.14322 5.47206 8.14307 5.47206 8.14292 5.47206C8.14277 5.47206 8.14262 5.47206 8.14247 5.47206C8.14232 5.47206 8.14217 5.47206 8.14202 5.47206C8.14187 5.47206 8.14173 5.47206 8.14158 5.47206C8.14143 5.47206 8.14128 5.47206 8.14113 5.47206C8.14099 5.47206 8.14084 5.47206 8.14069 5.47206C8.14054 5.47206 8.14039 5.47206 8.14025 5.47206C8.1401 5.47206 8.13995 5.47206 8.13981 5.47206C8.13966 5.47206 8.13951 5.47206 8.13936 5.47206C8.13922 5.47206 8.13907 5.47206 8.13892 5.47206C8.13878 5.47206 8.13863 5.47206 8.13849 5.47206C8.13834 5.47206 8.13819 5.47206 8.13805 5.47206C8.1379 5.47206 8.13776 5.47206 8.13761 5.47206C8.13747 5.47206 8.13732 5.47206 8.13718 5.47206C8.13703 5.47206 8.13689 5.47206 8.13674 5.47206C8.1366 5.47206 8.13645 5.47206 8.13631 5.47206C8.13616 5.47206 8.13602 5.47206 8.13587 5.47206C8.13573 5.47206 8.13558 5.47206 8.13544 5.47206C8.1353 5.47206 8.13515 5.47206 8.13501 5.47206C8.13487 5.47206 8.13472 5.47206 8.13458 5.47206C8.13444 5.47206 8.13429 5.47206 8.13415 5.47206C8.13401 5.47206 8.13387 5.47206 8.13372 5.47206C8.13358 5.47206 8.13344 5.47206 8.1333 5.47206C8.13315 5.47206 8.13301 5.47206 8.13287 5.47206C8.13273 5.47206 8.13259 5.47206 8.13245 5.47206C8.1323 5.47206 8.13216 5.47206 8.13202 5.47206C8.13188 5.47206 8.13174 5.47206 8.1316 5.47206C8.13146 5.47206 8.13132 5.47206 8.13118 5.47206C8.13104 5.47206 8.1309 5.47206 8.13076 5.47206C8.13062 5.47206 8.13048 5.47206 8.13034 5.47206C8.1302 5.47206 8.13006 5.47206 8.12992 5.47206C8.12978 5.47206 8.12964 5.47206 8.1295 5.47206C8.12936 5.47206 8.12922 5.47206 8.12908 5.47206C8.12894 5.47206 8.12881 5.47206 8.12867 5.47206C8.12853 5.47206 8.12839 5.47206 8.12825 5.47206C8.12812 5.47206 8.12798 5.47206 8.12784 5.47206C8.1277 5.47206 8.12757 5.47206 8.12743 5.47206C8.12729 5.47206 8.12715 5.47206 8.12702 5.47206C8.12688 5.47206 8.12674 5.47206 8.12661 5.47206C8.12647 5.47206 8.12633 5.47206 8.1262 5.47206C8.12606 5.47206 8.12593 5.47206 8.12579 5.47206C8.12565 5.47206 8.12552 5.47206 8.12538 5.47206C8.12525 5.47206 8.12511 5.47206 8.12498 5.47206C8.12484 5.47206 8.12471 5.47206 8.12457 5.47206C8.12444 5.47206 8.12431 5.47206 8.12417 5.47206C8.12404 5.47206 8.1239 5.47206 8.12377 5.47206C8.12364 5.47206 8.1235 5.47206 8.12337 5.47206C8.12323 5.47206 8.1231 5.47206 8.12297 5.47206C8.12284 5.47206 8.1227 5.47206 8.12257 5.47206C8.12244 5.47206 8.1223 5.47206 8.12217 5.47206C8.12204 5.47206 8.12191 5.47206 8.12178 5.47206C8.12164 5.47206 8.12151 5.47206 8.12138 5.47206C8.12125 5.47206 8.12112 5.47206 8.12099 5.47206C8.12086 5.47206 8.12072 5.47206 8.12059 5.47206C8.12046 5.47206 8.12033 5.47206 8.1202 5.47206C8.12007 5.47206 8.11994 5.47206 8.11981 5.47206C8.11968 5.47206 8.11955 5.47206 8.11942 5.47206C8.11929 5.47206 8.11916 5.47206 8.11904 5.47206C8.11891 5.47206 8.11878 5.47206 8.11865 5.47206C8.11852 5.47206 8.11839 5.47206 8.11826 5.47206C8.11813 5.47206 8.11801 5.47206 8.11788 5.47206C8.11775 5.47206 8.11762 5.47206 8.1175 5.47206C8.11737 5.47206 8.11724 5.47206 8.11711 5.47206C8.11699 5.47206 8.11686 5.47206 8.11673 5.47206C8.11661 5.47206 8.11648 5.47206 8.11635 5.47206C8.11623 5.47206 8.1161 5.47206 8.11598 5.47206C8.11585 5.47206 8.11572 5.47206 8.1156 5.47206C8.11547 5.47206 8.11535 5.47206 8.11522 5.47206C8.1151 5.47206 8.11497 5.47206 8.11485 5.47206C8.11472 5.47206 8.1146 5.47206 8.11448 5.47206C8.11435 5.47206 8.11423 5.47206 8.1141 5.47206C8.11398 5.47206 8.11386 5.47206 8.11373 5.47206C8.11361 5.47206 8.11349 5.47206 8.11336 5.47206C8.11324 5.47206 8.11312 5.47206 8.113 5.47206C8.11287 5.47206 8.11275 5.47206 8.11263 5.47206C8.11251 5.47206 8.11239 5.47206 8.11226 5.47206C8.11214 5.47206 8.11202 5.47206 8.1119 5.47206C8.11178 5.47206 8.11166 5.47206 8.11154 5.47206C8.11142 5.47206 8.1113 5.47206 8.11118 5.47206C8.11106 5.47206 8.11094 5.47206 8.11082 5.47206C8.1107 5.47206 8.11058 5.47206 8.11046 5.47206C8.11034 5.47206 8.11022 5.47206 8.1101 5.47206C8.10998 5.47206 8.10986 5.47206 8.10974 5.47206C8.10963 5.47206 8.10951 5.47206 8.10939 5.47206C8.10927 5.47206 8.10915 5.47206 8.10904 5.47206C8.10892 5.47206 8.1088 5.47206 8.10868 5.47206C8.10857 5.47206 8.10845 5.47206 8.10833 5.47206V6.22206V6.97206C8.10845 6.97206 8.10857 6.97206 8.10868 6.97206C8.1088 6.97206 8.10892 6.97206 8.10904 6.97206C8.10915 6.97206 8.10927 6.97206 8.10939 6.97206C8.10951 6.97206 8.10963 6.97206 8.10974 6.97206C8.10986 6.97206 8.10998 6.97206 8.1101 6.97206C8.11022 6.97206 8.11034 6.97206 8.11046 6.97206C8.11058 6.97206 8.1107 6.97206 8.11082 6.97206C8.11094 6.97206 8.11106 6.97206 8.11118 6.97206C8.1113 6.97206 8.11142 6.97206 8.11154 6.97206C8.11166 6.97206 8.11178 6.97206 8.1119 6.97206C8.11202 6.97206 8.11214 6.97206 8.11226 6.97206C8.11239 6.97206 8.11251 6.97206 8.11263 6.97206C8.11275 6.97206 8.11287 6.97206 8.113 6.97206C8.11312 6.97206 8.11324 6.97206 8.11336 6.97206C8.11349 6.97206 8.11361 6.97206 8.11373 6.97206C8.11386 6.97206 8.11398 6.97206 8.1141 6.97206C8.11423 6.97206 8.11435 6.97206 8.11448 6.97206C8.1146 6.97206 8.11472 6.97206 8.11485 6.97206C8.11497 6.97206 8.1151 6.97206 8.11522 6.97206C8.11535 6.97206 8.11547 6.97206 8.1156 6.97206C8.11572 6.97206 8.11585 6.97206 8.11598 6.97206C8.1161 6.97206 8.11623 6.97206 8.11635 6.97206C8.11648 6.97206 8.11661 6.97206 8.11673 6.97206C8.11686 6.97206 8.11699 6.97206 8.11711 6.97206C8.11724 6.97206 8.11737 6.97206 8.1175 6.97206C8.11762 6.97206 8.11775 6.97206 8.11788 6.97206C8.11801 6.97206 8.11813 6.97206 8.11826 6.97206C8.11839 6.97206 8.11852 6.97206 8.11865 6.97206C8.11878 6.97206 8.11891 6.97206 8.11904 6.97206C8.11916 6.97206 8.11929 6.97206 8.11942 6.97206C8.11955 6.97206 8.11968 6.97206 8.11981 6.97206C8.11994 6.97206 8.12007 6.97206 8.1202 6.97206C8.12033 6.97206 8.12046 6.97206 8.12059 6.97206C8.12072 6.97206 8.12086 6.97206 8.12099 6.97206C8.12112 6.97206 8.12125 6.97206 8.12138 6.97206C8.12151 6.97206 8.12164 6.97206 8.12178 6.97206C8.12191 6.97206 8.12204 6.97206 8.12217 6.97206C8.1223 6.97206 8.12244 6.97206 8.12257 6.97206C8.1227 6.97206 8.12284 6.97206 8.12297 6.97206C8.1231 6.97206 8.12323 6.97206 8.12337 6.97206C8.1235 6.97206 8.12364 6.97206 8.12377 6.97206C8.1239 6.97206 8.12404 6.97206 8.12417 6.97206C8.12431 6.97206 8.12444 6.97206 8.12457 6.97206C8.12471 6.97206 8.12484 6.97206 8.12498 6.97206C8.12511 6.97206 8.12525 6.97206 8.12538 6.97206C8.12552 6.97206 8.12565 6.97206 8.12579 6.97206C8.12593 6.97206 8.12606 6.97206 8.1262 6.97206C8.12633 6.97206 8.12647 6.97206 8.12661 6.97206C8.12674 6.97206 8.12688 6.97206 8.12702 6.97206C8.12715 6.97206 8.12729 6.97206 8.12743 6.97206C8.12757 6.97206 8.1277 6.97206 8.12784 6.97206C8.12798 6.97206 8.12812 6.97206 8.12825 6.97206C8.12839 6.97206 8.12853 6.97206 8.12867 6.97206C8.12881 6.97206 8.12894 6.97206 8.12908 6.97206C8.12922 6.97206 8.12936 6.97206 8.1295 6.97206C8.12964 6.97206 8.12978 6.97206 8.12992 6.97206C8.13006 6.97206 8.1302 6.97206 8.13034 6.97206C8.13048 6.97206 8.13062 6.97206 8.13076 6.97206C8.1309 6.97206 8.13104 6.97206 8.13118 6.97206C8.13132 6.97206 8.13146 6.97206 8.1316 6.97206C8.13174 6.97206 8.13188 6.97206 8.13202 6.97206C8.13216 6.97206 8.1323 6.97206 8.13245 6.97206C8.13259 6.97206 8.13273 6.97206 8.13287 6.97206C8.13301 6.97206 8.13315 6.97206 8.1333 6.97206C8.13344 6.97206 8.13358 6.97206 8.13372 6.97206C8.13387 6.97206 8.13401 6.97206 8.13415 6.97206C8.13429 6.97206 8.13444 6.97206 8.13458 6.97206C8.13472 6.97206 8.13487 6.97206 8.13501 6.97206C8.13515 6.97206 8.1353 6.97206 8.13544 6.97206C8.13558 6.97206 8.13573 6.97206 8.13587 6.97206C8.13602 6.97206 8.13616 6.97206 8.13631 6.97206C8.13645 6.97206 8.1366 6.97206 8.13674 6.97206C8.13689 6.97206 8.13703 6.97206 8.13718 6.97206C8.13732 6.97206 8.13747 6.97206 8.13761 6.97206C8.13776 6.97206 8.1379 6.97206 8.13805 6.97206C8.13819 6.97206 8.13834 6.97206 8.13849 6.97206C8.13863 6.97206 8.13878 6.97206 8.13892 6.97206C8.13907 6.97206 8.13922 6.97206 8.13936 6.97206C8.13951 6.97206 8.13966 6.97206 8.13981 6.97206C8.13995 6.97206 8.1401 6.97206 8.14025 6.97206C8.14039 6.97206 8.14054 6.97206 8.14069 6.97206C8.14084 6.97206 8.14099 6.97206 8.14113 6.97206C8.14128 6.97206 8.14143 6.97206 8.14158 6.97206C8.14173 6.97206 8.14187 6.97206 8.14202 6.97206C8.14217 6.97206 8.14232 6.97206 8.14247 6.97206C8.14262 6.97206 8.14277 6.97206 8.14292 6.97206C8.14307 6.97206 8.14322 6.97206 8.14337 6.97206C8.14352 6.97206 8.14366 6.97206 8.14381 6.97206C8.14396 6.97206 8.14411 6.97206 8.14426 6.97206C8.14441 6.97206 8.14457 6.97206 8.14472 6.97206C8.14487 6.97206 8.14502 6.97206 8.14517 6.97206C8.14532 6.97206 8.14547 6.97206 8.14562 6.97206C8.14577 6.97206 8.14592 6.97206 8.14607 6.97206C8.14622 6.97206 8.14638 6.97206 8.14653 6.97206C8.14668 6.97206 8.14683 6.97206 8.14698 6.97206C8.14713 6.97206 8.14729 6.97206 8.14744 6.97206C8.14759 6.97206 8.14774 6.97206 8.1479 6.97206C8.14805 6.97206 8.1482 6.97206 8.14835 6.97206C8.14851 6.97206 8.14866 6.97206 8.14881 6.97206C8.14897 6.97206 8.14912 6.97206 8.14927 6.97206C8.14943 6.97206 8.14958 6.97206 8.14973 6.97206C8.14989 6.97206 8.15004 6.97206 8.15019 6.97206C8.15035 6.97206 8.1505 6.97206 8.15066 6.97206C8.15081 6.97206 8.15096 6.97206 8.15112 6.97206C8.15127 6.97206 8.15143 6.97206 8.15158 6.97206C8.15174 6.97206 8.15189 6.97206 8.15205 6.97206C8.1522 6.97206 8.15236 6.97206 8.15251 6.97206C8.15267 6.97206 8.15282 6.97206 8.15298 6.97206C8.15313 6.97206 8.15329 6.97206 8.15344 6.97206C8.1536 6.97206 8.15376 6.97206 8.15391 6.97206C8.15407 6.97206 8.15422 6.97206 8.15438 6.97206C8.15454 6.97206 8.15469 6.97206 8.15485 6.97206C8.15501 6.97206 8.15516 6.97206 8.15532 6.97206C8.15548 6.97206 8.15563 6.97206 8.15579 6.97206C8.15595 6.97206 8.1561 6.97206 8.15626 6.97206C8.15642 6.97206 8.15658 6.97206 8.15673 6.97206C8.15689 6.97206 8.15705 6.97206 8.15721 6.97206C8.15736 6.97206 8.15752 6.97206 8.15768 6.97206C8.15784 6.97206 8.158 6.97206 8.15816 6.97206C8.15831 6.97206 8.15847 6.97206 8.15863 6.97206C8.15879 6.97206 8.15895 6.97206 8.15911 6.97206C8.15926 6.97206 8.15942 6.97206 8.15958 6.97206C8.15974 6.97206 8.1599 6.97206 8.16006 6.97206C8.16022 6.97206 8.16038 6.97206 8.16054 6.97206C8.1607 6.97206 8.16086 6.97206 8.16102 6.97206C8.16118 6.97206 8.16134 6.97206 8.1615 6.97206C8.16166 6.97206 8.16182 6.97206 8.16198 6.97206C8.16214 6.97206 8.1623 6.97206 8.16246 6.97206C8.16262 6.97206 8.16278 6.97206 8.16294 6.97206C8.1631 6.97206 8.16326 6.97206 8.16342 6.97206C8.16358 6.97206 8.16374 6.97206 8.1639 6.97206C8.16406 6.97206 8.16423 6.97206 8.16439 6.97206C8.16455 6.97206 8.16471 6.97206 8.16487 6.97206C8.16503 6.97206 8.16519 6.97206 8.16536 6.97206C8.16552 6.97206 8.16568 6.97206 8.16584 6.97206C8.166 6.97206 8.16617 6.97206 8.16633 6.97206C8.16649 6.97206 8.16665 6.97206 8.16681 6.97206C8.16698 6.97206 8.16714 6.97206 8.1673 6.97206C8.16746 6.97206 8.16763 6.97206 8.16779 6.97206C8.16795 6.97206 8.16812 6.97206 8.16828 6.97206C8.16844 6.97206 8.1686 6.97206 8.16877 6.97206C8.16893 6.97206 8.16909 6.97206 8.16926 6.97206C8.16942 6.97206 8.16958 6.97206 8.16975 6.97206C8.16991 6.97206 8.17008 6.97206 8.17024 6.97206C8.1704 6.97206 8.17057 6.97206 8.17073 6.97206C8.1709 6.97206 8.17106 6.97206 8.17122 6.97206C8.17139 6.97206 8.17155 6.97206 8.17172 6.97206C8.17188 6.97206 8.17205 6.97206 8.17221 6.97206C8.17237 6.97206 8.17254 6.97206 8.1727 6.97206C8.17287 6.97206 8.17303 6.97206 8.1732 6.97206C8.17336 6.97206 8.17353 6.97206 8.17369 6.97206C8.17386 6.97206 8.17402 6.97206 8.17419 6.97206C8.17435 6.97206 8.17452 6.97206 8.17469 6.97206C8.17485 6.97206 8.17502 6.97206 8.17518 6.97206C8.17535 6.97206 8.17551 6.97206 8.17568 6.97206C8.17585 6.97206 8.17601 6.97206 8.17618 6.97206C8.17634 6.97206 8.17651 6.97206 8.17668 6.97206C8.17684 6.97206 8.17701 6.97206 8.17718 6.97206C8.17734 6.97206 8.17751 6.97206 8.17768 6.97206C8.17784 6.97206 8.17801 6.97206 8.17818 6.97206C8.17834 6.97206 8.17851 6.97206 8.17868 6.97206C8.17884 6.97206 8.17901 6.97206 8.17918 6.97206C8.17934 6.97206 8.17951 6.97206 8.17968 6.97206C8.17985 6.97206 8.18001 6.97206 8.18018 6.97206C8.18035 6.97206 8.18052 6.97206 8.18068 6.97206C8.18085 6.97206 8.18102 6.97206 8.18119 6.97206C8.18135 6.97206 8.18152 6.97206 8.18169 6.97206C8.18186 6.97206 8.18203 6.97206 8.18219 6.97206C8.18236 6.97206 8.18253 6.97206 8.1827 6.97206C8.18287 6.97206 8.18303 6.97206 8.1832 6.97206C8.18337 6.97206 8.18354 6.97206 8.18371 6.97206C8.18388 6.97206 8.18405 6.97206 8.18421 6.97206C8.18438 6.97206 8.18455 6.97206 8.18472 6.97206C8.18489 6.97206 8.18506 6.97206 8.18523 6.97206C8.1854 6.97206 8.18557 6.97206 8.18573 6.97206C8.1859 6.97206 8.18607 6.97206 8.18624 6.97206C8.18641 6.97206 8.18658 6.97206 8.18675 6.97206C8.18692 6.97206 8.18709 6.97206 8.18726 6.97206C8.18743 6.97206 8.1876 6.97206 8.18777 6.97206C8.18794 6.97206 8.18811 6.97206 8.18828 6.97206C8.18845 6.97206 8.18862 6.97206 8.18879 6.97206C8.18896 6.97206 8.18913 6.97206 8.1893 6.97206C8.18947 6.97206 8.18964 6.97206 8.18981 6.97206C8.18998 6.97206 8.19015 6.97206 8.19032 6.97206C8.19049 6.97206 8.19066 6.97206 8.19083 6.97206C8.191 6.97206 8.19117 6.97206 8.19134 6.97206C8.19151 6.97206 8.19168 6.97206 8.19185 6.97206C8.19202 6.97206 8.19219 6.97206 8.19236 6.97206C8.19254 6.97206 8.19271 6.97206 8.19288 6.97206C8.19305 6.97206 8.19322 6.97206 8.19339 6.97206C8.19356 6.97206 8.19373 6.97206 8.1939 6.97206C8.19408 6.97206 8.19425 6.97206 8.19442 6.97206C8.19459 6.97206 8.19476 6.97206 8.19493 6.97206C8.1951 6.97206 8.19527 6.97206 8.19545 6.97206C8.19562 6.97206 8.19579 6.97206 8.19596 6.97206C8.19613 6.97206 8.1963 6.97206 8.19648 6.97206C8.19665 6.97206 8.19682 6.97206 8.19699 6.97206C8.19716 6.97206 8.19734 6.97206 8.19751 6.97206C8.19768 6.97206 8.19785 6.97206 8.19802 6.97206C8.1982 6.97206 8.19837 6.97206 8.19854 6.97206C8.19871 6.97206 8.19888 6.97206 8.19906 6.97206C8.19923 6.97206 8.1994 6.97206 8.19957 6.97206C8.19975 6.97206 8.19992 6.97206 8.20009 6.97206C8.20026 6.97206 8.20044 6.97206 8.20061 6.97206C8.20078 6.97206 8.20095 6.97206 8.20113 6.97206C8.2013 6.97206 8.20147 6.97206 8.20164 6.97206C8.20182 6.97206 8.20199 6.97206 8.20216 6.97206C8.20234 6.97206 8.20251 6.97206 8.20268 6.97206C8.20285 6.97206 8.20303 6.97206 8.2032 6.97206C8.20337 6.97206 8.20355 6.97206 8.20372 6.97206C8.20389 6.97206 8.20407 6.97206 8.20424 6.97206C8.20441 6.97206 8.20459 6.97206 8.20476 6.97206C8.20493 6.97206 8.20511 6.97206 8.20528 6.97206C8.20545 6.97206 8.20563 6.97206 8.2058 6.97206C8.20597 6.97206 8.20615 6.97206 8.20632 6.97206C8.20649 6.97206 8.20667 6.97206 8.20684 6.97206C8.20701 6.97206 8.20719 6.97206 8.20736 6.97206C8.20753 6.97206 8.20771 6.97206 8.20788 6.97206C8.20805 6.97206 8.20823 6.97206 8.2084 6.97206C8.20858 6.97206 8.20875 6.97206 8.20892 6.97206C8.2091 6.97206 8.20927 6.97206 8.20944 6.97206C8.20962 6.97206 8.20979 6.97206 8.20997 6.97206C8.21014 6.97206 8.21031 6.97206 8.21049 6.97206C8.21066 6.97206 8.21084 6.97206 8.21101 6.97206C8.21118 6.97206 8.21136 6.97206 8.21153 6.97206C8.21171 6.97206 8.21188 6.97206 8.21206 6.97206C8.21223 6.97206 8.2124 6.97206 8.21258 6.97206C8.21275 6.97206 8.21293 6.97206 8.2131 6.97206C8.21327 6.97206 8.21345 6.97206 8.21362 6.97206C8.2138 6.97206 8.21397 6.97206 8.21415 6.97206C8.21432 6.97206 8.2145 6.97206 8.21467 6.97206C8.21484 6.97206 8.21502 6.97206 8.21519 6.97206C8.21537 6.97206 8.21554 6.97206 8.21572 6.97206C8.21589 6.97206 8.21607 6.97206 8.21624 6.97206C8.21641 6.97206 8.21659 6.97206 8.21676 6.97206C8.21694 6.97206 8.21711 6.97206 8.21729 6.97206C8.21746 6.97206 8.21764 6.97206 8.21781 6.97206C8.21799 6.97206 8.21816 6.97206 8.21834 6.97206C8.21851 6.97206 8.21868 6.97206 8.21886 6.97206C8.21903 6.97206 8.21921 6.97206 8.21938 6.97206C8.21956 6.97206 8.21973 6.97206 8.21991 6.97206C8.22008 6.97206 8.22026 6.97206 8.22043 6.97206C8.22061 6.97206 8.22078 6.97206 8.22096 6.97206C8.22113 6.97206 8.22131 6.97206 8.22148 6.97206C8.22166 6.97206 8.22183 6.97206 8.22201 6.97206C8.22218 6.97206 8.22236 6.97206 8.22253 6.97206C8.22271 6.97206 8.22288 6.97206 8.22305 6.97206C8.22323 6.97206 8.2234 6.97206 8.22358 6.97206C8.22375 6.97206 8.22393 6.97206 8.2241 6.97206C8.22428 6.97206 8.22445 6.97206 8.22463 6.97206C8.2248 6.97206 8.22498 6.97206 8.22515 6.97206C8.22533 6.97206 8.2255 6.97206 8.22568 6.97206C8.22585 6.97206 8.22603 6.97206 8.2262 6.97206C8.22638 6.97206 8.22655 6.97206 8.22673 6.97206C8.2269 6.97206 8.22708 6.97206 8.22725 6.97206C8.22743 6.97206 8.2276 6.97206 8.22778 6.97206C8.22795 6.97206 8.22813 6.97206 8.2283 6.97206C8.22848 6.97206 8.22865 6.97206 8.22883 6.97206C8.229 6.97206 8.22918 6.97206 8.22935 6.97206C8.22953 6.97206 8.2297 6.97206 8.22988 6.97206C8.23005 6.97206 8.23023 6.97206 8.2304 6.97206C8.23058 6.97206 8.23075 6.97206 8.23093 6.97206C8.2311 6.97206 8.23128 6.97206 8.23145 6.97206C8.23163 6.97206 8.2318 6.97206 8.23198 6.97206C8.23215 6.97206 8.23233 6.97206 8.2325 6.97206C8.23268 6.97206 8.23285 6.97206 8.23303 6.97206C8.2332 6.97206 8.23338 6.97206 8.23355 6.97206C8.23373 6.97206 8.2339 6.97206 8.23408 6.97206C8.23425 6.97206 8.23443 6.97206 8.2346 6.97206C8.23477 6.97206 8.23495 6.97206 8.23512 6.97206C8.2353 6.97206 8.23547 6.97206 8.23565 6.97206C8.23582 6.97206 8.236 6.97206 8.23617 6.97206C8.23635 6.97206 8.23652 6.97206 8.2367 6.97206C8.23687 6.97206 8.23705 6.97206 8.23722 6.97206C8.2374 6.97206 8.23757 6.97206 8.23775 6.97206C8.23792 6.97206 8.23809 6.97206 8.23827 6.97206C8.23844 6.97206 8.23862 6.97206 8.23879 6.97206C8.23897 6.97206 8.23914 6.97206 8.23932 6.97206C8.23949 6.97206 8.23967 6.97206 8.23984 6.97206C8.24001 6.97206 8.24019 6.97206 8.24036 6.97206C8.24054 6.97206 8.24071 6.97206 8.24089 6.97206C8.24106 6.97206 8.24124 6.97206 8.24141 6.97206C8.24158 6.97206 8.24176 6.97206 8.24193 6.97206C8.24211 6.97206 8.24228 6.97206 8.24246 6.97206C8.24263 6.97206 8.2428 6.97206 8.24298 6.97206C8.24315 6.97206 8.24333 6.97206 8.2435 6.97206C8.24368 6.97206 8.24385 6.97206 8.24402 6.97206C8.2442 6.97206 8.24437 6.97206 8.24455 6.97206C8.24472 6.97206 8.24489 6.97206 8.24507 6.97206C8.24524 6.97206 8.24542 6.97206 8.24559 6.97206C8.24576 6.97206 8.24594 6.97206 8.24611 6.97206C8.24629 6.97206 8.24646 6.97206 8.24663 6.97206C8.24681 6.97206 8.24698 6.97206 8.24715 6.97206C8.24733 6.97206 8.2475 6.97206 8.24768 6.97206C8.24785 6.97206 8.24802 6.97206 8.2482 6.97206C8.24837 6.97206 8.24854 6.97206 8.24872 6.97206C8.24889 6.97206 8.24906 6.97206 8.24924 6.97206C8.24941 6.97206 8.24958 6.97206 8.24976 6.97206C8.24993 6.97206 8.25011 6.97206 8.25028 6.97206C8.25045 6.97206 8.25062 6.97206 8.2508 6.97206C8.25097 6.97206 8.25114 6.97206 8.25132 6.97206C8.25149 6.97206 8.25166 6.97206 8.25184 6.97206C8.25201 6.97206 8.25218 6.97206 8.25236 6.97206C8.25253 6.97206 8.2527 6.97206 8.25288 6.97206C8.25305 6.97206 8.25322 6.97206 8.25339 6.97206C8.25357 6.97206 8.25374 6.97206 8.25391 6.97206C8.25408 6.97206 8.25426 6.97206 8.25443 6.97206C8.2546 6.97206 8.25478 6.97206 8.25495 6.97206C8.25512 6.97206 8.25529 6.97206 8.25547 6.97206C8.25564 6.97206 8.25581 6.97206 8.25598 6.97206C8.25616 6.97206 8.25633 6.97206 8.2565 6.97206C8.25667 6.97206 8.25684 6.97206 8.25702 6.97206C8.25719 6.97206 8.25736 6.97206 8.25753 6.97206C8.25771 6.97206 8.25788 6.97206 8.25805 6.97206C8.25822 6.97206 8.25839 6.97206 8.25856 6.97206C8.25874 6.97206 8.25891 6.97206 8.25908 6.97206C8.25925 6.97206 8.25942 6.97206 8.2596 6.97206C8.25977 6.97206 8.25994 6.97206 8.26011 6.97206C8.26028 6.97206 8.26045 6.97206 8.26062 6.97206C8.2608 6.97206 8.26097 6.97206 8.26114 6.97206C8.26131 6.97206 8.26148 6.97206 8.26165 6.97206C8.26182 6.97206 8.26199 6.97206 8.26217 6.97206C8.26234 6.97206 8.26251 6.97206 8.26268 6.97206C8.26285 6.97206 8.26302 6.97206 8.26319 6.97206C8.26336 6.97206 8.26353 6.97206 8.2637 6.97206C8.26387 6.97206 8.26405 6.97206 8.26422 6.97206C8.26439 6.97206 8.26456 6.97206 8.26473 6.97206C8.2649 6.97206 8.26507 6.97206 8.26524 6.97206C8.26541 6.97206 8.26558 6.97206 8.26575 6.97206C8.26592 6.97206 8.26609 6.97206 8.26626 6.97206C8.26643 6.97206 8.2666 6.97206 8.26677 6.97206C8.26694 6.97206 8.26711 6.97206 8.26728 6.97206C8.26745 6.97206 8.26762 6.97206 8.26779 6.97206C8.26796 6.97206 8.26813 6.97206 8.2683 6.97206C8.26847 6.97206 8.26864 6.97206 8.26881 6.97206C8.26898 6.97206 8.26915 6.97206 8.26931 6.97206C8.26948 6.97206 8.26965 6.97206 8.26982 6.97206C8.26999 6.97206 8.27016 6.97206 8.27033 6.97206C8.2705 6.97206 8.27067 6.97206 8.27084 6.97206C8.27101 6.97206 8.27117 6.97206 8.27134 6.97206C8.27151 6.97206 8.27168 6.97206 8.27185 6.97206C8.27202 6.97206 8.27219 6.97206 8.27235 6.97206C8.27252 6.97206 8.27269 6.97206 8.27286 6.97206C8.27303 6.97206 8.2732 6.97206 8.27336 6.97206C8.27353 6.97206 8.2737 6.97206 8.27387 6.97206C8.27404 6.97206 8.2742 6.97206 8.27437 6.97206C8.27454 6.97206 8.27471 6.97206 8.27487 6.97206C8.27504 6.97206 8.27521 6.97206 8.27538 6.97206C8.27554 6.97206 8.27571 6.97206 8.27588 6.97206C8.27605 6.97206 8.27621 6.97206 8.27638 6.97206C8.27655 6.97206 8.27671 6.97206 8.27688 6.97206C8.27705 6.97206 8.27721 6.97206 8.27738 6.97206C8.27755 6.97206 8.27772 6.97206 8.27788 6.97206C8.27805 6.97206 8.27821 6.97206 8.27838 6.97206C8.27855 6.97206 8.27871 6.97206 8.27888 6.97206C8.27905 6.97206 8.27921 6.97206 8.27938 6.97206C8.27954 6.97206 8.27971 6.97206 8.27988 6.97206C8.28004 6.97206 8.28021 6.97206 8.28037 6.97206C8.28054 6.97206 8.28071 6.97206 8.28087 6.97206C8.28104 6.97206 8.2812 6.97206 8.28137 6.97206C8.28153 6.97206 8.2817 6.97206 8.28186 6.97206C8.28203 6.97206 8.28219 6.97206 8.28236 6.97206C8.28252 6.97206 8.28269 6.97206 8.28285 6.97206C8.28302 6.97206 8.28318 6.97206 8.28335 6.97206C8.28351 6.97206 8.28368 6.97206 8.28384 6.97206C8.284 6.97206 8.28417 6.97206 8.28433 6.97206C8.2845 6.97206 8.28466 6.97206 8.28483 6.97206C8.28499 6.97206 8.28515 6.97206 8.28532 6.97206C8.28548 6.97206 8.28564 6.97206 8.28581 6.97206C8.28597 6.97206 8.28614 6.97206 8.2863 6.97206C8.28646 6.97206 8.28663 6.97206 8.28679 6.97206C8.28695 6.97206 8.28711 6.97206 8.28728 6.97206C8.28744 6.97206 8.2876 6.97206 8.28777 6.97206C8.28793 6.97206 8.28809 6.97206 8.28825 6.97206C8.28842 6.97206 8.28858 6.97206 8.28874 6.97206C8.2889 6.97206 8.28907 6.97206 8.28923 6.97206C8.28939 6.97206 8.28955 6.97206 8.28971 6.97206C8.28988 6.97206 8.29004 6.97206 8.2902 6.97206C8.29036 6.97206 8.29052 6.97206 8.29069 6.97206C8.29085 6.97206 8.29101 6.97206 8.29117 6.97206C8.29133 6.97206 8.29149 6.97206 8.29165 6.97206C8.29181 6.97206 8.29197 6.97206 8.29214 6.97206C8.2923 6.97206 8.29246 6.97206 8.29262 6.97206C8.29278 6.97206 8.29294 6.97206 8.2931 6.97206C8.29326 6.97206 8.29342 6.97206 8.29358 6.97206C8.29374 6.97206 8.2939 6.97206 8.29406 6.97206C8.29422 6.97206 8.29438 6.97206 8.29454 6.97206C8.2947 6.97206 8.29486 6.97206 8.29502 6.97206C8.29518 6.97206 8.29534 6.97206 8.2955 6.97206C8.29566 6.97206 8.29581 6.97206 8.29597 6.97206C8.29613 6.97206 8.29629 6.97206 8.29645 6.97206C8.29661 6.97206 8.29677 6.97206 8.29693 6.97206C8.29708 6.97206 8.29724 6.97206 8.2974 6.97206C8.29756 6.97206 8.29772 6.97206 8.29788 6.97206C8.29803 6.97206 8.29819 6.97206 8.29835 6.97206C8.29851 6.97206 8.29867 6.97206 8.29882 6.97206C8.29898 6.97206 8.29914 6.97206 8.29929 6.97206C8.29945 6.97206 8.29961 6.97206 8.29977 6.97206C8.29992 6.97206 8.30008 6.97206 8.30024 6.97206C8.30039 6.97206 8.30055 6.97206 8.30071 6.97206C8.30086 6.97206 8.30102 6.97206 8.30118 6.97206C8.30133 6.97206 8.30149 6.97206 8.30164 6.97206C8.3018 6.97206 8.30196 6.97206 8.30211 6.97206C8.30227 6.97206 8.30242 6.97206 8.30258 6.97206C8.30273 6.97206 8.30289 6.97206 8.30304 6.97206C8.3032 6.97206 8.30336 6.97206 8.30351 6.97206C8.30367 6.97206 8.30382 6.97206 8.30397 6.97206C8.30413 6.97206 8.30428 6.97206 8.30444 6.97206C8.30459 6.97206 8.30475 6.97206 8.3049 6.97206C8.30506 6.97206 8.30521 6.97206 8.30536 6.97206C8.30552 6.97206 8.30567 6.97206 8.30582 6.97206C8.30598 6.97206 8.30613 6.97206 8.30628 6.97206C8.30644 6.97206 8.30659 6.97206 8.30674 6.97206C8.3069 6.97206 8.30705 6.97206 8.3072 6.97206C8.30736 6.97206 8.30751 6.97206 8.30766 6.97206C8.30781 6.97206 8.30797 6.97206 8.30812 6.97206C8.30827 6.97206 8.30842 6.97206 8.30857 6.97206C8.30873 6.97206 8.30888 6.97206 8.30903 6.97206C8.30918 6.97206 8.30933 6.97206 8.30948 6.97206C8.30963 6.97206 8.30979 6.97206 8.30994 6.97206C8.31009 6.97206 8.31024 6.97206 8.31039 6.97206C8.31054 6.97206 8.31069 6.97206 8.31084 6.97206C8.31099 6.97206 8.31114 6.97206 8.31129 6.97206C8.31144 6.97206 8.31159 6.97206 8.31174 6.97206C8.31189 6.97206 8.31204 6.97206 8.31219 6.97206C8.31234 6.97206 8.31249 6.97206 8.31264 6.97206C8.31279 6.97206 8.31294 6.97206 8.31309 6.97206C8.31324 6.97206 8.31338 6.97206 8.31353 6.97206C8.31368 6.97206 8.31383 6.97206 8.31398 6.97206C8.31413 6.97206 8.31428 6.97206 8.31442 6.97206C8.31457 6.97206 8.31472 6.97206 8.31487 6.97206C8.31501 6.97206 8.31516 6.97206 8.31531 6.97206C8.31546 6.97206 8.3156 6.97206 8.31575 6.97206C8.3159 6.97206 8.31605 6.97206 8.31619 6.97206C8.31634 6.97206 8.31649 6.97206 8.31663 6.97206C8.31678 6.97206 8.31692 6.97206 8.31707 6.97206C8.31722 6.97206 8.31736 6.97206 8.31751 6.97206C8.31765 6.97206 8.3178 6.97206 8.31795 6.97206C8.31809 6.97206 8.31824 6.97206 8.31838 6.97206C8.31853 6.97206 8.31867 6.97206 8.31882 6.97206C8.31896 6.97206 8.31911 6.97206 8.31925 6.97206C8.31939 6.97206 8.31954 6.97206 8.31968 6.97206C8.31983 6.97206 8.31997 6.97206 8.32012 6.97206C8.32026 6.97206 8.3204 6.97206 8.32055 6.97206C8.32069 6.97206 8.32083 6.97206 8.32098 6.97206C8.32112 6.97206 8.32126 6.97206 8.32141 6.97206C8.32155 6.97206 8.32169 6.97206 8.32183 6.97206C8.32198 6.97206 8.32212 6.97206 8.32226 6.97206C8.3224 6.97206 8.32254 6.97206 8.32269 6.97206C8.32283 6.97206 8.32297 6.97206 8.32311 6.97206C8.32325 6.97206 8.32339 6.97206 8.32354 6.97206C8.32368 6.97206 8.32382 6.97206 8.32396 6.97206C8.3241 6.97206 8.32424 6.97206 8.32438 6.97206C8.32452 6.97206 8.32466 6.97206 8.3248 6.97206C8.32494 6.97206 8.32508 6.97206 8.32522 6.97206C8.32536 6.97206 8.3255 6.97206 8.32564 6.97206C8.32578 6.97206 8.32592 6.97206 8.32606 6.97206C8.3262 6.97206 8.32633 6.97206 8.32647 6.97206C8.32661 6.97206 8.32675 6.97206 8.32689 6.97206C8.32703 6.97206 8.32717 6.97206 8.3273 6.97206C8.32744 6.97206 8.32758 6.97206 8.32772 6.97206C8.32785 6.97206 8.32799 6.97206 8.32813 6.97206C8.32827 6.97206 8.3284 6.97206 8.32854 6.97206C8.32868 6.97206 8.32881 6.97206 8.32895 6.97206C8.32909 6.97206 8.32922 6.97206 8.32936 6.97206C8.32949 6.97206 8.32963 6.97206 8.32977 6.97206C8.3299 6.97206 8.33004 6.97206 8.33017 6.97206C8.33031 6.97206 8.33044 6.97206 8.33058 6.97206C8.33071 6.97206 8.33085 6.97206 8.33098 6.97206C8.33112 6.97206 8.33125 6.97206 8.33139 6.97206C8.33152 6.97206 8.33165 6.97206 8.33179 6.97206C8.33192 6.97206 8.33206 6.97206 8.33219 6.97206C8.33232 6.97206 8.33246 6.97206 8.33259 6.97206C8.33272 6.97206 8.33285 6.97206 8.33299 6.97206C8.33312 6.97206 8.33325 6.97206 8.33338 6.97206C8.33352 6.97206 8.33365 6.97206 8.33378 6.97206C8.33391 6.97206 8.33404 6.97206 8.33418 6.97206C8.33431 6.97206 8.33444 6.97206 8.33457 6.97206C8.3347 6.97206 8.33483 6.97206 8.33496 6.97206C8.33509 6.97206 8.33522 6.97206 8.33535 6.97206C8.33548 6.97206 8.33561 6.97206 8.33574 6.97206C8.33587 6.97206 8.336 6.97206 8.33613 6.97206C8.33626 6.97206 8.33639 6.97206 8.33652 6.97206C8.33665 6.97206 8.33678 6.97206 8.33691 6.97206C8.33704 6.97206 8.33717 6.97206 8.33729 6.97206C8.33742 6.97206 8.33755 6.97206 8.33768 6.97206C8.33781 6.97206 8.33793 6.97206 8.33806 6.97206C8.33819 6.97206 8.33832 6.97206 8.33844 6.97206C8.33857 6.97206 8.3387 6.97206 8.33882 6.97206C8.33895 6.97206 8.33908 6.97206 8.3392 6.97206C8.33933 6.97206 8.33946 6.97206 8.33958 6.97206C8.33971 6.97206 8.33983 6.97206 8.33996 6.97206C8.34008 6.97206 8.34021 6.97206 8.34033 6.97206C8.34046 6.97206 8.34058 6.97206 8.34071 6.97206C8.34083 6.97206 8.34096 6.97206 8.34108 6.97206C8.3412 6.97206 8.34133 6.97206 8.34145 6.97206C8.34158 6.97206 8.3417 6.97206 8.34182 6.97206C8.34195 6.97206 8.34207 6.97206 8.34219 6.97206C8.34231 6.97206 8.34244 6.97206 8.34256 6.97206C8.34268 6.97206 8.3428 6.97206 8.34293 6.97206C8.34305 6.97206 8.34317 6.97206 8.34329 6.97206C8.34341 6.97206 8.34353 6.97206 8.34366 6.97206C8.34378 6.97206 8.3439 6.97206 8.34402 6.97206C8.34414 6.97206 8.34426 6.97206 8.34438 6.97206C8.3445 6.97206 8.34462 6.97206 8.34474 6.97206C8.34486 6.97206 8.34498 6.97206 8.3451 6.97206C8.34522 6.97206 8.34534 6.97206 8.34546 6.97206C8.34557 6.97206 8.34569 6.97206 8.34581 6.97206C8.34593 6.97206 8.34605 6.97206 8.34617 6.97206C8.34628 6.97206 8.3464 6.97206 8.34652 6.97206C8.34664 6.97206 8.34675 6.97206 8.34687 6.97206C8.34699 6.97206 8.34711 6.97206 8.34722 6.97206V6.22206ZM8.10833 6.22206V5.47206C7.75424 5.47206 7.13414 5.53441 6.73194 6.07067L7.33194 6.52067L7.93194 6.97067C7.9246 6.98047 7.91532 6.98886 7.90749 6.99417C7.90067 6.99879 7.90056 6.99728 7.91252 6.99329C7.94165 6.98358 8.00237 6.97206 8.10833 6.97206V6.22206ZM7.33194 6.52067L6.80161 5.99034C6.5174 6.27455 5.80556 6.995 5.80556 8.37206H6.55556H7.30556C7.30556 7.59912 7.66871 7.24456 7.86228 7.051L7.33194 6.52067ZM6.55556 8.37206H5.80556C5.80556 9.07529 6.05453 9.73386 6.28786 10.2005C6.40784 10.4405 6.53219 10.6465 6.63699 10.8037C6.73004 10.9433 6.83522 11.086 6.92106 11.1718L7.45139 10.6415L7.98172 10.1112C8.00783 10.1373 7.97117 10.1008 7.88506 9.97166C7.81069 9.8601 7.71855 9.70781 7.6295 9.5297C7.44478 9.16026 7.30556 8.74383 7.30556 8.37206H6.55556ZM7.45139 10.6415L6.92106 11.1718C6.88375 11.1345 6.86353 11.1043 6.8895 11.1388C6.90311 11.157 6.92212 11.183 6.9507 11.2222C7.00565 11.2975 7.08392 11.405 7.18167 11.5337C7.37734 11.7913 7.65254 12.136 7.99836 12.5096C8.68262 13.2489 9.67653 14.1383 10.9162 14.6743L11.2139 13.9859L11.5116 13.2976C10.5415 12.8781 9.71391 12.1549 9.09921 11.4907C8.79555 11.1626 8.55192 10.8578 8.37618 10.6264C8.28823 10.5107 8.21767 10.4138 8.16274 10.3385C8.13638 10.3023 8.11019 10.2664 8.0886 10.2377C8.07937 10.2254 8.03395 10.1634 7.98172 10.1112L7.45139 10.6415ZM11.2139 13.9859L10.9271 14.679C11.8196 15.0483 12.4447 15.2349 12.9173 15.3151C13.4171 15.4 13.7285 15.3624 13.965 15.323L13.8417 14.5832L13.7184 13.8434C13.5965 13.8637 13.46 13.8858 13.1684 13.8363C12.8498 13.7822 12.3401 13.6403 11.5007 13.2929L11.2139 13.9859ZM13.8417 14.5832L14.0572 15.3015C14.4224 15.192 14.8258 15.01 15.1762 14.7638C15.5137 14.5266 15.8843 14.1715 16.0462 13.6856L15.3347 13.4484L14.6232 13.2113C14.606 13.2629 14.5286 13.3855 14.3138 13.5365C14.1117 13.6785 13.8581 13.7952 13.6262 13.8648L13.8417 14.5832Z" fill="#06231D"/>
</svg>
