<svg width="20" height="21" viewBox="0 0 20 21" fill="none" xmlns="http://www.w3.org/2000/svg">
<path d="M10.8334 1.75C12.8225 1.75 14.7301 2.57969 16.1367 4.05653C17.5432 5.53338 18.3334 7.53642 18.3334 9.625M10.8334 5.25C11.9384 5.25 12.9982 5.71094 13.7796 6.53141C14.561 7.35188 15 8.46468 15 9.625M11.5267 14.497C11.6988 14.58 11.8927 14.599 12.0764 14.5508C12.2602 14.5026 12.4228 14.3901 12.5375 14.2319L12.8334 13.825C12.9886 13.6077 13.1899 13.4313 13.4213 13.3098C13.6528 13.1883 13.9079 13.125 14.1667 13.125H16.6667C17.1087 13.125 17.5326 13.3094 17.8452 13.6376C18.1578 13.9658 18.3334 14.4109 18.3334 14.875V17.5C18.3334 17.9641 18.1578 18.4092 17.8452 18.7374C17.5326 19.0656 17.1087 19.25 16.6667 19.25C12.6884 19.25 8.87313 17.5906 6.06009 14.6369C3.24704 11.6832 1.66669 7.67716 1.66669 3.5C1.66669 3.03587 1.84228 2.59075 2.15484 2.26256C2.4674 1.93437 2.89133 1.75 3.33335 1.75H5.83335C6.27538 1.75 6.6993 1.93437 7.01186 2.26256C7.32443 2.59075 7.50002 3.03587 7.50002 3.5V6.125C7.50002 6.39668 7.43978 6.66463 7.32407 6.90762C7.20835 7.15062 7.04035 7.36199 6.83335 7.525L6.44335 7.83213C6.29037 7.95478 6.18254 8.12926 6.13818 8.32593C6.09382 8.5226 6.11567 8.72933 6.20002 8.911C7.33892 11.3399 9.21204 13.3042 11.5267 14.497Z" stroke="#F5F5F5" stroke-width="1.5" stroke-linecap="round" stroke-linejoin="round"/>
</svg>
