<svg width="20" height="22" viewBox="0 0 20 22" fill="none" xmlns="http://www.w3.org/2000/svg">
<path d="M10.8334 2.25C12.8225 2.25 14.7302 3.07969 16.1367 4.55653C17.5432 6.03338 18.3334 8.03642 18.3334 10.125M10.8334 5.75C11.9385 5.75 12.9983 6.21094 13.7797 7.03141C14.5611 7.85188 15.0001 8.96468 15.0001 10.125M11.5267 14.997C11.6989 15.08 11.8927 15.099 12.0765 15.0508C12.2602 15.0026 12.4229 14.8901 12.5376 14.7319L12.8334 14.325C12.9887 14.1077 13.19 13.9313 13.4214 13.8098C13.6528 13.6883 13.908 13.625 14.1667 13.625H16.6667C17.1088 13.625 17.5327 13.8094 17.8453 14.1376C18.1578 14.4658 18.3334 14.9109 18.3334 15.375V18C18.3334 18.4641 18.1578 18.9092 17.8453 19.2374C17.5327 19.5656 17.1088 19.75 16.6667 19.75C12.6885 19.75 8.87319 18.0906 6.06015 15.1369C3.2471 12.1832 1.66675 8.17716 1.66675 4C1.66675 3.53587 1.84234 3.09075 2.1549 2.76256C2.46746 2.43437 2.89139 2.25 3.33341 2.25H5.83341C6.27544 2.25 6.69937 2.43437 7.01193 2.76256C7.32449 3.09075 7.50008 3.53587 7.50008 4V6.625C7.50008 6.89668 7.43984 7.16463 7.32413 7.40762C7.20841 7.65062 7.04041 7.86199 6.83341 8.025L6.44341 8.33213C6.29043 8.45478 6.1826 8.62926 6.13824 8.82593C6.09388 9.0226 6.11573 9.22933 6.20008 9.411C7.33898 11.8399 9.2121 13.8042 11.5267 14.997Z" stroke="#D3FF55" stroke-width="1.5" stroke-linecap="round" stroke-linejoin="round"/>
</svg>
