<svg width="20" height="21" viewBox="0 0 20 21" fill="none" xmlns="http://www.w3.org/2000/svg">
<path d="M2.5 9.625H5C5.44203 9.625 5.86595 9.80937 6.17851 10.1376C6.49107 10.4658 6.66667 10.9109 6.66667 11.375V14C6.66667 14.4641 6.49107 14.9092 6.17851 15.2374C5.86595 15.5656 5.44203 15.75 5 15.75H4.16667C3.72464 15.75 3.30072 15.5656 2.98816 15.2374C2.67559 14.9092 2.5 14.4641 2.5 14V9.625ZM2.5 9.625C2.5 8.59084 2.69399 7.56681 3.0709 6.61137C3.44781 5.65593 4.00026 4.7878 4.6967 4.05653C5.39314 3.32527 6.21993 2.7452 7.12987 2.34945C8.03982 1.95369 9.01509 1.75 10 1.75C10.9849 1.75 11.9602 1.95369 12.8701 2.34945C13.7801 2.7452 14.6069 3.32527 15.3033 4.05653C15.9997 4.7878 16.5522 5.65593 16.9291 6.61137C17.306 7.56681 17.5 8.59084 17.5 9.625M17.5 9.625V14M17.5 9.625H15C14.558 9.625 14.134 9.80937 13.8215 10.1376C13.5089 10.4658 13.3333 10.9109 13.3333 11.375V14C13.3333 14.4641 13.5089 14.9092 13.8215 15.2374C14.134 15.5656 14.558 15.75 15 15.75H15.8333C16.2754 15.75 16.6993 15.5656 17.0118 15.2374C17.3244 14.9092 17.5 14.4641 17.5 14M17.5 14V15.75C17.5 16.6783 17.1488 17.5685 16.5237 18.2249C15.8986 18.8813 15.0507 19.25 14.1667 19.25H10" stroke="#F5F5F5" stroke-width="1.5" stroke-linecap="round" stroke-linejoin="round"/>
</svg>
