<svg width="20" height="21" viewBox="0 0 20 21" fill="none" xmlns="http://www.w3.org/2000/svg">
<path d="M3.84583 15.2776L4.55836 15.5117C4.63908 15.2661 4.58755 14.9961 4.422 14.7975L3.84583 15.2776ZM2.47222 19.4582L1.7597 19.2241C1.66734 19.5052 1.74887 19.8143 1.96786 20.0133C2.18684 20.2122 2.50234 20.2639 2.77333 20.1451L2.47222 19.4582ZM6.83194 17.5471L7.15129 16.8684C6.95537 16.7762 6.72915 16.7732 6.53084 16.8602L6.83194 17.5471ZM12.5056 11.0971L13.0912 11.5656L13.1408 11.5035L13.1764 11.4325L12.5056 11.0971ZM11.9083 11.8734L12.4387 12.4038L11.9083 11.8734ZM11.3708 11.9332L11.7869 11.3091L11.748 11.2832L11.7062 11.2623L11.3708 11.9332ZM9.57917 10.8582L9.07466 11.4131L9.08276 11.4205L9.09107 11.4276L9.57917 10.8582ZM8.325 9.30539L7.65418 9.6408L7.68442 9.70129L7.725 9.75539L8.325 9.30539ZM9.04167 8.11095L8.37085 7.77554L8.34701 7.82321L8.33015 7.87378L9.04167 8.11095ZM8.325 6.08039L7.61349 6.31756L7.62335 6.34716L7.63564 6.37583L8.325 6.08039ZM6.83194 6.02067L7.36228 6.551L7.39996 6.51331L7.43194 6.47067L6.83194 6.02067ZM10.7139 13.4859L10.4162 14.1744L10.4271 14.179L10.7139 13.4859ZM13.3417 14.0832L13.465 14.823L13.5118 14.8152L13.5572 14.8015L13.3417 14.0832ZM10.2361 1.5415V0.791504C5.22329 0.791504 1.125 4.88979 1.125 9.90261H1.875H2.625C2.625 5.71822 6.05171 2.2915 10.2361 2.2915V1.5415ZM1.875 9.90261H1.125C1.125 12.1224 1.97205 14.2006 3.26967 15.7578L3.84583 15.2776L4.422 14.7975C3.33073 13.488 2.625 11.7439 2.625 9.90261H1.875ZM3.84583 15.2776L3.13331 15.0435L1.7597 19.2241L2.47222 19.4582L3.18475 19.6923L4.55836 15.5117L3.84583 15.2776ZM2.47222 19.4582L2.77333 20.1451L7.13305 18.234L6.83194 17.5471L6.53084 16.8602L2.17111 18.7713L2.47222 19.4582ZM6.83194 17.5471L6.5126 18.2257C7.64125 18.7568 8.9472 19.0137 10.2361 19.0137V18.2637V17.5137C9.13614 17.5137 8.05319 17.2929 7.15129 16.8684L6.83194 17.5471ZM10.2361 18.2637V19.0137C15.2489 19.0137 19.3472 14.9154 19.3472 9.90261H18.5972H17.8472C17.8472 14.087 14.4205 17.5137 10.2361 17.5137V18.2637ZM18.5972 9.90261H19.3472C19.3472 4.88979 15.2489 0.791504 10.2361 0.791504V1.5415V2.2915C14.4205 2.2915 17.8472 5.71822 17.8472 9.90261H18.5972ZM14.8347 12.9484L15.5462 13.1856C15.6536 12.8636 15.7115 12.5652 15.7316 12.314C15.7416 12.189 15.743 12.0659 15.7331 11.9512C15.7248 11.8558 15.7034 11.6949 15.625 11.538L14.9542 11.8734L14.2833 12.2089C14.2547 12.1515 14.2444 12.1082 14.2417 12.0961C14.2382 12.0803 14.2381 12.0743 14.2387 12.0812C14.2399 12.0953 14.2413 12.1327 14.2364 12.1944C14.2267 12.3164 14.195 12.4958 14.1232 12.7113L14.8347 12.9484ZM14.9542 11.8734L15.625 11.538C15.4807 11.2495 15.2474 11.1266 15.1169 11.0686C15.07 11.0478 14.9988 11.0199 14.9772 11.0111C14.9417 10.9966 14.9083 10.9821 14.8715 10.9637L14.5361 11.6346L14.2007 12.3054C14.2834 12.3467 14.3545 12.3771 14.4104 12.3999C14.4351 12.41 14.4636 12.4213 14.4777 12.4269C14.4958 12.4342 14.5037 12.4376 14.5077 12.4394C14.5187 12.4442 14.4791 12.4284 14.4287 12.3882C14.4015 12.3664 14.373 12.3391 14.3461 12.3059C14.3192 12.2727 14.2987 12.2395 14.2833 12.2089L14.9542 11.8734ZM14.5361 11.6346L14.8715 10.9637C14.7521 10.904 14.4208 10.7384 14.0963 10.5799C13.9344 10.5008 13.7714 10.4222 13.636 10.3589C13.5204 10.3048 13.3754 10.2381 13.2802 10.2064L13.0431 10.9179L12.8059 11.6294C12.8003 11.6275 12.8569 11.6504 13.0006 11.7177C13.1247 11.7757 13.279 11.8501 13.4381 11.9278C13.7556 12.0828 14.0812 12.2456 14.2007 12.3054L14.5361 11.6346ZM13.0431 10.9179L13.2802 10.2064C13.1094 10.1494 12.858 10.1013 12.5833 10.1647C12.2747 10.2359 11.9974 10.4363 11.8347 10.7616L12.5056 11.0971L13.1764 11.4325C13.1603 11.4646 13.1286 11.5103 13.0752 11.5519C13.0223 11.593 12.9668 11.6156 12.9206 11.6263C12.8768 11.6364 12.8448 11.6352 12.8298 11.6338C12.8147 11.6324 12.8071 11.6298 12.8059 11.6294L13.0431 10.9179ZM12.5056 11.0971L11.9199 10.6285C11.7855 10.7966 11.6653 10.968 11.5765 11.0909C11.4765 11.2295 11.4193 11.3019 11.378 11.3431L11.9083 11.8734L12.4387 12.4038C12.5766 12.2659 12.6985 12.0994 12.7926 11.9692C12.8979 11.8234 12.9868 11.6961 13.0912 11.5656L12.5056 11.0971ZM11.9083 11.8734L11.378 11.3431C11.4415 11.2796 11.5025 11.2586 11.5479 11.2516C11.6016 11.2434 11.6939 11.2471 11.7869 11.3091L11.3708 11.9332L10.9548 12.5572C11.4876 12.9124 12.1174 12.7251 12.4387 12.4038L11.9083 11.8734ZM11.3708 11.9332L11.7062 11.2623C11.3897 11.1041 10.811 10.9262 10.0673 10.2887L9.57917 10.8582L9.09107 11.4276C10.0195 12.2234 10.8742 12.5234 11.0354 12.604L11.3708 11.9332ZM9.57917 10.8582L10.0837 10.3032C9.49676 9.76966 9.17158 9.18416 8.925 8.85539L8.325 9.30539L7.725 9.75539C7.83676 9.9044 8.34769 10.7522 9.07466 11.4131L9.57917 10.8582ZM8.325 9.30539L8.99582 8.96998C8.99916 8.97666 9.01857 9.01792 9.02409 9.08695C9.03003 9.16127 9.0173 9.23574 8.9915 9.30025C8.96829 9.35826 8.94122 9.39138 8.93754 9.39584C8.93666 9.39691 8.9401 9.39262 8.97478 9.35794L8.44444 8.82761L7.91411 8.29728C7.87865 8.33275 7.69611 8.49986 7.59878 8.74317C7.47445 9.054 7.5182 9.36885 7.65418 9.6408L8.325 9.30539ZM8.44444 8.82761L8.97478 9.35794C9.0345 9.29822 9.09422 9.2385 9.15394 9.17878C9.21366 9.11906 9.27339 9.05933 9.33311 8.99961L8.80278 8.46928L8.27245 7.93895C8.21273 7.99867 8.153 8.0584 8.09328 8.11812C8.03356 8.17784 7.97384 8.23756 7.91411 8.29728L8.44444 8.82761ZM8.80278 8.46928L9.33311 8.99961C9.38239 8.95033 9.47471 8.86073 9.55492 8.74844C9.64608 8.62081 9.70608 8.48942 9.75318 8.34812L9.04167 8.11095L8.33015 7.87378C8.32302 7.89517 8.31983 7.9011 8.32131 7.89805C8.32356 7.89341 8.3282 7.88514 8.33432 7.87658C8.33954 7.86927 8.34109 7.86848 8.33178 7.87854C8.32691 7.88379 8.32012 7.89091 8.30993 7.90128C8.29947 7.91192 8.28789 7.92351 8.27245 7.93895L8.80278 8.46928ZM9.04167 8.11095L9.71249 8.44636C9.85051 8.17032 9.82103 7.89983 9.79203 7.75483C9.75996 7.59445 9.70145 7.45485 9.65277 7.35748L8.98194 7.69289L8.31112 8.0283C8.32216 8.05038 8.32338 8.06008 8.32116 8.04901C8.31971 8.04176 8.31475 8.0147 8.31697 7.97261C8.31921 7.92996 8.32969 7.85786 8.37085 7.77554L9.04167 8.11095ZM8.98194 7.69289L9.65277 7.35748C9.65444 7.36083 9.63088 7.30677 9.5742 7.1672C9.52471 7.04528 9.46207 6.88869 9.39462 6.72008C9.26206 6.38867 9.10849 6.00459 9.01436 5.78495L8.325 6.08039L7.63564 6.37583C7.72068 6.57425 7.86572 6.93669 8.00191 7.27716C8.12456 7.58379 8.26281 7.93167 8.31112 8.0283L8.98194 7.69289ZM8.325 6.08039L9.03651 5.84322C8.96451 5.62721 8.833 5.31346 8.51677 5.12373C8.22835 4.95068 7.90423 4.97206 7.84722 4.97206V5.72206V6.47206C7.87935 6.47206 7.89698 6.47211 7.91154 6.4725C7.92521 6.47286 7.92474 6.4733 7.9165 6.47232C7.89716 6.46999 7.82674 6.45899 7.74503 6.40997C7.66117 6.35965 7.61587 6.29983 7.59888 6.27284C7.58633 6.25292 7.59365 6.25806 7.61349 6.31756L8.325 6.08039ZM7.84722 5.72206V4.97206C7.84711 4.97206 7.84699 4.97206 7.84687 4.97206C7.84675 4.97206 7.84664 4.97206 7.84652 4.97206C7.8464 4.97206 7.84628 4.97206 7.84617 4.97206C7.84605 4.97206 7.84593 4.97206 7.84581 4.97206C7.84569 4.97206 7.84557 4.97206 7.84546 4.97206C7.84534 4.97206 7.84522 4.97206 7.8451 4.97206C7.84498 4.97206 7.84486 4.97206 7.84474 4.97206C7.84462 4.97206 7.8445 4.97206 7.84438 4.97206C7.84426 4.97206 7.84414 4.97206 7.84402 4.97206C7.8439 4.97206 7.84378 4.97206 7.84366 4.97206C7.84353 4.97206 7.84341 4.97206 7.84329 4.97206C7.84317 4.97206 7.84305 4.97206 7.84293 4.97206C7.8428 4.97206 7.84268 4.97206 7.84256 4.97206C7.84244 4.97206 7.84231 4.97206 7.84219 4.97206C7.84207 4.97206 7.84195 4.97206 7.84182 4.97206C7.8417 4.97206 7.84158 4.97206 7.84145 4.97206C7.84133 4.97206 7.8412 4.97206 7.84108 4.97206C7.84096 4.97206 7.84083 4.97206 7.84071 4.97206C7.84058 4.97206 7.84046 4.97206 7.84033 4.97206C7.84021 4.97206 7.84008 4.97206 7.83996 4.97206C7.83983 4.97206 7.83971 4.97206 7.83958 4.97206C7.83946 4.97206 7.83933 4.97206 7.8392 4.97206C7.83908 4.97206 7.83895 4.97206 7.83882 4.97206C7.8387 4.97206 7.83857 4.97206 7.83844 4.97206C7.83832 4.97206 7.83819 4.97206 7.83806 4.97206C7.83793 4.97206 7.83781 4.97206 7.83768 4.97206C7.83755 4.97206 7.83742 4.97206 7.83729 4.97206C7.83717 4.97206 7.83704 4.97206 7.83691 4.97206C7.83678 4.97206 7.83665 4.97206 7.83652 4.97206C7.83639 4.97206 7.83626 4.97206 7.83613 4.97206C7.836 4.97206 7.83587 4.97206 7.83574 4.97206C7.83561 4.97206 7.83548 4.97206 7.83535 4.97206C7.83522 4.97206 7.83509 4.97206 7.83496 4.97206C7.83483 4.97206 7.8347 4.97206 7.83457 4.97206C7.83444 4.97206 7.83431 4.97206 7.83418 4.97206C7.83404 4.97206 7.83391 4.97206 7.83378 4.97206C7.83365 4.97206 7.83352 4.97206 7.83338 4.97206C7.83325 4.97206 7.83312 4.97206 7.83299 4.97206C7.83285 4.97206 7.83272 4.97206 7.83259 4.97206C7.83246 4.97206 7.83232 4.97206 7.83219 4.97206C7.83206 4.97206 7.83192 4.97206 7.83179 4.97206C7.83165 4.97206 7.83152 4.97206 7.83139 4.97206C7.83125 4.97206 7.83112 4.97206 7.83098 4.97206C7.83085 4.97206 7.83071 4.97206 7.83058 4.97206C7.83044 4.97206 7.83031 4.97206 7.83017 4.97206C7.83004 4.97206 7.8299 4.97206 7.82977 4.97206C7.82963 4.97206 7.82949 4.97206 7.82936 4.97206C7.82922 4.97206 7.82909 4.97206 7.82895 4.97206C7.82881 4.97206 7.82868 4.97206 7.82854 4.97206C7.8284 4.97206 7.82827 4.97206 7.82813 4.97206C7.82799 4.97206 7.82785 4.97206 7.82772 4.97206C7.82758 4.97206 7.82744 4.97206 7.8273 4.97206C7.82717 4.97206 7.82703 4.97206 7.82689 4.97206C7.82675 4.97206 7.82661 4.97206 7.82647 4.97206C7.82633 4.97206 7.8262 4.97206 7.82606 4.97206C7.82592 4.97206 7.82578 4.97206 7.82564 4.97206C7.8255 4.97206 7.82536 4.97206 7.82522 4.97206C7.82508 4.97206 7.82494 4.97206 7.8248 4.97206C7.82466 4.97206 7.82452 4.97206 7.82438 4.97206C7.82424 4.97206 7.8241 4.97206 7.82396 4.97206C7.82382 4.97206 7.82368 4.97206 7.82354 4.97206C7.82339 4.97206 7.82325 4.97206 7.82311 4.97206C7.82297 4.97206 7.82283 4.97206 7.82269 4.97206C7.82254 4.97206 7.8224 4.97206 7.82226 4.97206C7.82212 4.97206 7.82198 4.97206 7.82183 4.97206C7.82169 4.97206 7.82155 4.97206 7.82141 4.97206C7.82126 4.97206 7.82112 4.97206 7.82098 4.97206C7.82083 4.97206 7.82069 4.97206 7.82055 4.97206C7.8204 4.97206 7.82026 4.97206 7.82012 4.97206C7.81997 4.97206 7.81983 4.97206 7.81968 4.97206C7.81954 4.97206 7.81939 4.97206 7.81925 4.97206C7.81911 4.97206 7.81896 4.97206 7.81882 4.97206C7.81867 4.97206 7.81853 4.97206 7.81838 4.97206C7.81824 4.97206 7.81809 4.97206 7.81795 4.97206C7.8178 4.97206 7.81765 4.97206 7.81751 4.97206C7.81736 4.97206 7.81722 4.97206 7.81707 4.97206C7.81692 4.97206 7.81678 4.97206 7.81663 4.97206C7.81649 4.97206 7.81634 4.97206 7.81619 4.97206C7.81605 4.97206 7.8159 4.97206 7.81575 4.97206C7.8156 4.97206 7.81546 4.97206 7.81531 4.97206C7.81516 4.97206 7.81501 4.97206 7.81487 4.97206C7.81472 4.97206 7.81457 4.97206 7.81442 4.97206C7.81428 4.97206 7.81413 4.97206 7.81398 4.97206C7.81383 4.97206 7.81368 4.97206 7.81353 4.97206C7.81338 4.97206 7.81324 4.97206 7.81309 4.97206C7.81294 4.97206 7.81279 4.97206 7.81264 4.97206C7.81249 4.97206 7.81234 4.97206 7.81219 4.97206C7.81204 4.97206 7.81189 4.97206 7.81174 4.97206C7.81159 4.97206 7.81144 4.97206 7.81129 4.97206C7.81114 4.97206 7.81099 4.97206 7.81084 4.97206C7.81069 4.97206 7.81054 4.97206 7.81039 4.97206C7.81024 4.97206 7.81009 4.97206 7.80994 4.97206C7.80979 4.97206 7.80963 4.97206 7.80948 4.97206C7.80933 4.97206 7.80918 4.97206 7.80903 4.97206C7.80888 4.97206 7.80873 4.97206 7.80857 4.97206C7.80842 4.97206 7.80827 4.97206 7.80812 4.97206C7.80797 4.97206 7.80781 4.97206 7.80766 4.97206C7.80751 4.97206 7.80736 4.97206 7.8072 4.97206C7.80705 4.97206 7.8069 4.97206 7.80674 4.97206C7.80659 4.97206 7.80644 4.97206 7.80628 4.97206C7.80613 4.97206 7.80598 4.97206 7.80582 4.97206C7.80567 4.97206 7.80552 4.97206 7.80536 4.97206C7.80521 4.97206 7.80506 4.97206 7.8049 4.97206C7.80475 4.97206 7.80459 4.97206 7.80444 4.97206C7.80428 4.97206 7.80413 4.97206 7.80397 4.97206C7.80382 4.97206 7.80367 4.97206 7.80351 4.97206C7.80336 4.97206 7.8032 4.97206 7.80304 4.97206C7.80289 4.97206 7.80273 4.97206 7.80258 4.97206C7.80242 4.97206 7.80227 4.97206 7.80211 4.97206C7.80196 4.97206 7.8018 4.97206 7.80164 4.97206C7.80149 4.97206 7.80133 4.97206 7.80118 4.97206C7.80102 4.97206 7.80086 4.97206 7.80071 4.97206C7.80055 4.97206 7.80039 4.97206 7.80024 4.97206C7.80008 4.97206 7.79992 4.97206 7.79977 4.97206C7.79961 4.97206 7.79945 4.97206 7.79929 4.97206C7.79914 4.97206 7.79898 4.97206 7.79882 4.97206C7.79867 4.97206 7.79851 4.97206 7.79835 4.97206C7.79819 4.97206 7.79803 4.97206 7.79788 4.97206C7.79772 4.97206 7.79756 4.97206 7.7974 4.97206C7.79724 4.97206 7.79708 4.97206 7.79693 4.97206C7.79677 4.97206 7.79661 4.97206 7.79645 4.97206C7.79629 4.97206 7.79613 4.97206 7.79597 4.97206C7.79581 4.97206 7.79566 4.97206 7.7955 4.97206C7.79534 4.97206 7.79518 4.97206 7.79502 4.97206C7.79486 4.97206 7.7947 4.97206 7.79454 4.97206C7.79438 4.97206 7.79422 4.97206 7.79406 4.97206C7.7939 4.97206 7.79374 4.97206 7.79358 4.97206C7.79342 4.97206 7.79326 4.97206 7.7931 4.97206C7.79294 4.97206 7.79278 4.97206 7.79262 4.97206C7.79246 4.97206 7.7923 4.97206 7.79214 4.97206C7.79197 4.97206 7.79181 4.97206 7.79165 4.97206C7.79149 4.97206 7.79133 4.97206 7.79117 4.97206C7.79101 4.97206 7.79085 4.97206 7.79069 4.97206C7.79052 4.97206 7.79036 4.97206 7.7902 4.97206C7.79004 4.97206 7.78988 4.97206 7.78971 4.97206C7.78955 4.97206 7.78939 4.97206 7.78923 4.97206C7.78907 4.97206 7.7889 4.97206 7.78874 4.97206C7.78858 4.97206 7.78842 4.97206 7.78825 4.97206C7.78809 4.97206 7.78793 4.97206 7.78777 4.97206C7.7876 4.97206 7.78744 4.97206 7.78728 4.97206C7.78711 4.97206 7.78695 4.97206 7.78679 4.97206C7.78663 4.97206 7.78646 4.97206 7.7863 4.97206C7.78614 4.97206 7.78597 4.97206 7.78581 4.97206C7.78564 4.97206 7.78548 4.97206 7.78532 4.97206C7.78515 4.97206 7.78499 4.97206 7.78483 4.97206C7.78466 4.97206 7.7845 4.97206 7.78433 4.97206C7.78417 4.97206 7.784 4.97206 7.78384 4.97206C7.78368 4.97206 7.78351 4.97206 7.78335 4.97206C7.78318 4.97206 7.78302 4.97206 7.78285 4.97206C7.78269 4.97206 7.78252 4.97206 7.78236 4.97206C7.78219 4.97206 7.78203 4.97206 7.78186 4.97206C7.7817 4.97206 7.78153 4.97206 7.78137 4.97206C7.7812 4.97206 7.78104 4.97206 7.78087 4.97206C7.78071 4.97206 7.78054 4.97206 7.78037 4.97206C7.78021 4.97206 7.78004 4.97206 7.77988 4.97206C7.77971 4.97206 7.77954 4.97206 7.77938 4.97206C7.77921 4.97206 7.77905 4.97206 7.77888 4.97206C7.77871 4.97206 7.77855 4.97206 7.77838 4.97206C7.77821 4.97206 7.77805 4.97206 7.77788 4.97206C7.77772 4.97206 7.77755 4.97206 7.77738 4.97206C7.77721 4.97206 7.77705 4.97206 7.77688 4.97206C7.77671 4.97206 7.77655 4.97206 7.77638 4.97206C7.77621 4.97206 7.77605 4.97206 7.77588 4.97206C7.77571 4.97206 7.77554 4.97206 7.77538 4.97206C7.77521 4.97206 7.77504 4.97206 7.77487 4.97206C7.77471 4.97206 7.77454 4.97206 7.77437 4.97206C7.7742 4.97206 7.77404 4.97206 7.77387 4.97206C7.7737 4.97206 7.77353 4.97206 7.77336 4.97206C7.7732 4.97206 7.77303 4.97206 7.77286 4.97206C7.77269 4.97206 7.77252 4.97206 7.77235 4.97206C7.77219 4.97206 7.77202 4.97206 7.77185 4.97206C7.77168 4.97206 7.77151 4.97206 7.77134 4.97206C7.77117 4.97206 7.77101 4.97206 7.77084 4.97206C7.77067 4.97206 7.7705 4.97206 7.77033 4.97206C7.77016 4.97206 7.76999 4.97206 7.76982 4.97206C7.76965 4.97206 7.76948 4.97206 7.76931 4.97206C7.76915 4.97206 7.76898 4.97206 7.76881 4.97206C7.76864 4.97206 7.76847 4.97206 7.7683 4.97206C7.76813 4.97206 7.76796 4.97206 7.76779 4.97206C7.76762 4.97206 7.76745 4.97206 7.76728 4.97206C7.76711 4.97206 7.76694 4.97206 7.76677 4.97206C7.7666 4.97206 7.76643 4.97206 7.76626 4.97206C7.76609 4.97206 7.76592 4.97206 7.76575 4.97206C7.76558 4.97206 7.76541 4.97206 7.76524 4.97206C7.76507 4.97206 7.7649 4.97206 7.76473 4.97206C7.76456 4.97206 7.76439 4.97206 7.76422 4.97206C7.76405 4.97206 7.76387 4.97206 7.7637 4.97206C7.76353 4.97206 7.76336 4.97206 7.76319 4.97206C7.76302 4.97206 7.76285 4.97206 7.76268 4.97206C7.76251 4.97206 7.76234 4.97206 7.76217 4.97206C7.76199 4.97206 7.76182 4.97206 7.76165 4.97206C7.76148 4.97206 7.76131 4.97206 7.76114 4.97206C7.76097 4.97206 7.7608 4.97206 7.76062 4.97206C7.76045 4.97206 7.76028 4.97206 7.76011 4.97206C7.75994 4.97206 7.75977 4.97206 7.7596 4.97206C7.75942 4.97206 7.75925 4.97206 7.75908 4.97206C7.75891 4.97206 7.75874 4.97206 7.75856 4.97206C7.75839 4.97206 7.75822 4.97206 7.75805 4.97206C7.75788 4.97206 7.75771 4.97206 7.75753 4.97206C7.75736 4.97206 7.75719 4.97206 7.75702 4.97206C7.75684 4.97206 7.75667 4.97206 7.7565 4.97206C7.75633 4.97206 7.75616 4.97206 7.75598 4.97206C7.75581 4.97206 7.75564 4.97206 7.75547 4.97206C7.75529 4.97206 7.75512 4.97206 7.75495 4.97206C7.75478 4.97206 7.7546 4.97206 7.75443 4.97206C7.75426 4.97206 7.75408 4.97206 7.75391 4.97206C7.75374 4.97206 7.75357 4.97206 7.75339 4.97206C7.75322 4.97206 7.75305 4.97206 7.75288 4.97206C7.7527 4.97206 7.75253 4.97206 7.75236 4.97206C7.75218 4.97206 7.75201 4.97206 7.75184 4.97206C7.75166 4.97206 7.75149 4.97206 7.75132 4.97206C7.75114 4.97206 7.75097 4.97206 7.7508 4.97206C7.75062 4.97206 7.75045 4.97206 7.75028 4.97206C7.75011 4.97206 7.74993 4.97206 7.74976 4.97206C7.74958 4.97206 7.74941 4.97206 7.74924 4.97206C7.74906 4.97206 7.74889 4.97206 7.74872 4.97206C7.74854 4.97206 7.74837 4.97206 7.7482 4.97206C7.74802 4.97206 7.74785 4.97206 7.74768 4.97206C7.7475 4.97206 7.74733 4.97206 7.74715 4.97206C7.74698 4.97206 7.74681 4.97206 7.74663 4.97206C7.74646 4.97206 7.74629 4.97206 7.74611 4.97206C7.74594 4.97206 7.74576 4.97206 7.74559 4.97206C7.74542 4.97206 7.74524 4.97206 7.74507 4.97206C7.74489 4.97206 7.74472 4.97206 7.74455 4.97206C7.74437 4.97206 7.7442 4.97206 7.74402 4.97206C7.74385 4.97206 7.74368 4.97206 7.7435 4.97206C7.74333 4.97206 7.74315 4.97206 7.74298 4.97206C7.7428 4.97206 7.74263 4.97206 7.74246 4.97206C7.74228 4.97206 7.74211 4.97206 7.74193 4.97206C7.74176 4.97206 7.74158 4.97206 7.74141 4.97206C7.74124 4.97206 7.74106 4.97206 7.74089 4.97206C7.74071 4.97206 7.74054 4.97206 7.74036 4.97206C7.74019 4.97206 7.74001 4.97206 7.73984 4.97206C7.73967 4.97206 7.73949 4.97206 7.73932 4.97206C7.73914 4.97206 7.73897 4.97206 7.73879 4.97206C7.73862 4.97206 7.73844 4.97206 7.73827 4.97206C7.73809 4.97206 7.73792 4.97206 7.73775 4.97206C7.73757 4.97206 7.7374 4.97206 7.73722 4.97206C7.73705 4.97206 7.73687 4.97206 7.7367 4.97206C7.73652 4.97206 7.73635 4.97206 7.73617 4.97206C7.736 4.97206 7.73582 4.97206 7.73565 4.97206C7.73547 4.97206 7.7353 4.97206 7.73512 4.97206C7.73495 4.97206 7.73477 4.97206 7.7346 4.97206C7.73443 4.97206 7.73425 4.97206 7.73408 4.97206C7.7339 4.97206 7.73373 4.97206 7.73355 4.97206C7.73338 4.97206 7.7332 4.97206 7.73303 4.97206C7.73285 4.97206 7.73268 4.97206 7.7325 4.97206C7.73233 4.97206 7.73215 4.97206 7.73198 4.97206C7.7318 4.97206 7.73163 4.97206 7.73145 4.97206C7.73128 4.97206 7.7311 4.97206 7.73093 4.97206C7.73075 4.97206 7.73058 4.97206 7.7304 4.97206C7.73023 4.97206 7.73005 4.97206 7.72988 4.97206C7.7297 4.97206 7.72953 4.97206 7.72935 4.97206C7.72918 4.97206 7.729 4.97206 7.72883 4.97206C7.72865 4.97206 7.72848 4.97206 7.7283 4.97206C7.72813 4.97206 7.72795 4.97206 7.72778 4.97206C7.7276 4.97206 7.72743 4.97206 7.72725 4.97206C7.72708 4.97206 7.7269 4.97206 7.72673 4.97206C7.72655 4.97206 7.72638 4.97206 7.7262 4.97206C7.72603 4.97206 7.72585 4.97206 7.72568 4.97206C7.7255 4.97206 7.72533 4.97206 7.72515 4.97206C7.72498 4.97206 7.7248 4.97206 7.72463 4.97206C7.72445 4.97206 7.72428 4.97206 7.7241 4.97206C7.72393 4.97206 7.72375 4.97206 7.72358 4.97206C7.7234 4.97206 7.72323 4.97206 7.72305 4.97206C7.72288 4.97206 7.72271 4.97206 7.72253 4.97206C7.72236 4.97206 7.72218 4.97206 7.72201 4.97206C7.72183 4.97206 7.72166 4.97206 7.72148 4.97206C7.72131 4.97206 7.72113 4.97206 7.72096 4.97206C7.72078 4.97206 7.72061 4.97206 7.72043 4.97206C7.72026 4.97206 7.72008 4.97206 7.71991 4.97206C7.71973 4.97206 7.71956 4.97206 7.71938 4.97206C7.71921 4.97206 7.71903 4.97206 7.71886 4.97206C7.71868 4.97206 7.71851 4.97206 7.71834 4.97206C7.71816 4.97206 7.71799 4.97206 7.71781 4.97206C7.71764 4.97206 7.71746 4.97206 7.71729 4.97206C7.71711 4.97206 7.71694 4.97206 7.71676 4.97206C7.71659 4.97206 7.71641 4.97206 7.71624 4.97206C7.71607 4.97206 7.71589 4.97206 7.71572 4.97206C7.71554 4.97206 7.71537 4.97206 7.71519 4.97206C7.71502 4.97206 7.71484 4.97206 7.71467 4.97206C7.7145 4.97206 7.71432 4.97206 7.71415 4.97206C7.71397 4.97206 7.7138 4.97206 7.71362 4.97206C7.71345 4.97206 7.71327 4.97206 7.7131 4.97206C7.71293 4.97206 7.71275 4.97206 7.71258 4.97206C7.7124 4.97206 7.71223 4.97206 7.71206 4.97206C7.71188 4.97206 7.71171 4.97206 7.71153 4.97206C7.71136 4.97206 7.71118 4.97206 7.71101 4.97206C7.71084 4.97206 7.71066 4.97206 7.71049 4.97206C7.71031 4.97206 7.71014 4.97206 7.70997 4.97206C7.70979 4.97206 7.70962 4.97206 7.70944 4.97206C7.70927 4.97206 7.7091 4.97206 7.70892 4.97206C7.70875 4.97206 7.70858 4.97206 7.7084 4.97206C7.70823 4.97206 7.70805 4.97206 7.70788 4.97206C7.70771 4.97206 7.70753 4.97206 7.70736 4.97206C7.70719 4.97206 7.70701 4.97206 7.70684 4.97206C7.70667 4.97206 7.70649 4.97206 7.70632 4.97206C7.70615 4.97206 7.70597 4.97206 7.7058 4.97206C7.70563 4.97206 7.70545 4.97206 7.70528 4.97206C7.70511 4.97206 7.70493 4.97206 7.70476 4.97206C7.70459 4.97206 7.70441 4.97206 7.70424 4.97206C7.70407 4.97206 7.70389 4.97206 7.70372 4.97206C7.70355 4.97206 7.70337 4.97206 7.7032 4.97206C7.70303 4.97206 7.70285 4.97206 7.70268 4.97206C7.70251 4.97206 7.70234 4.97206 7.70216 4.97206C7.70199 4.97206 7.70182 4.97206 7.70164 4.97206C7.70147 4.97206 7.7013 4.97206 7.70113 4.97206C7.70095 4.97206 7.70078 4.97206 7.70061 4.97206C7.70044 4.97206 7.70026 4.97206 7.70009 4.97206C7.69992 4.97206 7.69975 4.97206 7.69957 4.97206C7.6994 4.97206 7.69923 4.97206 7.69906 4.97206C7.69888 4.97206 7.69871 4.97206 7.69854 4.97206C7.69837 4.97206 7.6982 4.97206 7.69802 4.97206C7.69785 4.97206 7.69768 4.97206 7.69751 4.97206C7.69734 4.97206 7.69716 4.97206 7.69699 4.97206C7.69682 4.97206 7.69665 4.97206 7.69648 4.97206C7.6963 4.97206 7.69613 4.97206 7.69596 4.97206C7.69579 4.97206 7.69562 4.97206 7.69545 4.97206C7.69527 4.97206 7.6951 4.97206 7.69493 4.97206C7.69476 4.97206 7.69459 4.97206 7.69442 4.97206C7.69425 4.97206 7.69408 4.97206 7.6939 4.97206C7.69373 4.97206 7.69356 4.97206 7.69339 4.97206C7.69322 4.97206 7.69305 4.97206 7.69288 4.97206C7.69271 4.97206 7.69254 4.97206 7.69236 4.97206C7.69219 4.97206 7.69202 4.97206 7.69185 4.97206C7.69168 4.97206 7.69151 4.97206 7.69134 4.97206C7.69117 4.97206 7.691 4.97206 7.69083 4.97206C7.69066 4.97206 7.69049 4.97206 7.69032 4.97206C7.69015 4.97206 7.68998 4.97206 7.68981 4.97206C7.68964 4.97206 7.68947 4.97206 7.6893 4.97206C7.68913 4.97206 7.68896 4.97206 7.68879 4.97206C7.68862 4.97206 7.68845 4.97206 7.68828 4.97206C7.68811 4.97206 7.68794 4.97206 7.68777 4.97206C7.6876 4.97206 7.68743 4.97206 7.68726 4.97206C7.68709 4.97206 7.68692 4.97206 7.68675 4.97206C7.68658 4.97206 7.68641 4.97206 7.68624 4.97206C7.68607 4.97206 7.6859 4.97206 7.68573 4.97206C7.68557 4.97206 7.6854 4.97206 7.68523 4.97206C7.68506 4.97206 7.68489 4.97206 7.68472 4.97206C7.68455 4.97206 7.68438 4.97206 7.68421 4.97206C7.68405 4.97206 7.68388 4.97206 7.68371 4.97206C7.68354 4.97206 7.68337 4.97206 7.6832 4.97206C7.68303 4.97206 7.68287 4.97206 7.6827 4.97206C7.68253 4.97206 7.68236 4.97206 7.68219 4.97206C7.68203 4.97206 7.68186 4.97206 7.68169 4.97206C7.68152 4.97206 7.68135 4.97206 7.68119 4.97206C7.68102 4.97206 7.68085 4.97206 7.68068 4.97206C7.68052 4.97206 7.68035 4.97206 7.68018 4.97206C7.68001 4.97206 7.67985 4.97206 7.67968 4.97206C7.67951 4.97206 7.67934 4.97206 7.67918 4.97206C7.67901 4.97206 7.67884 4.97206 7.67868 4.97206C7.67851 4.97206 7.67834 4.97206 7.67818 4.97206C7.67801 4.97206 7.67784 4.97206 7.67768 4.97206C7.67751 4.97206 7.67734 4.97206 7.67718 4.97206C7.67701 4.97206 7.67684 4.97206 7.67668 4.97206C7.67651 4.97206 7.67634 4.97206 7.67618 4.97206C7.67601 4.97206 7.67585 4.97206 7.67568 4.97206C7.67551 4.97206 7.67535 4.97206 7.67518 4.97206C7.67502 4.97206 7.67485 4.97206 7.67469 4.97206C7.67452 4.97206 7.67435 4.97206 7.67419 4.97206C7.67402 4.97206 7.67386 4.97206 7.67369 4.97206C7.67353 4.97206 7.67336 4.97206 7.6732 4.97206C7.67303 4.97206 7.67287 4.97206 7.6727 4.97206C7.67254 4.97206 7.67237 4.97206 7.67221 4.97206C7.67205 4.97206 7.67188 4.97206 7.67172 4.97206C7.67155 4.97206 7.67139 4.97206 7.67122 4.97206C7.67106 4.97206 7.6709 4.97206 7.67073 4.97206C7.67057 4.97206 7.6704 4.97206 7.67024 4.97206C7.67008 4.97206 7.66991 4.97206 7.66975 4.97206C7.66958 4.97206 7.66942 4.97206 7.66926 4.97206C7.66909 4.97206 7.66893 4.97206 7.66877 4.97206C7.6686 4.97206 7.66844 4.97206 7.66828 4.97206C7.66812 4.97206 7.66795 4.97206 7.66779 4.97206C7.66763 4.97206 7.66746 4.97206 7.6673 4.97206C7.66714 4.97206 7.66698 4.97206 7.66681 4.97206C7.66665 4.97206 7.66649 4.97206 7.66633 4.97206C7.66617 4.97206 7.666 4.97206 7.66584 4.97206C7.66568 4.97206 7.66552 4.97206 7.66536 4.97206C7.66519 4.97206 7.66503 4.97206 7.66487 4.97206C7.66471 4.97206 7.66455 4.97206 7.66439 4.97206C7.66423 4.97206 7.66406 4.97206 7.6639 4.97206C7.66374 4.97206 7.66358 4.97206 7.66342 4.97206C7.66326 4.97206 7.6631 4.97206 7.66294 4.97206C7.66278 4.97206 7.66262 4.97206 7.66246 4.97206C7.6623 4.97206 7.66214 4.97206 7.66198 4.97206C7.66182 4.97206 7.66166 4.97206 7.6615 4.97206C7.66134 4.97206 7.66118 4.97206 7.66102 4.97206C7.66086 4.97206 7.6607 4.97206 7.66054 4.97206C7.66038 4.97206 7.66022 4.97206 7.66006 4.97206C7.6599 4.97206 7.65974 4.97206 7.65958 4.97206C7.65942 4.97206 7.65926 4.97206 7.65911 4.97206C7.65895 4.97206 7.65879 4.97206 7.65863 4.97206C7.65847 4.97206 7.65831 4.97206 7.65816 4.97206C7.658 4.97206 7.65784 4.97206 7.65768 4.97206C7.65752 4.97206 7.65736 4.97206 7.65721 4.97206C7.65705 4.97206 7.65689 4.97206 7.65673 4.97206C7.65658 4.97206 7.65642 4.97206 7.65626 4.97206C7.6561 4.97206 7.65595 4.97206 7.65579 4.97206C7.65563 4.97206 7.65548 4.97206 7.65532 4.97206C7.65516 4.97206 7.65501 4.97206 7.65485 4.97206C7.65469 4.97206 7.65454 4.97206 7.65438 4.97206C7.65422 4.97206 7.65407 4.97206 7.65391 4.97206C7.65376 4.97206 7.6536 4.97206 7.65344 4.97206C7.65329 4.97206 7.65313 4.97206 7.65298 4.97206C7.65282 4.97206 7.65267 4.97206 7.65251 4.97206C7.65236 4.97206 7.6522 4.97206 7.65205 4.97206C7.65189 4.97206 7.65174 4.97206 7.65158 4.97206C7.65143 4.97206 7.65127 4.97206 7.65112 4.97206C7.65096 4.97206 7.65081 4.97206 7.65066 4.97206C7.6505 4.97206 7.65035 4.97206 7.65019 4.97206C7.65004 4.97206 7.64989 4.97206 7.64973 4.97206C7.64958 4.97206 7.64943 4.97206 7.64927 4.97206C7.64912 4.97206 7.64897 4.97206 7.64881 4.97206C7.64866 4.97206 7.64851 4.97206 7.64835 4.97206C7.6482 4.97206 7.64805 4.97206 7.6479 4.97206C7.64774 4.97206 7.64759 4.97206 7.64744 4.97206C7.64729 4.97206 7.64713 4.97206 7.64698 4.97206C7.64683 4.97206 7.64668 4.97206 7.64653 4.97206C7.64638 4.97206 7.64622 4.97206 7.64607 4.97206C7.64592 4.97206 7.64577 4.97206 7.64562 4.97206C7.64547 4.97206 7.64532 4.97206 7.64517 4.97206C7.64502 4.97206 7.64487 4.97206 7.64472 4.97206C7.64457 4.97206 7.64441 4.97206 7.64426 4.97206C7.64411 4.97206 7.64396 4.97206 7.64381 4.97206C7.64366 4.97206 7.64352 4.97206 7.64337 4.97206C7.64322 4.97206 7.64307 4.97206 7.64292 4.97206C7.64277 4.97206 7.64262 4.97206 7.64247 4.97206C7.64232 4.97206 7.64217 4.97206 7.64202 4.97206C7.64187 4.97206 7.64173 4.97206 7.64158 4.97206C7.64143 4.97206 7.64128 4.97206 7.64113 4.97206C7.64099 4.97206 7.64084 4.97206 7.64069 4.97206C7.64054 4.97206 7.64039 4.97206 7.64025 4.97206C7.6401 4.97206 7.63995 4.97206 7.63981 4.97206C7.63966 4.97206 7.63951 4.97206 7.63936 4.97206C7.63922 4.97206 7.63907 4.97206 7.63892 4.97206C7.63878 4.97206 7.63863 4.97206 7.63849 4.97206C7.63834 4.97206 7.63819 4.97206 7.63805 4.97206C7.6379 4.97206 7.63776 4.97206 7.63761 4.97206C7.63747 4.97206 7.63732 4.97206 7.63718 4.97206C7.63703 4.97206 7.63689 4.97206 7.63674 4.97206C7.6366 4.97206 7.63645 4.97206 7.63631 4.97206C7.63616 4.97206 7.63602 4.97206 7.63587 4.97206C7.63573 4.97206 7.63558 4.97206 7.63544 4.97206C7.6353 4.97206 7.63515 4.97206 7.63501 4.97206C7.63487 4.97206 7.63472 4.97206 7.63458 4.97206C7.63444 4.97206 7.63429 4.97206 7.63415 4.97206C7.63401 4.97206 7.63387 4.97206 7.63372 4.97206C7.63358 4.97206 7.63344 4.97206 7.6333 4.97206C7.63315 4.97206 7.63301 4.97206 7.63287 4.97206C7.63273 4.97206 7.63259 4.97206 7.63245 4.97206C7.6323 4.97206 7.63216 4.97206 7.63202 4.97206C7.63188 4.97206 7.63174 4.97206 7.6316 4.97206C7.63146 4.97206 7.63132 4.97206 7.63118 4.97206C7.63104 4.97206 7.6309 4.97206 7.63076 4.97206C7.63062 4.97206 7.63048 4.97206 7.63034 4.97206C7.6302 4.97206 7.63006 4.97206 7.62992 4.97206C7.62978 4.97206 7.62964 4.97206 7.6295 4.97206C7.62936 4.97206 7.62922 4.97206 7.62908 4.97206C7.62894 4.97206 7.62881 4.97206 7.62867 4.97206C7.62853 4.97206 7.62839 4.97206 7.62825 4.97206C7.62812 4.97206 7.62798 4.97206 7.62784 4.97206C7.6277 4.97206 7.62757 4.97206 7.62743 4.97206C7.62729 4.97206 7.62715 4.97206 7.62702 4.97206C7.62688 4.97206 7.62674 4.97206 7.62661 4.97206C7.62647 4.97206 7.62633 4.97206 7.6262 4.97206C7.62606 4.97206 7.62593 4.97206 7.62579 4.97206C7.62565 4.97206 7.62552 4.97206 7.62538 4.97206C7.62525 4.97206 7.62511 4.97206 7.62498 4.97206C7.62484 4.97206 7.62471 4.97206 7.62457 4.97206C7.62444 4.97206 7.62431 4.97206 7.62417 4.97206C7.62404 4.97206 7.6239 4.97206 7.62377 4.97206C7.62364 4.97206 7.6235 4.97206 7.62337 4.97206C7.62323 4.97206 7.6231 4.97206 7.62297 4.97206C7.62284 4.97206 7.6227 4.97206 7.62257 4.97206C7.62244 4.97206 7.6223 4.97206 7.62217 4.97206C7.62204 4.97206 7.62191 4.97206 7.62178 4.97206C7.62164 4.97206 7.62151 4.97206 7.62138 4.97206C7.62125 4.97206 7.62112 4.97206 7.62099 4.97206C7.62086 4.97206 7.62072 4.97206 7.62059 4.97206C7.62046 4.97206 7.62033 4.97206 7.6202 4.97206C7.62007 4.97206 7.61994 4.97206 7.61981 4.97206C7.61968 4.97206 7.61955 4.97206 7.61942 4.97206C7.61929 4.97206 7.61916 4.97206 7.61904 4.97206C7.61891 4.97206 7.61878 4.97206 7.61865 4.97206C7.61852 4.97206 7.61839 4.97206 7.61826 4.97206C7.61813 4.97206 7.61801 4.97206 7.61788 4.97206C7.61775 4.97206 7.61762 4.97206 7.6175 4.97206C7.61737 4.97206 7.61724 4.97206 7.61711 4.97206C7.61699 4.97206 7.61686 4.97206 7.61673 4.97206C7.61661 4.97206 7.61648 4.97206 7.61635 4.97206C7.61623 4.97206 7.6161 4.97206 7.61598 4.97206C7.61585 4.97206 7.61572 4.97206 7.6156 4.97206C7.61547 4.97206 7.61535 4.97206 7.61522 4.97206C7.6151 4.97206 7.61497 4.97206 7.61485 4.97206C7.61472 4.97206 7.6146 4.97206 7.61448 4.97206C7.61435 4.97206 7.61423 4.97206 7.6141 4.97206C7.61398 4.97206 7.61386 4.97206 7.61373 4.97206C7.61361 4.97206 7.61349 4.97206 7.61336 4.97206C7.61324 4.97206 7.61312 4.97206 7.613 4.97206C7.61287 4.97206 7.61275 4.97206 7.61263 4.97206C7.61251 4.97206 7.61239 4.97206 7.61226 4.97206C7.61214 4.97206 7.61202 4.97206 7.6119 4.97206C7.61178 4.97206 7.61166 4.97206 7.61154 4.97206C7.61142 4.97206 7.6113 4.97206 7.61118 4.97206C7.61106 4.97206 7.61094 4.97206 7.61082 4.97206C7.6107 4.97206 7.61058 4.97206 7.61046 4.97206C7.61034 4.97206 7.61022 4.97206 7.6101 4.97206C7.60998 4.97206 7.60986 4.97206 7.60974 4.97206C7.60963 4.97206 7.60951 4.97206 7.60939 4.97206C7.60927 4.97206 7.60915 4.97206 7.60904 4.97206C7.60892 4.97206 7.6088 4.97206 7.60868 4.97206C7.60857 4.97206 7.60845 4.97206 7.60833 4.97206V5.72206V6.47206C7.60845 6.47206 7.60857 6.47206 7.60868 6.47206C7.6088 6.47206 7.60892 6.47206 7.60904 6.47206C7.60915 6.47206 7.60927 6.47206 7.60939 6.47206C7.60951 6.47206 7.60963 6.47206 7.60974 6.47206C7.60986 6.47206 7.60998 6.47206 7.6101 6.47206C7.61022 6.47206 7.61034 6.47206 7.61046 6.47206C7.61058 6.47206 7.6107 6.47206 7.61082 6.47206C7.61094 6.47206 7.61106 6.47206 7.61118 6.47206C7.6113 6.47206 7.61142 6.47206 7.61154 6.47206C7.61166 6.47206 7.61178 6.47206 7.6119 6.47206C7.61202 6.47206 7.61214 6.47206 7.61226 6.47206C7.61239 6.47206 7.61251 6.47206 7.61263 6.47206C7.61275 6.47206 7.61287 6.47206 7.613 6.47206C7.61312 6.47206 7.61324 6.47206 7.61336 6.47206C7.61349 6.47206 7.61361 6.47206 7.61373 6.47206C7.61386 6.47206 7.61398 6.47206 7.6141 6.47206C7.61423 6.47206 7.61435 6.47206 7.61448 6.47206C7.6146 6.47206 7.61472 6.47206 7.61485 6.47206C7.61497 6.47206 7.6151 6.47206 7.61522 6.47206C7.61535 6.47206 7.61547 6.47206 7.6156 6.47206C7.61572 6.47206 7.61585 6.47206 7.61598 6.47206C7.6161 6.47206 7.61623 6.47206 7.61635 6.47206C7.61648 6.47206 7.61661 6.47206 7.61673 6.47206C7.61686 6.47206 7.61699 6.47206 7.61711 6.47206C7.61724 6.47206 7.61737 6.47206 7.6175 6.47206C7.61762 6.47206 7.61775 6.47206 7.61788 6.47206C7.61801 6.47206 7.61813 6.47206 7.61826 6.47206C7.61839 6.47206 7.61852 6.47206 7.61865 6.47206C7.61878 6.47206 7.61891 6.47206 7.61904 6.47206C7.61916 6.47206 7.61929 6.47206 7.61942 6.47206C7.61955 6.47206 7.61968 6.47206 7.61981 6.47206C7.61994 6.47206 7.62007 6.47206 7.6202 6.47206C7.62033 6.47206 7.62046 6.47206 7.62059 6.47206C7.62072 6.47206 7.62086 6.47206 7.62099 6.47206C7.62112 6.47206 7.62125 6.47206 7.62138 6.47206C7.62151 6.47206 7.62164 6.47206 7.62178 6.47206C7.62191 6.47206 7.62204 6.47206 7.62217 6.47206C7.6223 6.47206 7.62244 6.47206 7.62257 6.47206C7.6227 6.47206 7.62284 6.47206 7.62297 6.47206C7.6231 6.47206 7.62323 6.47206 7.62337 6.47206C7.6235 6.47206 7.62364 6.47206 7.62377 6.47206C7.6239 6.47206 7.62404 6.47206 7.62417 6.47206C7.62431 6.47206 7.62444 6.47206 7.62457 6.47206C7.62471 6.47206 7.62484 6.47206 7.62498 6.47206C7.62511 6.47206 7.62525 6.47206 7.62538 6.47206C7.62552 6.47206 7.62565 6.47206 7.62579 6.47206C7.62593 6.47206 7.62606 6.47206 7.6262 6.47206C7.62633 6.47206 7.62647 6.47206 7.62661 6.47206C7.62674 6.47206 7.62688 6.47206 7.62702 6.47206C7.62715 6.47206 7.62729 6.47206 7.62743 6.47206C7.62757 6.47206 7.6277 6.47206 7.62784 6.47206C7.62798 6.47206 7.62812 6.47206 7.62825 6.47206C7.62839 6.47206 7.62853 6.47206 7.62867 6.47206C7.62881 6.47206 7.62894 6.47206 7.62908 6.47206C7.62922 6.47206 7.62936 6.47206 7.6295 6.47206C7.62964 6.47206 7.62978 6.47206 7.62992 6.47206C7.63006 6.47206 7.6302 6.47206 7.63034 6.47206C7.63048 6.47206 7.63062 6.47206 7.63076 6.47206C7.6309 6.47206 7.63104 6.47206 7.63118 6.47206C7.63132 6.47206 7.63146 6.47206 7.6316 6.47206C7.63174 6.47206 7.63188 6.47206 7.63202 6.47206C7.63216 6.47206 7.6323 6.47206 7.63245 6.47206C7.63259 6.47206 7.63273 6.47206 7.63287 6.47206C7.63301 6.47206 7.63315 6.47206 7.6333 6.47206C7.63344 6.47206 7.63358 6.47206 7.63372 6.47206C7.63387 6.47206 7.63401 6.47206 7.63415 6.47206C7.63429 6.47206 7.63444 6.47206 7.63458 6.47206C7.63472 6.47206 7.63487 6.47206 7.63501 6.47206C7.63515 6.47206 7.6353 6.47206 7.63544 6.47206C7.63558 6.47206 7.63573 6.47206 7.63587 6.47206C7.63602 6.47206 7.63616 6.47206 7.63631 6.47206C7.63645 6.47206 7.6366 6.47206 7.63674 6.47206C7.63689 6.47206 7.63703 6.47206 7.63718 6.47206C7.63732 6.47206 7.63747 6.47206 7.63761 6.47206C7.63776 6.47206 7.6379 6.47206 7.63805 6.47206C7.63819 6.47206 7.63834 6.47206 7.63849 6.47206C7.63863 6.47206 7.63878 6.47206 7.63892 6.47206C7.63907 6.47206 7.63922 6.47206 7.63936 6.47206C7.63951 6.47206 7.63966 6.47206 7.63981 6.47206C7.63995 6.47206 7.6401 6.47206 7.64025 6.47206C7.64039 6.47206 7.64054 6.47206 7.64069 6.47206C7.64084 6.47206 7.64099 6.47206 7.64113 6.47206C7.64128 6.47206 7.64143 6.47206 7.64158 6.47206C7.64173 6.47206 7.64187 6.47206 7.64202 6.47206C7.64217 6.47206 7.64232 6.47206 7.64247 6.47206C7.64262 6.47206 7.64277 6.47206 7.64292 6.47206C7.64307 6.47206 7.64322 6.47206 7.64337 6.47206C7.64352 6.47206 7.64366 6.47206 7.64381 6.47206C7.64396 6.47206 7.64411 6.47206 7.64426 6.47206C7.64441 6.47206 7.64457 6.47206 7.64472 6.47206C7.64487 6.47206 7.64502 6.47206 7.64517 6.47206C7.64532 6.47206 7.64547 6.47206 7.64562 6.47206C7.64577 6.47206 7.64592 6.47206 7.64607 6.47206C7.64622 6.47206 7.64638 6.47206 7.64653 6.47206C7.64668 6.47206 7.64683 6.47206 7.64698 6.47206C7.64713 6.47206 7.64729 6.47206 7.64744 6.47206C7.64759 6.47206 7.64774 6.47206 7.6479 6.47206C7.64805 6.47206 7.6482 6.47206 7.64835 6.47206C7.64851 6.47206 7.64866 6.47206 7.64881 6.47206C7.64897 6.47206 7.64912 6.47206 7.64927 6.47206C7.64943 6.47206 7.64958 6.47206 7.64973 6.47206C7.64989 6.47206 7.65004 6.47206 7.65019 6.47206C7.65035 6.47206 7.6505 6.47206 7.65066 6.47206C7.65081 6.47206 7.65096 6.47206 7.65112 6.47206C7.65127 6.47206 7.65143 6.47206 7.65158 6.47206C7.65174 6.47206 7.65189 6.47206 7.65205 6.47206C7.6522 6.47206 7.65236 6.47206 7.65251 6.47206C7.65267 6.47206 7.65282 6.47206 7.65298 6.47206C7.65313 6.47206 7.65329 6.47206 7.65344 6.47206C7.6536 6.47206 7.65376 6.47206 7.65391 6.47206C7.65407 6.47206 7.65422 6.47206 7.65438 6.47206C7.65454 6.47206 7.65469 6.47206 7.65485 6.47206C7.65501 6.47206 7.65516 6.47206 7.65532 6.47206C7.65548 6.47206 7.65563 6.47206 7.65579 6.47206C7.65595 6.47206 7.6561 6.47206 7.65626 6.47206C7.65642 6.47206 7.65658 6.47206 7.65673 6.47206C7.65689 6.47206 7.65705 6.47206 7.65721 6.47206C7.65736 6.47206 7.65752 6.47206 7.65768 6.47206C7.65784 6.47206 7.658 6.47206 7.65816 6.47206C7.65831 6.47206 7.65847 6.47206 7.65863 6.47206C7.65879 6.47206 7.65895 6.47206 7.65911 6.47206C7.65926 6.47206 7.65942 6.47206 7.65958 6.47206C7.65974 6.47206 7.6599 6.47206 7.66006 6.47206C7.66022 6.47206 7.66038 6.47206 7.66054 6.47206C7.6607 6.47206 7.66086 6.47206 7.66102 6.47206C7.66118 6.47206 7.66134 6.47206 7.6615 6.47206C7.66166 6.47206 7.66182 6.47206 7.66198 6.47206C7.66214 6.47206 7.6623 6.47206 7.66246 6.47206C7.66262 6.47206 7.66278 6.47206 7.66294 6.47206C7.6631 6.47206 7.66326 6.47206 7.66342 6.47206C7.66358 6.47206 7.66374 6.47206 7.6639 6.47206C7.66406 6.47206 7.66423 6.47206 7.66439 6.47206C7.66455 6.47206 7.66471 6.47206 7.66487 6.47206C7.66503 6.47206 7.66519 6.47206 7.66536 6.47206C7.66552 6.47206 7.66568 6.47206 7.66584 6.47206C7.666 6.47206 7.66617 6.47206 7.66633 6.47206C7.66649 6.47206 7.66665 6.47206 7.66681 6.47206C7.66698 6.47206 7.66714 6.47206 7.6673 6.47206C7.66746 6.47206 7.66763 6.47206 7.66779 6.47206C7.66795 6.47206 7.66812 6.47206 7.66828 6.47206C7.66844 6.47206 7.6686 6.47206 7.66877 6.47206C7.66893 6.47206 7.66909 6.47206 7.66926 6.47206C7.66942 6.47206 7.66958 6.47206 7.66975 6.47206C7.66991 6.47206 7.67008 6.47206 7.67024 6.47206C7.6704 6.47206 7.67057 6.47206 7.67073 6.47206C7.6709 6.47206 7.67106 6.47206 7.67122 6.47206C7.67139 6.47206 7.67155 6.47206 7.67172 6.47206C7.67188 6.47206 7.67205 6.47206 7.67221 6.47206C7.67237 6.47206 7.67254 6.47206 7.6727 6.47206C7.67287 6.47206 7.67303 6.47206 7.6732 6.47206C7.67336 6.47206 7.67353 6.47206 7.67369 6.47206C7.67386 6.47206 7.67402 6.47206 7.67419 6.47206C7.67435 6.47206 7.67452 6.47206 7.67469 6.47206C7.67485 6.47206 7.67502 6.47206 7.67518 6.47206C7.67535 6.47206 7.67551 6.47206 7.67568 6.47206C7.67585 6.47206 7.67601 6.47206 7.67618 6.47206C7.67634 6.47206 7.67651 6.47206 7.67668 6.47206C7.67684 6.47206 7.67701 6.47206 7.67718 6.47206C7.67734 6.47206 7.67751 6.47206 7.67768 6.47206C7.67784 6.47206 7.67801 6.47206 7.67818 6.47206C7.67834 6.47206 7.67851 6.47206 7.67868 6.47206C7.67884 6.47206 7.67901 6.47206 7.67918 6.47206C7.67934 6.47206 7.67951 6.47206 7.67968 6.47206C7.67985 6.47206 7.68001 6.47206 7.68018 6.47206C7.68035 6.47206 7.68052 6.47206 7.68068 6.47206C7.68085 6.47206 7.68102 6.47206 7.68119 6.47206C7.68135 6.47206 7.68152 6.47206 7.68169 6.47206C7.68186 6.47206 7.68203 6.47206 7.68219 6.47206C7.68236 6.47206 7.68253 6.47206 7.6827 6.47206C7.68287 6.47206 7.68303 6.47206 7.6832 6.47206C7.68337 6.47206 7.68354 6.47206 7.68371 6.47206C7.68388 6.47206 7.68405 6.47206 7.68421 6.47206C7.68438 6.47206 7.68455 6.47206 7.68472 6.47206C7.68489 6.47206 7.68506 6.47206 7.68523 6.47206C7.6854 6.47206 7.68557 6.47206 7.68573 6.47206C7.6859 6.47206 7.68607 6.47206 7.68624 6.47206C7.68641 6.47206 7.68658 6.47206 7.68675 6.47206C7.68692 6.47206 7.68709 6.47206 7.68726 6.47206C7.68743 6.47206 7.6876 6.47206 7.68777 6.47206C7.68794 6.47206 7.68811 6.47206 7.68828 6.47206C7.68845 6.47206 7.68862 6.47206 7.68879 6.47206C7.68896 6.47206 7.68913 6.47206 7.6893 6.47206C7.68947 6.47206 7.68964 6.47206 7.68981 6.47206C7.68998 6.47206 7.69015 6.47206 7.69032 6.47206C7.69049 6.47206 7.69066 6.47206 7.69083 6.47206C7.691 6.47206 7.69117 6.47206 7.69134 6.47206C7.69151 6.47206 7.69168 6.47206 7.69185 6.47206C7.69202 6.47206 7.69219 6.47206 7.69236 6.47206C7.69254 6.47206 7.69271 6.47206 7.69288 6.47206C7.69305 6.47206 7.69322 6.47206 7.69339 6.47206C7.69356 6.47206 7.69373 6.47206 7.6939 6.47206C7.69408 6.47206 7.69425 6.47206 7.69442 6.47206C7.69459 6.47206 7.69476 6.47206 7.69493 6.47206C7.6951 6.47206 7.69527 6.47206 7.69545 6.47206C7.69562 6.47206 7.69579 6.47206 7.69596 6.47206C7.69613 6.47206 7.6963 6.47206 7.69648 6.47206C7.69665 6.47206 7.69682 6.47206 7.69699 6.47206C7.69716 6.47206 7.69734 6.47206 7.69751 6.47206C7.69768 6.47206 7.69785 6.47206 7.69802 6.47206C7.6982 6.47206 7.69837 6.47206 7.69854 6.47206C7.69871 6.47206 7.69888 6.47206 7.69906 6.47206C7.69923 6.47206 7.6994 6.47206 7.69957 6.47206C7.69975 6.47206 7.69992 6.47206 7.70009 6.47206C7.70026 6.47206 7.70044 6.47206 7.70061 6.47206C7.70078 6.47206 7.70095 6.47206 7.70113 6.47206C7.7013 6.47206 7.70147 6.47206 7.70164 6.47206C7.70182 6.47206 7.70199 6.47206 7.70216 6.47206C7.70234 6.47206 7.70251 6.47206 7.70268 6.47206C7.70285 6.47206 7.70303 6.47206 7.7032 6.47206C7.70337 6.47206 7.70355 6.47206 7.70372 6.47206C7.70389 6.47206 7.70407 6.47206 7.70424 6.47206C7.70441 6.47206 7.70459 6.47206 7.70476 6.47206C7.70493 6.47206 7.70511 6.47206 7.70528 6.47206C7.70545 6.47206 7.70563 6.47206 7.7058 6.47206C7.70597 6.47206 7.70615 6.47206 7.70632 6.47206C7.70649 6.47206 7.70667 6.47206 7.70684 6.47206C7.70701 6.47206 7.70719 6.47206 7.70736 6.47206C7.70753 6.47206 7.70771 6.47206 7.70788 6.47206C7.70805 6.47206 7.70823 6.47206 7.7084 6.47206C7.70858 6.47206 7.70875 6.47206 7.70892 6.47206C7.7091 6.47206 7.70927 6.47206 7.70944 6.47206C7.70962 6.47206 7.70979 6.47206 7.70997 6.47206C7.71014 6.47206 7.71031 6.47206 7.71049 6.47206C7.71066 6.47206 7.71084 6.47206 7.71101 6.47206C7.71118 6.47206 7.71136 6.47206 7.71153 6.47206C7.71171 6.47206 7.71188 6.47206 7.71206 6.47206C7.71223 6.47206 7.7124 6.47206 7.71258 6.47206C7.71275 6.47206 7.71293 6.47206 7.7131 6.47206C7.71327 6.47206 7.71345 6.47206 7.71362 6.47206C7.7138 6.47206 7.71397 6.47206 7.71415 6.47206C7.71432 6.47206 7.7145 6.47206 7.71467 6.47206C7.71484 6.47206 7.71502 6.47206 7.71519 6.47206C7.71537 6.47206 7.71554 6.47206 7.71572 6.47206C7.71589 6.47206 7.71607 6.47206 7.71624 6.47206C7.71641 6.47206 7.71659 6.47206 7.71676 6.47206C7.71694 6.47206 7.71711 6.47206 7.71729 6.47206C7.71746 6.47206 7.71764 6.47206 7.71781 6.47206C7.71799 6.47206 7.71816 6.47206 7.71834 6.47206C7.71851 6.47206 7.71868 6.47206 7.71886 6.47206C7.71903 6.47206 7.71921 6.47206 7.71938 6.47206C7.71956 6.47206 7.71973 6.47206 7.71991 6.47206C7.72008 6.47206 7.72026 6.47206 7.72043 6.47206C7.72061 6.47206 7.72078 6.47206 7.72096 6.47206C7.72113 6.47206 7.72131 6.47206 7.72148 6.47206C7.72166 6.47206 7.72183 6.47206 7.72201 6.47206C7.72218 6.47206 7.72236 6.47206 7.72253 6.47206C7.72271 6.47206 7.72288 6.47206 7.72305 6.47206C7.72323 6.47206 7.7234 6.47206 7.72358 6.47206C7.72375 6.47206 7.72393 6.47206 7.7241 6.47206C7.72428 6.47206 7.72445 6.47206 7.72463 6.47206C7.7248 6.47206 7.72498 6.47206 7.72515 6.47206C7.72533 6.47206 7.7255 6.47206 7.72568 6.47206C7.72585 6.47206 7.72603 6.47206 7.7262 6.47206C7.72638 6.47206 7.72655 6.47206 7.72673 6.47206C7.7269 6.47206 7.72708 6.47206 7.72725 6.47206C7.72743 6.47206 7.7276 6.47206 7.72778 6.47206C7.72795 6.47206 7.72813 6.47206 7.7283 6.47206C7.72848 6.47206 7.72865 6.47206 7.72883 6.47206C7.729 6.47206 7.72918 6.47206 7.72935 6.47206C7.72953 6.47206 7.7297 6.47206 7.72988 6.47206C7.73005 6.47206 7.73023 6.47206 7.7304 6.47206C7.73058 6.47206 7.73075 6.47206 7.73093 6.47206C7.7311 6.47206 7.73128 6.47206 7.73145 6.47206C7.73163 6.47206 7.7318 6.47206 7.73198 6.47206C7.73215 6.47206 7.73233 6.47206 7.7325 6.47206C7.73268 6.47206 7.73285 6.47206 7.73303 6.47206C7.7332 6.47206 7.73338 6.47206 7.73355 6.47206C7.73373 6.47206 7.7339 6.47206 7.73408 6.47206C7.73425 6.47206 7.73443 6.47206 7.7346 6.47206C7.73477 6.47206 7.73495 6.47206 7.73512 6.47206C7.7353 6.47206 7.73547 6.47206 7.73565 6.47206C7.73582 6.47206 7.736 6.47206 7.73617 6.47206C7.73635 6.47206 7.73652 6.47206 7.7367 6.47206C7.73687 6.47206 7.73705 6.47206 7.73722 6.47206C7.7374 6.47206 7.73757 6.47206 7.73775 6.47206C7.73792 6.47206 7.73809 6.47206 7.73827 6.47206C7.73844 6.47206 7.73862 6.47206 7.73879 6.47206C7.73897 6.47206 7.73914 6.47206 7.73932 6.47206C7.73949 6.47206 7.73967 6.47206 7.73984 6.47206C7.74001 6.47206 7.74019 6.47206 7.74036 6.47206C7.74054 6.47206 7.74071 6.47206 7.74089 6.47206C7.74106 6.47206 7.74124 6.47206 7.74141 6.47206C7.74158 6.47206 7.74176 6.47206 7.74193 6.47206C7.74211 6.47206 7.74228 6.47206 7.74246 6.47206C7.74263 6.47206 7.7428 6.47206 7.74298 6.47206C7.74315 6.47206 7.74333 6.47206 7.7435 6.47206C7.74368 6.47206 7.74385 6.47206 7.74402 6.47206C7.7442 6.47206 7.74437 6.47206 7.74455 6.47206C7.74472 6.47206 7.74489 6.47206 7.74507 6.47206C7.74524 6.47206 7.74542 6.47206 7.74559 6.47206C7.74576 6.47206 7.74594 6.47206 7.74611 6.47206C7.74629 6.47206 7.74646 6.47206 7.74663 6.47206C7.74681 6.47206 7.74698 6.47206 7.74715 6.47206C7.74733 6.47206 7.7475 6.47206 7.74768 6.47206C7.74785 6.47206 7.74802 6.47206 7.7482 6.47206C7.74837 6.47206 7.74854 6.47206 7.74872 6.47206C7.74889 6.47206 7.74906 6.47206 7.74924 6.47206C7.74941 6.47206 7.74958 6.47206 7.74976 6.47206C7.74993 6.47206 7.75011 6.47206 7.75028 6.47206C7.75045 6.47206 7.75062 6.47206 7.7508 6.47206C7.75097 6.47206 7.75114 6.47206 7.75132 6.47206C7.75149 6.47206 7.75166 6.47206 7.75184 6.47206C7.75201 6.47206 7.75218 6.47206 7.75236 6.47206C7.75253 6.47206 7.7527 6.47206 7.75288 6.47206C7.75305 6.47206 7.75322 6.47206 7.75339 6.47206C7.75357 6.47206 7.75374 6.47206 7.75391 6.47206C7.75408 6.47206 7.75426 6.47206 7.75443 6.47206C7.7546 6.47206 7.75478 6.47206 7.75495 6.47206C7.75512 6.47206 7.75529 6.47206 7.75547 6.47206C7.75564 6.47206 7.75581 6.47206 7.75598 6.47206C7.75616 6.47206 7.75633 6.47206 7.7565 6.47206C7.75667 6.47206 7.75684 6.47206 7.75702 6.47206C7.75719 6.47206 7.75736 6.47206 7.75753 6.47206C7.75771 6.47206 7.75788 6.47206 7.75805 6.47206C7.75822 6.47206 7.75839 6.47206 7.75856 6.47206C7.75874 6.47206 7.75891 6.47206 7.75908 6.47206C7.75925 6.47206 7.75942 6.47206 7.7596 6.47206C7.75977 6.47206 7.75994 6.47206 7.76011 6.47206C7.76028 6.47206 7.76045 6.47206 7.76062 6.47206C7.7608 6.47206 7.76097 6.47206 7.76114 6.47206C7.76131 6.47206 7.76148 6.47206 7.76165 6.47206C7.76182 6.47206 7.76199 6.47206 7.76217 6.47206C7.76234 6.47206 7.76251 6.47206 7.76268 6.47206C7.76285 6.47206 7.76302 6.47206 7.76319 6.47206C7.76336 6.47206 7.76353 6.47206 7.7637 6.47206C7.76387 6.47206 7.76405 6.47206 7.76422 6.47206C7.76439 6.47206 7.76456 6.47206 7.76473 6.47206C7.7649 6.47206 7.76507 6.47206 7.76524 6.47206C7.76541 6.47206 7.76558 6.47206 7.76575 6.47206C7.76592 6.47206 7.76609 6.47206 7.76626 6.47206C7.76643 6.47206 7.7666 6.47206 7.76677 6.47206C7.76694 6.47206 7.76711 6.47206 7.76728 6.47206C7.76745 6.47206 7.76762 6.47206 7.76779 6.47206C7.76796 6.47206 7.76813 6.47206 7.7683 6.47206C7.76847 6.47206 7.76864 6.47206 7.76881 6.47206C7.76898 6.47206 7.76915 6.47206 7.76931 6.47206C7.76948 6.47206 7.76965 6.47206 7.76982 6.47206C7.76999 6.47206 7.77016 6.47206 7.77033 6.47206C7.7705 6.47206 7.77067 6.47206 7.77084 6.47206C7.77101 6.47206 7.77117 6.47206 7.77134 6.47206C7.77151 6.47206 7.77168 6.47206 7.77185 6.47206C7.77202 6.47206 7.77219 6.47206 7.77235 6.47206C7.77252 6.47206 7.77269 6.47206 7.77286 6.47206C7.77303 6.47206 7.7732 6.47206 7.77336 6.47206C7.77353 6.47206 7.7737 6.47206 7.77387 6.47206C7.77404 6.47206 7.7742 6.47206 7.77437 6.47206C7.77454 6.47206 7.77471 6.47206 7.77487 6.47206C7.77504 6.47206 7.77521 6.47206 7.77538 6.47206C7.77554 6.47206 7.77571 6.47206 7.77588 6.47206C7.77605 6.47206 7.77621 6.47206 7.77638 6.47206C7.77655 6.47206 7.77671 6.47206 7.77688 6.47206C7.77705 6.47206 7.77721 6.47206 7.77738 6.47206C7.77755 6.47206 7.77772 6.47206 7.77788 6.47206C7.77805 6.47206 7.77821 6.47206 7.77838 6.47206C7.77855 6.47206 7.77871 6.47206 7.77888 6.47206C7.77905 6.47206 7.77921 6.47206 7.77938 6.47206C7.77954 6.47206 7.77971 6.47206 7.77988 6.47206C7.78004 6.47206 7.78021 6.47206 7.78037 6.47206C7.78054 6.47206 7.78071 6.47206 7.78087 6.47206C7.78104 6.47206 7.7812 6.47206 7.78137 6.47206C7.78153 6.47206 7.7817 6.47206 7.78186 6.47206C7.78203 6.47206 7.78219 6.47206 7.78236 6.47206C7.78252 6.47206 7.78269 6.47206 7.78285 6.47206C7.78302 6.47206 7.78318 6.47206 7.78335 6.47206C7.78351 6.47206 7.78368 6.47206 7.78384 6.47206C7.784 6.47206 7.78417 6.47206 7.78433 6.47206C7.7845 6.47206 7.78466 6.47206 7.78483 6.47206C7.78499 6.47206 7.78515 6.47206 7.78532 6.47206C7.78548 6.47206 7.78564 6.47206 7.78581 6.47206C7.78597 6.47206 7.78614 6.47206 7.7863 6.47206C7.78646 6.47206 7.78663 6.47206 7.78679 6.47206C7.78695 6.47206 7.78711 6.47206 7.78728 6.47206C7.78744 6.47206 7.7876 6.47206 7.78777 6.47206C7.78793 6.47206 7.78809 6.47206 7.78825 6.47206C7.78842 6.47206 7.78858 6.47206 7.78874 6.47206C7.7889 6.47206 7.78907 6.47206 7.78923 6.47206C7.78939 6.47206 7.78955 6.47206 7.78971 6.47206C7.78988 6.47206 7.79004 6.47206 7.7902 6.47206C7.79036 6.47206 7.79052 6.47206 7.79069 6.47206C7.79085 6.47206 7.79101 6.47206 7.79117 6.47206C7.79133 6.47206 7.79149 6.47206 7.79165 6.47206C7.79181 6.47206 7.79197 6.47206 7.79214 6.47206C7.7923 6.47206 7.79246 6.47206 7.79262 6.47206C7.79278 6.47206 7.79294 6.47206 7.7931 6.47206C7.79326 6.47206 7.79342 6.47206 7.79358 6.47206C7.79374 6.47206 7.7939 6.47206 7.79406 6.47206C7.79422 6.47206 7.79438 6.47206 7.79454 6.47206C7.7947 6.47206 7.79486 6.47206 7.79502 6.47206C7.79518 6.47206 7.79534 6.47206 7.7955 6.47206C7.79566 6.47206 7.79581 6.47206 7.79597 6.47206C7.79613 6.47206 7.79629 6.47206 7.79645 6.47206C7.79661 6.47206 7.79677 6.47206 7.79693 6.47206C7.79708 6.47206 7.79724 6.47206 7.7974 6.47206C7.79756 6.47206 7.79772 6.47206 7.79788 6.47206C7.79803 6.47206 7.79819 6.47206 7.79835 6.47206C7.79851 6.47206 7.79867 6.47206 7.79882 6.47206C7.79898 6.47206 7.79914 6.47206 7.79929 6.47206C7.79945 6.47206 7.79961 6.47206 7.79977 6.47206C7.79992 6.47206 7.80008 6.47206 7.80024 6.47206C7.80039 6.47206 7.80055 6.47206 7.80071 6.47206C7.80086 6.47206 7.80102 6.47206 7.80118 6.47206C7.80133 6.47206 7.80149 6.47206 7.80164 6.47206C7.8018 6.47206 7.80196 6.47206 7.80211 6.47206C7.80227 6.47206 7.80242 6.47206 7.80258 6.47206C7.80273 6.47206 7.80289 6.47206 7.80304 6.47206C7.8032 6.47206 7.80336 6.47206 7.80351 6.47206C7.80367 6.47206 7.80382 6.47206 7.80397 6.47206C7.80413 6.47206 7.80428 6.47206 7.80444 6.47206C7.80459 6.47206 7.80475 6.47206 7.8049 6.47206C7.80506 6.47206 7.80521 6.47206 7.80536 6.47206C7.80552 6.47206 7.80567 6.47206 7.80582 6.47206C7.80598 6.47206 7.80613 6.47206 7.80628 6.47206C7.80644 6.47206 7.80659 6.47206 7.80674 6.47206C7.8069 6.47206 7.80705 6.47206 7.8072 6.47206C7.80736 6.47206 7.80751 6.47206 7.80766 6.47206C7.80781 6.47206 7.80797 6.47206 7.80812 6.47206C7.80827 6.47206 7.80842 6.47206 7.80857 6.47206C7.80873 6.47206 7.80888 6.47206 7.80903 6.47206C7.80918 6.47206 7.80933 6.47206 7.80948 6.47206C7.80963 6.47206 7.80979 6.47206 7.80994 6.47206C7.81009 6.47206 7.81024 6.47206 7.81039 6.47206C7.81054 6.47206 7.81069 6.47206 7.81084 6.47206C7.81099 6.47206 7.81114 6.47206 7.81129 6.47206C7.81144 6.47206 7.81159 6.47206 7.81174 6.47206C7.81189 6.47206 7.81204 6.47206 7.81219 6.47206C7.81234 6.47206 7.81249 6.47206 7.81264 6.47206C7.81279 6.47206 7.81294 6.47206 7.81309 6.47206C7.81324 6.47206 7.81338 6.47206 7.81353 6.47206C7.81368 6.47206 7.81383 6.47206 7.81398 6.47206C7.81413 6.47206 7.81428 6.47206 7.81442 6.47206C7.81457 6.47206 7.81472 6.47206 7.81487 6.47206C7.81501 6.47206 7.81516 6.47206 7.81531 6.47206C7.81546 6.47206 7.8156 6.47206 7.81575 6.47206C7.8159 6.47206 7.81605 6.47206 7.81619 6.47206C7.81634 6.47206 7.81649 6.47206 7.81663 6.47206C7.81678 6.47206 7.81692 6.47206 7.81707 6.47206C7.81722 6.47206 7.81736 6.47206 7.81751 6.47206C7.81765 6.47206 7.8178 6.47206 7.81795 6.47206C7.81809 6.47206 7.81824 6.47206 7.81838 6.47206C7.81853 6.47206 7.81867 6.47206 7.81882 6.47206C7.81896 6.47206 7.81911 6.47206 7.81925 6.47206C7.81939 6.47206 7.81954 6.47206 7.81968 6.47206C7.81983 6.47206 7.81997 6.47206 7.82012 6.47206C7.82026 6.47206 7.8204 6.47206 7.82055 6.47206C7.82069 6.47206 7.82083 6.47206 7.82098 6.47206C7.82112 6.47206 7.82126 6.47206 7.82141 6.47206C7.82155 6.47206 7.82169 6.47206 7.82183 6.47206C7.82198 6.47206 7.82212 6.47206 7.82226 6.47206C7.8224 6.47206 7.82254 6.47206 7.82269 6.47206C7.82283 6.47206 7.82297 6.47206 7.82311 6.47206C7.82325 6.47206 7.82339 6.47206 7.82354 6.47206C7.82368 6.47206 7.82382 6.47206 7.82396 6.47206C7.8241 6.47206 7.82424 6.47206 7.82438 6.47206C7.82452 6.47206 7.82466 6.47206 7.8248 6.47206C7.82494 6.47206 7.82508 6.47206 7.82522 6.47206C7.82536 6.47206 7.8255 6.47206 7.82564 6.47206C7.82578 6.47206 7.82592 6.47206 7.82606 6.47206C7.8262 6.47206 7.82633 6.47206 7.82647 6.47206C7.82661 6.47206 7.82675 6.47206 7.82689 6.47206C7.82703 6.47206 7.82717 6.47206 7.8273 6.47206C7.82744 6.47206 7.82758 6.47206 7.82772 6.47206C7.82785 6.47206 7.82799 6.47206 7.82813 6.47206C7.82827 6.47206 7.8284 6.47206 7.82854 6.47206C7.82868 6.47206 7.82881 6.47206 7.82895 6.47206C7.82909 6.47206 7.82922 6.47206 7.82936 6.47206C7.82949 6.47206 7.82963 6.47206 7.82977 6.47206C7.8299 6.47206 7.83004 6.47206 7.83017 6.47206C7.83031 6.47206 7.83044 6.47206 7.83058 6.47206C7.83071 6.47206 7.83085 6.47206 7.83098 6.47206C7.83112 6.47206 7.83125 6.47206 7.83139 6.47206C7.83152 6.47206 7.83165 6.47206 7.83179 6.47206C7.83192 6.47206 7.83206 6.47206 7.83219 6.47206C7.83232 6.47206 7.83246 6.47206 7.83259 6.47206C7.83272 6.47206 7.83285 6.47206 7.83299 6.47206C7.83312 6.47206 7.83325 6.47206 7.83338 6.47206C7.83352 6.47206 7.83365 6.47206 7.83378 6.47206C7.83391 6.47206 7.83404 6.47206 7.83418 6.47206C7.83431 6.47206 7.83444 6.47206 7.83457 6.47206C7.8347 6.47206 7.83483 6.47206 7.83496 6.47206C7.83509 6.47206 7.83522 6.47206 7.83535 6.47206C7.83548 6.47206 7.83561 6.47206 7.83574 6.47206C7.83587 6.47206 7.836 6.47206 7.83613 6.47206C7.83626 6.47206 7.83639 6.47206 7.83652 6.47206C7.83665 6.47206 7.83678 6.47206 7.83691 6.47206C7.83704 6.47206 7.83717 6.47206 7.83729 6.47206C7.83742 6.47206 7.83755 6.47206 7.83768 6.47206C7.83781 6.47206 7.83793 6.47206 7.83806 6.47206C7.83819 6.47206 7.83832 6.47206 7.83844 6.47206C7.83857 6.47206 7.8387 6.47206 7.83882 6.47206C7.83895 6.47206 7.83908 6.47206 7.8392 6.47206C7.83933 6.47206 7.83946 6.47206 7.83958 6.47206C7.83971 6.47206 7.83983 6.47206 7.83996 6.47206C7.84008 6.47206 7.84021 6.47206 7.84033 6.47206C7.84046 6.47206 7.84058 6.47206 7.84071 6.47206C7.84083 6.47206 7.84096 6.47206 7.84108 6.47206C7.8412 6.47206 7.84133 6.47206 7.84145 6.47206C7.84158 6.47206 7.8417 6.47206 7.84182 6.47206C7.84195 6.47206 7.84207 6.47206 7.84219 6.47206C7.84231 6.47206 7.84244 6.47206 7.84256 6.47206C7.84268 6.47206 7.8428 6.47206 7.84293 6.47206C7.84305 6.47206 7.84317 6.47206 7.84329 6.47206C7.84341 6.47206 7.84353 6.47206 7.84366 6.47206C7.84378 6.47206 7.8439 6.47206 7.84402 6.47206C7.84414 6.47206 7.84426 6.47206 7.84438 6.47206C7.8445 6.47206 7.84462 6.47206 7.84474 6.47206C7.84486 6.47206 7.84498 6.47206 7.8451 6.47206C7.84522 6.47206 7.84534 6.47206 7.84546 6.47206C7.84557 6.47206 7.84569 6.47206 7.84581 6.47206C7.84593 6.47206 7.84605 6.47206 7.84617 6.47206C7.84628 6.47206 7.8464 6.47206 7.84652 6.47206C7.84664 6.47206 7.84675 6.47206 7.84687 6.47206C7.84699 6.47206 7.84711 6.47206 7.84722 6.47206V5.72206ZM7.60833 5.72206V4.97206C7.25424 4.97206 6.63414 5.03441 6.23194 5.57067L6.83194 6.02067L7.43194 6.47067C7.4246 6.48047 7.41532 6.48886 7.40749 6.49417C7.40067 6.49879 7.40056 6.49728 7.41252 6.49329C7.44165 6.48358 7.50237 6.47206 7.60833 6.47206V5.72206ZM6.83194 6.02067L6.30161 5.49034C6.0174 5.77455 5.30556 6.495 5.30556 7.87206H6.05556H6.80556C6.80556 7.09912 7.16871 6.74456 7.36228 6.551L6.83194 6.02067ZM6.05556 7.87206H5.30556C5.30556 8.57529 5.55453 9.23386 5.78786 9.70053C5.90784 9.94048 6.03219 10.1465 6.13699 10.3037C6.23004 10.4433 6.33522 10.586 6.42106 10.6718L6.95139 10.1415L7.48172 9.61117C7.50783 9.63729 7.47117 9.60082 7.38506 9.47166C7.31069 9.3601 7.21855 9.20781 7.1295 9.0297C6.94478 8.66026 6.80556 8.24383 6.80556 7.87206H6.05556ZM6.95139 10.1415L6.42106 10.6718C6.38375 10.6345 6.36353 10.6043 6.3895 10.6388C6.40311 10.657 6.42212 10.683 6.4507 10.7222C6.50565 10.7975 6.58392 10.905 6.68167 11.0337C6.87734 11.2913 7.15254 11.636 7.49836 12.0096C8.18262 12.7489 9.17653 13.6383 10.4162 14.1743L10.7139 13.4859L11.0116 12.7976C10.0415 12.3781 9.21391 11.6549 8.59921 10.9907C8.29555 10.6626 8.05192 10.3578 7.87618 10.1264C7.78823 10.0107 7.71767 9.91379 7.66274 9.83846C7.63638 9.8023 7.61019 9.76637 7.5886 9.73765C7.57937 9.72537 7.53395 9.66341 7.48172 9.61117L6.95139 10.1415ZM10.7139 13.4859L10.4271 14.179C11.3196 14.5483 11.9447 14.7349 12.4173 14.8151C12.9171 14.9 13.2285 14.8624 13.465 14.823L13.3417 14.0832L13.2184 13.3434C13.0965 13.3637 12.96 13.3858 12.6684 13.3363C12.3498 13.2822 11.8401 13.1403 11.0007 12.7929L10.7139 13.4859ZM13.3417 14.0832L13.5572 14.8015C13.9224 14.692 14.3258 14.51 14.6762 14.2638C15.0137 14.0266 15.3843 13.6715 15.5462 13.1856L14.8347 12.9484L14.1232 12.7113C14.106 12.7629 14.0286 12.8855 13.8138 13.0365C13.6117 13.1785 13.3581 13.2952 13.1262 13.3648L13.3417 14.0832Z" fill="#F5F5F5"/>
</svg>
