<svg width="16" height="16" viewBox="0 0 16 16" fill="none" xmlns="http://www.w3.org/2000/svg">
<g clip-path="url(#clip0_2017_6827)">
<path d="M14.5341 6.66666C14.8385 8.16086 14.6215 9.71428 13.9193 11.0679C13.2171 12.4214 12.072 13.4934 10.6751 14.1049C9.27816 14.7164 7.71382 14.8305 6.24293 14.4282C4.77205 14.026 3.48353 13.1316 2.59225 11.8943C1.70097 10.657 1.26081 9.15148 1.34518 7.62892C1.42954 6.10635 2.03332 4.65872 3.05583 3.52744C4.07835 2.39616 5.45779 1.64961 6.96411 1.4123C8.47043 1.17498 10.0126 1.46123 11.3334 2.22333M6.00007 7.33333L8.00007 9.33333L14.6667 2.66666" stroke="url(#paint0_linear_2017_6827)" stroke-width="1.5" stroke-linecap="round" stroke-linejoin="round"/>
</g>
<defs>
<linearGradient id="paint0_linear_2017_6827" x1="8.00163" y1="14.6644" x2="8.00163" y2="1.33105" gradientUnits="userSpaceOnUse">
<stop stop-color="#E3EF26"/>
<stop offset="1" stop-color="#FFFDEE"/>
</linearGradient>
<clipPath id="clip0_2017_6827">
<rect width="16" height="16" fill="white"/>
</clipPath>
</defs>
</svg>
