<svg width="139" height="48" viewBox="0 0 139 48" fill="none" xmlns="http://www.w3.org/2000/svg">
<path d="M8.04 11.94C5.5 15.3 4 19.48 4 24C4 35.04 12.96 44 24 44C35.04 44 44 35.04 44 24C44 12.96 35.04 4 24 4" stroke="url(#paint0_linear_2003_6787)" stroke-width="2.5" stroke-linecap="round" stroke-linejoin="round"/>
<path opacity="0.34" d="M10 24C10 31.74 16.26 38 24 38C31.74 38 38 31.74 38 24C38 16.26 31.74 10 24 10" stroke="url(#paint1_linear_2003_6787)" stroke-width="2.5" stroke-linecap="round" stroke-linejoin="round"/>
<path opacity="0.34" d="M24 32C28.42 32 32 28.42 32 24C32 19.58 28.42 16 24 16" stroke="url(#paint2_linear_2003_6787)" stroke-width="2.5" stroke-linecap="round" stroke-linejoin="round"/>
<path d="M55.4399 29V6.6H64.4639C66.1066 6.6 67.4292 7.08 68.4319 8.04C69.4346 8.97867 69.9359 10.2373 69.9359 11.816C69.9359 12.776 69.7652 13.5867 69.4239 14.248C69.1039 14.9093 68.6986 15.432 68.2079 15.816C67.7172 16.2 67.2372 16.4667 66.7679 16.616V16.84C67.3439 16.9893 67.9306 17.3093 68.5279 17.8C69.1466 18.2693 69.6692 18.9093 70.0959 19.72C70.5226 20.5307 70.7359 21.512 70.7359 22.664C70.7359 24.0293 70.4586 25.192 69.9039 26.152C69.3706 27.0907 68.6132 27.8053 67.6319 28.296C66.6719 28.7653 65.5412 29 64.2399 29H55.4399ZM60.4959 24.424H63.1199C63.7812 24.424 64.3252 24.2107 64.7519 23.784C65.1999 23.3573 65.4239 22.76 65.4239 21.992C65.4239 21.224 65.1999 20.6373 64.7519 20.232C64.3252 19.8267 63.7812 19.624 63.1199 19.624H60.4959V24.424ZM60.4959 15.656H62.9919C63.5679 15.656 64.0479 15.4427 64.4319 15.016C64.8159 14.5893 65.0079 14.0133 65.0079 13.288C65.0079 12.5413 64.8159 11.9653 64.4319 11.56C64.0479 11.1547 63.5679 10.952 62.9919 10.952H60.4959V15.656ZM72.5664 6.6H77.6224V29H72.5024L72.5664 6.6ZM80.8864 6.6C82.1664 6.6 83.3077 6.856 84.3104 7.368C85.3131 7.85866 86.1024 8.616 86.6784 9.64C87.2544 10.6427 87.5424 11.912 87.5424 13.448C87.5424 15.0267 87.2224 16.3387 86.5824 17.384C85.9424 18.4293 85.1104 19.2187 84.0864 19.752C83.0837 20.264 82.0171 20.52 80.8864 20.52H75.0304V6.6H80.8864ZM77.6224 16.2H80.2144C80.6624 16.2 81.0357 16.0933 81.3344 15.88C81.6544 15.6667 81.8891 15.368 82.0384 14.984C82.2091 14.5787 82.2944 14.1307 82.2944 13.64C82.2944 13.1493 82.2091 12.7227 82.0384 12.36C81.8891 11.9973 81.6544 11.72 81.3344 11.528C81.0357 11.3147 80.6624 11.208 80.2144 11.208H77.6224V16.2ZM78.6784 17.8H83.5424L87.5424 28.2V29H82.2624L78.6784 17.8ZM89.6274 6.6H94.6834V29H89.6274V6.6ZM96.7962 17.096C96.7962 14.5787 97.2335 12.52 98.1082 10.92C98.9828 9.32 100.124 8.136 101.532 7.368C102.962 6.6 104.508 6.216 106.172 6.216C107.836 6.216 109.372 6.6 110.78 7.368C112.21 8.136 113.362 9.32 114.236 10.92C115.111 12.52 115.548 14.5787 115.548 17.096C115.548 19.5067 115.111 21.5227 114.236 23.144C113.362 24.7653 112.21 25.9813 110.78 26.792C109.372 27.6027 107.836 28.008 106.172 28.008C104.508 28.008 102.962 27.6027 101.532 26.792C100.124 25.9813 98.9828 24.7653 98.1082 23.144C97.2335 21.5227 96.7962 19.5067 96.7962 17.096ZM102.044 17.096C102.044 18.5253 102.226 19.72 102.588 20.68C102.972 21.6187 103.474 22.3227 104.092 22.792C104.732 23.24 105.426 23.464 106.172 23.464C106.919 23.464 107.612 23.24 108.252 22.792C108.892 22.3227 109.404 21.6187 109.788 20.68C110.172 19.72 110.364 18.5253 110.364 17.096C110.364 15.6667 110.162 14.504 109.756 13.608C109.372 12.712 108.86 12.0613 108.22 11.656C107.602 11.2293 106.919 11.016 106.172 11.016C105.426 11.016 104.732 11.2293 104.092 11.656C103.474 12.0827 102.972 12.744 102.588 13.64C102.226 14.536 102.044 15.688 102.044 17.096ZM112.796 28.04V30.568C112.199 30.9093 111.559 31.0907 110.876 31.112C110.194 31.1547 109.49 31.112 108.764 30.984C108.039 30.856 107.314 30.728 106.588 30.6C105.863 30.472 105.148 30.4187 104.444 30.44C103.762 30.4827 103.111 30.6747 102.492 31.016L102.3 30.952V28.424C102.919 28.0613 103.57 27.8693 104.252 27.848C104.935 27.8267 105.639 27.8907 106.364 28.04C107.09 28.168 107.815 28.3067 108.54 28.456C109.266 28.584 109.97 28.6373 110.652 28.616C111.356 28.5733 112.007 28.36 112.604 27.976L112.796 28.04ZM103.836 27.464H106.908V28.264H103.836V27.464ZM119.77 13.992H116.73L118.298 6.6H122.906V6.984L119.77 13.992ZM137.306 22.856C137.306 24.2427 137.018 25.4267 136.442 26.408C135.866 27.368 135.066 28.104 134.042 28.616C133.04 29.128 131.888 29.384 130.586 29.384C129.562 29.384 128.602 29.256 127.706 29C126.832 28.7653 126.074 28.4773 125.434 28.136C124.794 27.7947 124.325 27.5067 124.026 27.272V22.312H124.666C125.349 22.952 126.181 23.5173 127.162 24.008C128.144 24.4773 129.061 24.712 129.914 24.712C130.341 24.712 130.714 24.648 131.034 24.52C131.376 24.3707 131.642 24.168 131.834 23.912C132.026 23.656 132.122 23.3573 132.122 23.016C132.122 22.4613 131.941 22.0133 131.578 21.672C131.237 21.3307 130.693 20.9467 129.946 20.52L127.706 19.24C127.045 18.856 126.394 18.3973 125.754 17.864C125.114 17.3307 124.581 16.6587 124.154 15.848C123.749 15.0373 123.546 14.0347 123.546 12.84C123.546 11.4107 123.845 10.2053 124.442 9.224C125.04 8.24267 125.829 7.50667 126.81 7.016C127.813 6.504 128.922 6.248 130.138 6.248C131.056 6.248 131.898 6.344 132.666 6.536C133.434 6.70667 134.128 6.952 134.746 7.272C135.386 7.57067 135.92 7.93333 136.346 8.36V13.32H135.706C135.024 12.5947 134.224 12.0187 133.306 11.592C132.41 11.144 131.525 10.92 130.65 10.92C130.117 10.92 129.658 11.0587 129.274 11.336C128.912 11.592 128.73 11.976 128.73 12.488C128.73 13.0213 128.976 13.4907 129.466 13.896C129.957 14.3013 130.629 14.76 131.482 15.272L133.786 16.68C134.512 17.128 135.13 17.64 135.642 18.216C136.176 18.7707 136.581 19.432 136.858 20.2C137.157 20.9467 137.306 21.832 137.306 22.856Z" fill="white"/>
<path d="M54.49 43V36H56.65L57.57 40.44H57.64L58.55 36H60.7V43H59.34L59.38 37.89H59.27L58.14 43H57.06L55.92 37.89H55.81L55.86 43H54.49ZM61.587 43V42.77L63.047 36L65.537 36.01L67.007 42.77V43H65.547L65.227 41.24H63.367L63.037 43H61.587ZM63.557 40.01H65.027L64.537 37.33H64.047L63.557 40.01ZM67.8834 36H69.2834V43H67.8634L67.8834 36ZM70.4234 36C70.8234 36 71.1768 36.08 71.4834 36.24C71.7968 36.3933 72.0434 36.63 72.2234 36.95C72.4034 37.2633 72.4934 37.6567 72.4934 38.13C72.4934 38.6167 72.3934 39.0233 72.1934 39.35C72.0001 39.67 71.7468 39.9133 71.4334 40.08C71.1268 40.24 70.7968 40.32 70.4434 40.32H68.5434V36H70.4234ZM69.2634 39.11H70.2534C70.4134 39.11 70.5534 39.0733 70.6734 39C70.7934 38.9267 70.8834 38.82 70.9434 38.68C71.0101 38.5333 71.0434 38.37 71.0434 38.19C71.0434 37.9967 71.0101 37.8333 70.9434 37.7C70.8834 37.56 70.7934 37.4567 70.6734 37.39C70.5534 37.3167 70.4134 37.28 70.2534 37.28H69.2634V39.11ZM69.8234 39.56L71.1634 39.53L72.4934 42.77V43H71.0334L69.8234 39.56ZM73.5248 43V36H74.9448V38.77H75.1448L76.6748 36H78.1448V36.23L76.2548 39.45L78.1448 42.77V43H76.6748L75.1448 40.15H74.9448V43H73.5248ZM82.5222 36V37.28H80.3322V38.99C80.5389 38.91 80.7555 38.8467 80.9822 38.8C81.2155 38.7533 81.4455 38.7233 81.6722 38.71C81.8989 38.6967 82.1089 38.7033 82.3022 38.73V39.96L82.2122 40.02C82.0589 39.9733 81.8789 39.9467 81.6722 39.94C81.4722 39.9333 81.2555 39.9467 81.0222 39.98C80.7889 40.0133 80.5589 40.07 80.3322 40.15V41.72H82.5222V43H78.9322V36H82.5222ZM87.3079 36V37.29H85.9679V43H84.5679V37.29H83.2079V36H87.3079ZM88.1943 36H89.5943V43H88.1943V36ZM94.2066 36H95.5766V43H94.0466L92.3166 38.66H92.2066L92.2666 43H90.8966V36H92.4266L94.1566 40.4H94.2666L94.2066 36ZM96.6105 39.5C96.6105 38.6667 96.7571 37.9833 97.0505 37.45C97.3505 36.9167 97.7471 36.5233 98.2405 36.27C98.7405 36.0167 99.2905 35.89 99.8905 35.89C100.217 35.89 100.51 35.9233 100.77 35.99C101.03 36.0567 101.25 36.1367 101.43 36.23C101.617 36.3167 101.75 36.4033 101.83 36.49V37.92H101.64C101.56 37.8 101.444 37.6833 101.29 37.57C101.137 37.4567 100.954 37.3667 100.74 37.3C100.534 37.2267 100.3 37.19 100.04 37.19C99.6271 37.19 99.2705 37.2767 98.9705 37.45C98.6771 37.6167 98.4538 37.8733 98.3005 38.22C98.1471 38.56 98.0705 38.9867 98.0705 39.5C98.0705 39.9933 98.1405 40.4167 98.2805 40.77C98.4271 41.1167 98.6371 41.3833 98.9105 41.57C99.1838 41.75 99.5071 41.84 99.8805 41.84C100.04 41.84 100.177 41.8233 100.29 41.79C100.404 41.75 100.49 41.7 100.55 41.64V40.06H98.8505V38.84H101.83V42.29C101.544 42.5767 101.214 42.7867 100.84 42.92C100.474 43.0467 100.074 43.11 99.6405 43.11C99.2471 43.11 98.8671 43.04 98.5005 42.9C98.1405 42.7533 97.8171 42.5333 97.5305 42.24C97.2505 41.9467 97.0271 41.5733 96.8605 41.12C96.6938 40.6667 96.6105 40.1267 96.6105 39.5ZM105.439 43V42.77L106.899 36L109.389 36.01L110.859 42.77V43H109.399L109.079 41.24H107.219L106.889 43H105.439ZM107.409 40.01H108.879L108.389 37.33H107.899L107.409 40.01ZM111.212 39.5C111.212 38.6667 111.358 37.9833 111.652 37.45C111.952 36.9167 112.348 36.5233 112.842 36.27C113.342 36.0167 113.892 35.89 114.492 35.89C114.818 35.89 115.112 35.9233 115.372 35.99C115.632 36.0567 115.852 36.1367 116.032 36.23C116.218 36.3167 116.352 36.4033 116.432 36.49V37.92H116.242C116.162 37.8 116.045 37.6833 115.892 37.57C115.738 37.4567 115.555 37.3667 115.342 37.3C115.135 37.2267 114.902 37.19 114.642 37.19C114.228 37.19 113.872 37.2767 113.572 37.45C113.278 37.6167 113.055 37.8733 112.902 38.22C112.748 38.56 112.672 38.9867 112.672 39.5C112.672 39.9933 112.742 40.4167 112.882 40.77C113.028 41.1167 113.238 41.3833 113.512 41.57C113.785 41.75 114.108 41.84 114.482 41.84C114.642 41.84 114.778 41.8233 114.892 41.79C115.005 41.75 115.092 41.7 115.152 41.64V40.06H113.452V38.84H116.432V42.29C116.145 42.5767 115.815 42.7867 115.442 42.92C115.075 43.0467 114.675 43.11 114.242 43.11C113.848 43.11 113.468 43.04 113.102 42.9C112.742 42.7533 112.418 42.5333 112.132 42.24C111.852 41.9467 111.628 41.5733 111.462 41.12C111.295 40.6667 111.212 40.1267 111.212 39.5ZM121.27 36V37.28H119.08V38.99C119.287 38.91 119.503 38.8467 119.73 38.8C119.963 38.7533 120.193 38.7233 120.42 38.71C120.647 38.6967 120.857 38.7033 121.05 38.73V39.96L120.96 40.02C120.807 39.9733 120.627 39.9467 120.42 39.94C120.22 39.9333 120.003 39.9467 119.77 39.98C119.537 40.0133 119.307 40.07 119.08 40.15V41.72H121.27V43H117.68V36H121.27ZM125.636 36H127.006V43H125.476L123.746 38.66H123.636L123.696 43H122.326V36H123.856L125.586 40.4H125.696L125.636 36ZM128.039 39.5C128.039 38.88 128.123 38.3433 128.289 37.89C128.456 37.4367 128.679 37.0633 128.959 36.77C129.246 36.47 129.569 36.25 129.929 36.11C130.289 35.9633 130.663 35.89 131.049 35.89C131.423 35.89 131.729 35.93 131.969 36.01C132.216 36.0833 132.393 36.1667 132.499 36.26V37.6H132.309C132.216 37.5 132.083 37.4067 131.909 37.32C131.736 37.2333 131.523 37.19 131.269 37.19C130.923 37.19 130.616 37.28 130.349 37.46C130.083 37.6333 129.873 37.8933 129.719 38.24C129.573 38.58 129.499 39 129.499 39.5C129.499 40 129.573 40.4233 129.719 40.77C129.873 41.11 130.083 41.37 130.349 41.55C130.616 41.7233 130.923 41.81 131.269 41.81C131.523 41.81 131.736 41.7667 131.909 41.68C132.083 41.5933 132.216 41.5 132.309 41.4H132.499V42.74C132.393 42.8267 132.216 42.91 131.969 42.99C131.729 43.07 131.423 43.11 131.049 43.11C130.663 43.11 130.289 43.04 129.929 42.9C129.569 42.7533 129.246 42.5333 128.959 42.24C128.679 41.94 128.456 41.5633 128.289 41.11C128.123 40.6567 128.039 40.12 128.039 39.5ZM133.199 36H134.659L135.539 39.43H136.099L136.989 36H138.449V36.23L137.139 40.77H136.529V43H135.129V40.78H134.509L133.199 36.23V36Z" fill="#D0D5D4"/>
<defs>
<linearGradient id="paint0_linear_2003_6787" x1="24" y1="44" x2="24" y2="4" gradientUnits="userSpaceOnUse">
<stop stop-color="#E3EF26"/>
<stop offset="1" stop-color="#FFFDEE"/>
</linearGradient>
<linearGradient id="paint1_linear_2003_6787" x1="24" y1="38" x2="24" y2="10" gradientUnits="userSpaceOnUse">
<stop stop-color="#E3EF26"/>
<stop offset="1" stop-color="#FFFDEE"/>
</linearGradient>
<linearGradient id="paint2_linear_2003_6787" x1="28" y1="32" x2="28" y2="16" gradientUnits="userSpaceOnUse">
<stop stop-color="#E3EF26"/>
<stop offset="1" stop-color="#FFFDEE"/>
</linearGradient>
</defs>
</svg>
