<svg width="118" height="23" viewBox="0 0 118 23" fill="none" xmlns="http://www.w3.org/2000/svg">
<path d="M11.5888 10.9C12.3488 10.98 13.0988 11.12 13.8388 11.32C14.5988 11.52 15.2988 11.82 15.9388 12.22C16.5788 12.6 17.0888 13.1 17.4688 13.72C17.8488 14.34 18.0388 15.1 18.0388 16C18.0388 17.28 17.6688 18.37 16.9288 19.27C16.2088 20.15 15.2288 20.83 13.9888 21.31C12.7488 21.77 11.3488 22 9.7888 22H4.6888C4.0088 22 3.3288 22 2.6488 22C1.9688 22 1.2788 22.02 0.578799 22.06C0.498799 21.68 0.498799 21.31 0.578799 20.95H2.7388C2.8388 20.05 2.9088 19.18 2.9488 18.34C3.0088 17.48 3.0388 16.6 3.0388 15.7V7.3C3.0388 6.4 3.0088 5.53 2.9488 4.69C2.9088 3.83 2.8388 2.95 2.7388 2.05H0.578799C0.498799 1.67 0.498799 1.3 0.578799 0.940002C1.2788 0.960002 1.9688 0.980002 2.6488 1C3.3288 1 4.0088 1 4.6888 1H9.1888C10.5488 1 11.7888 1.18 12.9088 1.54C14.0488 1.88 14.9588 2.41 15.6388 3.13C16.3388 3.85 16.6888 4.79 16.6888 5.95C16.6888 6.97 16.4288 7.83 15.9088 8.53C15.3888 9.23 14.7388 9.78 13.9588 10.18C13.1788 10.56 12.3888 10.8 11.5888 10.9ZM6.6388 20.8H10.0888C11.4488 20.8 12.4888 20.36 13.2088 19.48C13.9288 18.58 14.2888 17.49 14.2888 16.21C14.2888 15.35 14.1288 14.58 13.8088 13.9C13.4888 13.22 12.9788 12.68 12.2788 12.28C11.5788 11.86 10.6488 11.65 9.4888 11.65H4.6888V10.45H9.4888C10.5488 10.45 11.4088 10.07 12.0688 9.31C12.7488 8.53 13.0888 7.53 13.0888 6.31C13.0888 5.11 12.7388 4.13 12.0388 3.37C11.3588 2.59 10.3088 2.2 8.8888 2.2H6.6388C6.5388 3.1 6.4588 3.93 6.3988 4.69C6.3588 5.43 6.3388 6.25 6.3388 7.15V15.7C6.3388 16.6 6.3588 17.45 6.3988 18.25C6.4588 19.05 6.5388 19.9 6.6388 20.8Z" fill="white" fill-opacity="0.89"/>
<path d="M20.4072 22.06C20.3272 21.68 20.3272 21.31 20.4072 20.95H22.1172C22.2172 20.19 22.2872 19.46 22.3272 18.76C22.3872 18.06 22.4172 17.34 22.4172 16.6V14.2C22.4172 12.76 22.3172 11.33 22.1172 9.91H20.5572C20.4772 9.53 20.4772 9.16 20.5572 8.8C21.2572 8.8 22.0072 8.78 22.8072 8.74C23.6072 8.68 24.4272 8.57 25.2672 8.41C25.1672 8.77 25.0872 9.19 25.0272 9.67C24.9872 10.13 24.9672 10.59 24.9672 11.05L25.2672 12.4V16.6C25.2672 17.34 25.2872 18.06 25.3272 18.76C25.3872 19.46 25.4672 20.19 25.5672 20.95H28.1772C28.2572 21.31 28.2572 21.68 28.1772 22.06C27.1172 22.02 26.2772 22 25.6572 22C25.0372 22 24.4372 22 23.8572 22C23.2772 22 22.7072 22 22.1472 22C21.6072 22 21.0272 22.02 20.4072 22.06ZM28.9872 12.25C29.0672 11.51 29.0272 10.93 28.8672 10.51C28.7272 10.07 28.4072 9.85 27.9072 9.85C27.4272 9.85 26.9772 10.07 26.5572 10.51C26.1572 10.95 25.7272 11.58 25.2672 12.4L24.9672 11.05C25.4472 10.19 26.0072 9.53 26.6472 9.07C27.3072 8.59 28.0972 8.35 29.0172 8.35C29.7572 8.35 30.3472 8.48 30.7872 8.74C31.2472 9 31.5772 9.42 31.7772 10C31.9772 10.56 32.0472 11.31 31.9872 12.25H28.9872Z" fill="white" fill-opacity="0.89"/>
<path d="M37.6806 22.45C36.4006 22.45 35.3306 22.11 34.4706 21.43C33.6306 20.73 33.2106 19.78 33.2106 18.58C33.2106 17.68 33.4506 16.93 33.9306 16.33C34.4106 15.73 35.0606 15.28 35.8806 14.98C36.7206 14.66 37.6506 14.5 38.6706 14.5C39.4306 14.5 40.0606 14.56 40.5606 14.68C41.0606 14.8 41.4906 14.93 41.8506 15.07V16.27C41.0306 15.89 40.1906 15.7 39.3306 15.7C38.4706 15.7 37.7306 15.93 37.1106 16.39C36.5106 16.83 36.2106 17.53 36.2106 18.49C36.2106 19.29 36.4006 19.94 36.7806 20.44C37.1606 20.92 37.7206 21.16 38.4606 21.16C39.2206 21.16 39.8606 20.99 40.3806 20.65C40.9206 20.29 41.4106 19.89 41.8506 19.45L42.0306 20.65C41.5106 21.15 40.9306 21.58 40.2906 21.94C39.6506 22.28 38.7806 22.45 37.6806 22.45ZM44.7006 12.88V19.45C44.7006 20.03 44.8506 20.43 45.1506 20.65C45.4706 20.85 45.9406 20.95 46.5606 20.95C46.6206 21.31 46.6206 21.68 46.5606 22.06C46.2406 22.14 45.8906 22.2 45.5106 22.24C45.1506 22.28 44.8306 22.3 44.5506 22.3C43.7506 22.3 43.1606 22.15 42.7806 21.85C42.4206 21.55 42.1706 21.15 42.0306 20.65L41.8506 19.45V13.09C41.8506 11.87 41.6506 10.96 41.2506 10.36C40.8706 9.76 40.2406 9.46 39.3606 9.46C38.5406 9.46 37.9106 9.7 37.4706 10.18C37.0506 10.64 36.8806 11.33 36.9606 12.25H33.9606C33.9606 11.59 34.1806 10.97 34.6206 10.39C35.0806 9.79 35.7306 9.3 36.5706 8.92C37.4306 8.54 38.4706 8.35 39.6906 8.35C41.2906 8.35 42.5206 8.72 43.3806 9.46C44.2606 10.2 44.7006 11.34 44.7006 12.88Z" fill="white" fill-opacity="0.89"/>
<path d="M48.4736 22.06C48.3936 21.68 48.3936 21.31 48.4736 20.95H50.1836C50.2836 20.19 50.3536 19.46 50.3936 18.76C50.4536 18.06 50.4836 17.34 50.4836 16.6V14.2C50.4836 12.76 50.3836 11.33 50.1836 9.91H48.6236C48.5436 9.53 48.5436 9.16 48.6236 8.8C49.3236 8.8 50.0736 8.78 50.8736 8.74C51.6736 8.68 52.4936 8.57 53.3336 8.41C53.2336 8.77 53.1536 9.18 53.0936 9.64C53.0536 10.08 53.0336 10.45 53.0336 10.75L53.3336 12.1V16.6C53.3336 17.34 53.3536 18.06 53.3936 18.76C53.4536 19.46 53.5336 20.19 53.6336 20.95H55.3436C55.4236 21.31 55.4236 21.68 55.3436 22.06C54.7236 22.02 54.1436 22 53.6036 22C53.0636 22 52.5036 22 51.9236 22C51.3436 22 50.7736 22 50.2136 22C49.6736 22 49.0936 22.02 48.4736 22.06ZM57.1736 22.06C57.0936 21.68 57.0936 21.31 57.1736 20.95H58.8836C58.9836 20.19 59.0536 19.46 59.0936 18.76C59.1536 18.06 59.1836 17.34 59.1836 16.6V12.52C59.1836 11.78 59.0136 11.15 58.6736 10.63C58.3336 10.11 57.7036 9.85 56.7836 9.85C56.0836 9.85 55.4336 10.04 54.8336 10.42C54.2336 10.78 53.7336 11.34 53.3336 12.1L53.0336 10.75C53.5736 9.99 54.2436 9.4 55.0436 8.98C55.8636 8.56 56.8236 8.35 57.9236 8.35C59.1036 8.35 60.0036 8.57 60.6236 9.01C61.2436 9.45 61.7436 10.02 62.1236 10.72C62.1036 11.02 62.0836 11.32 62.0636 11.62C62.0436 11.92 62.0336 12.22 62.0336 12.52V16.6C62.0336 17.34 62.0536 18.06 62.0936 18.76C62.1536 19.46 62.2336 20.19 62.3336 20.95H64.0436C64.1236 21.31 64.1236 21.68 64.0436 22.06C63.4236 22.02 62.8436 22 62.3036 22C61.7636 22 61.2036 22 60.6236 22C60.0436 22 59.4736 22 58.9136 22C58.3736 22 57.7936 22.02 57.1736 22.06Z" fill="white" fill-opacity="0.89"/>
<path d="M72.7738 22.45C71.5138 22.45 70.3838 22.19 69.3838 21.67C68.4038 21.15 67.6338 20.37 67.0738 19.33C66.5138 18.27 66.2338 16.96 66.2338 15.4C66.2338 13.86 66.5238 12.57 67.1038 11.53C67.6838 10.49 68.4838 9.7 69.5038 9.16C70.5238 8.62 71.6938 8.35 73.0138 8.35C74.2538 8.35 75.3138 8.58 76.1938 9.04C77.0938 9.5 77.7838 10.21 78.2638 11.17C78.7438 12.13 78.9838 13.36 78.9838 14.86C78.4638 14.8 77.9138 14.75 77.3338 14.71C76.7538 14.67 76.0538 14.65 75.2338 14.65H68.9938V13.6H75.8038C75.8038 12.2 75.5138 11.16 74.9338 10.48C74.3738 9.8 73.6738 9.46 72.8338 9.46C72.1138 9.46 71.4838 9.7 70.9438 10.18C70.4238 10.64 70.0138 11.3 69.7138 12.16C69.4338 13.02 69.2938 14.06 69.2938 15.28C69.2938 17.18 69.6838 18.6 70.4638 19.54C71.2638 20.48 72.3138 20.95 73.6138 20.95C74.4138 20.95 75.1838 20.76 75.9238 20.38C76.6638 19.98 77.3938 19.32 78.1138 18.4C78.2738 18.5 78.4138 18.61 78.5338 18.73C78.6738 18.85 78.8138 18.99 78.9538 19.15C78.0938 20.25 77.1538 21.08 76.1338 21.64C75.1338 22.18 74.0138 22.45 72.7738 22.45Z" fill="white" fill-opacity="0.89"/>
<path d="M89.6066 20.95C89.2866 20.35 88.9766 19.78 88.6766 19.24C88.3966 18.7 88.0266 18.12 87.5666 17.5L84.5666 13.3C84.1266 12.7 83.6966 12.14 83.2766 11.62C82.8766 11.08 82.3566 10.51 81.7166 9.91H85.7666C86.1066 10.51 86.4166 11.07 86.6966 11.59C86.9966 12.09 87.3666 12.66 87.8066 13.3L90.8066 17.5C91.2266 18.1 91.6466 18.68 92.0666 19.24C92.5066 19.78 93.0366 20.35 93.6566 20.95H89.6066ZM80.5766 22.06C80.4966 21.68 80.4966 21.31 80.5766 20.95H86.2766C86.3566 21.31 86.3566 21.68 86.2766 22.06C85.7566 22.02 85.3066 22 84.9266 22C84.5666 22 84.0966 22 83.5166 22C82.9566 22 82.4766 22 82.0766 22C81.6766 22 81.1766 22.02 80.5766 22.06ZM82.1366 20.95C82.6766 20.35 83.1666 19.78 83.6066 19.24C84.0466 18.7 84.4966 18.12 84.9566 17.5L86.8166 15.04H88.2566L86.4266 17.5C86.0066 18.06 85.6266 18.63 85.2866 19.21C84.9666 19.77 84.6766 20.35 84.4166 20.95H82.1366ZM88.3166 22.06C88.2366 21.68 88.2366 21.31 88.3166 20.95H94.9466C95.0266 21.31 95.0266 21.68 94.9466 22.06C94.3266 22.02 93.7766 22 93.2966 22C92.8366 22 92.3166 22 91.7366 22C91.1766 22 90.6166 22 90.0566 22C89.5166 22 88.9366 22.02 88.3166 22.06ZM80.4266 9.91C80.3466 9.51 80.3466 9.12 80.4266 8.74C81.0466 8.76 81.5866 8.78 82.0466 8.8C82.5266 8.8 83.0566 8.8 83.6366 8.8C84.2166 8.8 84.7966 8.8 85.3766 8.8C85.9766 8.78 86.5866 8.76 87.2066 8.74C87.2866 9.12 87.2866 9.51 87.2066 9.91H80.4266ZM87.1766 15.76L88.9466 13.3C89.3466 12.74 89.6966 12.19 89.9966 11.65C90.3166 11.09 90.5966 10.51 90.8366 9.91H93.1166C92.5966 10.51 92.1266 11.07 91.7066 11.59C91.3066 12.11 90.8766 12.68 90.4166 13.3L88.6166 15.76H87.1766ZM89.0966 9.91C89.0166 9.51 89.0166 9.12 89.0966 8.74C89.6166 8.76 90.0566 8.78 90.4166 8.8C90.7766 8.8 91.2466 8.8 91.8266 8.8C92.4066 8.8 92.8766 8.8 93.2366 8.8C93.5966 8.78 94.0766 8.76 94.6766 8.74C94.7566 9.12 94.7566 9.51 94.6766 9.91H89.0966Z" fill="white" fill-opacity="0.89"/>
<path d="M103.836 20.95C103.916 21.31 103.916 21.68 103.836 22.06C103.156 22.02 102.536 22 101.976 22C101.416 22 100.846 22 100.266 22C99.6855 22 99.1155 22 98.5555 22C97.9955 22 97.3655 22.02 96.6655 22.06C96.5855 21.68 96.5855 21.31 96.6655 20.95H98.5255C98.6255 20.19 98.6955 19.46 98.7355 18.76C98.7955 18.06 98.8255 17.34 98.8255 16.6V14.2C98.8255 12.76 98.7255 11.33 98.5255 9.91H96.8155C96.7355 9.53 96.7355 9.16 96.8155 8.8C97.5955 8.8 98.4455 8.78 99.3655 8.74C100.286 8.68 101.206 8.57 102.126 8.41C102.006 8.91 101.916 9.52 101.856 10.24C101.796 10.94 101.746 11.65 101.706 12.37C101.686 13.09 101.676 13.7 101.676 14.2V16.6C101.676 17.34 101.696 18.06 101.736 18.76C101.796 19.46 101.876 20.19 101.976 20.95H103.836ZM100.266 1.9L101.916 2.8V4.75L100.266 5.65L98.6155 4.75V2.8L100.266 1.9Z" fill="white" fill-opacity="0.89"/>
<path d="M111.358 22.45C110.498 22.45 109.658 22.37 108.838 22.21C108.018 22.07 107.158 21.85 106.258 21.55V17.41C106.578 17.35 106.898 17.35 107.218 17.41C107.478 18.61 107.948 19.55 108.628 20.23C109.308 20.91 110.318 21.25 111.658 21.25C112.558 21.25 113.298 21.07 113.878 20.71C114.478 20.33 114.778 19.8 114.778 19.12C114.778 18.58 114.578 18.16 114.178 17.86C113.798 17.56 113.288 17.32 112.648 17.14C112.028 16.96 111.368 16.78 110.668 16.6C109.988 16.42 109.328 16.17 108.688 15.85C108.068 15.53 107.558 15.1 107.158 14.56C106.778 14 106.588 13.26 106.588 12.34C106.588 11.12 107.038 10.15 107.938 9.43C108.858 8.71 110.168 8.35 111.868 8.35C112.588 8.35 113.298 8.42 113.998 8.56C114.718 8.7 115.388 8.91 116.008 9.19V13C115.688 13.06 115.368 13.06 115.048 13C114.828 11.82 114.438 10.95 113.878 10.39C113.338 9.83 112.548 9.55 111.508 9.55C110.588 9.55 109.888 9.73 109.408 10.09C108.928 10.45 108.688 10.95 108.688 11.59C108.688 12.11 108.888 12.52 109.288 12.82C109.708 13.12 110.238 13.38 110.878 13.6C111.518 13.8 112.198 14 112.918 14.2C113.658 14.4 114.348 14.66 114.988 14.98C115.628 15.28 116.148 15.69 116.548 16.21C116.968 16.73 117.178 17.41 117.178 18.25C117.178 19.59 116.668 20.63 115.648 21.37C114.628 22.09 113.198 22.45 111.358 22.45Z" fill="white" fill-opacity="0.89"/>
</svg>
