<svg xmlns="http://www.w3.org/2000/svg" xmlns:xlink="http://www.w3.org/1999/xlink" width="268" zoomAndPan="magnify" viewBox="0 0 200.87999 34.499999" height="46" preserveAspectRatio="xMidYMid meet" version="1.0"><defs><g/></defs><g fill="#ffffff" fill-opacity="1"><g transform="translate(37.972648, 26.614284)"><g><path d="M 2.453125 0 L 2.453125 -18.859375 L 10.5 -18.859375 C 11.664062 -18.859375 12.648438 -18.675781 13.453125 -18.3125 C 14.253906 -17.945312 14.859375 -17.425781 15.265625 -16.75 C 15.679688 -16.070312 15.890625 -15.273438 15.890625 -14.359375 C 15.890625 -13.523438 15.6875 -12.789062 15.28125 -12.15625 C 14.882812 -11.519531 14.304688 -11.007812 13.546875 -10.625 L 13.546875 -10.34375 C 14.734375 -10.03125 15.648438 -9.46875 16.296875 -8.65625 C 16.941406 -7.84375 17.265625 -6.84375 17.265625 -5.65625 C 17.265625 -3.84375 16.71875 -2.445312 15.625 -1.46875 C 14.539062 -0.488281 12.925781 0 10.78125 0 Z M 9.734375 -11.34375 C 11.460938 -11.34375 12.328125 -12.125 12.328125 -13.6875 C 12.328125 -14.488281 12.113281 -15.082031 11.6875 -15.46875 C 11.257812 -15.863281 10.609375 -16.0625 9.734375 -16.0625 L 6.1875 -16.0625 L 6.1875 -11.34375 Z M 10.40625 -2.953125 C 12.46875 -2.953125 13.5 -3.882812 13.5 -5.75 C 13.5 -7.625 12.46875 -8.5625 10.40625 -8.5625 L 6.1875 -8.5625 L 6.1875 -2.953125 Z M 10.40625 -2.953125 "/></g></g></g><g fill="#ffffff" fill-opacity="1"><g transform="translate(59.06167, 26.614284)"><g><path d="M 2.046875 0 L 2.046875 -19.953125 L 5.625 -19.953125 L 5.625 -12.375 L 5.890625 -12.328125 C 6.367188 -13.015625 6.953125 -13.546875 7.640625 -13.921875 C 8.328125 -14.304688 9.15625 -14.5 10.125 -14.5 C 13.269531 -14.5 14.84375 -12.71875 14.84375 -9.15625 L 14.84375 0 L 11.265625 0 L 11.265625 -8.703125 C 11.265625 -9.679688 11.070312 -10.390625 10.6875 -10.828125 C 10.300781 -11.265625 9.695312 -11.484375 8.875 -11.484375 C 7.875 -11.484375 7.082031 -11.148438 6.5 -10.484375 C 5.914062 -9.816406 5.625 -8.773438 5.625 -7.359375 L 5.625 0 Z M 2.046875 0 "/></g></g></g><g fill="#ffffff" fill-opacity="1"><g transform="translate(78.370578, 26.614284)"><g><path d="M 5.546875 0.265625 C 4.640625 0.265625 3.847656 0.0976562 3.171875 -0.234375 C 2.503906 -0.566406 1.988281 -1.054688 1.625 -1.703125 C 1.257812 -2.359375 1.078125 -3.140625 1.078125 -4.046875 C 1.078125 -4.890625 1.257812 -5.597656 1.625 -6.171875 C 1.988281 -6.742188 2.546875 -7.210938 3.296875 -7.578125 C 4.054688 -7.941406 5.046875 -8.222656 6.265625 -8.421875 C 7.117188 -8.554688 7.765625 -8.707031 8.203125 -8.875 C 8.648438 -9.039062 8.953125 -9.222656 9.109375 -9.421875 C 9.265625 -9.628906 9.34375 -9.894531 9.34375 -10.21875 C 9.34375 -10.675781 9.179688 -11.023438 8.859375 -11.265625 C 8.546875 -11.503906 8.019531 -11.625 7.28125 -11.625 C 6.488281 -11.625 5.734375 -11.445312 5.015625 -11.09375 C 4.304688 -10.738281 3.6875 -10.273438 3.15625 -9.703125 L 2.90625 -9.703125 L 1.40625 -11.953125 C 2.125 -12.753906 3.003906 -13.378906 4.046875 -13.828125 C 5.085938 -14.273438 6.222656 -14.5 7.453125 -14.5 C 9.335938 -14.5 10.703125 -14.097656 11.546875 -13.296875 C 12.390625 -12.492188 12.8125 -11.359375 12.8125 -9.890625 L 12.8125 -3.71875 C 12.8125 -3.082031 13.09375 -2.765625 13.65625 -2.765625 C 13.863281 -2.765625 14.070312 -2.800781 14.28125 -2.875 L 14.46875 -2.828125 L 14.71875 -0.328125 C 14.519531 -0.203125 14.242188 -0.0976562 13.890625 -0.015625 C 13.535156 0.0664062 13.148438 0.109375 12.734375 0.109375 C 11.878906 0.109375 11.210938 -0.0507812 10.734375 -0.375 C 10.265625 -0.707031 9.925781 -1.222656 9.71875 -1.921875 L 9.4375 -1.953125 C 8.75 -0.472656 7.453125 0.265625 5.546875 0.265625 Z M 6.6875 -2.40625 C 7.507812 -2.40625 8.164062 -2.679688 8.65625 -3.234375 C 9.15625 -3.785156 9.40625 -4.554688 9.40625 -5.546875 L 9.40625 -7 L 9.15625 -7.046875 C 8.945312 -6.867188 8.664062 -6.722656 8.3125 -6.609375 C 7.96875 -6.492188 7.46875 -6.378906 6.8125 -6.265625 C 6.039062 -6.140625 5.484375 -5.921875 5.140625 -5.609375 C 4.796875 -5.296875 4.625 -4.847656 4.625 -4.265625 C 4.625 -3.660156 4.804688 -3.195312 5.171875 -2.875 C 5.535156 -2.5625 6.039062 -2.40625 6.6875 -2.40625 Z M 6.6875 -2.40625 "/></g></g></g><g fill="#ffffff" fill-opacity="1"><g transform="translate(96.015474, 26.614284)"><g><path d="M 2.046875 0 L 2.046875 -14.234375 L 5.515625 -14.234375 L 5.515625 -12.109375 L 5.796875 -12.0625 C 6.140625 -12.851562 6.585938 -13.429688 7.140625 -13.796875 C 7.703125 -14.171875 8.382812 -14.359375 9.1875 -14.359375 C 10 -14.359375 10.613281 -14.222656 11.03125 -13.953125 L 10.421875 -10.859375 L 10.15625 -10.8125 C 9.925781 -10.90625 9.703125 -10.972656 9.484375 -11.015625 C 9.265625 -11.054688 9.003906 -11.078125 8.703125 -11.078125 C 7.703125 -11.078125 6.9375 -10.726562 6.40625 -10.03125 C 5.882812 -9.332031 5.625 -8.207031 5.625 -6.65625 L 5.625 0 Z M 2.046875 0 "/></g></g></g><g fill="#ffffff" fill-opacity="1"><g transform="translate(109.816356, 26.614284)"><g><path d="M 6.515625 0.265625 C 4.910156 0.265625 3.726562 -0.164062 2.96875 -1.03125 C 2.207031 -1.90625 1.828125 -3.160156 1.828125 -4.796875 L 1.828125 -14.234375 L 5.40625 -14.234375 L 5.40625 -5.25 C 5.40625 -4.382812 5.59375 -3.75 5.96875 -3.34375 C 6.34375 -2.945312 6.921875 -2.75 7.703125 -2.75 C 8.691406 -2.75 9.460938 -3.070312 10.015625 -3.71875 C 10.566406 -4.375 10.84375 -5.394531 10.84375 -6.78125 L 10.84375 -14.234375 L 14.40625 -14.234375 L 14.40625 0 L 10.984375 0 L 10.984375 -2.09375 L 10.703125 -2.15625 C 10.253906 -1.332031 9.695312 -0.722656 9.03125 -0.328125 C 8.375 0.0664062 7.535156 0.265625 6.515625 0.265625 Z M 6.515625 0.265625 "/></g></g></g><g fill="#ffffff" fill-opacity="1"><g transform="translate(128.918875, 26.614284)"><g><path d="M 8.296875 0.265625 C 6.921875 0.265625 5.703125 -0.015625 4.640625 -0.578125 C 3.585938 -1.148438 2.765625 -1.992188 2.171875 -3.109375 C 1.578125 -4.222656 1.28125 -5.554688 1.28125 -7.109375 C 1.28125 -8.671875 1.578125 -10.003906 2.171875 -11.109375 C 2.765625 -12.222656 3.582031 -13.066406 4.625 -13.640625 C 5.675781 -14.210938 6.878906 -14.5 8.234375 -14.5 C 11.234375 -14.5 13.15625 -13.410156 14 -11.234375 L 11.546875 -9.484375 L 11.28125 -9.484375 C 10.988281 -10.148438 10.609375 -10.644531 10.140625 -10.96875 C 9.671875 -11.300781 9.035156 -11.46875 8.234375 -11.46875 C 7.203125 -11.46875 6.394531 -11.109375 5.8125 -10.390625 C 5.238281 -9.679688 4.953125 -8.585938 4.953125 -7.109375 C 4.953125 -5.648438 5.242188 -4.5625 5.828125 -3.84375 C 6.410156 -3.125 7.234375 -2.765625 8.296875 -2.765625 C 9.066406 -2.765625 9.71875 -2.972656 10.25 -3.390625 C 10.789062 -3.804688 11.179688 -4.40625 11.421875 -5.1875 L 11.6875 -5.21875 L 14.234375 -3.8125 C 13.867188 -2.613281 13.195312 -1.632812 12.21875 -0.875 C 11.25 -0.113281 9.941406 0.265625 8.296875 0.265625 Z M 8.296875 0.265625 "/></g></g></g><g fill="#ffffff" fill-opacity="1"><g transform="translate(146.228386, 26.614284)"><g><path d="M 2.046875 0 L 2.046875 -19.953125 L 5.625 -19.953125 L 5.625 -12.375 L 5.890625 -12.328125 C 6.367188 -13.015625 6.953125 -13.546875 7.640625 -13.921875 C 8.328125 -14.304688 9.15625 -14.5 10.125 -14.5 C 13.269531 -14.5 14.84375 -12.71875 14.84375 -9.15625 L 14.84375 0 L 11.265625 0 L 11.265625 -8.703125 C 11.265625 -9.679688 11.070312 -10.390625 10.6875 -10.828125 C 10.300781 -11.265625 9.695312 -11.484375 8.875 -11.484375 C 7.875 -11.484375 7.082031 -11.148438 6.5 -10.484375 C 5.914062 -9.816406 5.625 -8.773438 5.625 -7.359375 L 5.625 0 Z M 2.046875 0 "/></g></g></g></svg>