<svg width="134" height="23" viewBox="0 0 134 23" fill="none" xmlns="http://www.w3.org/2000/svg">
<path d="M11.2316 0C12.5597 0 13.7267 0.234375 14.7325 0.703125C15.7384 1.16211 16.6075 1.78711 17.34 2.57812C18.0724 3.35938 18.6827 4.26758 19.171 5.30273C19.6691 6.32812 20.0646 7.40723 20.3575 8.54004C20.6505 9.66309 20.8556 10.8057 20.9728 11.9678C21.0997 13.1201 21.1632 14.2139 21.1632 15.249C21.1632 16.1572 21.1046 17.0264 20.9874 17.8564C20.8702 18.6865 20.7433 19.4287 20.6066 20.083C20.4406 20.8447 20.255 21.5625 20.0499 22.2363L15.6115 21.4453C15.8947 20.7715 16.1583 20.0049 16.4025 19.1455C16.6564 18.2861 16.881 17.4072 17.0763 16.5088C15.8947 16.4014 14.713 16.333 13.5314 16.3037C12.3595 16.2744 11.1925 16.2598 10.0304 16.2598C9.12219 16.2598 8.21399 16.2646 7.30579 16.2744C6.39758 16.2842 5.4845 16.3184 4.56653 16.377C4.76184 17.207 4.99133 18.0371 5.255 18.8672C5.51868 19.6973 5.82141 20.5469 6.16321 21.416L1.5343 22.2656C1.31946 21.8164 1.12415 21.2939 0.948364 20.6982C0.80188 20.1904 0.665161 19.5752 0.538208 18.8525C0.421021 18.1201 0.362427 17.2949 0.362427 16.377C0.362427 15.1758 0.411255 13.9404 0.508911 12.6709C0.616333 11.3916 0.806763 10.1465 1.0802 8.93555C1.3634 7.72461 1.75403 6.57715 2.25208 5.49316C2.75989 4.40918 3.41418 3.46191 4.21497 2.65137C5.02551 1.83105 6.00208 1.18652 7.14465 0.717773C8.297 0.239258 9.6593 0 11.2316 0ZM3.93665 10.415C3.93665 11.2256 3.96594 12.0117 4.02454 12.7734C4.08313 13.5254 4.1759 14.2676 4.30286 15C5.27942 15.0586 6.2511 15.0928 7.2179 15.1025C8.19446 15.1123 9.18079 15.1172 10.1769 15.1172C11.3585 15.1172 12.545 15.1123 13.7365 15.1025C14.9376 15.083 16.1437 15.0293 17.3546 14.9414C17.5304 13.8574 17.6183 12.8369 17.6183 11.8799C17.6183 11.1865 17.5646 10.4492 17.4572 9.66797C17.3595 8.88672 17.1984 8.11523 16.9738 7.35352C16.7491 6.58203 16.4562 5.84473 16.0948 5.1416C15.7433 4.43848 15.3087 3.82324 14.7911 3.2959C14.2736 2.75879 13.673 2.33398 12.9894 2.02148C12.3156 1.69922 11.549 1.53809 10.6896 1.53809C9.89856 1.53809 9.18567 1.66504 8.5509 1.91895C7.91614 2.17285 7.34485 2.51953 6.83704 2.95898C6.33899 3.39844 5.90442 3.91113 5.53333 4.49707C5.172 5.07324 4.87415 5.69336 4.63977 6.35742C4.4054 7.01172 4.22961 7.68555 4.11243 8.37891C3.99524 9.07227 3.93665 9.75098 3.93665 10.415Z" fill="white" fill-opacity="0.89"/>
<path d="M35.4601 12.4219C35.4601 12.0508 35.3478 11.6943 35.1232 11.3525C34.9083 11.001 34.63 10.6934 34.2882 10.4297C33.9464 10.166 33.5656 9.95605 33.1456 9.7998C32.7257 9.64355 32.3204 9.56543 31.9298 9.56543C31.129 9.56543 30.4406 9.74121 29.8644 10.0928C29.2882 10.4443 28.8146 10.9033 28.4435 11.4697C28.0822 12.0264 27.8136 12.6562 27.6378 13.3594C27.462 14.0527 27.3741 14.751 27.3741 15.4541C27.3741 16.0889 27.4376 16.7432 27.5646 17.417C27.7013 18.0811 27.921 18.6914 28.2238 19.248C28.5363 19.8047 28.9464 20.2637 29.4542 20.625C29.962 20.9766 30.5968 21.1523 31.3585 21.1523C31.9542 21.1523 32.4718 21.0205 32.9113 20.7568C33.3605 20.4932 33.7413 20.1562 34.0538 19.7461C34.3761 19.3262 34.6398 18.8574 34.8448 18.3398C35.0499 17.8125 35.2062 17.29 35.3136 16.7725C35.3429 16.0498 35.3722 15.3223 35.4015 14.5898C35.4406 13.8477 35.4601 13.125 35.4601 12.4219ZM38.9171 1.14258L38.3458 22.3828L35.6505 22.2949L35.5333 19.6875C35.338 20.1562 35.0792 20.5762 34.757 20.9473C34.4445 21.3086 34.0782 21.6113 33.6583 21.8555C33.2482 22.1094 32.7941 22.2998 32.296 22.4268C31.8077 22.5537 31.295 22.6172 30.7579 22.6172C29.713 22.6172 28.7609 22.4414 27.9015 22.0898C27.0421 21.7383 26.3048 21.25 25.6896 20.625C25.0841 20 24.6105 19.2529 24.2687 18.3838C23.9366 17.5146 23.7706 16.5674 23.7706 15.542C23.7706 14.4287 23.9513 13.4082 24.3126 12.4805C24.6837 11.543 25.1964 10.7422 25.8507 10.0781C26.5148 9.4043 27.3107 8.8916 28.2384 8.54004C29.1661 8.17871 30.1866 8.0127 31.2999 8.04199C31.632 8.05176 31.9689 8.08594 32.3107 8.14453C32.6622 8.19336 33.004 8.27148 33.3361 8.37891C33.6681 8.48633 33.9855 8.62305 34.2882 8.78906C34.6007 8.95508 34.8839 9.15527 35.1378 9.38965L34.8302 0.9375L38.9171 1.14258Z" fill="white" fill-opacity="0.89"/>
<path d="M47.2521 1.34766L47.0763 7.35352H50.548V8.58398H47.047L46.6515 21.8701L43.9562 22.1191L43.6779 8.58398H40.0743V7.35352H43.6486L43.5607 2.28516L47.2521 1.34766Z" fill="white" fill-opacity="0.89"/>
<path d="M56.0997 0.395508L55.6017 10.4443C55.8458 9.97559 56.1339 9.55078 56.4659 9.16992C56.798 8.7793 57.1691 8.44727 57.5792 8.17383C57.9991 7.89062 58.4581 7.67578 58.9562 7.5293C59.4542 7.37305 59.9962 7.29492 60.5822 7.29492C61.2267 7.29492 61.798 7.41699 62.296 7.66113C62.8038 7.89551 63.2433 8.21289 63.6144 8.61328C63.9952 9.01367 64.3126 9.47754 64.5665 10.0049C64.8302 10.5225 65.0402 11.0645 65.1964 11.6309C65.3624 12.1973 65.4796 12.7686 65.548 13.3447C65.6163 13.9209 65.6505 14.4629 65.6505 14.9707C65.6505 15.5469 65.6163 16.1523 65.548 16.7871C65.4796 17.4219 65.382 18.0566 65.255 18.6914C65.1281 19.3164 64.9718 19.9316 64.7863 20.5371C64.6105 21.1426 64.4152 21.709 64.2003 22.2363L60.5822 21.8701C60.8556 21.3818 61.0948 20.7959 61.2999 20.1123C61.5148 19.4189 61.6906 18.6963 61.8273 17.9443C61.964 17.1924 62.0665 16.4502 62.1349 15.7178C62.213 14.9756 62.2521 14.3164 62.2521 13.7402C62.2521 13.2617 62.2032 12.7539 62.1056 12.2168C62.0177 11.6797 61.8566 11.1865 61.6222 10.7373C61.3976 10.2783 61.09 9.90234 60.6993 9.60938C60.3087 9.30664 59.8156 9.15527 59.2198 9.15527C58.8585 9.15527 58.5265 9.22852 58.2238 9.375C57.9308 9.51172 57.6573 9.69238 57.4034 9.91699C57.1593 10.1416 56.9396 10.4004 56.7443 10.6934C56.549 10.9863 56.3781 11.2842 56.2316 11.5869C55.88 12.2998 55.6066 13.1104 55.4113 14.0186L55.089 21.0938L52.3497 21.3281L51.7784 0.717773L56.0997 0.395508Z" fill="white" fill-opacity="0.89"/>
<path d="M76.1095 17.666C75.338 17.666 74.5714 17.5684 73.8097 17.373C73.0577 17.168 72.3741 16.8457 71.7589 16.4062C71.7687 16.7871 71.7931 17.1777 71.8322 17.5781C71.8712 17.9785 71.9347 18.3691 72.0226 18.75C72.1202 19.1211 72.2423 19.4727 72.3888 19.8047C72.545 20.1367 72.7404 20.4297 72.9747 20.6836C73.2189 20.9277 73.507 21.123 73.839 21.2695C74.1808 21.416 74.5861 21.4893 75.0548 21.4893C75.4943 21.4893 75.9044 21.4111 76.2853 21.2549C76.6661 21.0889 76.9982 20.8691 77.2814 20.5957C77.5743 20.3223 77.8136 20 77.9991 19.6289C78.1847 19.2578 78.3116 18.8574 78.38 18.4277L81.9835 19.2334C81.7003 19.8389 81.2999 20.3516 80.7823 20.7715C80.2745 21.1914 79.7081 21.5283 79.0831 21.7822C78.4581 22.0459 77.8038 22.2363 77.1202 22.3535C76.4464 22.4707 75.797 22.5293 75.172 22.5293C74.049 22.5293 73.048 22.3633 72.1691 22.0312C71.2902 21.6992 70.548 21.2207 69.9425 20.5957C69.3468 19.9707 68.8878 19.2139 68.5656 18.3252C68.2531 17.4268 68.0968 16.4209 68.0968 15.3076C68.0968 14.2236 68.2823 13.2031 68.6534 12.2461C69.0245 11.2793 69.5421 10.4395 70.2062 9.72656C70.8702 9.01367 71.6661 8.45215 72.5939 8.04199C73.5314 7.62207 74.5616 7.41211 75.6847 7.41211C76.505 7.41211 77.3204 7.51465 78.131 7.71973C78.9415 7.91504 79.6691 8.22754 80.3136 8.65723C80.9581 9.07715 81.4757 9.61914 81.8663 10.2832C82.2667 10.9473 82.4669 11.748 82.4669 12.6855C82.4669 13.6035 82.2814 14.3799 81.9103 15.0146C81.549 15.6396 81.0704 16.1523 80.4747 16.5527C79.879 16.9434 79.2003 17.2266 78.4386 17.4023C77.6769 17.5781 76.9005 17.666 76.1095 17.666ZM75.4796 8.49609C75.0304 8.49609 74.63 8.58887 74.2784 8.77441C73.9366 8.9502 73.629 9.19434 73.3556 9.50684C73.0919 9.81934 72.8673 10.1758 72.6818 10.5762C72.4962 10.9766 72.34 11.3965 72.213 11.8359C72.0861 12.2754 71.9884 12.7197 71.92 13.1689C71.8517 13.6182 71.8077 14.0381 71.7882 14.4287C72.1593 15.0635 72.6525 15.5859 73.2677 15.9961C73.8829 16.3965 74.5958 16.5967 75.4064 16.5967C75.924 16.5967 76.3878 16.4795 76.798 16.2451C77.2081 16.001 77.5548 15.6885 77.838 15.3076C78.1212 14.9268 78.3361 14.502 78.4825 14.0332C78.6388 13.5645 78.7169 13.0957 78.7169 12.627C78.7169 12.1582 78.6486 11.6797 78.5118 11.1914C78.3751 10.6934 78.17 10.249 77.8966 9.8584C77.6329 9.45801 77.296 9.13086 76.8859 8.87695C76.4855 8.62305 76.0167 8.49609 75.4796 8.49609Z" fill="white" fill-opacity="0.89"/>
<path d="M89.1173 7.74902L88.9708 10.415C89.2345 9.93652 89.5421 9.49219 89.8937 9.08203C90.255 8.66211 90.6554 8.31055 91.0948 8.02734C91.5441 7.73438 92.0275 7.51953 92.545 7.38281C93.0724 7.24609 93.629 7.2168 94.215 7.29492C95.1427 7.43164 95.9288 7.71484 96.5734 8.14453C97.2179 8.57422 97.7355 9.12109 98.1261 9.78516C98.5265 10.4492 98.8146 11.2207 98.9904 12.0996C99.1661 12.9785 99.254 13.9355 99.254 14.9707C99.254 15.5469 99.2052 16.1523 99.1075 16.7871C99.0099 17.4219 98.8781 18.0566 98.712 18.6914C98.546 19.3164 98.3556 19.9316 98.1407 20.5371C97.9357 21.1426 97.7257 21.709 97.5109 22.2363L93.8927 21.8701C93.9122 21.8604 93.9757 21.7432 94.0831 21.5186C94.1906 21.2939 94.3175 20.9912 94.464 20.6104C94.6105 20.2295 94.7618 19.7852 94.9181 19.2773C95.0841 18.7598 95.2355 18.2031 95.3722 17.6074C95.5187 17.0117 95.6359 16.3867 95.7238 15.7324C95.8214 15.0684 95.8702 14.4043 95.8702 13.7402C95.8702 13.0078 95.8068 12.3584 95.6798 11.792C95.5529 11.2256 95.3527 10.7471 95.0792 10.3564C94.8156 9.96582 94.4738 9.66797 94.0538 9.46289C93.6339 9.25781 93.1261 9.15527 92.5304 9.15527C92.0128 9.15527 91.5538 9.29688 91.1534 9.58008C90.7531 9.85352 90.4015 10.21 90.0988 10.6494C89.796 11.0889 89.5372 11.5869 89.3224 12.1436C89.1075 12.6904 88.9269 13.2422 88.7804 13.7988L88.3995 21.6943L85.6749 21.9287L85.1036 8.07129L89.1173 7.74902Z" fill="white" fill-opacity="0.89"/>
<path d="M107.076 1.34766L106.901 7.35352H110.372V8.58398H106.871L106.476 21.8701L103.78 22.1191L103.502 8.58398H99.8986V7.35352H103.473L103.385 2.28516L107.076 1.34766Z" fill="white" fill-opacity="0.89"/>
<path d="M116.495 4.49707C116.495 4.84863 116.427 5.18066 116.29 5.49316C116.163 5.80566 115.983 6.0791 115.748 6.31348C115.514 6.54785 115.24 6.7334 114.928 6.87012C114.615 7.00684 114.278 7.0752 113.917 7.0752C113.556 7.0752 113.214 7.00684 112.892 6.87012C112.579 6.7334 112.306 6.54785 112.071 6.31348C111.837 6.0791 111.651 5.80566 111.515 5.49316C111.378 5.18066 111.31 4.84863 111.31 4.49707C111.31 4.13574 111.378 3.79883 111.515 3.48633C111.651 3.16406 111.837 2.88574 112.071 2.65137C112.306 2.41699 112.579 2.23145 112.892 2.09473C113.214 1.95801 113.556 1.88965 113.917 1.88965C114.278 1.88965 114.615 1.95801 114.928 2.09473C115.24 2.23145 115.514 2.41699 115.748 2.65137C115.983 2.88574 116.163 3.16406 116.29 3.48633C116.427 3.79883 116.495 4.13574 116.495 4.49707ZM115.997 8.55469L114.884 22.6465L112.057 22.3535L111.881 8.33496L115.997 8.55469Z" fill="white" fill-opacity="0.89"/>
<path d="M133.238 12.4219L129.459 12.8467V12.2461C129.459 11.7773 129.381 11.3037 129.225 10.8252C129.078 10.3369 128.859 9.89258 128.566 9.49219C128.282 9.0918 127.931 8.76465 127.511 8.51074C127.091 8.25684 126.612 8.12988 126.075 8.12988C125.548 8.12988 125.084 8.24707 124.684 8.48145C124.283 8.70605 123.937 9.00879 123.644 9.38965C123.351 9.76074 123.107 10.1904 122.911 10.6787C122.726 11.167 122.574 11.6699 122.457 12.1875C122.35 12.7051 122.272 13.2178 122.223 13.7256C122.174 14.2334 122.15 14.6973 122.15 15.1172C122.15 15.5078 122.164 15.9326 122.193 16.3916C122.223 16.8408 122.281 17.2949 122.369 17.7539C122.457 18.2129 122.579 18.6572 122.735 19.0869C122.901 19.5068 123.116 19.8828 123.38 20.2148C123.644 20.5371 123.961 20.8008 124.332 21.0059C124.713 21.2012 125.162 21.2988 125.68 21.2988C126.197 21.2988 126.666 21.1768 127.086 20.9326C127.516 20.6885 127.882 20.376 128.185 19.9951C128.497 19.6045 128.746 19.1748 128.932 18.7061C129.117 18.2373 129.234 17.7832 129.283 17.3438L133.18 17.4316C133.004 18.252 132.648 18.9697 132.11 19.585C131.573 20.2002 130.939 20.7178 130.206 21.1377C129.484 21.5479 128.707 21.8555 127.877 22.0605C127.047 22.2754 126.246 22.3828 125.475 22.3828C124.449 22.3828 123.507 22.2021 122.648 21.8408C121.788 21.4795 121.046 20.9814 120.421 20.3467C119.806 19.7119 119.322 18.96 118.971 18.0908C118.629 17.2119 118.458 16.2646 118.458 15.249C118.458 14.1162 118.644 13.0566 119.015 12.0703C119.386 11.0742 119.908 10.21 120.582 9.47754C121.256 8.74512 122.057 8.16895 122.984 7.74902C123.922 7.3291 124.952 7.11914 126.075 7.11914C126.993 7.11914 127.843 7.22656 128.624 7.44141C129.415 7.65625 130.118 7.9834 130.734 8.42285C131.349 8.8623 131.866 9.41406 132.286 10.0781C132.716 10.7422 133.033 11.5234 133.238 12.4219Z" fill="white" fill-opacity="0.89"/>
</svg>
