<svg xmlns="http://www.w3.org/2000/svg" xmlns:xlink="http://www.w3.org/1999/xlink" width="268" zoomAndPan="magnify" viewBox="0 0 200.87999 34.499999" height="46" preserveAspectRatio="xMidYMid meet" version="1.0"><defs><g/></defs><g fill="#ffffff" fill-opacity="1"><g transform="translate(11.730321, 26.614284)"><g><path d="M 18.09375 0 L 14.171875 0 L 12.765625 -4.34375 L 5.53125 -4.34375 L 4.109375 0 L 0.28125 0 L 6.796875 -18.859375 L 11.578125 -18.859375 Z M 8.96875 -14.921875 L 6.546875 -7.484375 L 11.734375 -7.484375 L 9.28125 -14.921875 Z M 8.96875 -14.921875 "/></g></g></g><g fill="#ffffff" fill-opacity="1"><g transform="translate(32.754851, 26.614284)"><g><path d="M 2.046875 0 L 2.046875 -19.953125 L 5.625 -19.953125 L 5.625 -12.375 L 5.890625 -12.328125 C 6.367188 -13.015625 6.953125 -13.546875 7.640625 -13.921875 C 8.328125 -14.304688 9.15625 -14.5 10.125 -14.5 C 13.269531 -14.5 14.84375 -12.71875 14.84375 -9.15625 L 14.84375 0 L 11.265625 0 L 11.265625 -8.703125 C 11.265625 -9.679688 11.070312 -10.390625 10.6875 -10.828125 C 10.300781 -11.265625 9.695312 -11.484375 8.875 -11.484375 C 7.875 -11.484375 7.082031 -11.148438 6.5 -10.484375 C 5.914062 -9.816406 5.625 -8.773438 5.625 -7.359375 L 5.625 0 Z M 2.046875 0 "/></g></g></g><g fill="#ffffff" fill-opacity="1"><g transform="translate(52.06376, 26.614284)"><g><path d="M 2.046875 0 L 2.046875 -14.234375 L 5.484375 -14.234375 L 5.484375 -12.328125 L 5.75 -12.265625 C 6.21875 -13.035156 6.765625 -13.597656 7.390625 -13.953125 C 8.015625 -14.316406 8.8125 -14.5 9.78125 -14.5 C 10.851562 -14.5 11.71875 -14.285156 12.375 -13.859375 C 13.03125 -13.429688 13.503906 -12.8125 13.796875 -12 L 14.078125 -12 C 14.515625 -12.851562 15.078125 -13.484375 15.765625 -13.890625 C 16.460938 -14.296875 17.328125 -14.5 18.359375 -14.5 C 21.304688 -14.5 22.78125 -12.859375 22.78125 -9.578125 L 22.78125 0 L 19.203125 0 L 19.203125 -9.125 C 19.203125 -9.957031 19.039062 -10.554688 18.71875 -10.921875 C 18.394531 -11.296875 17.867188 -11.484375 17.140625 -11.484375 C 15.179688 -11.484375 14.203125 -10.171875 14.203125 -7.546875 L 14.203125 0 L 10.625 0 L 10.625 -9.125 C 10.625 -9.957031 10.457031 -10.554688 10.125 -10.921875 C 9.800781 -11.296875 9.273438 -11.484375 8.546875 -11.484375 C 7.628906 -11.484375 6.910156 -11.175781 6.390625 -10.5625 C 5.878906 -9.945312 5.625 -8.96875 5.625 -7.625 L 5.625 0 Z M 2.046875 0 "/></g></g></g><g fill="#ffffff" fill-opacity="1"><g transform="translate(79.31868, 26.614284)"><g><path d="M 14.0625 -6.3125 L 4.921875 -6.3125 C 5.015625 -5.070312 5.363281 -4.171875 5.96875 -3.609375 C 6.570312 -3.046875 7.394531 -2.765625 8.4375 -2.765625 C 9.25 -2.765625 9.910156 -2.914062 10.421875 -3.21875 C 10.929688 -3.519531 11.34375 -3.984375 11.65625 -4.609375 L 11.921875 -4.609375 L 14.296875 -3.078125 C 13.828125 -2.085938 13.125 -1.28125 12.1875 -0.65625 C 11.25 -0.0390625 10 0.265625 8.4375 0.265625 C 6.96875 0.265625 5.695312 -0.0078125 4.625 -0.5625 C 3.550781 -1.125 2.722656 -1.957031 2.140625 -3.0625 C 1.566406 -4.164062 1.28125 -5.515625 1.28125 -7.109375 C 1.28125 -8.722656 1.582031 -10.082031 2.1875 -11.1875 C 2.800781 -12.300781 3.628906 -13.128906 4.671875 -13.671875 C 5.710938 -14.222656 6.878906 -14.5 8.171875 -14.5 C 10.191406 -14.5 11.734375 -13.960938 12.796875 -12.890625 C 13.867188 -11.828125 14.40625 -10.265625 14.40625 -8.203125 C 14.40625 -7.453125 14.378906 -6.875 14.328125 -6.46875 Z M 10.984375 -8.625 C 10.953125 -9.707031 10.703125 -10.492188 10.234375 -10.984375 C 9.765625 -11.484375 9.078125 -11.734375 8.171875 -11.734375 C 6.367188 -11.734375 5.3125 -10.695312 5 -8.625 Z M 10.984375 -8.625 "/></g></g></g><g fill="#ffffff" fill-opacity="1"><g transform="translate(97.427953, 26.614284)"><g><path d="M 7.03125 0.265625 C 5.90625 0.265625 4.910156 -0.00390625 4.046875 -0.546875 C 3.179688 -1.097656 2.503906 -1.925781 2.015625 -3.03125 C 1.523438 -4.132812 1.28125 -5.492188 1.28125 -7.109375 C 1.28125 -8.734375 1.53125 -10.097656 2.03125 -11.203125 C 2.53125 -12.304688 3.222656 -13.128906 4.109375 -13.671875 C 5.003906 -14.222656 6.039062 -14.5 7.21875 -14.5 C 8.101562 -14.5 8.867188 -14.34375 9.515625 -14.03125 C 10.160156 -13.726562 10.707031 -13.257812 11.15625 -12.625 L 11.4375 -12.6875 L 11.4375 -19.953125 L 15 -19.953125 L 15 0 L 11.4375 0 L 11.4375 -1.84375 L 11.15625 -1.890625 C 10.757812 -1.222656 10.21875 -0.695312 9.53125 -0.3125 C 8.84375 0.0703125 8.007812 0.265625 7.03125 0.265625 Z M 8.1875 -2.765625 C 9.195312 -2.765625 9.992188 -3.125 10.578125 -3.84375 C 11.160156 -4.5625 11.453125 -5.648438 11.453125 -7.109375 C 11.453125 -8.566406 11.160156 -9.65625 10.578125 -10.375 C 9.992188 -11.101562 9.195312 -11.46875 8.1875 -11.46875 C 7.144531 -11.46875 6.34375 -11.113281 5.78125 -10.40625 C 5.226562 -9.707031 4.953125 -8.609375 4.953125 -7.109375 C 4.953125 -5.609375 5.226562 -4.507812 5.78125 -3.8125 C 6.34375 -3.113281 7.144531 -2.765625 8.1875 -2.765625 Z M 8.1875 -2.765625 "/></g></g></g><g fill="#ffffff" fill-opacity="1"><g transform="translate(117.123842, 26.614284)"><g><path d="M 5.546875 0.265625 C 4.640625 0.265625 3.847656 0.0976562 3.171875 -0.234375 C 2.503906 -0.566406 1.988281 -1.054688 1.625 -1.703125 C 1.257812 -2.359375 1.078125 -3.140625 1.078125 -4.046875 C 1.078125 -4.890625 1.257812 -5.597656 1.625 -6.171875 C 1.988281 -6.742188 2.546875 -7.210938 3.296875 -7.578125 C 4.054688 -7.941406 5.046875 -8.222656 6.265625 -8.421875 C 7.117188 -8.554688 7.765625 -8.707031 8.203125 -8.875 C 8.648438 -9.039062 8.953125 -9.222656 9.109375 -9.421875 C 9.265625 -9.628906 9.34375 -9.894531 9.34375 -10.21875 C 9.34375 -10.675781 9.179688 -11.023438 8.859375 -11.265625 C 8.546875 -11.503906 8.019531 -11.625 7.28125 -11.625 C 6.488281 -11.625 5.734375 -11.445312 5.015625 -11.09375 C 4.304688 -10.738281 3.6875 -10.273438 3.15625 -9.703125 L 2.90625 -9.703125 L 1.40625 -11.953125 C 2.125 -12.753906 3.003906 -13.378906 4.046875 -13.828125 C 5.085938 -14.273438 6.222656 -14.5 7.453125 -14.5 C 9.335938 -14.5 10.703125 -14.097656 11.546875 -13.296875 C 12.390625 -12.492188 12.8125 -11.359375 12.8125 -9.890625 L 12.8125 -3.71875 C 12.8125 -3.082031 13.09375 -2.765625 13.65625 -2.765625 C 13.863281 -2.765625 14.070312 -2.800781 14.28125 -2.875 L 14.46875 -2.828125 L 14.71875 -0.328125 C 14.519531 -0.203125 14.242188 -0.0976562 13.890625 -0.015625 C 13.535156 0.0664062 13.148438 0.109375 12.734375 0.109375 C 11.878906 0.109375 11.210938 -0.0507812 10.734375 -0.375 C 10.265625 -0.707031 9.925781 -1.222656 9.71875 -1.921875 L 9.4375 -1.953125 C 8.75 -0.472656 7.453125 0.265625 5.546875 0.265625 Z M 6.6875 -2.40625 C 7.507812 -2.40625 8.164062 -2.679688 8.65625 -3.234375 C 9.15625 -3.785156 9.40625 -4.554688 9.40625 -5.546875 L 9.40625 -7 L 9.15625 -7.046875 C 8.945312 -6.867188 8.664062 -6.722656 8.3125 -6.609375 C 7.96875 -6.492188 7.46875 -6.378906 6.8125 -6.265625 C 6.039062 -6.140625 5.484375 -5.921875 5.140625 -5.609375 C 4.796875 -5.296875 4.625 -4.847656 4.625 -4.265625 C 4.625 -3.660156 4.804688 -3.195312 5.171875 -2.875 C 5.535156 -2.5625 6.039062 -2.40625 6.6875 -2.40625 Z M 6.6875 -2.40625 "/></g></g></g><g fill="#ffffff" fill-opacity="1"><g transform="translate(134.768738, 26.614284)"><g><path d="M 9.953125 0.265625 C 8.128906 0.265625 6.773438 -0.410156 5.890625 -1.765625 L 5.625 -1.71875 L 5.625 0 L 2.046875 0 L 2.046875 -19.953125 L 5.625 -19.953125 L 5.625 -12.546875 L 5.890625 -12.5 C 6.378906 -13.175781 6.957031 -13.675781 7.625 -14 C 8.289062 -14.332031 9.09375 -14.5 10.03125 -14.5 C 11.175781 -14.5 12.175781 -14.226562 13.03125 -13.6875 C 13.894531 -13.144531 14.566406 -12.320312 15.046875 -11.21875 C 15.535156 -10.113281 15.78125 -8.742188 15.78125 -7.109375 C 15.78125 -5.492188 15.53125 -4.132812 15.03125 -3.03125 C 14.53125 -1.925781 13.84375 -1.097656 12.96875 -0.546875 C 12.09375 -0.00390625 11.085938 0.265625 9.953125 0.265625 Z M 8.859375 -2.765625 C 9.910156 -2.765625 10.710938 -3.113281 11.265625 -3.8125 C 11.816406 -4.507812 12.09375 -5.609375 12.09375 -7.109375 C 12.09375 -8.609375 11.816406 -9.707031 11.265625 -10.40625 C 10.710938 -11.113281 9.910156 -11.46875 8.859375 -11.46875 C 7.859375 -11.46875 7.0625 -11.101562 6.46875 -10.375 C 5.882812 -9.65625 5.59375 -8.566406 5.59375 -7.109375 C 5.59375 -5.648438 5.882812 -4.5625 6.46875 -3.84375 C 7.0625 -3.125 7.859375 -2.765625 8.859375 -2.765625 Z M 8.859375 -2.765625 "/></g></g></g><g fill="#ffffff" fill-opacity="1"><g transform="translate(154.451734, 26.614284)"><g><path d="M 5.546875 0.265625 C 4.640625 0.265625 3.847656 0.0976562 3.171875 -0.234375 C 2.503906 -0.566406 1.988281 -1.054688 1.625 -1.703125 C 1.257812 -2.359375 1.078125 -3.140625 1.078125 -4.046875 C 1.078125 -4.890625 1.257812 -5.597656 1.625 -6.171875 C 1.988281 -6.742188 2.546875 -7.210938 3.296875 -7.578125 C 4.054688 -7.941406 5.046875 -8.222656 6.265625 -8.421875 C 7.117188 -8.554688 7.765625 -8.707031 8.203125 -8.875 C 8.648438 -9.039062 8.953125 -9.222656 9.109375 -9.421875 C 9.265625 -9.628906 9.34375 -9.894531 9.34375 -10.21875 C 9.34375 -10.675781 9.179688 -11.023438 8.859375 -11.265625 C 8.546875 -11.503906 8.019531 -11.625 7.28125 -11.625 C 6.488281 -11.625 5.734375 -11.445312 5.015625 -11.09375 C 4.304688 -10.738281 3.6875 -10.273438 3.15625 -9.703125 L 2.90625 -9.703125 L 1.40625 -11.953125 C 2.125 -12.753906 3.003906 -13.378906 4.046875 -13.828125 C 5.085938 -14.273438 6.222656 -14.5 7.453125 -14.5 C 9.335938 -14.5 10.703125 -14.097656 11.546875 -13.296875 C 12.390625 -12.492188 12.8125 -11.359375 12.8125 -9.890625 L 12.8125 -3.71875 C 12.8125 -3.082031 13.09375 -2.765625 13.65625 -2.765625 C 13.863281 -2.765625 14.070312 -2.800781 14.28125 -2.875 L 14.46875 -2.828125 L 14.71875 -0.328125 C 14.519531 -0.203125 14.242188 -0.0976562 13.890625 -0.015625 C 13.535156 0.0664062 13.148438 0.109375 12.734375 0.109375 C 11.878906 0.109375 11.210938 -0.0507812 10.734375 -0.375 C 10.265625 -0.707031 9.925781 -1.222656 9.71875 -1.921875 L 9.4375 -1.953125 C 8.75 -0.472656 7.453125 0.265625 5.546875 0.265625 Z M 6.6875 -2.40625 C 7.507812 -2.40625 8.164062 -2.679688 8.65625 -3.234375 C 9.15625 -3.785156 9.40625 -4.554688 9.40625 -5.546875 L 9.40625 -7 L 9.15625 -7.046875 C 8.945312 -6.867188 8.664062 -6.722656 8.3125 -6.609375 C 7.96875 -6.492188 7.46875 -6.378906 6.8125 -6.265625 C 6.039062 -6.140625 5.484375 -5.921875 5.140625 -5.609375 C 4.796875 -5.296875 4.625 -4.847656 4.625 -4.265625 C 4.625 -3.660156 4.804688 -3.195312 5.171875 -2.875 C 5.535156 -2.5625 6.039062 -2.40625 6.6875 -2.40625 Z M 6.6875 -2.40625 "/></g></g></g><g fill="#ffffff" fill-opacity="1"><g transform="translate(172.096629, 26.614284)"><g><path d="M 7.03125 0.265625 C 5.90625 0.265625 4.910156 -0.00390625 4.046875 -0.546875 C 3.179688 -1.097656 2.503906 -1.925781 2.015625 -3.03125 C 1.523438 -4.132812 1.28125 -5.492188 1.28125 -7.109375 C 1.28125 -8.734375 1.53125 -10.097656 2.03125 -11.203125 C 2.53125 -12.304688 3.222656 -13.128906 4.109375 -13.671875 C 5.003906 -14.222656 6.039062 -14.5 7.21875 -14.5 C 8.101562 -14.5 8.867188 -14.34375 9.515625 -14.03125 C 10.160156 -13.726562 10.707031 -13.257812 11.15625 -12.625 L 11.4375 -12.6875 L 11.4375 -19.953125 L 15 -19.953125 L 15 0 L 11.4375 0 L 11.4375 -1.84375 L 11.15625 -1.890625 C 10.757812 -1.222656 10.21875 -0.695312 9.53125 -0.3125 C 8.84375 0.0703125 8.007812 0.265625 7.03125 0.265625 Z M 8.1875 -2.765625 C 9.195312 -2.765625 9.992188 -3.125 10.578125 -3.84375 C 11.160156 -4.5625 11.453125 -5.648438 11.453125 -7.109375 C 11.453125 -8.566406 11.160156 -9.65625 10.578125 -10.375 C 9.992188 -11.101562 9.195312 -11.46875 8.1875 -11.46875 C 7.144531 -11.46875 6.34375 -11.113281 5.78125 -10.40625 C 5.226562 -9.707031 4.953125 -8.609375 4.953125 -7.109375 C 4.953125 -5.609375 5.226562 -4.507812 5.78125 -3.8125 C 6.34375 -3.113281 7.144531 -2.765625 8.1875 -2.765625 Z M 8.1875 -2.765625 "/></g></g></g></svg>