<svg xmlns="http://www.w3.org/2000/svg" xmlns:xlink="http://www.w3.org/1999/xlink" width="268" zoomAndPan="magnify" viewBox="0 0 200.87999 34.499999" height="46" preserveAspectRatio="xMidYMid meet" version="1.0"><defs><g/></defs><g fill="#ffffff" fill-opacity="1"><g transform="translate(49.55171, 26.614284)"><g><path d="M 2.453125 0 L 2.453125 -18.859375 L 10.03125 -18.859375 C 11.976562 -18.859375 13.445312 -18.410156 14.4375 -17.515625 C 15.4375 -16.617188 15.9375 -15.378906 15.9375 -13.796875 C 15.9375 -12.648438 15.644531 -11.707031 15.0625 -10.96875 C 14.476562 -10.238281 13.613281 -9.679688 12.46875 -9.296875 L 12.46875 -9.03125 C 13.0625 -8.769531 13.539062 -8.382812 13.90625 -7.875 C 14.269531 -7.375 14.613281 -6.625 14.9375 -5.625 L 16.828125 0 L 12.984375 0 L 11.140625 -5.640625 C 10.953125 -6.203125 10.738281 -6.640625 10.5 -6.953125 C 10.269531 -7.273438 9.972656 -7.503906 9.609375 -7.640625 C 9.242188 -7.785156 8.765625 -7.859375 8.171875 -7.859375 L 6.1875 -7.859375 L 6.1875 0 Z M 9.578125 -10.8125 C 11.378906 -10.8125 12.28125 -11.65625 12.28125 -13.34375 C 12.28125 -15.050781 11.378906 -15.90625 9.578125 -15.90625 L 6.1875 -15.90625 L 6.1875 -10.8125 Z M 9.578125 -10.8125 "/></g></g></g><g fill="#ffffff" fill-opacity="1"><g transform="translate(71.149532, 26.614284)"><g><path d="M 5.546875 0.265625 C 4.640625 0.265625 3.847656 0.0976562 3.171875 -0.234375 C 2.503906 -0.566406 1.988281 -1.054688 1.625 -1.703125 C 1.257812 -2.359375 1.078125 -3.140625 1.078125 -4.046875 C 1.078125 -4.890625 1.257812 -5.597656 1.625 -6.171875 C 1.988281 -6.742188 2.546875 -7.210938 3.296875 -7.578125 C 4.054688 -7.941406 5.046875 -8.222656 6.265625 -8.421875 C 7.117188 -8.554688 7.765625 -8.707031 8.203125 -8.875 C 8.648438 -9.039062 8.953125 -9.222656 9.109375 -9.421875 C 9.265625 -9.628906 9.34375 -9.894531 9.34375 -10.21875 C 9.34375 -10.675781 9.179688 -11.023438 8.859375 -11.265625 C 8.546875 -11.503906 8.019531 -11.625 7.28125 -11.625 C 6.488281 -11.625 5.734375 -11.445312 5.015625 -11.09375 C 4.304688 -10.738281 3.6875 -10.273438 3.15625 -9.703125 L 2.90625 -9.703125 L 1.40625 -11.953125 C 2.125 -12.753906 3.003906 -13.378906 4.046875 -13.828125 C 5.085938 -14.273438 6.222656 -14.5 7.453125 -14.5 C 9.335938 -14.5 10.703125 -14.097656 11.546875 -13.296875 C 12.390625 -12.492188 12.8125 -11.359375 12.8125 -9.890625 L 12.8125 -3.71875 C 12.8125 -3.082031 13.09375 -2.765625 13.65625 -2.765625 C 13.863281 -2.765625 14.070312 -2.800781 14.28125 -2.875 L 14.46875 -2.828125 L 14.71875 -0.328125 C 14.519531 -0.203125 14.242188 -0.0976562 13.890625 -0.015625 C 13.535156 0.0664062 13.148438 0.109375 12.734375 0.109375 C 11.878906 0.109375 11.210938 -0.0507812 10.734375 -0.375 C 10.265625 -0.707031 9.925781 -1.222656 9.71875 -1.921875 L 9.4375 -1.953125 C 8.75 -0.472656 7.453125 0.265625 5.546875 0.265625 Z M 6.6875 -2.40625 C 7.507812 -2.40625 8.164062 -2.679688 8.65625 -3.234375 C 9.15625 -3.785156 9.40625 -4.554688 9.40625 -5.546875 L 9.40625 -7 L 9.15625 -7.046875 C 8.945312 -6.867188 8.664062 -6.722656 8.3125 -6.609375 C 7.96875 -6.492188 7.46875 -6.378906 6.8125 -6.265625 C 6.039062 -6.140625 5.484375 -5.921875 5.140625 -5.609375 C 4.796875 -5.296875 4.625 -4.847656 4.625 -4.265625 C 4.625 -3.660156 4.804688 -3.195312 5.171875 -2.875 C 5.535156 -2.5625 6.039062 -2.40625 6.6875 -2.40625 Z M 6.6875 -2.40625 "/></g></g></g><g fill="#ffffff" fill-opacity="1"><g transform="translate(90.115882, 26.614284)"><g><path d="M 3.828125 -15.9375 C 3.179688 -15.9375 2.65625 -16.128906 2.25 -16.515625 C 1.851562 -16.910156 1.65625 -17.414062 1.65625 -18.03125 C 1.65625 -18.644531 1.851562 -19.144531 2.25 -19.53125 C 2.65625 -19.925781 3.179688 -20.125 3.828125 -20.125 C 4.265625 -20.125 4.648438 -20.03125 4.984375 -19.84375 C 5.316406 -19.664062 5.570312 -19.421875 5.75 -19.109375 C 5.9375 -18.796875 6.03125 -18.4375 6.03125 -18.03125 C 6.03125 -17.625 5.9375 -17.257812 5.75 -16.9375 C 5.570312 -16.625 5.316406 -16.378906 4.984375 -16.203125 C 4.648438 -16.023438 4.265625 -15.9375 3.828125 -15.9375 Z M 1.109375 6.03125 C 0.0546875 6.03125 -0.785156 5.894531 -1.421875 5.625 L -0.984375 2.8125 L -0.734375 2.734375 C -0.390625 2.898438 0.015625 2.984375 0.484375 2.984375 C 1.523438 2.984375 2.046875 2.363281 2.046875 1.125 L 2.046875 -14.234375 L 5.625 -14.234375 L 5.625 1.015625 C 5.625 2.679688 5.238281 3.929688 4.46875 4.765625 C 3.707031 5.609375 2.585938 6.03125 1.109375 6.03125 Z M 1.109375 6.03125 "/></g></g></g><g fill="#ffffff" fill-opacity="1"><g transform="translate(101.742485, 26.614284)"><g><path d="M 2.046875 0 L 2.046875 -19.953125 L 5.625 -19.953125 L 5.625 -8.875 L 5.96875 -8.875 L 10.09375 -14.234375 L 13.71875 -14.234375 L 13.71875 -13.9375 L 8.875 -7.6875 L 14.25 -0.328125 L 14.25 0 L 10.484375 0 L 5.96875 -6 L 5.625 -6 L 5.625 0 Z M 2.046875 0 "/></g></g></g><g fill="#ffffff" fill-opacity="1"><g transform="translate(119.767141, 26.614284)"><g><path d="M 8.265625 0.265625 C 6.878906 0.265625 5.65625 -0.015625 4.59375 -0.578125 C 3.539062 -1.148438 2.722656 -1.988281 2.140625 -3.09375 C 1.566406 -4.207031 1.28125 -5.546875 1.28125 -7.109375 C 1.28125 -8.671875 1.566406 -10.003906 2.140625 -11.109375 C 2.722656 -12.222656 3.539062 -13.066406 4.59375 -13.640625 C 5.65625 -14.210938 6.878906 -14.5 8.265625 -14.5 C 9.660156 -14.5 10.882812 -14.210938 11.9375 -13.640625 C 12.988281 -13.066406 13.804688 -12.222656 14.390625 -11.109375 C 14.984375 -10.003906 15.28125 -8.671875 15.28125 -7.109375 C 15.28125 -5.546875 14.984375 -4.207031 14.390625 -3.09375 C 13.804688 -1.988281 12.988281 -1.148438 11.9375 -0.578125 C 10.882812 -0.015625 9.660156 0.265625 8.265625 0.265625 Z M 8.265625 -2.765625 C 10.472656 -2.765625 11.578125 -4.210938 11.578125 -7.109375 C 11.578125 -8.609375 11.289062 -9.707031 10.71875 -10.40625 C 10.15625 -11.113281 9.335938 -11.46875 8.265625 -11.46875 C 6.054688 -11.46875 4.953125 -10.015625 4.953125 -7.109375 C 4.953125 -4.210938 6.054688 -2.765625 8.265625 -2.765625 Z M 8.265625 -2.765625 "/></g></g></g><g fill="#ffffff" fill-opacity="1"><g transform="translate(140.268511, 26.614284)"><g><path d="M 9.8125 -3.390625 L 10.75 -0.75 C 10.363281 -0.425781 9.875 -0.175781 9.28125 0 C 8.695312 0.175781 8.035156 0.265625 7.296875 0.265625 C 5.765625 0.265625 4.597656 -0.148438 3.796875 -0.984375 C 2.992188 -1.828125 2.59375 -3.046875 2.59375 -4.640625 L 2.59375 -11.40625 L 0.421875 -11.40625 L 0.421875 -14.25 L 2.59375 -14.25 L 2.59375 -17.015625 L 6.171875 -17.59375 L 6.171875 -14.25 L 10.203125 -14.25 L 10.203125 -11.40625 L 6.171875 -11.40625 L 6.171875 -4.90625 C 6.171875 -4.195312 6.316406 -3.679688 6.609375 -3.359375 C 6.898438 -3.035156 7.320312 -2.875 7.875 -2.875 C 8.519531 -2.875 9.078125 -3.046875 9.546875 -3.390625 Z M 9.8125 -3.390625 "/></g></g></g></svg>