<svg xmlns="http://www.w3.org/2000/svg" xmlns:xlink="http://www.w3.org/1999/xlink" width="268" zoomAndPan="magnify" viewBox="0 0 200.87999 34.499999" height="46" preserveAspectRatio="xMidYMid meet" version="1.0"><defs><g/></defs><g fill="#ffffff" fill-opacity="1"><g transform="translate(13.834971, 26.614284)"><g><path d="M 18.09375 0 L 14.171875 0 L 12.765625 -4.34375 L 5.53125 -4.34375 L 4.109375 0 L 0.28125 0 L 6.796875 -18.859375 L 11.578125 -18.859375 Z M 8.96875 -14.921875 L 6.546875 -7.484375 L 11.734375 -7.484375 L 9.28125 -14.921875 Z M 8.96875 -14.921875 "/></g></g></g><g fill="#ffffff" fill-opacity="1"><g transform="translate(34.859501, 26.614284)"><g><path d="M 2.046875 0 L 2.046875 -14.234375 L 5.484375 -14.234375 L 5.484375 -12.140625 L 5.75 -12.078125 C 6.632812 -13.691406 8.070312 -14.5 10.0625 -14.5 C 11.707031 -14.5 12.914062 -14.050781 13.6875 -13.15625 C 14.457031 -12.257812 14.84375 -10.957031 14.84375 -9.25 L 14.84375 0 L 11.265625 0 L 11.265625 -8.8125 C 11.265625 -9.757812 11.070312 -10.441406 10.6875 -10.859375 C 10.3125 -11.273438 9.707031 -11.484375 8.875 -11.484375 C 7.851562 -11.484375 7.054688 -11.148438 6.484375 -10.484375 C 5.910156 -9.828125 5.625 -8.785156 5.625 -7.359375 L 5.625 0 Z M 2.046875 0 "/></g></g></g><g fill="#ffffff" fill-opacity="1"><g transform="translate(54.16841, 26.614284)"><g><path d="M 2.046875 0 L 2.046875 -19.953125 L 5.625 -19.953125 L 5.625 -8.875 L 5.96875 -8.875 L 10.09375 -14.234375 L 13.71875 -14.234375 L 13.71875 -13.9375 L 8.875 -7.6875 L 14.25 -0.328125 L 14.25 0 L 10.484375 0 L 5.96875 -6 L 5.625 -6 L 5.625 0 Z M 2.046875 0 "/></g></g></g><g fill="#ffffff" fill-opacity="1"><g transform="translate(71.09094, 26.614284)"><g><path d="M 5.90625 0.265625 C 4.625 0.265625 3.644531 -0.078125 2.96875 -0.765625 C 2.300781 -1.460938 1.96875 -2.515625 1.96875 -3.921875 L 1.96875 -19.953125 L 5.53125 -19.953125 L 5.53125 -4.0625 C 5.53125 -3.195312 5.894531 -2.765625 6.625 -2.765625 C 6.820312 -2.765625 7.039062 -2.796875 7.28125 -2.859375 L 7.453125 -2.8125 L 7.78125 -0.0625 C 7.582031 0.0390625 7.316406 0.117188 6.984375 0.171875 C 6.660156 0.234375 6.300781 0.265625 5.90625 0.265625 Z M 5.90625 0.265625 "/></g></g></g><g fill="#ffffff" fill-opacity="1"><g transform="translate(81.912063, 26.614284)"><g><path d="M 14.0625 -6.3125 L 4.921875 -6.3125 C 5.015625 -5.070312 5.363281 -4.171875 5.96875 -3.609375 C 6.570312 -3.046875 7.394531 -2.765625 8.4375 -2.765625 C 9.25 -2.765625 9.910156 -2.914062 10.421875 -3.21875 C 10.929688 -3.519531 11.34375 -3.984375 11.65625 -4.609375 L 11.921875 -4.609375 L 14.296875 -3.078125 C 13.828125 -2.085938 13.125 -1.28125 12.1875 -0.65625 C 11.25 -0.0390625 10 0.265625 8.4375 0.265625 C 6.96875 0.265625 5.695312 -0.0078125 4.625 -0.5625 C 3.550781 -1.125 2.722656 -1.957031 2.140625 -3.0625 C 1.566406 -4.164062 1.28125 -5.515625 1.28125 -7.109375 C 1.28125 -8.722656 1.582031 -10.082031 2.1875 -11.1875 C 2.800781 -12.300781 3.628906 -13.128906 4.671875 -13.671875 C 5.710938 -14.222656 6.878906 -14.5 8.171875 -14.5 C 10.191406 -14.5 11.734375 -13.960938 12.796875 -12.890625 C 13.867188 -11.828125 14.40625 -10.265625 14.40625 -8.203125 C 14.40625 -7.453125 14.378906 -6.875 14.328125 -6.46875 Z M 10.984375 -8.625 C 10.953125 -9.707031 10.703125 -10.492188 10.234375 -10.984375 C 9.765625 -11.484375 9.078125 -11.734375 8.171875 -11.734375 C 6.367188 -11.734375 5.3125 -10.695312 5 -8.625 Z M 10.984375 -8.625 "/></g></g></g><g fill="#ffffff" fill-opacity="1"><g transform="translate(100.021335, 26.614284)"><g><path d="M 6.65625 0.265625 C 5.6875 0.265625 4.796875 0.15625 3.984375 -0.0625 C 3.179688 -0.289062 2.492188 -0.601562 1.921875 -1 C 1.347656 -1.40625 0.921875 -1.867188 0.640625 -2.390625 L 2.625 -4.53125 L 2.90625 -4.53125 C 3.375 -3.894531 3.929688 -3.414062 4.578125 -3.09375 C 5.222656 -2.78125 5.925781 -2.625 6.6875 -2.625 C 7.382812 -2.625 7.90625 -2.75 8.25 -3 C 8.601562 -3.25 8.78125 -3.601562 8.78125 -4.0625 C 8.78125 -4.425781 8.65625 -4.726562 8.40625 -4.96875 C 8.15625 -5.21875 7.742188 -5.410156 7.171875 -5.546875 L 5.296875 -6 C 3.878906 -6.332031 2.84375 -6.84375 2.1875 -7.53125 C 1.539062 -8.226562 1.21875 -9.109375 1.21875 -10.171875 C 1.21875 -11.066406 1.441406 -11.835938 1.890625 -12.484375 C 2.347656 -13.140625 2.988281 -13.640625 3.8125 -13.984375 C 4.632812 -14.328125 5.59375 -14.5 6.6875 -14.5 C 7.96875 -14.5 9.03125 -14.3125 9.875 -13.9375 C 10.71875 -13.570312 11.375 -13.082031 11.84375 -12.46875 L 9.9375 -10.40625 L 9.671875 -10.40625 C 9.273438 -10.84375 8.828125 -11.164062 8.328125 -11.375 C 7.835938 -11.582031 7.289062 -11.6875 6.6875 -11.6875 C 5.269531 -11.6875 4.5625 -11.25 4.5625 -10.375 C 4.5625 -10 4.691406 -9.695312 4.953125 -9.46875 C 5.222656 -9.238281 5.6875 -9.050781 6.34375 -8.90625 L 8.109375 -8.515625 C 9.546875 -8.203125 10.597656 -7.703125 11.265625 -7.015625 C 11.929688 -6.335938 12.265625 -5.421875 12.265625 -4.265625 C 12.265625 -3.367188 12.039062 -2.570312 11.59375 -1.875 C 11.144531 -1.1875 10.5 -0.65625 9.65625 -0.28125 C 8.820312 0.0820312 7.820312 0.265625 6.65625 0.265625 Z M 6.65625 0.265625 "/></g></g></g><g fill="#ffffff" fill-opacity="1"><g transform="translate(115.782923, 26.614284)"><g><path d="M 2.046875 0 L 2.046875 -19.953125 L 5.625 -19.953125 L 5.625 -12.375 L 5.890625 -12.328125 C 6.367188 -13.015625 6.953125 -13.546875 7.640625 -13.921875 C 8.328125 -14.304688 9.15625 -14.5 10.125 -14.5 C 13.269531 -14.5 14.84375 -12.71875 14.84375 -9.15625 L 14.84375 0 L 11.265625 0 L 11.265625 -8.703125 C 11.265625 -9.679688 11.070312 -10.390625 10.6875 -10.828125 C 10.300781 -11.265625 9.695312 -11.484375 8.875 -11.484375 C 7.875 -11.484375 7.082031 -11.148438 6.5 -10.484375 C 5.914062 -9.816406 5.625 -8.773438 5.625 -7.359375 L 5.625 0 Z M 2.046875 0 "/></g></g></g><g fill="#ffffff" fill-opacity="1"><g transform="translate(134.988624, 26.614284)"><g><path d="M 7.640625 0 L 3.890625 0 L 0.515625 -14.234375 L 3.828125 -14.234375 L 5.921875 -4.609375 L 6.1875 -4.609375 L 8.90625 -14.234375 L 12 -14.234375 L 14.796875 -4.609375 L 15.0625 -4.609375 L 17.078125 -14.234375 L 20.3125 -14.234375 L 16.96875 0 L 13.21875 0 L 10.515625 -9.6875 L 10.25 -9.6875 Z M 7.640625 0 "/></g></g></g><g fill="#ffffff" fill-opacity="1"><g transform="translate(158.218907, 26.614284)"><g><path d="M 5.546875 0.265625 C 4.640625 0.265625 3.847656 0.0976562 3.171875 -0.234375 C 2.503906 -0.566406 1.988281 -1.054688 1.625 -1.703125 C 1.257812 -2.359375 1.078125 -3.140625 1.078125 -4.046875 C 1.078125 -4.890625 1.257812 -5.597656 1.625 -6.171875 C 1.988281 -6.742188 2.546875 -7.210938 3.296875 -7.578125 C 4.054688 -7.941406 5.046875 -8.222656 6.265625 -8.421875 C 7.117188 -8.554688 7.765625 -8.707031 8.203125 -8.875 C 8.648438 -9.039062 8.953125 -9.222656 9.109375 -9.421875 C 9.265625 -9.628906 9.34375 -9.894531 9.34375 -10.21875 C 9.34375 -10.675781 9.179688 -11.023438 8.859375 -11.265625 C 8.546875 -11.503906 8.019531 -11.625 7.28125 -11.625 C 6.488281 -11.625 5.734375 -11.445312 5.015625 -11.09375 C 4.304688 -10.738281 3.6875 -10.273438 3.15625 -9.703125 L 2.90625 -9.703125 L 1.40625 -11.953125 C 2.125 -12.753906 3.003906 -13.378906 4.046875 -13.828125 C 5.085938 -14.273438 6.222656 -14.5 7.453125 -14.5 C 9.335938 -14.5 10.703125 -14.097656 11.546875 -13.296875 C 12.390625 -12.492188 12.8125 -11.359375 12.8125 -9.890625 L 12.8125 -3.71875 C 12.8125 -3.082031 13.09375 -2.765625 13.65625 -2.765625 C 13.863281 -2.765625 14.070312 -2.800781 14.28125 -2.875 L 14.46875 -2.828125 L 14.71875 -0.328125 C 14.519531 -0.203125 14.242188 -0.0976562 13.890625 -0.015625 C 13.535156 0.0664062 13.148438 0.109375 12.734375 0.109375 C 11.878906 0.109375 11.210938 -0.0507812 10.734375 -0.375 C 10.265625 -0.707031 9.925781 -1.222656 9.71875 -1.921875 L 9.4375 -1.953125 C 8.75 -0.472656 7.453125 0.265625 5.546875 0.265625 Z M 6.6875 -2.40625 C 7.507812 -2.40625 8.164062 -2.679688 8.65625 -3.234375 C 9.15625 -3.785156 9.40625 -4.554688 9.40625 -5.546875 L 9.40625 -7 L 9.15625 -7.046875 C 8.945312 -6.867188 8.664062 -6.722656 8.3125 -6.609375 C 7.96875 -6.492188 7.46875 -6.378906 6.8125 -6.265625 C 6.039062 -6.140625 5.484375 -5.921875 5.140625 -5.609375 C 4.796875 -5.296875 4.625 -4.847656 4.625 -4.265625 C 4.625 -3.660156 4.804688 -3.195312 5.171875 -2.875 C 5.535156 -2.5625 6.039062 -2.40625 6.6875 -2.40625 Z M 6.6875 -2.40625 "/></g></g></g><g fill="#ffffff" fill-opacity="1"><g transform="translate(175.863803, 26.614284)"><g><path d="M 2.046875 0 L 2.046875 -14.234375 L 5.515625 -14.234375 L 5.515625 -12.109375 L 5.796875 -12.0625 C 6.140625 -12.851562 6.585938 -13.429688 7.140625 -13.796875 C 7.703125 -14.171875 8.382812 -14.359375 9.1875 -14.359375 C 10 -14.359375 10.613281 -14.222656 11.03125 -13.953125 L 10.421875 -10.859375 L 10.15625 -10.8125 C 9.925781 -10.90625 9.703125 -10.972656 9.484375 -11.015625 C 9.265625 -11.054688 9.003906 -11.078125 8.703125 -11.078125 C 7.703125 -11.078125 6.9375 -10.726562 6.40625 -10.03125 C 5.882812 -9.332031 5.625 -8.207031 5.625 -6.65625 L 5.625 0 Z M 2.046875 0 "/></g></g></g></svg>