<svg width="96" height="21" viewBox="0 0 96 21" fill="none" xmlns="http://www.w3.org/2000/svg">
<path d="M18.1789 0V20.4H14.2789L4.82886 6.75V20.4H0.958862V0H4.82886L14.2789 13.62V0H18.1789Z" fill="white" fill-opacity="0.89"/>
<path d="M30.0945 20.76C27.5745 20.76 25.5845 20.07 24.1245 18.69C22.6845 17.31 21.9645 15.46 21.9645 13.14C21.9645 10.82 22.6145 8.96 23.9145 7.56C25.2345 6.16 27.0245 5.46 29.2845 5.46C31.5645 5.46 33.2345 6.22 34.2945 7.74C35.3745 9.24 35.9145 11.02 35.9145 13.08V14.28H26.1045C26.2845 15.24 26.7245 16.01 27.4245 16.59C28.1245 17.15 29.0445 17.43 30.1845 17.43C30.8445 17.43 31.4345 17.35 31.9545 17.19C32.4945 17.01 33.1145 16.76 33.8145 16.44L34.9545 19.26C34.2745 19.78 33.4445 20.16 32.4645 20.4C31.5045 20.64 30.7145 20.76 30.0945 20.76ZM32.2245 11.67C32.0245 10.69 31.6645 9.97 31.1445 9.51C30.6245 9.03 29.9745 8.79 29.1945 8.79C28.3945 8.79 27.7245 9.04 27.1845 9.54C26.6445 10.02 26.2945 10.73 26.1345 11.67H32.2245Z" fill="white" fill-opacity="0.89"/>
<path d="M37.2321 20.4L42.7221 13.02L37.7121 6.42L41.7021 5.85L45.2121 10.53L48.8721 5.85H53.1321L47.5221 13.59L52.6521 20.4H48.3621L45.0021 16.05L41.5521 20.4H37.2321Z" fill="white" fill-opacity="0.89"/>
<path d="M61.8919 20.76C59.5919 20.76 57.7919 20.07 56.4919 18.69C55.2119 17.29 54.5719 15.42 54.5719 13.08C54.5719 10.76 55.2419 8.91 56.5819 7.53C57.9419 6.15 59.7919 5.46 62.1319 5.46C64.5519 5.46 66.4219 6.18 67.7419 7.62C69.0819 9.04 69.7519 10.91 69.7519 13.23C69.7519 15.55 69.0319 17.39 67.5919 18.75C66.1519 20.09 64.2519 20.76 61.8919 20.76ZM65.7319 13.23C65.7319 11.85 65.4219 10.77 64.8019 9.99C64.2019 9.19 63.3419 8.79 62.2219 8.79C61.0819 8.79 60.1919 9.14 59.5519 9.84C58.9119 10.54 58.5919 11.61 58.5919 13.05C58.5919 14.49 58.8619 15.58 59.4019 16.32C59.9619 17.06 60.8119 17.43 61.9519 17.43C63.0719 17.43 63.9819 17.1 64.6819 16.44C65.3819 15.76 65.7319 14.69 65.7319 13.23Z" fill="white" fill-opacity="0.89"/>
<path d="M80.8472 5.85L81.6272 8.97C80.9672 8.97 80.1972 9.16 79.3172 9.54C78.4572 9.92 77.6072 10.48 76.7672 11.22V20.4H72.8672V5.85H74.9072L76.1972 7.98C76.7972 7.46 77.5272 6.98 78.3872 6.54C79.2472 6.08 80.0672 5.85 80.8472 5.85Z" fill="white" fill-opacity="0.89"/>
<path d="M86.5292 16.05C86.5292 16.47 86.6992 16.85 87.0392 17.19C87.3792 17.51 87.8292 17.67 88.3892 17.67C88.9292 17.67 89.4692 17.55 90.0092 17.31C90.5692 17.07 91.0992 16.71 91.5992 16.23V14.01H88.6592C87.9792 14.01 87.4492 14.22 87.0692 14.64C86.7092 15.06 86.5292 15.53 86.5292 16.05ZM88.4492 20.76C86.6692 20.76 85.3492 20.33 84.4892 19.47C83.6292 18.59 83.1992 17.45 83.1992 16.05C83.1992 14.55 83.7092 13.4 84.7292 12.6C85.7492 11.8 87.0792 11.4 88.7192 11.4H91.5692C91.5492 10.66 91.3292 10.09 90.9092 9.69C90.5092 9.27 89.9492 9.06 89.2292 9.06C88.5492 9.06 87.8092 9.16 87.0092 9.36C86.2092 9.54 85.5392 9.76 84.9992 10.02L83.9492 6.78C84.5092 6.4 85.3592 6.09 86.4992 5.85C87.6592 5.59 88.5492 5.46 89.1692 5.46C90.9092 5.46 92.3992 5.97 93.6392 6.99C94.8792 7.99 95.4992 9.27 95.4992 10.83V20.4H93.4892L92.5292 19.17C91.9892 19.59 91.3492 19.96 90.6092 20.28C89.8892 20.6 89.1692 20.76 88.4492 20.76Z" fill="white" fill-opacity="0.89"/>
</svg>
