<svg width="110" height="24" viewBox="0 0 110 24" fill="none" xmlns="http://www.w3.org/2000/svg">
<path d="M7.98413 0.864258C8.78003 0.678711 9.61499 0.585938 10.489 0.585938C11.363 0.585938 12.1956 0.678711 12.9866 0.864258C13.7825 1.04492 14.5002 1.29883 15.1399 1.62598C15.7844 1.95312 16.3777 2.34375 16.9197 2.79785C17.4617 3.25195 17.9304 3.75488 18.3259 4.30664C18.7214 4.85352 19.0559 5.43701 19.3293 6.05713C19.6077 6.67236 19.8152 7.30957 19.9519 7.96875C20.0886 8.62305 20.157 9.28711 20.157 9.96094C20.157 10.6348 20.0886 11.3013 19.9519 11.9604C19.8152 12.6147 19.6077 13.252 19.3293 13.8721C19.0559 14.4873 18.7214 15.0708 18.3259 15.6226C17.9304 16.1694 17.4617 16.6699 16.9197 17.124C16.3777 17.5781 15.7844 17.9688 15.1399 18.2959C14.5002 18.623 13.7825 18.877 12.9866 19.0576C12.1956 19.2432 11.363 19.3359 10.489 19.3359C9.61499 19.3359 8.78003 19.2432 7.98413 19.0576C7.19312 18.877 6.47534 18.623 5.83081 18.2959C5.19116 17.9688 4.60034 17.5781 4.05835 17.124C3.51636 16.6699 3.04761 16.1694 2.6521 15.6226C2.25659 15.0708 1.91968 14.4873 1.64136 13.8721C1.36792 13.252 1.16284 12.6147 1.02612 11.9604C0.889404 11.3013 0.821045 10.6348 0.821045 9.96094C0.821045 9.28711 0.889404 8.62305 1.02612 7.96875C1.16284 7.30957 1.36792 6.67236 1.64136 6.05713C1.91968 5.43701 2.25659 4.85352 2.6521 4.30664C3.04761 3.75488 3.51636 3.25195 4.05835 2.79785C4.60034 2.34375 5.19116 1.95312 5.83081 1.62598C6.47534 1.29883 7.19312 1.04492 7.98413 0.864258ZM12.1003 3.2959C11.6169 3.05176 11.0798 2.92969 10.489 2.92969C9.89819 2.92969 9.35864 3.05176 8.87036 3.2959C8.38696 3.53516 7.97437 3.86719 7.63257 4.29199C7.29565 4.7168 7.01001 5.22705 6.77563 5.82275C6.54126 6.41357 6.36792 7.05566 6.25562 7.74902C6.14819 8.44238 6.09448 9.17969 6.09448 9.96094C6.09448 10.9375 6.18726 11.8481 6.3728 12.6929C6.56323 13.5327 6.83667 14.2749 7.19312 14.9194C7.54956 15.564 8.00854 16.0718 8.57007 16.4429C9.13647 16.8091 9.77612 16.9922 10.489 16.9922C11.2019 16.9922 11.8391 16.8091 12.4006 16.4429C12.967 16.0718 13.4285 15.564 13.7849 14.9194C14.1414 14.2749 14.4124 13.5327 14.5979 12.6929C14.7883 11.8481 14.8835 10.9375 14.8835 9.96094C14.8835 9.17969 14.8274 8.44238 14.7151 7.74902C14.6077 7.05566 14.4368 6.41357 14.2024 5.82275C13.968 5.22705 13.6799 4.7168 13.3381 4.29199C13.0012 3.86719 12.5886 3.53516 12.1003 3.2959Z" fill="white" fill-opacity="0.89"/>
<path d="M31.1653 5.22949C32.3079 5.22949 33.2771 5.52246 34.073 6.1084C34.8689 6.69434 35.4597 7.51221 35.8455 8.56201C36.2361 9.61182 36.4314 10.8618 36.4314 12.312C36.4314 13.3716 36.2922 14.3408 36.0139 15.2197C35.7405 16.0986 35.3547 16.8408 34.8567 17.4463C34.3635 18.0469 33.7654 18.5132 33.0623 18.8452C32.364 19.1724 31.5974 19.3359 30.7625 19.3359C30.3425 19.3359 29.947 19.2969 29.5759 19.2188C29.2048 19.1455 28.8875 19.0527 28.6238 18.9404C28.365 18.8281 28.1184 18.689 27.884 18.5229C27.6497 18.3569 27.4592 18.2007 27.3127 18.0542C27.1711 17.9077 27.032 17.7441 26.8953 17.5635V21.3867H28.3601V23.7305H21.3289V21.3867H22.7937V7.91016H21.3289V5.56641H25.6794L26.5657 7.27295C26.7561 7.00439 26.9734 6.76025 27.2175 6.54053C28.1843 5.6665 29.5002 5.22949 31.1653 5.22949ZM26.8953 15.0806C27.4519 16.106 28.2087 16.6187 29.1658 16.6187C30.1326 16.6187 30.8503 16.2402 31.3191 15.4834C31.7927 14.7266 32.0295 13.6523 32.0295 12.2607C32.0295 11.6064 31.9514 11.0034 31.7952 10.4517C31.6438 9.89502 31.4387 9.43359 31.1799 9.06738C30.926 8.70117 30.6331 8.41797 30.301 8.21777C29.969 8.0127 29.6223 7.91016 29.261 7.91016C28.7727 7.91016 28.3381 8.04688 27.9573 8.32031C27.5813 8.58887 27.2273 8.98926 26.8953 9.52148V15.0806Z" fill="white" fill-opacity="0.89"/>
<path d="M42.0125 2.63672H43.4773V5.56641H47.5789V7.91016H43.4773V15.5273C43.4773 15.8594 43.5701 16.1377 43.7556 16.3623C43.946 16.5869 44.2439 16.6992 44.6492 16.6992C45.1033 16.6992 45.489 16.5503 45.8064 16.2524C46.1238 15.9497 46.324 15.5127 46.407 14.9414L48.1648 15.2344C48.0916 15.8057 47.95 16.3354 47.74 16.8237C47.5349 17.3071 47.2664 17.7393 46.9343 18.1201C46.6023 18.4961 46.1897 18.7939 45.6965 19.0137C45.2083 19.2285 44.6638 19.3359 44.0632 19.3359C42.6033 19.3359 41.4558 18.9966 40.6208 18.3179C39.7908 17.6343 39.3757 16.7041 39.3757 15.5273V7.91016H37.9109V5.56641H38.2039C38.9558 5.56641 39.6199 5.35156 40.196 4.92188C40.7722 4.49219 41.3777 3.73047 42.0125 2.63672Z" fill="white" fill-opacity="0.89"/>
<path d="M51.1897 4.00635C50.7356 3.54736 50.5085 2.99316 50.5085 2.34375C50.5085 1.69434 50.7356 1.14258 51.1897 0.688477C51.6487 0.229492 52.2029 0 52.8523 0C53.5017 0 54.0535 0.229492 54.5076 0.688477C54.9666 1.14258 55.196 1.69434 55.196 2.34375C55.196 2.99316 54.9666 3.54736 54.5076 4.00635C54.0535 4.46045 53.5017 4.6875 52.8523 4.6875C52.2029 4.6875 51.6487 4.46045 51.1897 4.00635ZM49.3367 5.56641H54.9031V16.6992H56.3679V19.043H49.3367V16.6992H50.8015V7.91016H49.3367V5.56641Z" fill="white" fill-opacity="0.89"/>
<path d="M57.5398 5.56641H65.7429V7.91016H63.3333L65.655 13.1836C65.9529 13.877 66.1677 14.4629 66.2996 14.9414C66.4314 14.4629 66.6462 13.877 66.9441 13.1836L69.2585 7.91016H67.2078V5.56641H73.3601V7.91016H71.8074L66.9148 19.043H63.8093L58.9167 7.91016H57.5398V5.56641Z" fill="white" fill-opacity="0.89"/>
<path d="M75.5061 4.00635C75.052 3.54736 74.825 2.99316 74.825 2.34375C74.825 1.69434 75.052 1.14258 75.5061 0.688477C75.9651 0.229492 76.5193 0 77.1687 0C77.8181 0 78.3699 0.229492 78.824 0.688477C79.283 1.14258 79.5125 1.69434 79.5125 2.34375C79.5125 2.99316 79.283 3.54736 78.824 4.00635C78.3699 4.46045 77.8181 4.6875 77.1687 4.6875C76.5193 4.6875 75.9651 4.46045 75.5061 4.00635ZM73.6531 5.56641H79.2195V16.6992H80.6843V19.043H73.6531V16.6992H75.1179V7.91016H73.6531V5.56641Z" fill="white" fill-opacity="0.89"/>
<path d="M86.1628 16.7065C86.4412 16.897 86.8611 16.9922 87.4226 16.9922C87.9255 16.9922 88.3333 16.9629 88.6458 16.9043C88.9631 16.8457 89.2024 16.7505 89.3635 16.6187C89.5247 16.4819 89.6321 16.333 89.6858 16.1719C89.7395 16.0059 89.7664 15.791 89.7664 15.5273C89.7664 15.2148 89.6833 14.9463 89.5173 14.7217C89.3513 14.4971 89.1267 14.3164 88.8435 14.1797C88.5603 14.043 88.2356 13.9233 87.8694 13.8208C87.5032 13.7134 87.1174 13.6133 86.7122 13.5205C86.3069 13.4229 85.9016 13.3179 85.4963 13.2056C85.0911 13.0884 84.7053 12.937 84.3391 12.7515C83.9729 12.561 83.6482 12.3389 83.365 12.085C83.0818 11.8262 82.8572 11.4917 82.6912 11.0815C82.5251 10.6714 82.4421 10.2002 82.4421 9.66797C82.4421 9.17969 82.5007 8.73535 82.6179 8.33496C82.7351 7.93457 82.8914 7.59521 83.0867 7.31689C83.282 7.03369 83.5286 6.78711 83.8264 6.57715C84.1243 6.36719 84.4343 6.19873 84.7566 6.07178C85.0837 5.94482 85.45 5.84229 85.8552 5.76416C86.2654 5.68604 86.6609 5.63477 87.0417 5.61035C87.4226 5.58105 87.8376 5.56641 88.2869 5.56641C89.2634 5.56641 90.1155 5.69092 90.843 5.93994C91.5754 6.18896 92.1516 6.52344 92.5715 6.94336C92.7961 7.13379 92.9695 7.36572 93.0916 7.63916C93.2185 7.90771 93.282 8.19336 93.282 8.49609C93.282 9.0625 93.0818 9.5459 92.6814 9.94629C92.281 10.3467 91.7976 10.5469 91.2312 10.5469C90.6648 10.5469 90.1814 10.3467 89.781 9.94629C89.3806 9.5459 89.1804 9.0625 89.1804 8.49609C89.1804 8.29102 89.2097 8.09326 89.2683 7.90283C88.99 7.7124 88.5701 7.61719 88.0085 7.61719C87.3201 7.61719 86.8049 7.7002 86.4631 7.86621C86.1262 8.03223 85.9578 8.33984 85.9578 8.78906C85.9578 9.07227 86.0286 9.32373 86.1702 9.54346C86.3118 9.7583 86.5046 9.93652 86.7488 10.0781C86.9929 10.2148 87.2761 10.3467 87.5984 10.4736C87.9255 10.5957 88.2722 10.7007 88.6384 10.7886C89.0046 10.8716 89.3806 10.9741 89.7664 11.0962C90.1521 11.2183 90.5281 11.3428 90.8943 11.4697C91.2605 11.5967 91.6047 11.7651 91.927 11.9751C92.2542 12.1802 92.5398 12.4121 92.7839 12.6709C93.0281 12.9297 93.2209 13.2544 93.3625 13.645C93.5042 14.0308 93.575 14.4629 93.575 14.9414C93.575 15.625 93.4602 16.228 93.2307 16.7505C93.0061 17.2681 92.7034 17.688 92.3225 18.0103C91.9465 18.3325 91.4778 18.5962 90.9163 18.8013C90.3547 19.0015 89.7712 19.1406 89.1658 19.2188C88.5603 19.2969 87.8865 19.3359 87.1443 19.3359C85.6453 19.3359 84.4368 19.0503 83.5188 18.479C82.6057 17.9077 82.1492 17.1191 82.1492 16.1133C82.1492 15.5469 82.3494 15.0635 82.7498 14.6631C83.1501 14.2627 83.6335 14.0625 84.2 14.0625C84.7664 14.0625 85.2498 14.2627 85.6501 14.6631C86.0505 15.0635 86.2507 15.5469 86.2507 16.1133C86.2507 16.3184 86.2214 16.5161 86.1628 16.7065Z" fill="white" fill-opacity="0.89"/>
<path d="M99.5662 13.1836C99.6101 13.75 99.7029 14.2554 99.8445 14.6997C99.9861 15.144 100.157 15.5078 100.357 15.791C100.562 16.0742 100.799 16.3086 101.068 16.4941C101.336 16.6748 101.612 16.8042 101.895 16.8823C102.178 16.9556 102.481 16.9922 102.803 16.9922C103.834 16.9922 104.637 16.7944 105.213 16.3989C105.794 15.9985 106.258 15.3833 106.605 14.5532L108.553 15.2271C108.377 15.7007 108.153 16.1475 107.879 16.5674C107.611 16.9824 107.286 17.3657 106.905 17.7173C106.524 18.0688 106.099 18.3716 105.631 18.6255C105.167 18.8745 104.642 19.0698 104.056 19.2114C103.47 19.353 102.852 19.4238 102.203 19.4238C101.241 19.4238 100.33 19.2554 99.4709 18.9185C98.6165 18.5815 97.8718 18.1128 97.2371 17.5122C96.6072 16.9067 96.1067 16.1621 95.7356 15.2783C95.3694 14.3945 95.1863 13.4326 95.1863 12.3926C95.1863 11.3525 95.3694 10.3857 95.7356 9.49219C96.1067 8.59863 96.6072 7.84668 97.2371 7.23633C97.8718 6.62109 98.6165 6.14014 99.4709 5.79346C100.33 5.44678 101.241 5.27344 102.203 5.27344C103.165 5.27344 104.073 5.44678 104.927 5.79346C105.787 6.14014 106.531 6.62109 107.161 7.23633C107.796 7.84668 108.297 8.59863 108.663 9.49219C109.034 10.3857 109.219 11.3525 109.219 12.3926L109.036 13.1836H99.5662ZM99.6174 10.8398H104.788C104.661 9.7168 104.381 8.89893 103.946 8.38623C103.511 7.87354 102.935 7.61719 102.218 7.61719C101.861 7.61719 101.541 7.67578 101.258 7.79297C100.975 7.90527 100.721 8.08838 100.496 8.34229C100.272 8.59131 100.084 8.92578 99.9324 9.3457C99.7859 9.76074 99.6809 10.2588 99.6174 10.8398Z" fill="white" fill-opacity="0.89"/>
</svg>
