<svg width="96" height="22" viewBox="0 0 96 22" fill="none" xmlns="http://www.w3.org/2000/svg">
<path d="M0.126953 21.1816V0.673828H4.25781V17.0801H11.1426V21.1816H0.126953Z" fill="white" fill-opacity="0.89"/>
<path d="M12.6953 16.7578V4.48242H16.6797V16.2891C16.7188 17.0312 17.168 17.4121 18.0273 17.4316V21.3281C16.1133 21.3281 14.6191 20.5762 13.5449 19.0723C12.9785 18.2715 12.6953 17.5 12.6953 16.7578ZM19.375 21.3281V17.4316C20.2148 17.334 20.6738 16.9531 20.752 16.2891V4.48242H24.7363V16.7578C24.7363 17.6758 24.3066 18.6035 23.4473 19.541C22.3535 20.7129 20.9961 21.3086 19.375 21.3281Z" fill="white" fill-opacity="0.89"/>
<path d="M26.9629 21.1816V9.02344C26.9629 8.04688 27.3926 7.09961 28.252 6.18164C29.3457 5.04883 30.6836 4.47266 32.2656 4.45312V8.34961C31.4844 8.4668 31.0449 8.85742 30.9473 9.52148V21.1816H26.9629ZM33.6133 8.34961V4.45312C34.9414 4.47266 36.0742 4.83398 37.0117 5.53711C37.9102 4.81445 39.0332 4.45312 40.3809 4.45312V8.34961C39.4824 8.36914 39.0234 8.75977 39.0039 9.52148V21.1816H35.0195V9.52148C34.9805 8.75977 34.5117 8.36914 33.6133 8.34961ZM41.6992 8.34961V4.45312C43.5938 4.45312 45.0879 5.20508 46.1816 6.70898C46.7676 7.5293 47.0605 8.30078 47.0605 9.02344V21.1816H43.0762V9.52148C43.0371 8.75977 42.5781 8.36914 41.6992 8.34961Z" fill="white" fill-opacity="0.89"/>
<path d="M49.2871 16.6406V8.99414C49.2871 8.03711 49.707 7.09961 50.5469 6.18164C51.6016 5.06836 52.9395 4.50195 54.5605 4.48242V8.29102C53.6816 8.36914 53.2129 8.74023 53.1543 9.4043V16.2305C53.1934 16.9922 53.6621 17.3828 54.5605 17.4023V21.2109C52.6465 21.2109 51.1621 20.4395 50.1074 18.8965C49.5605 18.0957 49.2871 17.3438 49.2871 16.6406ZM55.9082 21.2109V17.4023C56.7285 17.3047 57.1777 16.9336 57.2559 16.2891L57.2266 9.4043C57.0898 8.70117 56.6406 8.33008 55.8789 8.29102V4.48242C57.7148 4.48242 59.1504 5.22461 60.1855 6.70898C60.7324 7.50977 61.0059 8.27148 61.0059 8.99414V16.6406C61.0059 17.6172 60.5859 18.5742 59.7461 19.5117C58.7305 20.625 57.4512 21.1914 55.9082 21.2109Z" fill="white" fill-opacity="0.89"/>
<path d="M62.3242 4.48242H66.6895L70.9668 17.1387L69.6484 21.1816H67.4219L62.3242 4.48242ZM69.2969 8.49609L70.5273 4.48242H74.8926L71.7578 14.4727H71.377L69.2969 8.49609Z" fill="white" fill-opacity="0.89"/>
<path d="M76.5625 2.10938C76.5625 1.30859 76.9238 0.703125 77.6465 0.292969C77.9785 0.0976562 78.3301 0 78.7012 0C79.5215 0 80.1367 0.361328 80.5469 1.08398C80.7227 1.41602 80.8105 1.75781 80.8105 2.10938C80.8105 2.92969 80.4492 3.54492 79.7266 3.95508C79.3945 4.13086 79.0527 4.21875 78.7012 4.21875C77.8613 4.21875 77.2363 3.84766 76.8262 3.10547C76.6504 2.79297 76.5625 2.46094 76.5625 2.10938ZM76.7676 21.1816V5.36133H80.6934V21.1816H76.7676Z" fill="white" fill-opacity="0.89"/>
<path d="M83.0078 17.3145V15.8203C83.0273 14.5703 83.5547 13.6035 84.5898 12.9199C84.8438 12.7832 85.8691 12.4023 87.666 11.7773C89.7559 11.0742 90.8008 10.4492 90.8008 9.90234V9.22852C90.7812 8.52539 90.3516 8.14453 89.5117 8.08594V4.48242C90.9766 4.48242 92.207 4.98047 93.2031 5.97656C94.1016 6.89453 94.5508 7.89062 94.5508 8.96484V16.6113C94.5703 17.1973 94.8438 17.5098 95.3711 17.5488V21.1816C94.1797 21.1816 93.2227 20.8691 92.5 20.2441C91.7383 20.8496 90.752 21.1621 89.541 21.1816V17.5781C89.6973 17.5781 89.8438 17.5586 89.9805 17.5195C90.5273 17.3633 90.8008 16.9922 90.8008 16.4062V14.0039C90.2734 14.3164 89.248 14.6875 87.7246 15.1172C87.0996 15.2734 86.7383 15.3809 86.6406 15.4395C86.4062 15.5566 86.2793 15.7812 86.2598 16.1133V16.5234C86.2598 16.6406 86.2695 16.7578 86.2891 16.875C86.4062 17.3438 86.9629 17.5781 87.959 17.5781V21.1816C86.6504 21.1816 85.5371 20.8496 84.6191 20.1855C83.5449 19.4043 83.0078 18.4473 83.0078 17.3145ZM83.2129 8.67188C83.2324 7.67578 83.6426 6.76758 84.4434 5.94727C85.459 4.9707 86.6406 4.48242 87.9883 4.48242V8.08594C87.0898 8.10547 86.6309 8.73047 86.6113 9.96094L83.2129 8.67188Z" fill="white" fill-opacity="0.89"/>
</svg>
