<svg xmlns="http://www.w3.org/2000/svg" xmlns:xlink="http://www.w3.org/1999/xlink" width="268" zoomAndPan="magnify" viewBox="0 0 200.87999 34.499999" height="46" preserveAspectRatio="xMidYMid meet" version="1.0"><defs><g/></defs><g fill="#ffffff" fill-opacity="1"><g transform="translate(44.291231, 26.614284)"><g><path d="M 6.0625 0 L 2.453125 0 L 2.453125 -18.859375 L 6.71875 -18.859375 L 14.296875 -6.703125 L 14.625 -6.765625 L 14.625 -18.859375 L 18.21875 -18.859375 L 18.21875 0 L 14.390625 0 L 6.390625 -12.984375 L 6.0625 -12.921875 Z M 6.0625 0 "/></g></g></g><g fill="#ffffff" fill-opacity="1"><g transform="translate(68.933304, 26.614284)"><g><path d="M 5.546875 0.265625 C 4.640625 0.265625 3.847656 0.0976562 3.171875 -0.234375 C 2.503906 -0.566406 1.988281 -1.054688 1.625 -1.703125 C 1.257812 -2.359375 1.078125 -3.140625 1.078125 -4.046875 C 1.078125 -4.890625 1.257812 -5.597656 1.625 -6.171875 C 1.988281 -6.742188 2.546875 -7.210938 3.296875 -7.578125 C 4.054688 -7.941406 5.046875 -8.222656 6.265625 -8.421875 C 7.117188 -8.554688 7.765625 -8.707031 8.203125 -8.875 C 8.648438 -9.039062 8.953125 -9.222656 9.109375 -9.421875 C 9.265625 -9.628906 9.34375 -9.894531 9.34375 -10.21875 C 9.34375 -10.675781 9.179688 -11.023438 8.859375 -11.265625 C 8.546875 -11.503906 8.019531 -11.625 7.28125 -11.625 C 6.488281 -11.625 5.734375 -11.445312 5.015625 -11.09375 C 4.304688 -10.738281 3.6875 -10.273438 3.15625 -9.703125 L 2.90625 -9.703125 L 1.40625 -11.953125 C 2.125 -12.753906 3.003906 -13.378906 4.046875 -13.828125 C 5.085938 -14.273438 6.222656 -14.5 7.453125 -14.5 C 9.335938 -14.5 10.703125 -14.097656 11.546875 -13.296875 C 12.390625 -12.492188 12.8125 -11.359375 12.8125 -9.890625 L 12.8125 -3.71875 C 12.8125 -3.082031 13.09375 -2.765625 13.65625 -2.765625 C 13.863281 -2.765625 14.070312 -2.800781 14.28125 -2.875 L 14.46875 -2.828125 L 14.71875 -0.328125 C 14.519531 -0.203125 14.242188 -0.0976562 13.890625 -0.015625 C 13.535156 0.0664062 13.148438 0.109375 12.734375 0.109375 C 11.878906 0.109375 11.210938 -0.0507812 10.734375 -0.375 C 10.265625 -0.707031 9.925781 -1.222656 9.71875 -1.921875 L 9.4375 -1.953125 C 8.75 -0.472656 7.453125 0.265625 5.546875 0.265625 Z M 6.6875 -2.40625 C 7.507812 -2.40625 8.164062 -2.679688 8.65625 -3.234375 C 9.15625 -3.785156 9.40625 -4.554688 9.40625 -5.546875 L 9.40625 -7 L 9.15625 -7.046875 C 8.945312 -6.867188 8.664062 -6.722656 8.3125 -6.609375 C 7.96875 -6.492188 7.46875 -6.378906 6.8125 -6.265625 C 6.039062 -6.140625 5.484375 -5.921875 5.140625 -5.609375 C 4.796875 -5.296875 4.625 -4.847656 4.625 -4.265625 C 4.625 -3.660156 4.804688 -3.195312 5.171875 -2.875 C 5.535156 -2.5625 6.039062 -2.40625 6.6875 -2.40625 Z M 6.6875 -2.40625 "/></g></g></g><g fill="#ffffff" fill-opacity="1"><g transform="translate(87.899654, 26.614284)"><g><path d="M 7.03125 0.265625 C 5.90625 0.265625 4.910156 -0.00390625 4.046875 -0.546875 C 3.179688 -1.097656 2.503906 -1.925781 2.015625 -3.03125 C 1.523438 -4.132812 1.28125 -5.492188 1.28125 -7.109375 C 1.28125 -8.734375 1.53125 -10.097656 2.03125 -11.203125 C 2.53125 -12.304688 3.222656 -13.128906 4.109375 -13.671875 C 5.003906 -14.222656 6.039062 -14.5 7.21875 -14.5 C 8.101562 -14.5 8.867188 -14.34375 9.515625 -14.03125 C 10.160156 -13.726562 10.707031 -13.257812 11.15625 -12.625 L 11.4375 -12.6875 L 11.4375 -19.953125 L 15 -19.953125 L 15 0 L 11.4375 0 L 11.4375 -1.84375 L 11.15625 -1.890625 C 10.757812 -1.222656 10.21875 -0.695312 9.53125 -0.3125 C 8.84375 0.0703125 8.007812 0.265625 7.03125 0.265625 Z M 8.1875 -2.765625 C 9.195312 -2.765625 9.992188 -3.125 10.578125 -3.84375 C 11.160156 -4.5625 11.453125 -5.648438 11.453125 -7.109375 C 11.453125 -8.566406 11.160156 -9.65625 10.578125 -10.375 C 9.992188 -11.101562 9.195312 -11.46875 8.1875 -11.46875 C 7.144531 -11.46875 6.34375 -11.113281 5.78125 -10.40625 C 5.226562 -9.707031 4.953125 -8.609375 4.953125 -7.109375 C 4.953125 -5.609375 5.226562 -4.507812 5.78125 -3.8125 C 6.34375 -3.113281 7.144531 -2.765625 8.1875 -2.765625 Z M 8.1875 -2.765625 "/></g></g></g><g fill="#ffffff" fill-opacity="1"><g transform="translate(108.916998, 26.614284)"><g><path d="M 3.828125 -15.9375 C 3.179688 -15.9375 2.65625 -16.128906 2.25 -16.515625 C 1.851562 -16.910156 1.65625 -17.414062 1.65625 -18.03125 C 1.65625 -18.644531 1.851562 -19.144531 2.25 -19.53125 C 2.65625 -19.925781 3.179688 -20.125 3.828125 -20.125 C 4.265625 -20.125 4.648438 -20.03125 4.984375 -19.84375 C 5.316406 -19.664062 5.570312 -19.421875 5.75 -19.109375 C 5.9375 -18.796875 6.03125 -18.4375 6.03125 -18.03125 C 6.03125 -17.625 5.9375 -17.257812 5.75 -16.9375 C 5.570312 -16.625 5.316406 -16.378906 4.984375 -16.203125 C 4.648438 -16.023438 4.265625 -15.9375 3.828125 -15.9375 Z M 2.046875 0 L 2.046875 -14.234375 L 5.625 -14.234375 L 5.625 0 Z M 2.046875 0 "/></g></g></g><g fill="#ffffff" fill-opacity="1"><g transform="translate(120.543601, 26.614284)"><g><path d="M 5.546875 0.265625 C 4.640625 0.265625 3.847656 0.0976562 3.171875 -0.234375 C 2.503906 -0.566406 1.988281 -1.054688 1.625 -1.703125 C 1.257812 -2.359375 1.078125 -3.140625 1.078125 -4.046875 C 1.078125 -4.890625 1.257812 -5.597656 1.625 -6.171875 C 1.988281 -6.742188 2.546875 -7.210938 3.296875 -7.578125 C 4.054688 -7.941406 5.046875 -8.222656 6.265625 -8.421875 C 7.117188 -8.554688 7.765625 -8.707031 8.203125 -8.875 C 8.648438 -9.039062 8.953125 -9.222656 9.109375 -9.421875 C 9.265625 -9.628906 9.34375 -9.894531 9.34375 -10.21875 C 9.34375 -10.675781 9.179688 -11.023438 8.859375 -11.265625 C 8.546875 -11.503906 8.019531 -11.625 7.28125 -11.625 C 6.488281 -11.625 5.734375 -11.445312 5.015625 -11.09375 C 4.304688 -10.738281 3.6875 -10.273438 3.15625 -9.703125 L 2.90625 -9.703125 L 1.40625 -11.953125 C 2.125 -12.753906 3.003906 -13.378906 4.046875 -13.828125 C 5.085938 -14.273438 6.222656 -14.5 7.453125 -14.5 C 9.335938 -14.5 10.703125 -14.097656 11.546875 -13.296875 C 12.390625 -12.492188 12.8125 -11.359375 12.8125 -9.890625 L 12.8125 -3.71875 C 12.8125 -3.082031 13.09375 -2.765625 13.65625 -2.765625 C 13.863281 -2.765625 14.070312 -2.800781 14.28125 -2.875 L 14.46875 -2.828125 L 14.71875 -0.328125 C 14.519531 -0.203125 14.242188 -0.0976562 13.890625 -0.015625 C 13.535156 0.0664062 13.148438 0.109375 12.734375 0.109375 C 11.878906 0.109375 11.210938 -0.0507812 10.734375 -0.375 C 10.265625 -0.707031 9.925781 -1.222656 9.71875 -1.921875 L 9.4375 -1.953125 C 8.75 -0.472656 7.453125 0.265625 5.546875 0.265625 Z M 6.6875 -2.40625 C 7.507812 -2.40625 8.164062 -2.679688 8.65625 -3.234375 C 9.15625 -3.785156 9.40625 -4.554688 9.40625 -5.546875 L 9.40625 -7 L 9.15625 -7.046875 C 8.945312 -6.867188 8.664062 -6.722656 8.3125 -6.609375 C 7.96875 -6.492188 7.46875 -6.378906 6.8125 -6.265625 C 6.039062 -6.140625 5.484375 -5.921875 5.140625 -5.609375 C 4.796875 -5.296875 4.625 -4.847656 4.625 -4.265625 C 4.625 -3.660156 4.804688 -3.195312 5.171875 -2.875 C 5.535156 -2.5625 6.039062 -2.40625 6.6875 -2.40625 Z M 6.6875 -2.40625 "/></g></g></g><g fill="#ffffff" fill-opacity="1"><g transform="translate(139.509951, 26.614284)"><g><path d="M 7.03125 0.265625 C 5.90625 0.265625 4.910156 -0.00390625 4.046875 -0.546875 C 3.179688 -1.097656 2.503906 -1.925781 2.015625 -3.03125 C 1.523438 -4.132812 1.28125 -5.492188 1.28125 -7.109375 C 1.28125 -8.734375 1.53125 -10.097656 2.03125 -11.203125 C 2.53125 -12.304688 3.222656 -13.128906 4.109375 -13.671875 C 5.003906 -14.222656 6.039062 -14.5 7.21875 -14.5 C 8.101562 -14.5 8.867188 -14.34375 9.515625 -14.03125 C 10.160156 -13.726562 10.707031 -13.257812 11.15625 -12.625 L 11.4375 -12.6875 L 11.4375 -19.953125 L 15 -19.953125 L 15 0 L 11.4375 0 L 11.4375 -1.84375 L 11.15625 -1.890625 C 10.757812 -1.222656 10.21875 -0.695312 9.53125 -0.3125 C 8.84375 0.0703125 8.007812 0.265625 7.03125 0.265625 Z M 8.1875 -2.765625 C 9.195312 -2.765625 9.992188 -3.125 10.578125 -3.84375 C 11.160156 -4.5625 11.453125 -5.648438 11.453125 -7.109375 C 11.453125 -8.566406 11.160156 -9.65625 10.578125 -10.375 C 9.992188 -11.101562 9.195312 -11.46875 8.1875 -11.46875 C 7.144531 -11.46875 6.34375 -11.113281 5.78125 -10.40625 C 5.226562 -9.707031 4.953125 -8.609375 4.953125 -7.109375 C 4.953125 -5.609375 5.226562 -4.507812 5.78125 -3.8125 C 6.34375 -3.113281 7.144531 -2.765625 8.1875 -2.765625 Z M 8.1875 -2.765625 "/></g></g></g></svg>