<svg xmlns="http://www.w3.org/2000/svg" xmlns:xlink="http://www.w3.org/1999/xlink" width="268" zoomAndPan="magnify" viewBox="0 0 200.87999 34.499999" height="46" preserveAspectRatio="xMidYMid meet" version="1.0"><defs><g/></defs><g fill="#ffffff" fill-opacity="1"><g transform="translate(52.806867, 26.614284)"><g><path d="M 9.734375 -18.859375 C 11.085938 -18.859375 12.242188 -18.609375 13.203125 -18.109375 C 14.160156 -17.617188 14.882812 -16.925781 15.375 -16.03125 C 15.863281 -15.144531 16.109375 -14.113281 16.109375 -12.9375 C 16.109375 -11.757812 15.863281 -10.726562 15.375 -9.84375 C 14.882812 -8.957031 14.160156 -8.265625 13.203125 -7.765625 C 12.242188 -7.273438 11.085938 -7.03125 9.734375 -7.03125 L 6.1875 -7.03125 L 6.1875 0 L 2.453125 0 L 2.453125 -18.859375 Z M 9.25 -9.984375 C 11.320312 -9.984375 12.359375 -10.96875 12.359375 -12.9375 C 12.359375 -14.914062 11.320312 -15.90625 9.25 -15.90625 L 6.1875 -15.90625 L 6.1875 -9.984375 Z M 9.25 -9.984375 "/></g></g></g><g fill="#ffffff" fill-opacity="1"><g transform="translate(74.62959, 26.614284)"><g><path d="M 5.546875 0.265625 C 4.640625 0.265625 3.847656 0.0976562 3.171875 -0.234375 C 2.503906 -0.566406 1.988281 -1.054688 1.625 -1.703125 C 1.257812 -2.359375 1.078125 -3.140625 1.078125 -4.046875 C 1.078125 -4.890625 1.257812 -5.597656 1.625 -6.171875 C 1.988281 -6.742188 2.546875 -7.210938 3.296875 -7.578125 C 4.054688 -7.941406 5.046875 -8.222656 6.265625 -8.421875 C 7.117188 -8.554688 7.765625 -8.707031 8.203125 -8.875 C 8.648438 -9.039062 8.953125 -9.222656 9.109375 -9.421875 C 9.265625 -9.628906 9.34375 -9.894531 9.34375 -10.21875 C 9.34375 -10.675781 9.179688 -11.023438 8.859375 -11.265625 C 8.546875 -11.503906 8.019531 -11.625 7.28125 -11.625 C 6.488281 -11.625 5.734375 -11.445312 5.015625 -11.09375 C 4.304688 -10.738281 3.6875 -10.273438 3.15625 -9.703125 L 2.90625 -9.703125 L 1.40625 -11.953125 C 2.125 -12.753906 3.003906 -13.378906 4.046875 -13.828125 C 5.085938 -14.273438 6.222656 -14.5 7.453125 -14.5 C 9.335938 -14.5 10.703125 -14.097656 11.546875 -13.296875 C 12.390625 -12.492188 12.8125 -11.359375 12.8125 -9.890625 L 12.8125 -3.71875 C 12.8125 -3.082031 13.09375 -2.765625 13.65625 -2.765625 C 13.863281 -2.765625 14.070312 -2.800781 14.28125 -2.875 L 14.46875 -2.828125 L 14.71875 -0.328125 C 14.519531 -0.203125 14.242188 -0.0976562 13.890625 -0.015625 C 13.535156 0.0664062 13.148438 0.109375 12.734375 0.109375 C 11.878906 0.109375 11.210938 -0.0507812 10.734375 -0.375 C 10.265625 -0.707031 9.925781 -1.222656 9.71875 -1.921875 L 9.4375 -1.953125 C 8.75 -0.472656 7.453125 0.265625 5.546875 0.265625 Z M 6.6875 -2.40625 C 7.507812 -2.40625 8.164062 -2.679688 8.65625 -3.234375 C 9.15625 -3.785156 9.40625 -4.554688 9.40625 -5.546875 L 9.40625 -7 L 9.15625 -7.046875 C 8.945312 -6.867188 8.664062 -6.722656 8.3125 -6.609375 C 7.96875 -6.492188 7.46875 -6.378906 6.8125 -6.265625 C 6.039062 -6.140625 5.484375 -5.921875 5.140625 -5.609375 C 4.796875 -5.296875 4.625 -4.847656 4.625 -4.265625 C 4.625 -3.660156 4.804688 -3.195312 5.171875 -2.875 C 5.535156 -2.5625 6.039062 -2.40625 6.6875 -2.40625 Z M 6.6875 -2.40625 "/></g></g></g><g fill="#ffffff" fill-opacity="1"><g transform="translate(94.749686, 26.614284)"><g><path d="M 9.8125 -3.390625 L 10.75 -0.75 C 10.363281 -0.425781 9.875 -0.175781 9.28125 0 C 8.695312 0.175781 8.035156 0.265625 7.296875 0.265625 C 5.765625 0.265625 4.597656 -0.148438 3.796875 -0.984375 C 2.992188 -1.828125 2.59375 -3.046875 2.59375 -4.640625 L 2.59375 -11.40625 L 0.421875 -11.40625 L 0.421875 -14.25 L 2.59375 -14.25 L 2.59375 -17.015625 L 6.171875 -17.59375 L 6.171875 -14.25 L 10.203125 -14.25 L 10.203125 -11.40625 L 6.171875 -11.40625 L 6.171875 -4.90625 C 6.171875 -4.195312 6.316406 -3.679688 6.609375 -3.359375 C 6.898438 -3.035156 7.320312 -2.875 7.875 -2.875 C 8.519531 -2.875 9.078125 -3.046875 9.546875 -3.390625 Z M 9.8125 -3.390625 "/></g></g></g><g fill="#ffffff" fill-opacity="1"><g transform="translate(111.090295, 26.614284)"><g><path d="M 5.546875 0.265625 C 4.640625 0.265625 3.847656 0.0976562 3.171875 -0.234375 C 2.503906 -0.566406 1.988281 -1.054688 1.625 -1.703125 C 1.257812 -2.359375 1.078125 -3.140625 1.078125 -4.046875 C 1.078125 -4.890625 1.257812 -5.597656 1.625 -6.171875 C 1.988281 -6.742188 2.546875 -7.210938 3.296875 -7.578125 C 4.054688 -7.941406 5.046875 -8.222656 6.265625 -8.421875 C 7.117188 -8.554688 7.765625 -8.707031 8.203125 -8.875 C 8.648438 -9.039062 8.953125 -9.222656 9.109375 -9.421875 C 9.265625 -9.628906 9.34375 -9.894531 9.34375 -10.21875 C 9.34375 -10.675781 9.179688 -11.023438 8.859375 -11.265625 C 8.546875 -11.503906 8.019531 -11.625 7.28125 -11.625 C 6.488281 -11.625 5.734375 -11.445312 5.015625 -11.09375 C 4.304688 -10.738281 3.6875 -10.273438 3.15625 -9.703125 L 2.90625 -9.703125 L 1.40625 -11.953125 C 2.125 -12.753906 3.003906 -13.378906 4.046875 -13.828125 C 5.085938 -14.273438 6.222656 -14.5 7.453125 -14.5 C 9.335938 -14.5 10.703125 -14.097656 11.546875 -13.296875 C 12.390625 -12.492188 12.8125 -11.359375 12.8125 -9.890625 L 12.8125 -3.71875 C 12.8125 -3.082031 13.09375 -2.765625 13.65625 -2.765625 C 13.863281 -2.765625 14.070312 -2.800781 14.28125 -2.875 L 14.46875 -2.828125 L 14.71875 -0.328125 C 14.519531 -0.203125 14.242188 -0.0976562 13.890625 -0.015625 C 13.535156 0.0664062 13.148438 0.109375 12.734375 0.109375 C 11.878906 0.109375 11.210938 -0.0507812 10.734375 -0.375 C 10.265625 -0.707031 9.925781 -1.222656 9.71875 -1.921875 L 9.4375 -1.953125 C 8.75 -0.472656 7.453125 0.265625 5.546875 0.265625 Z M 6.6875 -2.40625 C 7.507812 -2.40625 8.164062 -2.679688 8.65625 -3.234375 C 9.15625 -3.785156 9.40625 -4.554688 9.40625 -5.546875 L 9.40625 -7 L 9.15625 -7.046875 C 8.945312 -6.867188 8.664062 -6.722656 8.3125 -6.609375 C 7.96875 -6.492188 7.46875 -6.378906 6.8125 -6.265625 C 6.039062 -6.140625 5.484375 -5.921875 5.140625 -5.609375 C 4.796875 -5.296875 4.625 -4.847656 4.625 -4.265625 C 4.625 -3.660156 4.804688 -3.195312 5.171875 -2.875 C 5.535156 -2.5625 6.039062 -2.40625 6.6875 -2.40625 Z M 6.6875 -2.40625 "/></g></g></g><g fill="#ffffff" fill-opacity="1"><g transform="translate(131.378112, 26.614284)"><g><path d="M 2.046875 0 L 2.046875 -14.234375 L 5.484375 -14.234375 L 5.484375 -12.140625 L 5.75 -12.078125 C 6.632812 -13.691406 8.070312 -14.5 10.0625 -14.5 C 11.707031 -14.5 12.914062 -14.050781 13.6875 -13.15625 C 14.457031 -12.257812 14.84375 -10.957031 14.84375 -9.25 L 14.84375 0 L 11.265625 0 L 11.265625 -8.8125 C 11.265625 -9.757812 11.070312 -10.441406 10.6875 -10.859375 C 10.3125 -11.273438 9.707031 -11.484375 8.875 -11.484375 C 7.851562 -11.484375 7.054688 -11.148438 6.484375 -10.484375 C 5.910156 -9.828125 5.625 -8.785156 5.625 -7.359375 L 5.625 0 Z M 2.046875 0 "/></g></g></g></svg>