<svg xmlns="http://www.w3.org/2000/svg" xmlns:xlink="http://www.w3.org/1999/xlink" width="268" zoomAndPan="magnify" viewBox="0 0 200.87999 34.499999" height="46" preserveAspectRatio="xMidYMid meet" version="1.0"><defs><g/></defs><g fill="#ffffff" fill-opacity="1"><g transform="translate(19.220734, 26.614284)"><g><path d="M 2.453125 0 L 2.453125 -18.859375 L 10.5 -18.859375 C 11.664062 -18.859375 12.648438 -18.675781 13.453125 -18.3125 C 14.253906 -17.945312 14.859375 -17.425781 15.265625 -16.75 C 15.679688 -16.070312 15.890625 -15.273438 15.890625 -14.359375 C 15.890625 -13.523438 15.6875 -12.789062 15.28125 -12.15625 C 14.882812 -11.519531 14.304688 -11.007812 13.546875 -10.625 L 13.546875 -10.34375 C 14.734375 -10.03125 15.648438 -9.46875 16.296875 -8.65625 C 16.941406 -7.84375 17.265625 -6.84375 17.265625 -5.65625 C 17.265625 -3.84375 16.71875 -2.445312 15.625 -1.46875 C 14.539062 -0.488281 12.925781 0 10.78125 0 Z M 9.734375 -11.34375 C 11.460938 -11.34375 12.328125 -12.125 12.328125 -13.6875 C 12.328125 -14.488281 12.113281 -15.082031 11.6875 -15.46875 C 11.257812 -15.863281 10.609375 -16.0625 9.734375 -16.0625 L 6.1875 -16.0625 L 6.1875 -11.34375 Z M 10.40625 -2.953125 C 12.46875 -2.953125 13.5 -3.882812 13.5 -5.75 C 13.5 -7.625 12.46875 -8.5625 10.40625 -8.5625 L 6.1875 -8.5625 L 6.1875 -2.953125 Z M 10.40625 -2.953125 "/></g></g></g><g fill="#ffffff" fill-opacity="1"><g transform="translate(40.309756, 26.614284)"><g><path d="M 2.046875 0 L 2.046875 -19.953125 L 5.625 -19.953125 L 5.625 -12.375 L 5.890625 -12.328125 C 6.367188 -13.015625 6.953125 -13.546875 7.640625 -13.921875 C 8.328125 -14.304688 9.15625 -14.5 10.125 -14.5 C 13.269531 -14.5 14.84375 -12.71875 14.84375 -9.15625 L 14.84375 0 L 11.265625 0 L 11.265625 -8.703125 C 11.265625 -9.679688 11.070312 -10.390625 10.6875 -10.828125 C 10.300781 -11.265625 9.695312 -11.484375 8.875 -11.484375 C 7.875 -11.484375 7.082031 -11.148438 6.5 -10.484375 C 5.914062 -9.816406 5.625 -8.773438 5.625 -7.359375 L 5.625 0 Z M 2.046875 0 "/></g></g></g><g fill="#ffffff" fill-opacity="1"><g transform="translate(59.618664, 26.614284)"><g><path d="M 5.546875 0.265625 C 4.640625 0.265625 3.847656 0.0976562 3.171875 -0.234375 C 2.503906 -0.566406 1.988281 -1.054688 1.625 -1.703125 C 1.257812 -2.359375 1.078125 -3.140625 1.078125 -4.046875 C 1.078125 -4.890625 1.257812 -5.597656 1.625 -6.171875 C 1.988281 -6.742188 2.546875 -7.210938 3.296875 -7.578125 C 4.054688 -7.941406 5.046875 -8.222656 6.265625 -8.421875 C 7.117188 -8.554688 7.765625 -8.707031 8.203125 -8.875 C 8.648438 -9.039062 8.953125 -9.222656 9.109375 -9.421875 C 9.265625 -9.628906 9.34375 -9.894531 9.34375 -10.21875 C 9.34375 -10.675781 9.179688 -11.023438 8.859375 -11.265625 C 8.546875 -11.503906 8.019531 -11.625 7.28125 -11.625 C 6.488281 -11.625 5.734375 -11.445312 5.015625 -11.09375 C 4.304688 -10.738281 3.6875 -10.273438 3.15625 -9.703125 L 2.90625 -9.703125 L 1.40625 -11.953125 C 2.125 -12.753906 3.003906 -13.378906 4.046875 -13.828125 C 5.085938 -14.273438 6.222656 -14.5 7.453125 -14.5 C 9.335938 -14.5 10.703125 -14.097656 11.546875 -13.296875 C 12.390625 -12.492188 12.8125 -11.359375 12.8125 -9.890625 L 12.8125 -3.71875 C 12.8125 -3.082031 13.09375 -2.765625 13.65625 -2.765625 C 13.863281 -2.765625 14.070312 -2.800781 14.28125 -2.875 L 14.46875 -2.828125 L 14.71875 -0.328125 C 14.519531 -0.203125 14.242188 -0.0976562 13.890625 -0.015625 C 13.535156 0.0664062 13.148438 0.109375 12.734375 0.109375 C 11.878906 0.109375 11.210938 -0.0507812 10.734375 -0.375 C 10.265625 -0.707031 9.925781 -1.222656 9.71875 -1.921875 L 9.4375 -1.953125 C 8.75 -0.472656 7.453125 0.265625 5.546875 0.265625 Z M 6.6875 -2.40625 C 7.507812 -2.40625 8.164062 -2.679688 8.65625 -3.234375 C 9.15625 -3.785156 9.40625 -4.554688 9.40625 -5.546875 L 9.40625 -7 L 9.15625 -7.046875 C 8.945312 -6.867188 8.664062 -6.722656 8.3125 -6.609375 C 7.96875 -6.492188 7.46875 -6.378906 6.8125 -6.265625 C 6.039062 -6.140625 5.484375 -5.921875 5.140625 -5.609375 C 4.796875 -5.296875 4.625 -4.847656 4.625 -4.265625 C 4.625 -3.660156 4.804688 -3.195312 5.171875 -2.875 C 5.535156 -2.5625 6.039062 -2.40625 6.6875 -2.40625 Z M 6.6875 -2.40625 "/></g></g></g><g fill="#ffffff" fill-opacity="1"><g transform="translate(76.992633, 26.614284)"><g><path d="M 9.796875 0 L 5.53125 0 L 0.265625 -14.234375 L 4.015625 -14.234375 L 7.546875 -4.09375 L 7.84375 -4.09375 L 11.390625 -14.234375 L 15.046875 -14.234375 Z M 9.796875 0 "/></g></g></g><g fill="#ffffff" fill-opacity="1"><g transform="translate(94.934208, 26.614284)"><g><path d="M 2.046875 0 L 2.046875 -14.234375 L 5.484375 -14.234375 L 5.484375 -12.140625 L 5.75 -12.078125 C 6.632812 -13.691406 8.070312 -14.5 10.0625 -14.5 C 11.707031 -14.5 12.914062 -14.050781 13.6875 -13.15625 C 14.457031 -12.257812 14.84375 -10.957031 14.84375 -9.25 L 14.84375 0 L 11.265625 0 L 11.265625 -8.8125 C 11.265625 -9.757812 11.070312 -10.441406 10.6875 -10.859375 C 10.3125 -11.273438 9.707031 -11.484375 8.875 -11.484375 C 7.851562 -11.484375 7.054688 -11.148438 6.484375 -10.484375 C 5.910156 -9.828125 5.625 -8.785156 5.625 -7.359375 L 5.625 0 Z M 2.046875 0 "/></g></g></g><g fill="#ffffff" fill-opacity="1"><g transform="translate(114.243116, 26.614284)"><g><path d="M 5.546875 0.265625 C 4.640625 0.265625 3.847656 0.0976562 3.171875 -0.234375 C 2.503906 -0.566406 1.988281 -1.054688 1.625 -1.703125 C 1.257812 -2.359375 1.078125 -3.140625 1.078125 -4.046875 C 1.078125 -4.890625 1.257812 -5.597656 1.625 -6.171875 C 1.988281 -6.742188 2.546875 -7.210938 3.296875 -7.578125 C 4.054688 -7.941406 5.046875 -8.222656 6.265625 -8.421875 C 7.117188 -8.554688 7.765625 -8.707031 8.203125 -8.875 C 8.648438 -9.039062 8.953125 -9.222656 9.109375 -9.421875 C 9.265625 -9.628906 9.34375 -9.894531 9.34375 -10.21875 C 9.34375 -10.675781 9.179688 -11.023438 8.859375 -11.265625 C 8.546875 -11.503906 8.019531 -11.625 7.28125 -11.625 C 6.488281 -11.625 5.734375 -11.445312 5.015625 -11.09375 C 4.304688 -10.738281 3.6875 -10.273438 3.15625 -9.703125 L 2.90625 -9.703125 L 1.40625 -11.953125 C 2.125 -12.753906 3.003906 -13.378906 4.046875 -13.828125 C 5.085938 -14.273438 6.222656 -14.5 7.453125 -14.5 C 9.335938 -14.5 10.703125 -14.097656 11.546875 -13.296875 C 12.390625 -12.492188 12.8125 -11.359375 12.8125 -9.890625 L 12.8125 -3.71875 C 12.8125 -3.082031 13.09375 -2.765625 13.65625 -2.765625 C 13.863281 -2.765625 14.070312 -2.800781 14.28125 -2.875 L 14.46875 -2.828125 L 14.71875 -0.328125 C 14.519531 -0.203125 14.242188 -0.0976562 13.890625 -0.015625 C 13.535156 0.0664062 13.148438 0.109375 12.734375 0.109375 C 11.878906 0.109375 11.210938 -0.0507812 10.734375 -0.375 C 10.265625 -0.707031 9.925781 -1.222656 9.71875 -1.921875 L 9.4375 -1.953125 C 8.75 -0.472656 7.453125 0.265625 5.546875 0.265625 Z M 6.6875 -2.40625 C 7.507812 -2.40625 8.164062 -2.679688 8.65625 -3.234375 C 9.15625 -3.785156 9.40625 -4.554688 9.40625 -5.546875 L 9.40625 -7 L 9.15625 -7.046875 C 8.945312 -6.867188 8.664062 -6.722656 8.3125 -6.609375 C 7.96875 -6.492188 7.46875 -6.378906 6.8125 -6.265625 C 6.039062 -6.140625 5.484375 -5.921875 5.140625 -5.609375 C 4.796875 -5.296875 4.625 -4.847656 4.625 -4.265625 C 4.625 -3.660156 4.804688 -3.195312 5.171875 -2.875 C 5.535156 -2.5625 6.039062 -2.40625 6.6875 -2.40625 Z M 6.6875 -2.40625 "/></g></g></g><g fill="#ffffff" fill-opacity="1"><g transform="translate(131.888012, 26.614284)"><g><path d="M 7.375 6.03125 C 5.03125 6.03125 3.296875 5.6875 2.171875 5 C 1.054688 4.3125 0.5 3.351562 0.5 2.125 C 0.5 1.375 0.738281 0.757812 1.21875 0.28125 C 1.695312 -0.1875 2.382812 -0.503906 3.28125 -0.671875 L 3.28125 -0.9375 C 2.789062 -1.226562 2.441406 -1.550781 2.234375 -1.90625 C 2.023438 -2.269531 1.921875 -2.6875 1.921875 -3.15625 C 1.921875 -4.300781 2.664062 -5.070312 4.15625 -5.46875 L 4.15625 -5.734375 C 3.382812 -6.179688 2.804688 -6.726562 2.421875 -7.375 C 2.035156 -8.019531 1.84375 -8.804688 1.84375 -9.734375 C 1.84375 -10.671875 2.054688 -11.5 2.484375 -12.21875 C 2.921875 -12.9375 3.554688 -13.492188 4.390625 -13.890625 C 5.234375 -14.296875 6.242188 -14.5 7.421875 -14.5 C 8.609375 -14.5 9.550781 -14.289062 10.25 -13.875 C 10.695312 -14.519531 10.953125 -15.257812 11.015625 -16.09375 L 11.28125 -16.25 L 13.859375 -15.625 C 13.773438 -14.945312 13.570312 -14.375 13.25 -13.90625 C 12.9375 -13.445312 12.445312 -13.039062 11.78125 -12.6875 L 11.78125 -12.390625 C 12.582031 -11.691406 12.984375 -10.707031 12.984375 -9.4375 C 12.984375 -8.5625 12.757812 -7.773438 12.3125 -7.078125 C 11.875 -6.378906 11.234375 -5.828125 10.390625 -5.421875 C 9.554688 -5.023438 8.566406 -4.828125 7.421875 -4.828125 L 6.875 -4.84375 C 6.53125 -4.851562 6.289062 -4.859375 6.15625 -4.859375 C 5.820312 -4.859375 5.5625 -4.769531 5.375 -4.59375 C 5.195312 -4.414062 5.109375 -4.191406 5.109375 -3.921875 C 5.109375 -3.617188 5.226562 -3.382812 5.46875 -3.21875 C 5.707031 -3.050781 6.0625 -2.957031 6.53125 -2.9375 L 9.71875 -2.828125 C 12.863281 -2.734375 14.4375 -1.378906 14.4375 1.234375 C 14.4375 2.160156 14.203125 2.984375 13.734375 3.703125 C 13.265625 4.421875 12.503906 4.988281 11.453125 5.40625 C 10.398438 5.820312 9.039062 6.03125 7.375 6.03125 Z M 7.421875 -7.328125 C 8.109375 -7.328125 8.644531 -7.53125 9.03125 -7.9375 C 9.414062 -8.34375 9.609375 -8.914062 9.609375 -9.65625 C 9.609375 -10.40625 9.414062 -10.976562 9.03125 -11.375 C 8.644531 -11.78125 8.109375 -11.984375 7.421875 -11.984375 C 6.722656 -11.984375 6.179688 -11.78125 5.796875 -11.375 C 5.421875 -10.976562 5.234375 -10.40625 5.234375 -9.65625 C 5.234375 -8.90625 5.421875 -8.328125 5.796875 -7.921875 C 6.179688 -7.523438 6.722656 -7.328125 7.421875 -7.328125 Z M 7.375 3.4375 C 8.601562 3.4375 9.492188 3.265625 10.046875 2.921875 C 10.597656 2.578125 10.875 2.132812 10.875 1.59375 C 10.875 1.144531 10.734375 0.8125 10.453125 0.59375 C 10.171875 0.382812 9.71875 0.273438 9.09375 0.265625 L 6.28125 0.125 C 6.1875 0.125 6.097656 0.117188 6.015625 0.109375 C 5.929688 0.109375 5.851562 0.109375 5.78125 0.109375 C 5.175781 0.109375 4.71875 0.234375 4.40625 0.484375 C 4.09375 0.742188 3.9375 1.101562 3.9375 1.5625 C 3.9375 2.164062 4.222656 2.628906 4.796875 2.953125 C 5.367188 3.273438 6.226562 3.4375 7.375 3.4375 Z M 7.375 3.4375 "/></g></g></g><g fill="#ffffff" fill-opacity="1"><g transform="translate(149.158797, 26.614284)"><g><path d="M 5.546875 0.265625 C 4.640625 0.265625 3.847656 0.0976562 3.171875 -0.234375 C 2.503906 -0.566406 1.988281 -1.054688 1.625 -1.703125 C 1.257812 -2.359375 1.078125 -3.140625 1.078125 -4.046875 C 1.078125 -4.890625 1.257812 -5.597656 1.625 -6.171875 C 1.988281 -6.742188 2.546875 -7.210938 3.296875 -7.578125 C 4.054688 -7.941406 5.046875 -8.222656 6.265625 -8.421875 C 7.117188 -8.554688 7.765625 -8.707031 8.203125 -8.875 C 8.648438 -9.039062 8.953125 -9.222656 9.109375 -9.421875 C 9.265625 -9.628906 9.34375 -9.894531 9.34375 -10.21875 C 9.34375 -10.675781 9.179688 -11.023438 8.859375 -11.265625 C 8.546875 -11.503906 8.019531 -11.625 7.28125 -11.625 C 6.488281 -11.625 5.734375 -11.445312 5.015625 -11.09375 C 4.304688 -10.738281 3.6875 -10.273438 3.15625 -9.703125 L 2.90625 -9.703125 L 1.40625 -11.953125 C 2.125 -12.753906 3.003906 -13.378906 4.046875 -13.828125 C 5.085938 -14.273438 6.222656 -14.5 7.453125 -14.5 C 9.335938 -14.5 10.703125 -14.097656 11.546875 -13.296875 C 12.390625 -12.492188 12.8125 -11.359375 12.8125 -9.890625 L 12.8125 -3.71875 C 12.8125 -3.082031 13.09375 -2.765625 13.65625 -2.765625 C 13.863281 -2.765625 14.070312 -2.800781 14.28125 -2.875 L 14.46875 -2.828125 L 14.71875 -0.328125 C 14.519531 -0.203125 14.242188 -0.0976562 13.890625 -0.015625 C 13.535156 0.0664062 13.148438 0.109375 12.734375 0.109375 C 11.878906 0.109375 11.210938 -0.0507812 10.734375 -0.375 C 10.265625 -0.707031 9.925781 -1.222656 9.71875 -1.921875 L 9.4375 -1.953125 C 8.75 -0.472656 7.453125 0.265625 5.546875 0.265625 Z M 6.6875 -2.40625 C 7.507812 -2.40625 8.164062 -2.679688 8.65625 -3.234375 C 9.15625 -3.785156 9.40625 -4.554688 9.40625 -5.546875 L 9.40625 -7 L 9.15625 -7.046875 C 8.945312 -6.867188 8.664062 -6.722656 8.3125 -6.609375 C 7.96875 -6.492188 7.46875 -6.378906 6.8125 -6.265625 C 6.039062 -6.140625 5.484375 -5.921875 5.140625 -5.609375 C 4.796875 -5.296875 4.625 -4.847656 4.625 -4.265625 C 4.625 -3.660156 4.804688 -3.195312 5.171875 -2.875 C 5.535156 -2.5625 6.039062 -2.40625 6.6875 -2.40625 Z M 6.6875 -2.40625 "/></g></g></g><g fill="#ffffff" fill-opacity="1"><g transform="translate(166.803692, 26.614284)"><g><path d="M 2.046875 0 L 2.046875 -14.234375 L 5.515625 -14.234375 L 5.515625 -12.109375 L 5.796875 -12.0625 C 6.140625 -12.851562 6.585938 -13.429688 7.140625 -13.796875 C 7.703125 -14.171875 8.382812 -14.359375 9.1875 -14.359375 C 10 -14.359375 10.613281 -14.222656 11.03125 -13.953125 L 10.421875 -10.859375 L 10.15625 -10.8125 C 9.925781 -10.90625 9.703125 -10.972656 9.484375 -11.015625 C 9.265625 -11.054688 9.003906 -11.078125 8.703125 -11.078125 C 7.703125 -11.078125 6.9375 -10.726562 6.40625 -10.03125 C 5.882812 -9.332031 5.625 -8.207031 5.625 -6.65625 L 5.625 0 Z M 2.046875 0 "/></g></g></g><g fill="#ffffff" fill-opacity="1"><g transform="translate(180.616035, 26.614284)"><g/></g></g></svg>