<svg width="127" height="21" viewBox="0 0 127 21" fill="none" xmlns="http://www.w3.org/2000/svg">
<path d="M0.637695 21V0H7.1177L9.8777 13.32H10.0877L12.8177 0H19.2677V21H15.1877L15.3077 5.67H14.9777L11.5877 21H8.3477L4.9277 5.67H4.5977L4.7477 21H0.637695Z" fill="white" fill-opacity="0.89"/>
<path d="M21.0288 21V20.31L25.4088 0L32.8788 0.0299996L37.2888 20.31V21H32.9088L31.9488 15.72H26.3688L25.3788 21H21.0288ZM26.9388 12.03H31.3488L29.8788 3.99H28.4088L26.9388 12.03Z" fill="white" fill-opacity="0.89"/>
<path d="M39.018 0H43.218V21H38.958L39.018 0ZM46.638 0C47.838 0 48.898 0.24 49.818 0.72C50.758 1.18 51.498 1.89 52.038 2.85C52.578 3.79 52.848 4.97 52.848 6.39C52.848 7.85 52.548 9.07 51.948 10.05C51.368 11.01 50.608 11.74 49.668 12.24C48.748 12.72 47.758 12.96 46.698 12.96H40.998V0H46.638ZM43.158 9.33H46.128C46.608 9.33 47.028 9.22 47.388 9C47.748 8.78 48.018 8.46 48.198 8.04C48.398 7.6 48.498 7.11 48.498 6.57C48.498 5.99 48.398 5.5 48.198 5.1C48.018 4.68 47.748 4.37 47.388 4.17C47.028 3.95 46.608 3.84 46.128 3.84H43.158V9.33ZM44.838 10.68L48.858 10.59L52.848 20.31V21H48.468L44.838 10.68Z" fill="white" fill-opacity="0.89"/>
<path d="M55.042 21V0H59.302V8.31H59.902L64.492 0H68.902V0.69L63.232 10.35L68.902 20.31V21H64.492L59.902 12.45H59.302V21H55.042Z" fill="white" fill-opacity="0.89"/>
<path d="M68.9878 21V20.31L73.3678 0L80.8378 0.0299996L85.2478 20.31V21H80.8678L79.9078 15.72H74.3278L73.3378 21H68.9878ZM74.8978 12.03H79.3078L77.8378 3.99H76.3678L74.8978 12.03Z" fill="white" fill-opacity="0.89"/>
<path d="M86.917 21V0H95.407C96.927 0 98.147 0.45 99.067 1.35C100.007 2.23 100.477 3.43 100.477 4.95C100.477 5.87 100.317 6.65 99.997 7.29C99.697 7.91 99.317 8.4 98.857 8.76C98.397 9.1 97.957 9.34 97.537 9.48V9.69C98.077 9.83 98.627 10.12 99.187 10.56C99.747 11 100.217 11.59 100.597 12.33C100.997 13.07 101.197 13.99 101.197 15.09C101.197 16.39 100.937 17.48 100.417 18.36C99.917 19.24 99.217 19.9 98.317 20.34C97.417 20.78 96.367 21 95.167 21H86.917ZM91.117 17.19H94.267C95.027 17.19 95.637 16.97 96.097 16.53C96.557 16.07 96.787 15.41 96.787 14.55C96.787 13.73 96.547 13.1 96.067 12.66C95.587 12.2 94.987 11.97 94.267 11.97H91.117V17.19ZM91.117 8.67H94.207C94.847 8.67 95.367 8.45 95.767 8.01C96.167 7.55 96.367 6.93 96.367 6.15C96.367 5.35 96.167 4.73 95.767 4.29C95.367 3.85 94.847 3.63 94.207 3.63H91.117V8.67Z" fill="white" fill-opacity="0.89"/>
<path d="M103.118 0H107.318V17.16H113.048V21H103.118V0Z" fill="white" fill-opacity="0.89"/>
<path d="M111.147 0H115.527L118.167 10.29H119.847L122.517 0H126.897V0.69L122.967 14.31H121.137V21H116.937V14.34H115.077L111.147 0.69V0Z" fill="white" fill-opacity="0.89"/>
</svg>
