<svg width="81" height="25" viewBox="0 0 81 25" fill="none" xmlns="http://www.w3.org/2000/svg">
<path d="M14.7116 16.01C13.8316 16.51 13.3916 16.9 13.3916 17.18C13.3916 17.32 13.5116 17.49 13.7516 17.69C14.0116 17.89 14.1416 18.01 14.1416 18.05C13.6616 20.37 13.4216 21.77 13.4216 22.25C13.4216 22.39 13.2216 22.52 12.8216 22.64C12.4216 22.74 12.2116 22.79 12.1916 22.79C11.3116 23.25 10.4516 23.62 9.61164 23.9L9.16164 24.05C9.06164 24.07 8.85164 24.08 8.53164 24.08C7.83164 24.08 6.85164 23.93 5.59164 23.63L4.96164 23.48C4.80164 23.32 4.60164 22.06 4.36164 19.7L4.24164 18.5C4.22164 18.42 4.13164 18.28 3.97164 18.08C3.81164 17.88 3.73164 17.7 3.73164 17.54C3.73164 17.52 3.86164 17.39 4.12164 17.15C4.38164 16.91 4.51164 16.71 4.51164 16.55C4.51164 16.37 4.31164 16.15 3.91164 15.89C3.53164 15.61 3.34164 15.46 3.34164 15.44C3.34164 15.22 3.11164 13.83 2.65164 11.27C2.19164 8.71001 1.87164 7.33001 1.69164 7.13001V7.10001L2.05164 6.29001C2.05164 6.07001 1.80164 5.34001 1.30164 4.10001C0.801636 2.86001 0.551636 2.22001 0.551636 2.18001C0.551636 2.06001 1.08164 1.73001 2.14164 1.19001C3.20164 0.630012 3.94164 0.350012 4.36164 0.350012C4.60164 0.530012 4.89164 0.620012 5.23164 0.620012C5.59164 0.620012 5.83164 0.610012 5.95164 0.590013H6.04164C6.26164 0.590013 6.58164 0.700012 7.00164 0.920012C7.44164 1.12001 7.66164 1.27001 7.66164 1.37001C7.64164 1.99001 7.63164 2.63001 7.63164 3.29001C7.63164 3.93001 7.65164 4.31001 7.69164 4.43001C7.09164 4.69001 6.79164 5.10001 6.79164 5.66001C6.79164 5.78001 6.97164 5.89001 7.33164 5.99001C7.69164 6.07001 7.87164 6.13001 7.87164 6.17001C8.01164 9.13001 8.13164 10.68 8.23164 10.82C8.33164 10.96 8.49164 11.12 8.71164 11.3C8.95164 11.48 9.07164 11.61 9.07164 11.69C9.07164 11.97 8.97164 12.27 8.77164 12.59C8.57164 12.91 8.47164 13.14 8.47164 13.28C8.71164 14.7 8.83164 15.58 8.83164 15.92C9.11164 16.04 9.30164 16.1 9.40164 16.1C9.50164 16.1 9.62164 16.01 9.76164 15.83C9.92164 15.65 10.0416 15.46 10.1216 15.26C10.3616 12.54 10.5316 11.15 10.6316 11.09C11.2116 10.69 11.5016 10.35 11.5016 10.07C11.5016 10.01 11.4716 9.95001 11.4116 9.89001C10.8116 9.47001 10.5116 9.04001 10.5116 8.60001C10.5116 8.58001 10.6316 8.43001 10.8716 8.15001C11.1316 7.85001 11.2616 7.59001 11.2616 7.37001L11.5316 2.81001C11.5316 2.49001 11.5116 2.25001 11.4716 2.09001V2.06001C11.4716 1.88001 11.8716 1.53001 12.6716 1.01001C13.4916 0.470012 14.0316 0.200012 14.2916 0.200012C14.3316 0.200012 14.4216 0.240012 14.5616 0.320012C14.7216 0.380013 14.9816 0.410013 15.3416 0.410013C15.7016 0.410013 15.9516 0.400013 16.0916 0.380013C17.5116 0.400013 18.2216 0.550013 18.2216 0.830013V0.890012C17.3216 3.21001 16.8516 4.56001 16.8116 4.94001C16.0716 5.22001 15.7016 5.54001 15.7016 5.90001C15.7016 6.02001 15.8316 6.15001 16.0916 6.29001C16.3716 6.43001 16.5116 6.51001 16.5116 6.53001C15.3116 11.17 14.7116 14.33 14.7116 16.01Z" fill="white" fill-opacity="0.89"/>
<path d="M23.6612 11.33C23.6212 11.29 23.6012 11.16 23.6012 10.94C23.6012 10.7 23.6912 10.35 23.8712 9.89001C23.8712 9.73001 23.7312 9.65001 23.4512 9.65001L22.9712 9.71001C22.6312 9.87001 22.3112 10.3 22.0112 11C22.0712 11.38 22.1012 11.76 22.1012 12.14C22.1012 12.5 22.0512 12.73 21.9512 12.83C21.9712 12.93 22.0012 13.05 22.0412 13.19C22.1012 13.33 22.2712 13.52 22.5512 13.76C22.8312 14 23.1912 14.12 23.6312 14.12C23.7712 14.12 23.8512 13.99 23.8712 13.73C23.8912 13.47 23.9112 13.17 23.9312 12.83C23.9512 12.49 24.0012 12.28 24.0812 12.2C24.1812 12.1 24.2312 12.01 24.2312 11.93C24.2312 11.75 24.0412 11.55 23.6612 11.33ZM28.7612 18.38L29.0012 20.72C29.0012 20.84 28.9712 20.96 28.9112 21.08C28.8712 21.2 28.6512 21.48 28.2512 21.92C27.8712 22.36 27.6512 22.67 27.5912 22.85C27.5512 23.01 27.2012 23.21 26.5412 23.45C25.9012 23.71 25.4712 23.84 25.2512 23.84C25.0512 23.84 24.9312 23.82 24.8912 23.78C24.8712 23.74 24.8212 23.63 24.7412 23.45C24.5812 22.99 24.4112 22.76 24.2312 22.76C23.9912 22.76 23.7412 22.91 23.4812 23.21C23.2412 23.51 23.1112 23.66 23.0912 23.66C21.9312 23.66 20.8612 23.46 19.8812 23.06C19.5212 22.92 19.3412 22.8 19.3412 22.7C19.3412 22.46 18.7612 21.83 17.6012 20.81L17.0012 20.3C16.8412 20.16 16.7112 19.52 16.6112 18.38C16.5312 17.24 16.4912 16.3 16.4912 15.56C16.4912 14.8 16.5012 14.41 16.5212 14.39C16.5412 14.37 16.6712 14.3 16.9112 14.18C17.1512 14.04 17.3112 13.93 17.3912 13.85C17.4712 13.77 17.5112 13.66 17.5112 13.52L17.4512 13.16C17.0512 12.76 16.8512 12.55 16.8512 12.53C16.8512 12.35 17.0712 11.79 17.5112 10.85C17.9512 9.89001 18.3312 9.25001 18.6512 8.93001C21.0312 7.55001 22.7412 6.86001 23.7812 6.86001C25.9012 6.88001 27.0912 7.02001 27.3512 7.28001C28.2912 8.58001 28.7612 9.82001 28.7612 11C28.2812 11.22 27.9712 11.39 27.8312 11.51C27.7112 11.63 27.6512 11.82 27.6512 12.08C27.6512 12.34 27.7712 12.47 28.0112 12.47L28.6712 12.35C28.7312 12.35 28.7612 12.37 28.7612 12.41C28.7612 14.03 28.2912 15.31 27.3512 16.25C27.0912 16.51 26.4312 16.76 25.3712 17C24.3312 17.22 23.6712 17.33 23.3912 17.33C23.3112 17.33 23.0912 17.17 22.7312 16.85C22.3712 16.53 22.1712 16.37 22.1312 16.37C22.1112 16.37 22.0112 16.47 21.8312 16.67C21.6512 16.87 21.5612 17.04 21.5612 17.18C21.8812 18.14 22.2612 18.84 22.7012 19.28C22.8612 19.44 23.2212 19.52 23.7812 19.52C25.4612 19.52 26.7012 19.12 27.5012 18.32C27.7412 18 27.9012 17.84 27.9812 17.84C28.0812 17.84 28.2312 17.89 28.4312 17.99C28.6512 18.07 28.7612 18.15 28.7612 18.23V18.38Z" fill="white" fill-opacity="0.89"/>
<path d="M33.3969 5.99001L34.2969 6.08001C34.4769 6.08001 34.6569 6.05001 34.8369 5.99001C35.1769 6.41001 35.3469 6.70001 35.3469 6.86001C35.1469 7.58001 35.0469 8.42001 35.0469 9.38001C35.1069 9.74001 35.2669 9.92001 35.5269 9.92001C36.9469 7.82001 37.8669 6.77001 38.2869 6.77001C39.2869 6.83001 40.127 7.21001 40.8069 7.91001C41.0669 8.71001 41.1969 9.52001 41.1969 10.34C41.0969 11.72 40.9869 12.46 40.8669 12.56C40.5269 12.66 40.2869 12.71 40.1469 12.71H40.0869C39.3669 12.23 38.7769 11.99 38.3169 11.99C37.8569 11.99 37.2069 12.37 36.3669 13.13C35.5269 13.89 35.1069 14.42 35.1069 14.72C35.1269 15.24 35.2369 15.5 35.4369 15.5C35.5969 15.44 35.757 15.41 35.917 15.41C36.077 15.41 36.1569 15.47 36.1569 15.59C36.0569 16.95 36.007 18.02 36.007 18.8C36.007 19.56 36.037 20.01 36.097 20.15C35.957 20.49 35.8869 20.72 35.8869 20.84C35.8869 20.96 35.9769 21.23 36.1569 21.65C36.3569 22.07 36.4569 22.34 36.4569 22.46C36.4569 22.64 35.9769 22.98 35.0169 23.48C34.0769 23.98 33.4269 24.23 33.0669 24.23C32.7269 24.23 32.1369 24.19 31.2969 24.11C30.4569 24.05 30.0369 23.94 30.0369 23.78C30.0369 23.74 30.0969 23.39 30.2169 22.73C30.3569 22.07 30.4269 21.46 30.4269 20.9L30.7569 20.69C30.9769 20.55 31.0869 20.36 31.0869 20.12C31.0869 19.86 30.8169 19.58 30.2769 19.28C30.3769 18.86 30.4769 17.61 30.5769 15.53L30.6069 14.54L30.1569 12.53C30.1569 12.51 30.2269 12.44 30.3669 12.32C30.5069 12.18 30.5769 11.98 30.5769 11.72C30.5769 11.46 30.4469 10.88 30.1869 9.98001C29.9269 9.08001 29.7969 8.51001 29.7969 8.27001C29.7969 8.03001 29.8269 7.89001 29.8869 7.85001C29.9469 7.81001 30.0669 7.75001 30.2469 7.67001C30.4269 7.57001 30.5769 7.48001 30.6969 7.40001C30.8169 7.32001 30.9969 7.19001 31.2369 7.01001C31.4969 6.81001 31.7169 6.64001 31.8969 6.50001C32.4169 6.16001 32.9169 5.99001 33.3969 5.99001Z" fill="white" fill-opacity="0.89"/>
<path d="M47.3908 16.37L47.4208 15.83C47.4208 15.67 47.3808 15.59 47.3008 15.59C46.7808 15.59 46.4108 15.68 46.1908 15.86C45.9708 16.04 45.8308 16.13 45.7708 16.13C45.7108 16.13 45.5408 16.11 45.2608 16.07C44.9808 16.03 44.8408 15.99 44.8408 15.95L44.7508 15.62C44.6108 15.48 44.2008 15.41 43.5208 15.41C42.8608 15.39 42.4808 15.33 42.3808 15.23C42.0608 14.93 41.9008 14.41 41.9008 13.67C41.9008 12.93 42.0308 12.01 42.2908 10.91C42.5508 9.81001 42.7708 9.16001 42.9508 8.96001C43.1508 8.76001 43.7208 8.47001 44.6608 8.09001C45.6008 7.71001 46.0808 7.51001 46.1008 7.49001C46.3408 7.17001 46.5108 6.96001 46.6108 6.86001C47.7708 6.54001 48.7808 6.38001 49.6408 6.38001C50.7208 6.46001 51.3108 6.50001 51.4108 6.50001C51.4708 6.50001 51.6208 6.68001 51.8608 7.04001C52.5208 8.08001 52.8508 8.91001 52.8508 9.53001C52.8508 9.63001 52.7208 9.85001 52.4608 10.19C52.2208 10.51 52.0708 10.67 52.0108 10.67L51.7408 10.46C51.1808 10.1 50.5208 9.92001 49.7608 9.92001C49.4008 9.92001 48.8208 10.17 48.0208 10.67C47.2408 11.15 46.8508 11.6 46.8508 12.02C46.9508 12.52 47.1008 12.77 47.3008 12.77C47.9808 12.27 48.4408 12.02 48.6808 12.02C48.9408 12.02 49.4508 12.13 50.2108 12.35C50.9908 12.57 51.4408 12.74 51.5608 12.86C53.2008 14.5 54.0208 15.58 54.0208 16.1C54.0208 16.6 53.8908 17.36 53.6308 18.38C53.3908 19.38 53.2108 19.88 53.0908 19.88H53.0608C52.6008 19.88 52.2308 20.03 51.9508 20.33C51.8708 20.41 51.8308 20.52 51.8308 20.66C51.8308 20.78 51.9108 20.93 52.0708 21.11C52.2508 21.29 52.3408 21.39 52.3408 21.41C52.3008 21.75 51.7308 22.24 50.6308 22.88C49.5508 23.5 48.6708 23.81 47.9908 23.81C47.9108 23.81 47.8008 23.73 47.6608 23.57C47.5408 23.41 47.3808 23.33 47.1808 23.33C47.0008 23.33 46.7808 23.42 46.5208 23.6L46.1308 23.84C45.2708 23.84 44.4908 23.69 43.7908 23.39C43.1108 23.11 42.6808 22.86 42.5008 22.64C42.2808 22.44 42.0808 22.15 41.9008 21.77C41.7408 21.39 41.6608 21.1 41.6608 20.9L41.9608 20.54C42.5808 19.84 42.8908 19.19 42.8908 18.59C42.8908 18.53 43.0208 18.43 43.2808 18.29C43.5408 18.15 43.6908 18.08 43.7308 18.08C43.7908 18.08 43.9208 18.19 44.1208 18.41C44.7008 19.09 45.3208 19.43 45.9808 19.43C46.1608 19.43 46.3508 19.39 46.5508 19.31C46.7708 19.21 46.9608 19.16 47.1208 19.16C47.5808 19.16 47.9908 19.02 48.3508 18.74C48.6908 18.4 48.9008 17.93 48.9808 17.33C48.9808 17.13 48.7808 16.94 48.3808 16.76C47.9808 16.58 47.6608 16.49 47.4208 16.49C47.4008 16.49 47.3908 16.45 47.3908 16.37Z" fill="white" fill-opacity="0.89"/>
<path d="M61.63 11.33C61.59 11.29 61.57 11.16 61.57 10.94C61.57 10.7 61.66 10.35 61.84 9.89001C61.84 9.73001 61.7 9.65001 61.42 9.65001L60.94 9.71001C60.6 9.87001 60.28 10.3 59.98 11C60.04 11.38 60.07 11.76 60.07 12.14C60.07 12.5 60.02 12.73 59.92 12.83C59.94 12.93 59.97 13.05 60.01 13.19C60.07 13.33 60.24 13.52 60.52 13.76C60.8 14 61.16 14.12 61.6 14.12C61.74 14.12 61.82 13.99 61.84 13.73C61.86 13.47 61.88 13.17 61.9 12.83C61.92 12.49 61.97 12.28 62.05 12.2C62.15 12.1 62.2 12.01 62.2 11.93C62.2 11.75 62.01 11.55 61.63 11.33ZM66.73 18.38L66.97 20.72C66.97 20.84 66.94 20.96 66.88 21.08C66.84 21.2 66.62 21.48 66.22 21.92C65.84 22.36 65.62 22.67 65.56 22.85C65.52 23.01 65.17 23.21 64.51 23.45C63.87 23.71 63.44 23.84 63.22 23.84C63.02 23.84 62.9 23.82 62.86 23.78C62.84 23.74 62.79 23.63 62.71 23.45C62.55 22.99 62.38 22.76 62.2 22.76C61.96 22.76 61.71 22.91 61.45 23.21C61.21 23.51 61.08 23.66 61.06 23.66C59.9 23.66 58.83 23.46 57.85 23.06C57.49 22.92 57.31 22.8 57.31 22.7C57.31 22.46 56.73 21.83 55.57 20.81L54.97 20.3C54.81 20.16 54.68 19.52 54.58 18.38C54.5 17.24 54.46 16.3 54.46 15.56C54.46 14.8 54.47 14.41 54.49 14.39C54.51 14.37 54.64 14.3 54.88 14.18C55.12 14.04 55.28 13.93 55.36 13.85C55.44 13.77 55.48 13.66 55.48 13.52L55.42 13.16C55.02 12.76 54.82 12.55 54.82 12.53C54.82 12.35 55.04 11.79 55.48 10.85C55.92 9.89001 56.3 9.25001 56.62 8.93001C59 7.55001 60.71 6.86001 61.75 6.86001C63.87 6.88001 65.06 7.02001 65.32 7.28001C66.26 8.58001 66.73 9.82001 66.73 11C66.25 11.22 65.94 11.39 65.8 11.51C65.68 11.63 65.62 11.82 65.62 12.08C65.62 12.34 65.74 12.47 65.98 12.47L66.64 12.35C66.7 12.35 66.73 12.37 66.73 12.41C66.73 14.03 66.26 15.31 65.32 16.25C65.06 16.51 64.4 16.76 63.34 17C62.3 17.22 61.64 17.33 61.36 17.33C61.28 17.33 61.06 17.17 60.7 16.85C60.34 16.53 60.14 16.37 60.1 16.37C60.08 16.37 59.98 16.47 59.8 16.67C59.62 16.87 59.53 17.04 59.53 17.18C59.85 18.14 60.23 18.84 60.67 19.28C60.83 19.44 61.19 19.52 61.75 19.52C63.43 19.52 64.67 19.12 65.47 18.32C65.71 18 65.87 17.84 65.95 17.84C66.05 17.84 66.2 17.89 66.4 17.99C66.62 18.07 66.73 18.15 66.73 18.23V18.38Z" fill="white" fill-opacity="0.89"/>
<path d="M69.1457 10.7L68.9357 10.22C68.9357 10.08 69.3957 9.59001 70.3157 8.75001C71.2557 7.89001 71.8457 7.41001 72.0857 7.31001C73.6057 6.99001 74.6357 6.83001 75.1757 6.83001C75.2357 6.83001 75.5057 6.94001 75.9857 7.16001C76.4657 7.38001 76.7557 7.51001 76.8557 7.55001C76.9557 7.57001 77.1457 7.76001 77.4257 8.12001C77.7057 8.46001 77.8457 8.67001 77.8457 8.75001C77.7457 9.31001 77.6557 9.59001 77.5757 9.59001C76.3157 9.65001 75.4757 9.80001 75.0557 10.04C74.8557 10.14 74.4557 10.52 73.8557 11.18C73.2757 11.82 72.8957 12.32 72.7157 12.68C72.5557 13.02 72.4757 14.13 72.4757 16.01C73.0557 16.27 73.3457 16.56 73.3457 16.88C73.1257 17.82 73.0157 18.36 73.0157 18.5C73.0157 18.62 73.0957 18.85 73.2557 19.19C73.4157 19.53 73.5757 19.78 73.7357 19.94C74.0357 20.1 74.2757 20.18 74.4557 20.18C74.6557 20.18 74.7857 20.15 74.8457 20.09C75.3257 19.61 75.5657 18.79 75.5657 17.63C75.5657 17.37 75.5457 17.1 75.5057 16.82C75.1457 16.48 74.9657 16.1 74.9657 15.68C74.9657 15.62 75.0557 15.51 75.2357 15.35C75.4157 15.17 75.5057 14.98 75.5057 14.78C75.5057 14.58 75.4257 14.36 75.2657 14.12C75.1057 13.88 74.9457 13.7 74.7857 13.58C74.6257 13.44 74.5457 13.35 74.5457 13.31C74.5457 13.05 74.8557 12.57 75.4757 11.87C76.1157 11.17 76.5657 10.82 76.8257 10.82H77.2457C78.9457 10.82 79.7957 10.93 79.7957 11.15C79.6957 11.69 79.6457 12 79.6457 12.08C79.6457 12.16 79.8257 12.54 80.1857 13.22C80.5457 13.9 80.7257 14.55 80.7257 15.17C80.2057 15.59 79.9457 15.9 79.9457 16.1C79.9457 16.28 80.0457 16.46 80.2457 16.64C80.4457 16.82 80.5457 16.92 80.5457 16.94C80.5457 17.12 80.4657 17.53 80.3057 18.17C80.1457 18.79 80.0657 19.27 80.0657 19.61C80.0657 19.95 79.5857 20.6 78.6257 21.56C77.7057 22.44 77.0957 22.88 76.7957 22.88H76.7657C76.6657 22.8 76.5057 22.76 76.2857 22.76L75.9557 22.79C75.6557 22.79 75.4357 22.99 75.2957 23.39C75.2357 23.57 75.1657 23.69 75.0857 23.75C75.0257 23.83 74.7857 23.87 74.3657 23.87L71.8157 23.66C71.3157 23.52 70.7457 23.18 70.1057 22.64C69.4857 22.1 69.1757 21.76 69.1757 21.62C69.1757 21.6 69.2757 21.47 69.4757 21.23C69.6757 20.97 69.7757 20.78 69.7757 20.66C69.7757 20.46 69.6457 20.27 69.3857 20.09L68.3357 20.24C68.2357 20.24 68.1257 19.98 68.0057 19.46C67.7057 18.34 67.5557 16.8 67.5557 14.84C67.5557 14.56 67.7857 13.84 68.2457 12.68C68.7057 11.52 69.0057 10.87 69.1457 10.73V10.7Z" fill="white" fill-opacity="0.89"/>
</svg>
