<svg width="103" height="22" viewBox="0 0 103 22" fill="none" xmlns="http://www.w3.org/2000/svg">
<path d="M19.3605 6.3C19.3605 6.88 19.2705 7.4 19.0905 7.86C18.9305 8.32 18.7005 8.73 18.4005 9.09C18.1005 9.45 17.7505 9.77 17.3505 10.05C16.9505 10.33 16.5105 10.59 16.0305 10.83C16.2505 10.91 16.5105 11.04 16.8105 11.22C17.1105 11.38 17.4005 11.61 17.6805 11.91C17.9605 12.21 18.1905 12.6 18.3705 13.08C18.5705 13.54 18.6705 14.11 18.6705 14.79C18.6705 15.69 18.4805 16.52 18.1005 17.28C17.7205 18.04 17.1505 18.7 16.3905 19.26C15.6505 19.8 14.7305 20.23 13.6305 20.55C12.5505 20.85 11.3005 21 9.88046 21H0.970459L5.02046 1.95H12.9105C13.6905 1.95 14.4605 2.01 15.2205 2.13C16.0005 2.23 16.6905 2.44 17.2905 2.76C17.9105 3.08 18.4105 3.53 18.7905 4.11C19.1705 4.67 19.3605 5.4 19.3605 6.3ZM11.2005 9.93C11.6405 9.93 12.0105 9.8 12.3105 9.54C12.6305 9.28 12.8905 8.96 13.0905 8.58C13.2905 8.18 13.4405 7.76 13.5405 7.32C13.6405 6.86 13.6905 6.45 13.6905 6.09C13.6905 5.51 13.5505 5.02 13.2705 4.62C13.0105 4.2 12.5905 3.99 12.0105 3.99H11.1105L9.82046 9.93H11.2005ZM9.04046 19.11C9.64046 19.11 10.1405 18.94 10.5405 18.6C10.9405 18.26 11.2705 17.84 11.5305 17.34C11.7905 16.84 11.9705 16.32 12.0705 15.78C12.1905 15.22 12.2505 14.73 12.2505 14.31C12.2505 13.61 12.1005 13.06 11.8005 12.66C11.5205 12.24 11.0605 12.03 10.4205 12.03H9.31046L7.84046 19.11H9.04046Z" fill="white" fill-opacity="0.89"/>
<path d="M29.0826 7.77C31.4626 7.77 33.1926 8.19 34.2726 9.03C35.4126 9.91 35.9826 11.37 35.9826 13.41C35.9826 14.67 35.7726 15.81 35.3526 16.83C34.9326 17.83 34.3426 18.66 33.5826 19.32C32.0626 20.6 29.8626 21.24 26.9826 21.24C24.5226 21.24 22.7626 20.77 21.7026 19.83C20.5626 18.85 19.9926 17.38 19.9926 15.42C19.9926 14.12 20.2526 12.94 20.7726 11.88C21.3126 10.82 22.0826 9.94 23.0826 9.24C24.5426 8.26 26.5426 7.77 29.0826 7.77ZM27.0426 19.2C27.5426 19.2 27.9726 18.92 28.3326 18.36C28.7126 17.8 29.0126 17.12 29.2326 16.32C29.4526 15.5 29.6126 14.66 29.7126 13.8C29.8326 12.92 29.8926 12.16 29.8926 11.52C29.8926 10.96 29.8326 10.54 29.7126 10.26C29.6126 9.96 29.3826 9.81 29.0226 9.81C28.4826 9.81 28.0126 10.1 27.6126 10.68C27.2326 11.26 26.9226 11.95 26.6826 12.75C26.4426 13.55 26.2626 14.37 26.1426 15.21C26.0426 16.05 25.9926 16.73 25.9926 17.25C25.9926 18.55 26.3426 19.2 27.0426 19.2Z" fill="white" fill-opacity="0.89"/>
<path d="M42.7084 21H36.5884L40.8484 0.839996H46.9984L42.7084 21Z" fill="white" fill-opacity="0.89"/>
<path d="M58.1575 0.839996H64.3075L60.0175 21H55.1575L54.6175 19.08H54.4075C54.2875 19.26 54.0975 19.48 53.8375 19.74C53.5975 19.98 53.2875 20.22 52.9075 20.46C52.5275 20.68 52.0775 20.86 51.5575 21C51.0375 21.16 50.4375 21.24 49.7575 21.24C49.0575 21.24 48.4575 21.14 47.9575 20.94C47.4775 20.72 47.0775 20.43 46.7575 20.07C46.4575 19.71 46.2375 19.28 46.0975 18.78C45.9575 18.26 45.8875 17.7 45.8875 17.1C45.8875 16.84 45.9075 16.43 45.9475 15.87C45.9875 15.29 46.0775 14.66 46.2175 13.98C46.3775 13.28 46.5975 12.57 46.8775 11.85C47.1775 11.11 47.5675 10.44 48.0475 9.84C48.5475 9.24 49.1575 8.75 49.8775 8.37C50.5975 7.97 51.4675 7.77 52.4875 7.77C52.8075 7.77 53.1475 7.8 53.5075 7.86C53.8675 7.92 54.2075 8.03 54.5275 8.19C54.8675 8.35 55.1675 8.58 55.4275 8.88C55.6875 9.18 55.8775 9.57 55.9975 10.05H56.2075L58.1575 0.839996ZM54.4975 10.71C54.0175 10.71 53.6175 10.98 53.2975 11.52C52.9775 12.04 52.7175 12.65 52.5175 13.35C52.3175 14.05 52.1675 14.75 52.0675 15.45C51.9875 16.15 51.9475 16.67 51.9475 17.01C51.9475 17.41 52.0075 17.75 52.1275 18.03C52.2475 18.29 52.4775 18.42 52.8175 18.42C53.0175 18.42 53.2075 18.38 53.3875 18.3C53.5875 18.2 53.7675 18.09 53.9275 17.97C54.1075 17.83 54.2575 17.69 54.3775 17.55C54.4975 17.41 54.5975 17.29 54.6775 17.19L55.8475 11.73C55.7075 11.51 55.5175 11.29 55.2775 11.07C55.0575 10.83 54.7975 10.71 54.4975 10.71Z" fill="white" fill-opacity="0.89"/>
<path d="M68.7819 21H62.6919L65.4219 8.1H71.5719L68.7819 21ZM72.3519 4.17C72.3519 4.63 72.2519 5.03 72.0519 5.37C71.8719 5.71 71.6219 6 71.3019 6.24C71.0019 6.48 70.6519 6.66 70.2519 6.78C69.8519 6.9 69.4419 6.96 69.0219 6.96C68.2219 6.96 67.5519 6.77 67.0119 6.39C66.4719 6.01 66.2019 5.41 66.2019 4.59C66.2019 4.15 66.2919 3.76 66.4719 3.42C66.6519 3.06 66.8919 2.77 67.1919 2.55C67.5119 2.31 67.8719 2.13 68.2719 2.01C68.6919 1.89 69.1219 1.83 69.5619 1.83C70.3419 1.83 71.0019 2.02 71.5419 2.4C72.0819 2.78 72.3519 3.37 72.3519 4.17Z" fill="white" fill-opacity="0.89"/>
<path d="M72.891 8.1H79.251L80.481 16.92L84.861 8.1H88.041L81.231 21H74.961L72.891 8.1Z" fill="white" fill-opacity="0.89"/>
<path d="M93.4968 14.97C93.4168 15.41 93.3568 15.83 93.3168 16.23C93.2968 16.63 93.2868 16.99 93.2868 17.31C93.2868 17.49 93.2968 17.69 93.3168 17.91C93.3368 18.13 93.3768 18.34 93.4368 18.54C93.5168 18.72 93.6168 18.88 93.7368 19.02C93.8768 19.14 94.0668 19.2 94.3068 19.2C94.4868 19.2 94.6868 19.14 94.9068 19.02C95.1468 18.9 95.3768 18.73 95.5968 18.51C95.8368 18.29 96.0568 18.02 96.2568 17.7C96.4768 17.38 96.6468 17.02 96.7668 16.62H101.687L100.907 19.83C100.507 20.09 100.047 20.31 99.5268 20.49C99.0068 20.67 98.4568 20.82 97.8768 20.94C97.2968 21.04 96.7068 21.11 96.1068 21.15C95.5068 21.21 94.9368 21.24 94.3968 21.24C93.3968 21.24 92.4668 21.15 91.6068 20.97C90.7468 20.79 89.9968 20.48 89.3568 20.04C88.7168 19.6 88.2068 19.02 87.8268 18.3C87.4668 17.56 87.2868 16.65 87.2868 15.57C87.2868 14.59 87.4368 13.63 87.7368 12.69C88.0568 11.75 88.5768 10.92 89.2968 10.2C90.0368 9.46 91.0168 8.87 92.2368 8.43C93.4768 7.99 95.0168 7.77 96.8568 7.77C98.8568 7.77 100.357 8.08 101.357 8.7C102.377 9.32 102.887 10.29 102.887 11.61C102.887 12.15 102.807 12.74 102.647 13.38C102.487 14 102.247 14.53 101.927 14.97H93.4968ZM97.4868 11.4C97.4868 10.78 97.3868 10.36 97.1868 10.14C96.9868 9.92 96.7468 9.81 96.4668 9.81C96.1468 9.81 95.8468 9.92 95.5668 10.14C95.3068 10.34 95.0668 10.62 94.8468 10.98C94.6268 11.32 94.4268 11.72 94.2468 12.18C94.0668 12.62 93.9168 13.09 93.7968 13.59H97.2168C97.2568 13.35 97.2968 13.1 97.3368 12.84C97.3768 12.62 97.4068 12.38 97.4268 12.12C97.4668 11.86 97.4868 11.62 97.4868 11.4Z" fill="white" fill-opacity="0.89"/>
</svg>
