<svg width="134" height="23" viewBox="0 0 134 23" fill="none" xmlns="http://www.w3.org/2000/svg">
<path d="M6.67074 22.5C5.49074 22.5 4.52074 22.42 3.76074 22.26C3.00074 22.12 2.39074 21.91 1.93074 21.63C1.49074 21.33 1.18074 20.96 1.00074 20.52C0.840742 20.08 0.760742 19.56 0.760742 18.96C0.760742 18.78 0.770742 18.53 0.790742 18.21C0.810742 17.87 0.840742 17.4 0.880742 16.8C0.920742 16.2 0.970742 15.43 1.03074 14.49C1.11074 13.53 1.21074 12.33 1.33074 10.89C1.47074 9.11 1.58074 7.7 1.66074 6.66C1.74074 5.62 1.80074 4.82 1.84074 4.26C1.88074 3.68 1.90074 3.28 1.90074 3.06C1.92074 2.82 1.93074 2.62 1.93074 2.46C1.93074 2.14 1.93074 1.88 1.93074 1.68C1.95074 1.48 1.97074 1.33 1.99074 1.23C2.03074 1.11 2.08074 1.03 2.14074 0.99C2.22074 0.929999 2.33074 0.899999 2.47074 0.899999C3.65074 0.819999 4.65074 0.759999 5.47074 0.72C6.31074 0.679999 7.04074 0.659999 7.66074 0.659999C9.18074 0.659999 10.4807 0.789999 11.5607 1.05C12.6607 1.29 13.5507 1.64 14.2307 2.1C14.9107 2.56 15.4107 3.13 15.7307 3.81C16.0507 4.49 16.2107 5.26 16.2107 6.12C16.2107 6.6 16.1607 7.1 16.0607 7.62C15.9607 8.12 15.7907 8.6 15.5507 9.06C15.3107 9.52 14.9807 9.93 14.5607 10.29C14.1607 10.63 13.6507 10.88 13.0307 11.04C14.1907 11.4 15.0107 12 15.4907 12.84C15.9707 13.66 16.2107 14.64 16.2107 15.78C16.2107 16.7 16.0607 17.57 15.7607 18.39C15.4607 19.19 14.9407 19.9 14.2007 20.52C13.4607 21.12 12.4807 21.6 11.2607 21.96C10.0407 22.32 8.51074 22.5 6.67074 22.5ZM8.38074 13.2C8.16074 13.2 7.89074 13.22 7.57074 13.26C7.25074 13.28 6.92074 13.32 6.58074 13.38L6.25074 18.27C6.97074 18.49 7.62074 18.6 8.20074 18.6C8.82074 18.6 9.32074 18.51 9.70074 18.33C10.0807 18.15 10.3707 17.93 10.5707 17.67C10.7907 17.39 10.9307 17.09 10.9907 16.77C11.0707 16.43 11.1107 16.12 11.1107 15.84C11.1107 15.1 10.9007 14.48 10.4807 13.98C10.0807 13.46 9.38074 13.2 8.38074 13.2ZM7.12074 4.95C7.08074 5.47 7.04074 6.08 7.00074 6.78C6.98074 7.48 6.94074 8.24 6.88074 9.06C7.52074 9.22 8.09074 9.3 8.59074 9.3C9.19074 9.3 9.67074 9.23 10.0307 9.09C10.3907 8.95 10.6707 8.77 10.8707 8.55C11.0907 8.33 11.2307 8.09 11.2907 7.83C11.3707 7.57 11.4107 7.32 11.4107 7.08C11.4107 6.46 11.2007 5.93 10.7807 5.49C10.3807 5.03 9.68074 4.8 8.68074 4.8C8.46074 4.8 8.21074 4.82 7.93074 4.86C7.67074 4.88 7.40074 4.91 7.12074 4.95Z" fill="white" fill-opacity="0.89"/>
<path d="M28.3148 12.87C28.1948 12.87 28.0548 12.87 27.8948 12.87C27.7548 12.85 27.6148 12.83 27.4748 12.81C27.3348 12.77 27.2148 12.73 27.1148 12.69C27.0148 12.63 26.9648 12.56 26.9648 12.48C26.9648 12.22 26.9748 11.98 26.9948 11.76C27.0148 11.54 27.0248 11.31 27.0248 11.07C27.0248 10.63 26.9648 10.27 26.8448 9.99C26.7248 9.71 26.4848 9.57 26.1248 9.57C25.5648 9.57 25.0948 9.94 24.7148 10.68C24.3548 11.4 24.1248 12.49 24.0248 13.95C23.9848 14.59 23.9248 15.32 23.8448 16.14C23.7848 16.94 23.7248 17.72 23.6648 18.48C23.6048 19.22 23.5548 19.88 23.5148 20.46C23.4748 21.04 23.4548 21.42 23.4548 21.6C23.4548 21.8 23.3848 21.95 23.2448 22.05C23.1048 22.15 22.9548 22.2 22.7948 22.2H21.7148C21.0948 22.2 20.5848 22.14 20.1848 22.02C19.8048 21.88 19.4948 21.69 19.2548 21.45C19.0348 21.21 18.8748 20.92 18.7748 20.58C18.6948 20.22 18.6548 19.81 18.6548 19.35C18.6548 19.05 18.6648 18.63 18.6848 18.09C18.7248 17.53 18.7848 16.77 18.8648 15.81C18.9448 14.83 19.0348 13.6 19.1348 12.12C19.2548 10.62 19.3948 8.77 19.5548 6.57C19.5948 5.99 19.8048 5.7 20.1848 5.7H21.3548C21.9148 5.7 22.3848 5.76 22.7648 5.88C23.1448 6 23.4548 6.17 23.6948 6.39C23.9348 6.59 24.1048 6.83 24.2048 7.11C24.3248 7.39 24.4048 7.68 24.4448 7.98C24.6848 7.52 24.9648 7.13 25.2848 6.81C25.6248 6.47 25.9748 6.2 26.3348 6C26.6948 5.78 27.0648 5.63 27.4448 5.55C27.8248 5.45 28.1748 5.4 28.4948 5.4C28.8748 5.4 29.2548 5.47 29.6348 5.61C30.0348 5.75 30.3948 5.96 30.7148 6.24C31.0348 6.52 31.2848 6.88 31.4648 7.32C31.6648 7.76 31.7648 8.28 31.7648 8.88C31.7648 9.42 31.6848 9.93 31.5248 10.41C31.3648 10.89 31.1348 11.32 30.8348 11.7C30.5348 12.06 30.1648 12.35 29.7248 12.57C29.3048 12.77 28.8348 12.87 28.3148 12.87Z" fill="white" fill-opacity="0.89"/>
<path d="M31.9631 18.51C31.9631 16.71 32.7731 15.3 34.3931 14.28C36.0131 13.26 38.4031 12.71 41.5631 12.63C41.5831 12.41 41.5931 12.23 41.5931 12.09C41.6131 11.93 41.6231 11.74 41.6231 11.52C41.6231 10.88 41.5031 10.37 41.2631 9.99C41.0231 9.61 40.5231 9.42 39.7631 9.42C39.3431 9.42 39.0031 9.48 38.7431 9.6C38.4831 9.72 38.2731 9.89 38.1131 10.11C37.9531 10.31 37.8231 10.56 37.7231 10.86C37.6231 11.16 37.5331 11.49 37.4531 11.85C37.4131 12.03 37.3231 12.15 37.1831 12.21C37.0431 12.25 36.8231 12.27 36.5231 12.27C34.4831 12.27 33.4631 11.5 33.4631 9.96C33.4631 9.34 33.6031 8.75 33.8831 8.19C34.1831 7.63 34.6131 7.15 35.1731 6.75C35.7531 6.33 36.4731 6 37.3331 5.76C38.1931 5.52 39.1931 5.4 40.3331 5.4C42.5531 5.4 44.1631 5.86 45.1631 6.78C46.1631 7.7 46.6631 9 46.6631 10.68C46.6631 10.9 46.6331 11.3 46.5731 11.88C46.5331 12.44 46.4731 13.04 46.3931 13.68C46.3331 14.3 46.2731 14.89 46.2131 15.45C46.1731 16.01 46.1531 16.4 46.1531 16.62C46.1531 17.12 46.2431 17.48 46.4231 17.7C46.6031 17.9 46.8031 18.04 47.0231 18.12C47.2631 18.2 47.4731 18.26 47.6531 18.3C47.8331 18.34 47.9231 18.44 47.9231 18.6C47.9231 19.04 47.8631 19.49 47.7431 19.95C47.6231 20.41 47.4231 20.83 47.1431 21.21C46.8831 21.59 46.5131 21.9 46.0331 22.14C45.5731 22.38 45.0031 22.5 44.3231 22.5C43.3631 22.5 42.6431 22.27 42.1631 21.81C41.6831 21.35 41.3631 20.71 41.2031 19.89C40.7231 20.59 40.0931 21.2 39.3131 21.72C38.5531 22.24 37.5531 22.5 36.3131 22.5C35.7131 22.5 35.1431 22.43 34.6031 22.29C34.0831 22.15 33.6231 21.92 33.2231 21.6C32.8431 21.28 32.5331 20.87 32.2931 20.37C32.0731 19.85 31.9631 19.23 31.9631 18.51ZM41.2931 15.09C40.7731 15.09 40.2631 15.13 39.7631 15.21C39.2631 15.29 38.8131 15.42 38.4131 15.6C38.0331 15.76 37.7231 15.98 37.4831 16.26C37.2431 16.54 37.1231 16.88 37.1231 17.28C37.1231 17.74 37.2631 18.06 37.5431 18.24C37.8431 18.42 38.1631 18.51 38.5031 18.51C38.8231 18.51 39.1431 18.44 39.4631 18.3C39.7831 18.16 40.0631 17.95 40.3031 17.67C40.5631 17.37 40.7831 17.01 40.9631 16.59C41.1431 16.17 41.2531 15.67 41.2931 15.09Z" fill="white" fill-opacity="0.89"/>
<path d="M59.9974 19.56C59.9974 19.12 60.0274 18.55 60.0874 17.85C60.1674 17.13 60.2374 16.38 60.2974 15.6C60.3774 14.8 60.4474 14.03 60.5074 13.29C60.5874 12.55 60.6274 11.93 60.6274 11.43C60.6274 10.91 60.4974 10.45 60.2374 10.05C59.9974 9.63 59.5174 9.42 58.7974 9.42C58.0974 9.42 57.5174 9.59 57.0574 9.93C56.5974 10.27 56.2074 10.89 55.8874 11.79C55.5874 12.69 55.3374 13.93 55.1374 15.51C54.9374 17.09 54.7474 19.12 54.5674 21.6C54.5474 21.84 54.4974 22 54.4174 22.08C54.3374 22.16 54.1674 22.2 53.9074 22.2H52.8274C52.2074 22.2 51.6974 22.14 51.2974 22.02C50.9174 21.88 50.6074 21.69 50.3674 21.45C50.1474 21.21 49.9874 20.92 49.8874 20.58C49.8074 20.22 49.7674 19.81 49.7674 19.35C49.7674 19.05 49.7774 18.63 49.7974 18.09C49.8374 17.53 49.8974 16.77 49.9774 15.81C50.0574 14.83 50.1474 13.6 50.2474 12.12C50.3674 10.62 50.5074 8.77 50.6674 6.57C50.6874 6.13 50.7374 5.87 50.8174 5.79C50.8774 5.73 51.0374 5.7 51.2974 5.7H52.4674C53.0674 5.7 53.5574 5.77 53.9374 5.91C54.3374 6.05 54.6574 6.24 54.8974 6.48C55.1374 6.7 55.3074 6.97 55.4074 7.29C55.5074 7.59 55.5674 7.9 55.5874 8.22C56.2074 7.16 56.9174 6.43 57.7174 6.03C58.5174 5.61 59.5174 5.4 60.7174 5.4C61.5574 5.4 62.2874 5.49 62.9074 5.67C63.5274 5.85 64.0374 6.16 64.4374 6.6C64.8574 7.02 65.1674 7.58 65.3674 8.28C65.5674 8.96 65.6674 9.81 65.6674 10.83C65.6674 11.15 65.6474 11.61 65.6074 12.21C65.5674 12.81 65.5174 13.47 65.4574 14.19C65.3974 14.89 65.3274 15.63 65.2474 16.41C65.1874 17.17 65.1274 17.88 65.0674 18.54C65.0074 19.2 64.9574 19.78 64.9174 20.28C64.8774 20.78 64.8574 21.11 64.8574 21.27C64.8574 21.71 64.8074 21.98 64.7074 22.08C64.6074 22.16 64.3874 22.2 64.0474 22.2H63.0874C62.4474 22.2 61.9274 22.14 61.5274 22.02C61.1274 21.9 60.8174 21.73 60.5974 21.51C60.3774 21.29 60.2174 21.02 60.1174 20.7C60.0374 20.36 59.9974 19.98 59.9974 19.56Z" fill="white" fill-opacity="0.89"/>
<path d="M73.8316 22.5C73.0516 22.5 72.3016 22.36 71.5816 22.08C70.8816 21.8 70.2616 21.36 69.7216 20.76C69.2016 20.16 68.7816 19.4 68.4616 18.48C68.1616 17.56 68.0116 16.45 68.0116 15.15C68.0116 14.57 68.0516 13.93 68.1316 13.23C68.2116 12.51 68.3516 11.79 68.5516 11.07C68.7516 10.35 69.0316 9.65 69.3916 8.97C69.7516 8.29 70.2016 7.69 70.7416 7.17C71.3016 6.63 71.9616 6.2 72.7216 5.88C73.5016 5.56 74.4116 5.4 75.4516 5.4C76.4516 5.4 77.2516 5.58 77.8516 5.94C78.4716 6.28 78.8616 6.88 79.0216 7.74C79.0616 6.96 79.1016 6.28 79.1416 5.7C79.1816 5.12 79.2116 4.58 79.2316 4.08C79.2716 3.58 79.3116 3.08 79.3516 2.58C79.3916 2.08 79.4316 1.51 79.4716 0.87C79.4916 0.429999 79.5416 0.169999 79.6216 0.0899988C79.6616 0.0499994 79.7116 0.0299996 79.7716 0.0299996C79.8316 0.00999987 79.9416 0 80.1016 0H81.2716C81.8716 0 82.3716 0.0699997 82.7716 0.209999C83.1716 0.35 83.4916 0.54 83.7316 0.779999C83.9716 1.02 84.1416 1.3 84.2416 1.62C84.3416 1.92 84.3916 2.24 84.3916 2.58C84.3916 2.58 84.3716 2.83 84.3316 3.33C84.2916 3.83 84.2416 4.5 84.1816 5.34C84.1216 6.16 84.0516 7.1 83.9716 8.16C83.8916 9.22 83.8116 10.32 83.7316 11.46C83.6516 12.58 83.5716 13.7 83.4916 14.82C83.4116 15.92 83.3316 16.94 83.2516 17.88C83.1716 18.8 83.1016 19.6 83.0416 20.28C83.0016 20.94 82.9716 21.38 82.9516 21.6C82.9116 21.84 82.8616 22 82.8016 22.08C82.7416 22.16 82.5716 22.2 82.2916 22.2H81.2116C80.7916 22.2 80.3916 22.17 80.0116 22.11C79.6516 22.03 79.3316 21.91 79.0516 21.75C78.7916 21.57 78.5816 21.34 78.4216 21.06C78.2816 20.76 78.2116 20.38 78.2116 19.92C77.8516 20.68 77.3016 21.3 76.5616 21.78C75.8416 22.26 74.9316 22.5 73.8316 22.5ZM76.4416 9.39C75.4216 9.39 74.6616 9.84 74.1616 10.74C73.6816 11.62 73.4416 12.81 73.4416 14.31C73.4416 14.83 73.4716 15.34 73.5316 15.84C73.6116 16.34 73.7416 16.79 73.9216 17.19C74.1016 17.59 74.3416 17.91 74.6416 18.15C74.9616 18.39 75.3616 18.51 75.8416 18.51C76.7016 18.51 77.4216 18.09 78.0016 17.25C78.5816 16.41 78.8716 15.09 78.8716 13.29C78.8716 12.79 78.8416 12.31 78.7816 11.85C78.7216 11.37 78.6016 10.95 78.4216 10.59C78.2416 10.23 77.9916 9.94 77.6716 9.72C77.3516 9.5 76.9416 9.39 76.4416 9.39Z" fill="white" fill-opacity="0.89"/>
<path d="M93.3136 22.5C91.9336 22.5 90.7836 22.31 89.8636 21.93C88.9636 21.53 88.2436 20.99 87.7036 20.31C87.1636 19.63 86.7836 18.84 86.5636 17.94C86.3436 17.02 86.2336 16.04 86.2336 15C86.2336 13.8 86.3736 12.63 86.6536 11.49C86.9536 10.33 87.4536 9.3 88.1536 8.4C88.8536 7.5 89.7736 6.78 90.9136 6.24C92.0736 5.68 93.5136 5.4 95.2336 5.4C97.7536 5.4 99.5536 6.02 100.634 7.26C101.734 8.48 102.284 10.2 102.284 12.42C102.284 13.04 102.234 13.73 102.134 14.49C102.054 15.23 101.884 15.97 101.624 16.71C101.384 17.45 101.044 18.17 100.604 18.87C100.184 19.57 99.6436 20.19 98.9836 20.73C98.3236 21.27 97.5236 21.7 96.5836 22.02C95.6636 22.34 94.5736 22.5 93.3136 22.5ZM94.7236 9.39C93.9636 9.39 93.3536 9.59 92.8936 9.99C92.4536 10.37 92.1136 10.84 91.8736 11.4C91.6536 11.94 91.5036 12.52 91.4236 13.14C91.3636 13.74 91.3336 14.25 91.3336 14.67C91.3336 15.99 91.5436 16.96 91.9636 17.58C92.3836 18.2 92.9836 18.51 93.7636 18.51C94.4636 18.51 95.0336 18.29 95.4736 17.85C95.9336 17.41 96.2836 16.88 96.5236 16.26C96.7836 15.64 96.9536 14.99 97.0336 14.31C97.1336 13.63 97.1836 13.06 97.1836 12.6C97.1836 11.6 96.9936 10.82 96.6136 10.26C96.2536 9.68 95.6236 9.39 94.7236 9.39Z" fill="white" fill-opacity="0.89"/>
<path d="M114.213 12.87C114.093 12.87 113.953 12.87 113.793 12.87C113.653 12.85 113.513 12.83 113.373 12.81C113.233 12.77 113.113 12.73 113.013 12.69C112.913 12.63 112.863 12.56 112.863 12.48C112.863 12.22 112.873 11.98 112.893 11.76C112.913 11.54 112.923 11.31 112.923 11.07C112.923 10.63 112.863 10.27 112.743 9.99C112.623 9.71 112.383 9.57 112.023 9.57C111.463 9.57 110.993 9.94 110.613 10.68C110.253 11.4 110.023 12.49 109.923 13.95C109.883 14.59 109.823 15.32 109.743 16.14C109.683 16.94 109.623 17.72 109.563 18.48C109.503 19.22 109.453 19.88 109.413 20.46C109.373 21.04 109.353 21.42 109.353 21.6C109.353 21.8 109.283 21.95 109.143 22.05C109.003 22.15 108.853 22.2 108.693 22.2H107.613C106.993 22.2 106.483 22.14 106.083 22.02C105.703 21.88 105.393 21.69 105.153 21.45C104.933 21.21 104.773 20.92 104.673 20.58C104.593 20.22 104.553 19.81 104.553 19.35C104.553 19.05 104.563 18.63 104.583 18.09C104.623 17.53 104.683 16.77 104.763 15.81C104.843 14.83 104.933 13.6 105.033 12.12C105.153 10.62 105.293 8.77 105.453 6.57C105.493 5.99 105.703 5.7 106.083 5.7H107.253C107.813 5.7 108.283 5.76 108.663 5.88C109.043 6 109.353 6.17 109.593 6.39C109.833 6.59 110.003 6.83 110.103 7.11C110.223 7.39 110.303 7.68 110.343 7.98C110.583 7.52 110.863 7.13 111.183 6.81C111.523 6.47 111.873 6.2 112.233 6C112.593 5.78 112.963 5.63 113.343 5.55C113.723 5.45 114.073 5.4 114.393 5.4C114.773 5.4 115.153 5.47 115.533 5.61C115.933 5.75 116.293 5.96 116.613 6.24C116.933 6.52 117.183 6.88 117.363 7.32C117.563 7.76 117.663 8.28 117.663 8.88C117.663 9.42 117.583 9.93 117.423 10.41C117.263 10.89 117.033 11.32 116.733 11.7C116.433 12.06 116.063 12.35 115.623 12.57C115.203 12.77 114.733 12.87 114.213 12.87Z" fill="white" fill-opacity="0.89"/>
<path d="M117.862 18.51C117.862 16.71 118.672 15.3 120.292 14.28C121.912 13.26 124.302 12.71 127.462 12.63C127.482 12.41 127.492 12.23 127.492 12.09C127.512 11.93 127.522 11.74 127.522 11.52C127.522 10.88 127.402 10.37 127.162 9.99C126.922 9.61 126.422 9.42 125.662 9.42C125.242 9.42 124.902 9.48 124.642 9.6C124.382 9.72 124.172 9.89 124.012 10.11C123.852 10.31 123.722 10.56 123.622 10.86C123.522 11.16 123.432 11.49 123.352 11.85C123.312 12.03 123.222 12.15 123.082 12.21C122.942 12.25 122.722 12.27 122.422 12.27C120.382 12.27 119.362 11.5 119.362 9.96C119.362 9.34 119.502 8.75 119.782 8.19C120.082 7.63 120.512 7.15 121.072 6.75C121.652 6.33 122.372 6 123.232 5.76C124.092 5.52 125.092 5.4 126.232 5.4C128.452 5.4 130.062 5.86 131.062 6.78C132.062 7.7 132.562 9 132.562 10.68C132.562 10.9 132.532 11.3 132.472 11.88C132.432 12.44 132.372 13.04 132.292 13.68C132.232 14.3 132.172 14.89 132.112 15.45C132.072 16.01 132.052 16.4 132.052 16.62C132.052 17.12 132.142 17.48 132.322 17.7C132.502 17.9 132.702 18.04 132.922 18.12C133.162 18.2 133.372 18.26 133.552 18.3C133.732 18.34 133.822 18.44 133.822 18.6C133.822 19.04 133.762 19.49 133.642 19.95C133.522 20.41 133.322 20.83 133.042 21.21C132.782 21.59 132.412 21.9 131.932 22.14C131.472 22.38 130.902 22.5 130.222 22.5C129.262 22.5 128.542 22.27 128.062 21.81C127.582 21.35 127.262 20.71 127.102 19.89C126.622 20.59 125.992 21.2 125.212 21.72C124.452 22.24 123.452 22.5 122.212 22.5C121.612 22.5 121.042 22.43 120.502 22.29C119.982 22.15 119.522 21.92 119.122 21.6C118.742 21.28 118.432 20.87 118.192 20.37C117.972 19.85 117.862 19.23 117.862 18.51ZM127.192 15.09C126.672 15.09 126.162 15.13 125.662 15.21C125.162 15.29 124.712 15.42 124.312 15.6C123.932 15.76 123.622 15.98 123.382 16.26C123.142 16.54 123.022 16.88 123.022 17.28C123.022 17.74 123.162 18.06 123.442 18.24C123.742 18.42 124.062 18.51 124.402 18.51C124.722 18.51 125.042 18.44 125.362 18.3C125.682 18.16 125.962 17.95 126.202 17.67C126.462 17.37 126.682 17.01 126.862 16.59C127.042 16.17 127.152 15.67 127.192 15.09Z" fill="white" fill-opacity="0.89"/>
</svg>
