<svg xmlns="http://www.w3.org/2000/svg" xmlns:xlink="http://www.w3.org/1999/xlink" width="268" zoomAndPan="magnify" viewBox="0 0 200.87999 34.499999" height="46" preserveAspectRatio="xMidYMid meet" version="1.0"><defs><g/></defs><g fill="#ffffff" fill-opacity="1"><g transform="translate(7.823504, 25.135713)"><g><path d="M 7.484375 0.25 C 6.316406 0.25 5.273438 0.101562 4.359375 -0.1875 C 3.441406 -0.476562 2.679688 -0.859375 2.078125 -1.328125 C 1.472656 -1.796875 1.007812 -2.3125 0.6875 -2.875 L 2.515625 -5.109375 L 2.8125 -5.109375 C 3.3125 -4.359375 3.953125 -3.757812 4.734375 -3.3125 C 5.523438 -2.863281 6.441406 -2.640625 7.484375 -2.640625 C 8.378906 -2.640625 9.050781 -2.828125 9.5 -3.203125 C 9.957031 -3.585938 10.1875 -4.109375 10.1875 -4.765625 C 10.1875 -5.171875 10.113281 -5.507812 9.96875 -5.78125 C 9.820312 -6.050781 9.578125 -6.28125 9.234375 -6.46875 C 8.898438 -6.65625 8.441406 -6.820312 7.859375 -6.96875 L 5.6875 -7.46875 C 4.175781 -7.8125 3.046875 -8.382812 2.296875 -9.1875 C 1.554688 -9.988281 1.1875 -11.035156 1.1875 -12.328125 C 1.1875 -13.273438 1.425781 -14.109375 1.90625 -14.828125 C 2.382812 -15.554688 3.078125 -16.117188 3.984375 -16.515625 C 4.898438 -16.921875 5.992188 -17.125 7.265625 -17.125 C 8.566406 -17.125 9.679688 -16.953125 10.609375 -16.609375 C 11.535156 -16.273438 12.316406 -15.753906 12.953125 -15.046875 L 11.3125 -12.78125 L 11.015625 -12.78125 C 10.535156 -13.28125 9.988281 -13.65625 9.375 -13.90625 C 8.757812 -14.15625 8.054688 -14.28125 7.265625 -14.28125 C 6.347656 -14.28125 5.648438 -14.117188 5.171875 -13.796875 C 4.691406 -13.472656 4.453125 -13.023438 4.453125 -12.453125 C 4.453125 -11.921875 4.617188 -11.492188 4.953125 -11.171875 C 5.296875 -10.859375 5.878906 -10.613281 6.703125 -10.4375 L 8.921875 -9.984375 C 10.554688 -9.628906 11.742188 -9.039062 12.484375 -8.21875 C 13.222656 -7.394531 13.59375 -6.316406 13.59375 -4.984375 C 13.59375 -3.921875 13.363281 -3 12.90625 -2.21875 C 12.457031 -1.4375 11.773438 -0.828125 10.859375 -0.390625 C 9.941406 0.0351562 8.816406 0.25 7.484375 0.25 Z M 7.484375 0.25 "/></g></g></g><g fill="#ffffff" fill-opacity="1"><g transform="translate(23.514835, 25.135713)"><g><path d="M 5.828125 0.25 C 4.398438 0.25 3.34375 -0.140625 2.65625 -0.921875 C 1.976562 -1.710938 1.640625 -2.835938 1.640625 -4.296875 L 1.640625 -12.734375 L 4.84375 -12.734375 L 4.84375 -4.703125 C 4.84375 -3.921875 5.007812 -3.347656 5.34375 -2.984375 C 5.675781 -2.628906 6.191406 -2.453125 6.890625 -2.453125 C 7.773438 -2.453125 8.460938 -2.742188 8.953125 -3.328125 C 9.453125 -3.910156 9.703125 -4.828125 9.703125 -6.078125 L 9.703125 -12.734375 L 12.90625 -12.734375 L 12.90625 0 L 9.828125 0 L 9.828125 -1.875 L 9.59375 -1.921875 C 9.175781 -1.191406 8.671875 -0.644531 8.078125 -0.28125 C 7.492188 0.0703125 6.742188 0.25 5.828125 0.25 Z M 5.828125 0.25 "/></g></g></g><g fill="#ffffff" fill-opacity="1"><g transform="translate(39.437193, 25.135713)"><g><path d="M 1.84375 0 L 1.84375 -12.734375 L 4.9375 -12.734375 L 4.9375 -10.84375 L 5.1875 -10.796875 C 5.488281 -11.503906 5.890625 -12.023438 6.390625 -12.359375 C 6.898438 -12.691406 7.507812 -12.859375 8.21875 -12.859375 C 8.945312 -12.859375 9.5 -12.734375 9.875 -12.484375 L 9.328125 -9.71875 L 9.09375 -9.671875 C 8.882812 -9.765625 8.679688 -9.828125 8.484375 -9.859375 C 8.296875 -9.898438 8.0625 -9.921875 7.78125 -9.921875 C 6.894531 -9.921875 6.210938 -9.609375 5.734375 -8.984375 C 5.265625 -8.359375 5.03125 -7.347656 5.03125 -5.953125 L 5.03125 0 Z M 1.84375 0 "/></g></g></g><g fill="#ffffff" fill-opacity="1"><g transform="translate(50.276963, 25.135713)"><g><path d="M 12.59375 -5.640625 L 4.40625 -5.640625 C 4.5 -4.535156 4.8125 -3.726562 5.34375 -3.21875 C 5.882812 -2.71875 6.617188 -2.46875 7.546875 -2.46875 C 8.285156 -2.46875 8.878906 -2.601562 9.328125 -2.875 C 9.785156 -3.15625 10.15625 -3.570312 10.4375 -4.125 L 10.671875 -4.125 L 12.796875 -2.765625 C 12.378906 -1.867188 11.75 -1.140625 10.90625 -0.578125 C 10.070312 -0.0234375 8.953125 0.25 7.546875 0.25 C 6.234375 0.25 5.097656 0 4.140625 -0.5 C 3.179688 -1.007812 2.441406 -1.757812 1.921875 -2.75 C 1.398438 -3.738281 1.140625 -4.941406 1.140625 -6.359375 C 1.140625 -7.804688 1.410156 -9.023438 1.953125 -10.015625 C 2.503906 -11.015625 3.242188 -11.757812 4.171875 -12.25 C 5.109375 -12.738281 6.160156 -12.984375 7.328125 -12.984375 C 9.128906 -12.984375 10.507812 -12.503906 11.46875 -11.546875 C 12.425781 -10.597656 12.90625 -9.195312 12.90625 -7.34375 C 12.90625 -6.675781 12.878906 -6.15625 12.828125 -5.78125 Z M 9.84375 -7.71875 C 9.8125 -8.6875 9.582031 -9.390625 9.15625 -9.828125 C 8.738281 -10.273438 8.128906 -10.5 7.328125 -10.5 C 5.703125 -10.5 4.75 -9.570312 4.46875 -7.71875 Z M 9.84375 -7.71875 "/></g></g></g><g fill="#ffffff" fill-opacity="1"><g transform="translate(65.309868, 25.135713)"><g><path d="M 1.84375 0 L 1.84375 -12.734375 L 4.90625 -12.734375 L 4.90625 -10.875 L 5.15625 -10.8125 C 5.945312 -12.257812 7.234375 -12.984375 9.015625 -12.984375 C 10.484375 -12.984375 11.5625 -12.582031 12.25 -11.78125 C 12.9375 -10.976562 13.28125 -9.8125 13.28125 -8.28125 L 13.28125 0 L 10.078125 0 L 10.078125 -7.890625 C 10.078125 -8.734375 9.90625 -9.34375 9.5625 -9.71875 C 9.226562 -10.09375 8.691406 -10.28125 7.953125 -10.28125 C 7.035156 -10.28125 6.316406 -9.984375 5.796875 -9.390625 C 5.285156 -8.796875 5.03125 -7.863281 5.03125 -6.59375 L 5.03125 0 Z M 1.84375 0 "/></g></g></g><g fill="#ffffff" fill-opacity="1"><g transform="translate(81.417048, 25.135713)"><g><path d="M 6.296875 0.25 C 5.285156 0.25 4.390625 0.00390625 3.609375 -0.484375 C 2.835938 -0.972656 2.234375 -1.710938 1.796875 -2.703125 C 1.359375 -3.691406 1.140625 -4.910156 1.140625 -6.359375 C 1.140625 -7.816406 1.363281 -9.039062 1.8125 -10.03125 C 2.269531 -11.019531 2.894531 -11.757812 3.6875 -12.25 C 4.488281 -12.738281 5.410156 -12.984375 6.453125 -12.984375 C 7.242188 -12.984375 7.929688 -12.84375 8.515625 -12.5625 C 9.097656 -12.289062 9.585938 -11.867188 9.984375 -11.296875 L 10.234375 -11.359375 L 10.234375 -17.859375 L 13.4375 -17.859375 L 13.4375 0 L 10.234375 0 L 10.234375 -1.65625 L 9.984375 -1.703125 C 9.628906 -1.097656 9.144531 -0.617188 8.53125 -0.265625 C 7.914062 0.078125 7.171875 0.25 6.296875 0.25 Z M 7.328125 -2.46875 C 8.234375 -2.46875 8.945312 -2.789062 9.46875 -3.4375 C 9.988281 -4.082031 10.25 -5.054688 10.25 -6.359375 C 10.25 -7.671875 9.988281 -8.648438 9.46875 -9.296875 C 8.945312 -9.941406 8.234375 -10.265625 7.328125 -10.265625 C 6.390625 -10.265625 5.671875 -9.953125 5.171875 -9.328125 C 4.679688 -8.703125 4.4375 -7.710938 4.4375 -6.359375 C 4.4375 -5.023438 4.679688 -4.039062 5.171875 -3.40625 C 5.671875 -2.78125 6.390625 -2.46875 7.328125 -2.46875 Z M 7.328125 -2.46875 "/></g></g></g><g fill="#ffffff" fill-opacity="1"><g transform="translate(97.870767, 25.135713)"><g><path d="M 1.84375 0 L 1.84375 -12.734375 L 4.9375 -12.734375 L 4.9375 -10.84375 L 5.1875 -10.796875 C 5.488281 -11.503906 5.890625 -12.023438 6.390625 -12.359375 C 6.898438 -12.691406 7.507812 -12.859375 8.21875 -12.859375 C 8.945312 -12.859375 9.5 -12.734375 9.875 -12.484375 L 9.328125 -9.71875 L 9.09375 -9.671875 C 8.882812 -9.765625 8.679688 -9.828125 8.484375 -9.859375 C 8.296875 -9.898438 8.0625 -9.921875 7.78125 -9.921875 C 6.894531 -9.921875 6.210938 -9.609375 5.734375 -8.984375 C 5.265625 -8.359375 5.03125 -7.347656 5.03125 -5.953125 L 5.03125 0 Z M 1.84375 0 "/></g></g></g><g fill="#ffffff" fill-opacity="1"><g transform="translate(108.802947, 25.135713)"><g><path d="M 4.96875 0.25 C 4.15625 0.25 3.445312 0.0976562 2.84375 -0.203125 C 2.238281 -0.503906 1.773438 -0.945312 1.453125 -1.53125 C 1.128906 -2.113281 0.96875 -2.8125 0.96875 -3.625 C 0.96875 -4.382812 1.128906 -5.019531 1.453125 -5.53125 C 1.773438 -6.039062 2.273438 -6.457031 2.953125 -6.78125 C 3.628906 -7.113281 4.515625 -7.367188 5.609375 -7.546875 C 6.367188 -7.671875 6.945312 -7.804688 7.34375 -7.953125 C 7.75 -8.097656 8.019531 -8.257812 8.15625 -8.4375 C 8.289062 -8.625 8.359375 -8.859375 8.359375 -9.140625 C 8.359375 -9.554688 8.21875 -9.867188 7.9375 -10.078125 C 7.65625 -10.296875 7.179688 -10.40625 6.515625 -10.40625 C 5.804688 -10.40625 5.128906 -10.242188 4.484375 -9.921875 C 3.847656 -9.609375 3.296875 -9.195312 2.828125 -8.6875 L 2.59375 -8.6875 L 1.265625 -10.703125 C 1.910156 -11.421875 2.695312 -11.976562 3.625 -12.375 C 4.5625 -12.78125 5.578125 -12.984375 6.671875 -12.984375 C 8.359375 -12.984375 9.578125 -12.625 10.328125 -11.90625 C 11.085938 -11.1875 11.46875 -10.171875 11.46875 -8.859375 L 11.46875 -3.328125 C 11.46875 -2.753906 11.71875 -2.46875 12.21875 -2.46875 C 12.414062 -2.46875 12.601562 -2.503906 12.78125 -2.578125 L 12.953125 -2.53125 L 13.171875 -0.296875 C 12.992188 -0.179688 12.75 -0.0859375 12.4375 -0.015625 C 12.125 0.0546875 11.78125 0.09375 11.40625 0.09375 C 10.632812 0.09375 10.035156 -0.0507812 9.609375 -0.34375 C 9.179688 -0.632812 8.878906 -1.09375 8.703125 -1.71875 L 8.453125 -1.75 C 7.828125 -0.414062 6.664062 0.25 4.96875 0.25 Z M 5.984375 -2.15625 C 6.722656 -2.15625 7.3125 -2.398438 7.75 -2.890625 C 8.195312 -3.390625 8.421875 -4.082031 8.421875 -4.96875 L 8.421875 -6.265625 L 8.203125 -6.3125 C 8.003906 -6.15625 7.75 -6.023438 7.4375 -5.921875 C 7.132812 -5.816406 6.6875 -5.710938 6.09375 -5.609375 C 5.40625 -5.492188 4.90625 -5.296875 4.59375 -5.015625 C 4.289062 -4.734375 4.140625 -4.335938 4.140625 -3.828125 C 4.140625 -3.273438 4.300781 -2.859375 4.625 -2.578125 C 4.945312 -2.296875 5.398438 -2.15625 5.984375 -2.15625 Z M 5.984375 -2.15625 "/></g></g></g><g fill="#ffffff" fill-opacity="1"><g transform="translate(123.420004, 25.135713)"><g><path d="M 1.84375 0 L 1.84375 -12.734375 L 4.90625 -12.734375 L 4.90625 -10.875 L 5.15625 -10.8125 C 5.945312 -12.257812 7.234375 -12.984375 9.015625 -12.984375 C 10.484375 -12.984375 11.5625 -12.582031 12.25 -11.78125 C 12.9375 -10.976562 13.28125 -9.8125 13.28125 -8.28125 L 13.28125 0 L 10.078125 0 L 10.078125 -7.890625 C 10.078125 -8.734375 9.90625 -9.34375 9.5625 -9.71875 C 9.226562 -10.09375 8.691406 -10.28125 7.953125 -10.28125 C 7.035156 -10.28125 6.316406 -9.984375 5.796875 -9.390625 C 5.285156 -8.796875 5.03125 -7.863281 5.03125 -6.59375 L 5.03125 0 Z M 1.84375 0 "/></g></g></g><g fill="#ffffff" fill-opacity="1"><g transform="translate(139.527184, 25.135713)"><g><path d="M 4.96875 0.25 C 4.15625 0.25 3.445312 0.0976562 2.84375 -0.203125 C 2.238281 -0.503906 1.773438 -0.945312 1.453125 -1.53125 C 1.128906 -2.113281 0.96875 -2.8125 0.96875 -3.625 C 0.96875 -4.382812 1.128906 -5.019531 1.453125 -5.53125 C 1.773438 -6.039062 2.273438 -6.457031 2.953125 -6.78125 C 3.628906 -7.113281 4.515625 -7.367188 5.609375 -7.546875 C 6.367188 -7.671875 6.945312 -7.804688 7.34375 -7.953125 C 7.75 -8.097656 8.019531 -8.257812 8.15625 -8.4375 C 8.289062 -8.625 8.359375 -8.859375 8.359375 -9.140625 C 8.359375 -9.554688 8.21875 -9.867188 7.9375 -10.078125 C 7.65625 -10.296875 7.179688 -10.40625 6.515625 -10.40625 C 5.804688 -10.40625 5.128906 -10.242188 4.484375 -9.921875 C 3.847656 -9.609375 3.296875 -9.195312 2.828125 -8.6875 L 2.59375 -8.6875 L 1.265625 -10.703125 C 1.910156 -11.421875 2.695312 -11.976562 3.625 -12.375 C 4.5625 -12.78125 5.578125 -12.984375 6.671875 -12.984375 C 8.359375 -12.984375 9.578125 -12.625 10.328125 -11.90625 C 11.085938 -11.1875 11.46875 -10.171875 11.46875 -8.859375 L 11.46875 -3.328125 C 11.46875 -2.753906 11.71875 -2.46875 12.21875 -2.46875 C 12.414062 -2.46875 12.601562 -2.503906 12.78125 -2.578125 L 12.953125 -2.53125 L 13.171875 -0.296875 C 12.992188 -0.179688 12.75 -0.0859375 12.4375 -0.015625 C 12.125 0.0546875 11.78125 0.09375 11.40625 0.09375 C 10.632812 0.09375 10.035156 -0.0507812 9.609375 -0.34375 C 9.179688 -0.632812 8.878906 -1.09375 8.703125 -1.71875 L 8.453125 -1.75 C 7.828125 -0.414062 6.664062 0.25 4.96875 0.25 Z M 5.984375 -2.15625 C 6.722656 -2.15625 7.3125 -2.398438 7.75 -2.890625 C 8.195312 -3.390625 8.421875 -4.082031 8.421875 -4.96875 L 8.421875 -6.265625 L 8.203125 -6.3125 C 8.003906 -6.15625 7.75 -6.023438 7.4375 -5.921875 C 7.132812 -5.816406 6.6875 -5.710938 6.09375 -5.609375 C 5.40625 -5.492188 4.90625 -5.296875 4.59375 -5.015625 C 4.289062 -4.734375 4.140625 -4.335938 4.140625 -3.828125 C 4.140625 -3.273438 4.300781 -2.859375 4.625 -2.578125 C 4.945312 -2.296875 5.398438 -2.15625 5.984375 -2.15625 Z M 5.984375 -2.15625 "/></g></g></g><g fill="#ffffff" fill-opacity="1"><g transform="translate(154.144241, 25.135713)"><g><path d="M 6.609375 5.40625 C 4.503906 5.40625 2.953125 5.097656 1.953125 4.484375 C 0.953125 3.867188 0.453125 3.007812 0.453125 1.90625 C 0.453125 1.238281 0.664062 0.691406 1.09375 0.265625 C 1.519531 -0.160156 2.132812 -0.445312 2.9375 -0.59375 L 2.9375 -0.84375 C 2.5 -1.101562 2.1875 -1.390625 2 -1.703125 C 1.8125 -2.023438 1.71875 -2.398438 1.71875 -2.828125 C 1.71875 -3.847656 2.382812 -4.535156 3.71875 -4.890625 L 3.71875 -5.140625 C 3.03125 -5.535156 2.515625 -6.019531 2.171875 -6.59375 C 1.828125 -7.175781 1.65625 -7.878906 1.65625 -8.703125 C 1.65625 -9.554688 1.847656 -10.300781 2.234375 -10.9375 C 2.617188 -11.582031 3.1875 -12.082031 3.9375 -12.4375 C 4.695312 -12.800781 5.597656 -12.984375 6.640625 -12.984375 C 7.703125 -12.984375 8.550781 -12.796875 9.1875 -12.421875 C 9.570312 -12.992188 9.796875 -13.65625 9.859375 -14.40625 L 10.109375 -14.546875 L 12.40625 -13.984375 C 12.332031 -13.378906 12.15625 -12.867188 11.875 -12.453125 C 11.59375 -12.046875 11.148438 -11.679688 10.546875 -11.359375 L 10.546875 -11.09375 C 11.265625 -10.46875 11.625 -9.585938 11.625 -8.453125 C 11.625 -7.671875 11.425781 -6.96875 11.03125 -6.34375 C 10.632812 -5.71875 10.0625 -5.222656 9.3125 -4.859375 C 8.5625 -4.492188 7.671875 -4.3125 6.640625 -4.3125 L 6.15625 -4.328125 C 5.84375 -4.347656 5.628906 -4.359375 5.515625 -4.359375 C 5.222656 -4.359375 4.992188 -4.273438 4.828125 -4.109375 C 4.660156 -3.953125 4.578125 -3.753906 4.578125 -3.515625 C 4.578125 -3.242188 4.679688 -3.03125 4.890625 -2.875 C 5.109375 -2.726562 5.425781 -2.648438 5.84375 -2.640625 L 8.703125 -2.53125 C 11.515625 -2.445312 12.921875 -1.234375 12.921875 1.109375 C 12.921875 1.929688 12.710938 2.664062 12.296875 3.3125 C 11.878906 3.957031 11.195312 4.46875 10.25 4.84375 C 9.3125 5.21875 8.097656 5.40625 6.609375 5.40625 Z M 6.640625 -6.5625 C 7.253906 -6.5625 7.734375 -6.738281 8.078125 -7.09375 C 8.429688 -7.457031 8.609375 -7.976562 8.609375 -8.65625 C 8.609375 -9.320312 8.429688 -9.832031 8.078125 -10.1875 C 7.734375 -10.550781 7.253906 -10.734375 6.640625 -10.734375 C 6.015625 -10.734375 5.53125 -10.550781 5.1875 -10.1875 C 4.851562 -9.832031 4.6875 -9.320312 4.6875 -8.65625 C 4.6875 -7.976562 4.851562 -7.457031 5.1875 -7.09375 C 5.53125 -6.738281 6.015625 -6.5625 6.640625 -6.5625 Z M 6.609375 3.078125 C 7.703125 3.078125 8.492188 2.921875 8.984375 2.609375 C 9.484375 2.304688 9.734375 1.910156 9.734375 1.421875 C 9.734375 1.015625 9.601562 0.71875 9.34375 0.53125 C 9.09375 0.34375 8.691406 0.242188 8.140625 0.234375 L 5.625 0.109375 C 5.539062 0.109375 5.460938 0.101562 5.390625 0.09375 C 5.316406 0.09375 5.242188 0.09375 5.171875 0.09375 C 4.628906 0.09375 4.21875 0.207031 3.9375 0.4375 C 3.65625 0.664062 3.515625 0.984375 3.515625 1.390625 C 3.515625 1.929688 3.773438 2.347656 4.296875 2.640625 C 4.816406 2.929688 5.585938 3.078125 6.609375 3.078125 Z M 6.609375 3.078125 "/></g></g></g><g fill="#ffffff" fill-opacity="1"><g transform="translate(168.426309, 25.135713)"><g><path d="M 4.96875 0.25 C 4.15625 0.25 3.445312 0.0976562 2.84375 -0.203125 C 2.238281 -0.503906 1.773438 -0.945312 1.453125 -1.53125 C 1.128906 -2.113281 0.96875 -2.8125 0.96875 -3.625 C 0.96875 -4.382812 1.128906 -5.019531 1.453125 -5.53125 C 1.773438 -6.039062 2.273438 -6.457031 2.953125 -6.78125 C 3.628906 -7.113281 4.515625 -7.367188 5.609375 -7.546875 C 6.367188 -7.671875 6.945312 -7.804688 7.34375 -7.953125 C 7.75 -8.097656 8.019531 -8.257812 8.15625 -8.4375 C 8.289062 -8.625 8.359375 -8.859375 8.359375 -9.140625 C 8.359375 -9.554688 8.21875 -9.867188 7.9375 -10.078125 C 7.65625 -10.296875 7.179688 -10.40625 6.515625 -10.40625 C 5.804688 -10.40625 5.128906 -10.242188 4.484375 -9.921875 C 3.847656 -9.609375 3.296875 -9.195312 2.828125 -8.6875 L 2.59375 -8.6875 L 1.265625 -10.703125 C 1.910156 -11.421875 2.695312 -11.976562 3.625 -12.375 C 4.5625 -12.78125 5.578125 -12.984375 6.671875 -12.984375 C 8.359375 -12.984375 9.578125 -12.625 10.328125 -11.90625 C 11.085938 -11.1875 11.46875 -10.171875 11.46875 -8.859375 L 11.46875 -3.328125 C 11.46875 -2.753906 11.71875 -2.46875 12.21875 -2.46875 C 12.414062 -2.46875 12.601562 -2.503906 12.78125 -2.578125 L 12.953125 -2.53125 L 13.171875 -0.296875 C 12.992188 -0.179688 12.75 -0.0859375 12.4375 -0.015625 C 12.125 0.0546875 11.78125 0.09375 11.40625 0.09375 C 10.632812 0.09375 10.035156 -0.0507812 9.609375 -0.34375 C 9.179688 -0.632812 8.878906 -1.09375 8.703125 -1.71875 L 8.453125 -1.75 C 7.828125 -0.414062 6.664062 0.25 4.96875 0.25 Z M 5.984375 -2.15625 C 6.722656 -2.15625 7.3125 -2.398438 7.75 -2.890625 C 8.195312 -3.390625 8.421875 -4.082031 8.421875 -4.96875 L 8.421875 -6.265625 L 8.203125 -6.3125 C 8.003906 -6.15625 7.75 -6.023438 7.4375 -5.921875 C 7.132812 -5.816406 6.6875 -5.710938 6.09375 -5.609375 C 5.40625 -5.492188 4.90625 -5.296875 4.59375 -5.015625 C 4.289062 -4.734375 4.140625 -4.335938 4.140625 -3.828125 C 4.140625 -3.273438 4.300781 -2.859375 4.625 -2.578125 C 4.945312 -2.296875 5.398438 -2.15625 5.984375 -2.15625 Z M 5.984375 -2.15625 "/></g></g></g><g fill="#ffffff" fill-opacity="1"><g transform="translate(183.043367, 25.135713)"><g><path d="M 1.84375 0 L 1.84375 -12.734375 L 4.9375 -12.734375 L 4.9375 -10.84375 L 5.1875 -10.796875 C 5.488281 -11.503906 5.890625 -12.023438 6.390625 -12.359375 C 6.898438 -12.691406 7.507812 -12.859375 8.21875 -12.859375 C 8.945312 -12.859375 9.5 -12.734375 9.875 -12.484375 L 9.328125 -9.71875 L 9.09375 -9.671875 C 8.882812 -9.765625 8.679688 -9.828125 8.484375 -9.859375 C 8.296875 -9.898438 8.0625 -9.921875 7.78125 -9.921875 C 6.894531 -9.921875 6.210938 -9.609375 5.734375 -8.984375 C 5.265625 -8.359375 5.03125 -7.347656 5.03125 -5.953125 L 5.03125 0 Z M 1.84375 0 "/></g></g></g></svg>