<svg width="126" height="31" viewBox="0 0 126 31" fill="none" xmlns="http://www.w3.org/2000/svg">
<path d="M0.0506592 24V5.99999C0.0506592 5.33999 0.210659 4.73999 0.530659 4.19999C0.850659 3.63999 1.28066 3.19999 1.82066 2.87999C2.38066 2.55999 2.99066 2.39999 3.65066 2.39999H18.0507C18.7107 2.39999 19.3107 2.55999 19.8507 2.87999C20.4107 3.19999 20.8507 3.63999 21.1707 4.19999C21.4907 4.73999 21.6507 5.33999 21.6507 5.99999V24H19.2207V16.11H2.48066V24H0.0506592ZM2.48066 13.68H19.2207V5.99999C19.2207 5.67999 19.1007 5.40999 18.8607 5.18999C18.6407 4.94999 18.3707 4.82999 18.0507 4.82999H3.65066C3.33066 4.82999 3.05066 4.94999 2.81066 5.18999C2.59066 5.40999 2.48066 5.67999 2.48066 5.99999V13.68Z" fill="white" fill-opacity="0.89"/>
<path d="M27.7388 24C27.0588 24 26.4388 23.84 25.8788 23.52C25.3388 23.18 24.8988 22.74 24.5588 22.2C24.2388 21.64 24.0788 21.03 24.0788 20.37V10.23C24.0788 9.56999 24.2388 8.96999 24.5588 8.42999C24.8988 7.86999 25.3388 7.42999 25.8788 7.10999C26.4388 6.76999 27.0588 6.59999 27.7388 6.59999H39.3488V0.899994H41.8088V24H27.7388ZM27.7388 21.54H38.1788C38.4988 21.54 38.7688 21.43 38.9888 21.21C39.2288 20.97 39.3488 20.69 39.3488 20.37V10.23C39.3488 9.90999 39.2288 9.63999 38.9888 9.41999C38.7688 9.17999 38.4988 9.05999 38.1788 9.05999H27.7388C27.4188 9.05999 27.1388 9.17999 26.8988 9.41999C26.6788 9.63999 26.5688 9.90999 26.5688 10.23V20.37C26.5688 20.69 26.6788 20.97 26.8988 21.21C27.1388 21.43 27.4188 21.54 27.7388 21.54Z" fill="white" fill-opacity="0.89"/>
<path d="M48.4686 24C47.8086 24 47.1985 23.84 46.6385 23.52C46.0985 23.18 45.6586 22.74 45.3186 22.2C44.9986 21.64 44.8386 21.03 44.8386 20.37V20.13H47.2985V20.37C47.2985 20.69 47.4086 20.97 47.6286 21.21C47.8686 21.43 48.1486 21.54 48.4686 21.54H58.9086C59.2286 21.54 59.4986 21.43 59.7186 21.21C59.9586 20.97 60.0786 20.69 60.0786 20.37V17.7C60.0786 17.38 59.9586 17.11 59.7186 16.89C59.4986 16.65 59.2286 16.53 58.9086 16.53H48.4686C47.8086 16.53 47.1985 16.37 46.6385 16.05C46.0985 15.71 45.6586 15.27 45.3186 14.73C44.9986 14.17 44.8386 13.56 44.8386 12.9V10.23C44.8386 9.56999 44.9986 8.96999 45.3186 8.42999C45.6586 7.86999 46.0985 7.42999 46.6385 7.10999C47.1985 6.76999 47.8086 6.59999 48.4686 6.59999H58.9086C59.5885 6.59999 60.1985 6.76999 60.7385 7.10999C61.2985 7.42999 61.7386 7.86999 62.0586 8.42999C62.3986 8.96999 62.5686 9.56999 62.5686 10.23V10.47H60.0786V10.23C60.0786 9.90999 59.9586 9.63999 59.7186 9.41999C59.4986 9.17999 59.2286 9.05999 58.9086 9.05999H48.4686C48.1486 9.05999 47.8686 9.17999 47.6286 9.41999C47.4086 9.63999 47.2985 9.90999 47.2985 10.23V12.9C47.2985 13.22 47.4086 13.5 47.6286 13.74C47.8686 13.96 48.1486 14.07 48.4686 14.07H58.9086C59.5885 14.07 60.1985 14.24 60.7385 14.58C61.2985 14.9 61.7386 15.34 62.0586 15.9C62.3986 16.44 62.5686 17.04 62.5686 17.7V20.37C62.5686 21.03 62.3986 21.64 62.0586 22.2C61.7386 22.74 61.2985 23.18 60.7385 23.52C60.1985 23.84 59.5885 24 58.9086 24H48.4686Z" fill="white" fill-opacity="0.89"/>
<path d="M65.585 30.9V6.59999H79.685C80.345 6.59999 80.945 6.76999 81.485 7.10999C82.045 7.42999 82.485 7.86999 82.805 8.42999C83.145 8.96999 83.315 9.56999 83.315 10.23V20.37C83.315 21.03 83.145 21.64 82.805 22.2C82.485 22.74 82.045 23.18 81.485 23.52C80.945 23.84 80.345 24 79.685 24H68.045V30.9H65.585ZM69.245 21.54H79.685C80.005 21.54 80.275 21.43 80.495 21.21C80.735 20.97 80.855 20.69 80.855 20.37V10.23C80.855 9.90999 80.735 9.63999 80.495 9.41999C80.275 9.17999 80.005 9.05999 79.685 9.05999H69.245C68.925 9.05999 68.645 9.17999 68.405 9.41999C68.165 9.63999 68.045 9.90999 68.045 10.23V20.37C68.045 20.69 68.165 20.97 68.405 21.21C68.645 21.43 68.925 21.54 69.245 21.54Z" fill="white" fill-opacity="0.89"/>
<path d="M85.8863 24V6.59999H88.3463V24H85.8863ZM85.8863 3.35999V0.899994H88.3463V3.35999H85.8863Z" fill="white" fill-opacity="0.89"/>
<path d="M92.1265 24V10.23C92.1265 9.56999 92.2865 8.96999 92.6065 8.42999C92.9465 7.86999 93.3865 7.42999 93.9265 7.10999C94.4865 6.76999 95.0965 6.59999 95.7565 6.59999H105.537V9.05999H95.7565C95.4365 9.05999 95.1565 9.17999 94.9165 9.41999C94.6965 9.63999 94.5865 9.90999 94.5865 10.23V24H92.1265Z" fill="white" fill-opacity="0.89"/>
<path d="M111.078 24C110.418 24 109.808 23.84 109.248 23.52C108.708 23.18 108.268 22.74 107.928 22.2C107.608 21.64 107.448 21.03 107.448 20.37V10.23C107.448 9.56999 107.608 8.96999 107.928 8.42999C108.268 7.86999 108.708 7.42999 109.248 7.10999C109.808 6.76999 110.418 6.59999 111.078 6.59999H121.518C122.198 6.59999 122.808 6.76999 123.348 7.10999C123.908 7.42999 124.348 7.86999 124.668 8.42999C125.008 8.96999 125.178 9.56999 125.178 10.23V16.53H109.908V20.37C109.908 20.69 110.018 20.97 110.238 21.21C110.478 21.43 110.758 21.54 111.078 21.54H125.178V24H111.078ZM109.908 14.07H122.688V10.23C122.688 9.90999 122.568 9.63999 122.328 9.41999C122.108 9.17999 121.838 9.05999 121.518 9.05999H111.078C110.758 9.05999 110.478 9.17999 110.238 9.41999C110.018 9.63999 109.908 9.90999 109.908 10.23V14.07Z" fill="white" fill-opacity="0.89"/>
</svg>
