<svg width="126" height="32" viewBox="0 0 126 32" fill="none" xmlns="http://www.w3.org/2000/svg">
<path d="M19.1414 7.44727C19.5125 6.89062 19.7859 6.36816 19.9617 5.87988C20.1375 5.3916 20.2253 4.89355 20.2253 4.38574C20.2253 3.8584 20.1375 3.38477 19.9617 2.96484C19.7957 2.54492 19.5515 2.18359 19.2292 1.88086C18.907 1.57812 18.5115 1.34863 18.0427 1.19238C17.5837 1.02637 17.0662 0.943359 16.49 0.943359C15.8064 0.943359 15.1814 1.05566 14.615 1.28027C14.0583 1.50488 13.5798 1.82227 13.1794 2.23242C12.7888 2.64258 12.4861 3.13574 12.2712 3.71191C12.0564 4.28809 11.949 4.92773 11.949 5.63086C11.949 6.33398 12.0466 7.02246 12.2419 7.69629C12.4373 8.36035 12.6814 9.02441 12.9744 9.68848C13.2673 10.3428 13.5847 10.9922 13.9265 11.6367C14.2781 12.2812 14.6003 12.9258 14.8933 13.5703C15.1863 14.2148 15.4304 14.8643 15.6257 15.5186C15.821 16.1729 15.9187 16.8369 15.9187 17.5107C15.9187 18.1943 15.8113 18.8486 15.5964 19.4736C15.3816 20.0889 15.0789 20.6553 14.6882 21.1729C14.3074 21.6904 13.8533 22.1592 13.3259 22.5791C12.7986 22.999 12.2224 23.3555 11.5974 23.6484C10.9822 23.9414 10.3279 24.166 9.63452 24.3223C8.94116 24.4785 8.23804 24.5566 7.52515 24.5566C6.44116 24.5566 5.48901 24.3857 4.6687 24.0439C3.84839 23.7021 3.15991 23.248 2.60327 22.6816C2.04663 22.1152 1.62671 21.4658 1.34351 20.7334C1.07007 19.9912 0.93335 19.2246 0.93335 18.4336C0.93335 17.9355 0.987061 17.457 1.09448 16.998C1.2019 16.5391 1.34839 16.1338 1.53394 15.7822C1.72925 15.4307 1.95386 15.1523 2.20776 14.9473C2.47144 14.7422 2.75464 14.6396 3.05737 14.6396C3.32104 14.6396 3.52612 14.7129 3.67261 14.8594C3.82886 15.0059 3.90698 15.2061 3.90698 15.46C3.90698 15.665 3.85327 15.8359 3.74585 15.9727C3.64819 16.0996 3.52612 16.207 3.37964 16.2949C3.23315 16.3828 3.0769 16.4561 2.91089 16.5146C2.74487 16.5732 2.59839 16.6318 2.47144 16.6904C2.21753 16.8076 2.00269 17.0078 1.8269 17.291C1.66089 17.5742 1.57788 18.0137 1.57788 18.6094C1.57788 19.2148 1.69019 19.8301 1.91479 20.4551C2.1394 21.0801 2.4812 21.6465 2.94019 22.1543C3.40894 22.6621 3.99976 23.0771 4.71265 23.3994C5.42554 23.7119 6.27026 23.8682 7.24683 23.8682C8.09644 23.8682 8.89722 23.7412 9.64917 23.4873C10.4109 23.2236 11.075 22.8428 11.6414 22.3447C12.2175 21.8369 12.6716 21.207 13.0037 20.4551C13.3357 19.6934 13.5017 18.8145 13.5017 17.8184C13.5017 17.0664 13.4089 16.373 13.2234 15.7383C13.0476 15.1035 12.823 14.498 12.5496 13.9219C12.2859 13.3457 11.9929 12.7891 11.6707 12.252C11.3582 11.7051 11.0652 11.1484 10.7917 10.582C10.5281 10.0156 10.3035 9.42969 10.1179 8.82422C9.94214 8.20898 9.85425 7.54004 9.85425 6.81738C9.85425 5.89941 10.0105 5.05469 10.323 4.2832C10.6453 3.50195 11.0994 2.82812 11.6853 2.26172C12.2712 1.69531 12.9744 1.25586 13.7947 0.943359C14.6248 0.621094 15.5476 0.459961 16.5632 0.459961C17.2957 0.459961 17.9548 0.547852 18.5408 0.723633C19.1365 0.889648 19.6394 1.13379 20.0496 1.45605C20.4695 1.77832 20.7869 2.16895 21.0017 2.62793C21.2263 3.08691 21.3386 3.60449 21.3386 4.18066C21.3386 4.81543 21.2019 5.41602 20.9285 5.98242C20.655 6.53906 20.2253 7.10547 19.6394 7.68164L19.1414 7.44727Z" fill="#F5F5F5"/>
<path d="M21.075 6.6416H25.3523L26.7439 2.80371H28.9119L27.5203 6.6416H31.9148V7.22754H27.3005L23.7849 16.8955C23.6482 17.2764 23.5115 17.667 23.3748 18.0674C23.2478 18.4678 23.1306 18.8633 23.0232 19.2539C22.9255 19.6348 22.8425 20.0059 22.7742 20.3672C22.7156 20.7188 22.6863 21.041 22.6863 21.334C22.6863 22.0078 22.8669 22.5449 23.2283 22.9453C23.5994 23.3457 24.156 23.5459 24.8982 23.5459C25.6208 23.5459 26.324 23.4092 27.0076 23.1357C27.6912 22.8623 28.365 22.4424 29.0291 21.876C29.6931 21.3096 30.3523 20.5967 31.0066 19.7373C31.6609 18.8682 32.3201 17.8428 32.9841 16.6611L33.7458 15.3135L34.1414 15.5918L33.3796 16.9395C32.6082 18.3066 31.8611 19.459 31.1384 20.3965C30.4158 21.3242 29.698 22.0762 28.9851 22.6523C28.282 23.2285 27.5642 23.6436 26.8318 23.8975C26.1091 24.1514 25.3572 24.2783 24.5759 24.2783C23.9802 24.2783 23.4529 24.1855 22.9939 24C22.5349 23.8242 22.1541 23.5703 21.8513 23.2383C21.5388 22.9062 21.3044 22.5059 21.1482 22.0371C20.9822 21.5684 20.8992 21.0459 20.8992 20.4697C20.8992 19.9619 20.9578 19.4053 21.075 18.7998C21.1921 18.1943 21.3728 17.5596 21.6169 16.8955L25.1326 7.22754H21.075V6.6416Z" fill="#F5F5F5"/>
<path d="M44.6882 7.68164C44.6882 7.52539 44.5857 7.36914 44.3806 7.21289C44.1853 7.04688 43.8972 6.96387 43.5164 6.96387C43.1257 6.96387 42.7009 7.08594 42.2419 7.33008C41.783 7.56445 41.2605 7.98438 40.6746 8.58984C40.0886 9.19531 39.4294 10.0205 38.697 11.0654C37.9744 12.1104 37.1541 13.4434 36.2361 15.0645L35.5037 16.3535L32.7351 24H30.5525L36.8806 6.6416H39.0486L36.4851 13.6729C37.2859 12.2959 38.0183 11.1436 38.6824 10.2158C39.3464 9.27832 39.9617 8.52637 40.5281 7.95996C41.0945 7.38379 41.6267 6.97363 42.1248 6.72949C42.6228 6.48535 43.1111 6.36328 43.5896 6.36328C44.2341 6.36328 44.7371 6.55371 45.0984 6.93457C45.4695 7.31543 45.655 7.81348 45.655 8.42871C45.655 8.68262 45.6208 8.92676 45.5525 9.16113C45.4939 9.38574 45.4011 9.58105 45.2742 9.74707C45.157 9.91309 45.0105 10.0449 44.8347 10.1426C44.6589 10.2402 44.4636 10.2891 44.2488 10.2891C44.0925 10.2891 43.9363 10.2646 43.78 10.2158C43.6335 10.167 43.5017 10.0938 43.3845 9.99609C43.2673 9.88867 43.1697 9.76172 43.0916 9.61523C43.0232 9.46875 42.989 9.29785 42.989 9.10254C42.989 8.94629 43.0134 8.79004 43.0623 8.63379C43.1208 8.46777 43.199 8.32617 43.2966 8.20898C43.3943 8.08203 43.5115 7.97949 43.6482 7.90137C43.7849 7.82324 43.9363 7.78418 44.1023 7.78418C44.2097 7.78418 44.3123 7.79395 44.4099 7.81348C44.4294 7.83301 44.4539 7.85254 44.4832 7.87207C44.5222 7.88184 44.5515 7.88672 44.571 7.88672C44.6492 7.88672 44.6882 7.81836 44.6882 7.68164Z" fill="#F5F5F5"/>
<path d="M47.3396 15.4453C47.6912 14.3906 48.1111 13.4336 48.5994 12.5742C49.0876 11.7051 49.615 10.9336 50.1814 10.2598C50.7576 9.58594 51.3582 9.00488 51.9832 8.5166C52.6179 8.02832 53.2478 7.62793 53.8728 7.31543C54.5076 6.99316 55.1277 6.75391 55.7332 6.59766C56.3484 6.44141 56.9246 6.36328 57.4617 6.36328C58.0183 6.36328 58.4822 6.45117 58.8533 6.62695C59.2244 6.79297 59.5222 7.03223 59.7468 7.34473C59.9812 7.64746 60.1472 8.01855 60.2449 8.45801C60.3425 8.8877 60.3914 9.36621 60.3914 9.89355L61.5779 6.6416H63.7458L60.0105 16.8955C59.8738 17.2764 59.7371 17.667 59.6003 18.0674C59.4636 18.458 59.3416 18.8486 59.2341 19.2393C59.1365 19.6201 59.0535 19.9912 58.9851 20.3525C58.9265 20.7041 58.8972 21.0312 58.8972 21.334C58.8972 22.0078 59.073 22.5449 59.4246 22.9453C59.7859 23.3457 60.3425 23.5459 61.0945 23.5459C61.7488 23.5459 62.3835 23.4092 62.9988 23.1357C63.614 22.8525 64.2195 22.4277 64.8152 21.8613C65.4207 21.2852 66.0261 20.5674 66.6316 19.708C67.2371 18.8389 67.8621 17.8232 68.5066 16.6611L69.2537 15.3135L69.6492 15.5918L68.8875 16.9395C68.1746 18.209 67.491 19.3076 66.8367 20.2354C66.1921 21.1533 65.5476 21.915 64.9031 22.5205C64.2585 23.1162 63.5994 23.5605 62.9255 23.8535C62.2517 24.1367 61.5339 24.2783 60.7722 24.2783C60.1765 24.2783 59.6492 24.1855 59.1902 24C58.741 23.8242 58.3601 23.5703 58.0476 23.2383C57.7449 22.9062 57.5154 22.5059 57.3591 22.0371C57.2029 21.5684 57.1248 21.0459 57.1248 20.4697C57.1248 20.0889 57.1589 19.6787 57.2273 19.2393C57.2957 18.79 57.3982 18.3262 57.5349 17.8477C56.2556 19.9961 54.991 21.6074 53.741 22.6816C52.491 23.7461 51.2214 24.2783 49.9324 24.2783C49.3269 24.2783 48.8093 24.1709 48.3796 23.9561C47.9597 23.7314 47.613 23.4238 47.3396 23.0332C47.0662 22.6328 46.866 22.1689 46.739 21.6416C46.6121 21.1045 46.5486 20.5186 46.5486 19.8838C46.5486 19.2002 46.6169 18.4824 46.7537 17.7305C46.8904 16.9688 47.0857 16.207 47.3396 15.4453ZM50.4597 23.5459C50.9871 23.5459 51.5242 23.4092 52.071 23.1357C52.6179 22.8525 53.1599 22.4717 53.697 21.9932C54.2439 21.5049 54.7712 20.9385 55.2791 20.2939C55.7869 19.6396 56.2654 18.9463 56.7146 18.2139C57.1736 17.4717 57.5935 16.71 57.9744 15.9287C58.3552 15.1475 58.6824 14.3809 58.9558 13.6289C59.239 12.8672 59.4539 12.1445 59.6003 11.4609C59.7566 10.7676 59.8347 10.1475 59.8347 9.60059C59.8347 9.10254 59.7712 8.6875 59.6443 8.35547C59.5271 8.01367 59.366 7.74023 59.1609 7.53516C58.9656 7.32031 58.7361 7.16895 58.4724 7.08105C58.2185 6.99316 57.9548 6.94922 57.6814 6.94922C57.1345 6.94922 56.5242 7.12012 55.8503 7.46191C55.1863 7.79395 54.5076 8.30664 53.8142 9C53.1208 9.68359 52.4373 10.5527 51.7634 11.6074C51.0994 12.6523 50.489 13.8828 49.9324 15.2988C49.4734 16.4805 49.1267 17.5742 48.8923 18.5801C48.6677 19.5859 48.5554 20.4258 48.5554 21.0996C48.5554 21.8613 48.7068 22.4619 49.0095 22.9014C49.322 23.3311 49.8054 23.5459 50.4597 23.5459Z" fill="#F5F5F5"/>
<path d="M68.0964 6.6416H72.3738L73.7654 2.80371H75.9333L74.5417 6.6416H78.9363V7.22754H74.322L70.8064 16.8955C70.6697 17.2764 70.533 17.667 70.3962 18.0674C70.2693 18.4678 70.1521 18.8633 70.0447 19.2539C69.947 19.6348 69.864 20.0059 69.7957 20.3672C69.7371 20.7188 69.7078 21.041 69.7078 21.334C69.7078 22.0078 69.8884 22.5449 70.2498 22.9453C70.6208 23.3457 71.1775 23.5459 71.9197 23.5459C72.6423 23.5459 73.3455 23.4092 74.0291 23.1357C74.7126 22.8623 75.3865 22.4424 76.0505 21.876C76.7146 21.3096 77.3738 20.5967 78.0281 19.7373C78.6824 18.8682 79.3416 17.8428 80.0056 16.6611L80.7673 15.3135L81.1628 15.5918L80.4011 16.9395C79.6296 18.3066 78.8826 19.459 78.1599 20.3965C77.4373 21.3242 76.7195 22.0762 76.0066 22.6523C75.3035 23.2285 74.5857 23.6436 73.8533 23.8975C73.1306 24.1514 72.3787 24.2783 71.5974 24.2783C71.0017 24.2783 70.4744 24.1855 70.0154 24C69.5564 23.8242 69.1755 23.5703 68.8728 23.2383C68.5603 22.9062 68.3259 22.5059 68.1697 22.0371C68.0037 21.5684 67.9207 21.0459 67.9207 20.4697C67.9207 19.9619 67.9792 19.4053 68.0964 18.7998C68.2136 18.1943 68.3943 17.5596 68.6384 16.8955L72.1541 7.22754H68.0964V6.6416Z" fill="#F5F5F5"/>
<path d="M83.9314 6.6416H86.0994L82.364 16.8955C82.2273 17.2764 82.0906 17.667 81.9539 18.0674C81.8171 18.458 81.6951 18.8486 81.5876 19.2393C81.49 19.6201 81.407 19.9912 81.3386 20.3525C81.28 20.7041 81.2507 21.0312 81.2507 21.334C81.2507 22.0078 81.4265 22.5449 81.7781 22.9453C82.1394 23.3457 82.696 23.5459 83.448 23.5459C84.1023 23.5459 84.7322 23.4043 85.3376 23.1211C85.9529 22.8379 86.5583 22.4131 87.1541 21.8467C87.7595 21.2705 88.365 20.5527 88.9705 19.6934C89.5759 18.8242 90.2058 17.8135 90.8601 16.6611L91.6218 15.3135L92.0173 15.5918L91.2556 16.9395C90.5427 18.1992 89.8591 19.293 89.2048 20.2207C88.5603 21.1387 87.9109 21.9004 87.2566 22.5059C86.6121 23.1016 85.9529 23.5459 85.2791 23.8389C84.6052 24.1318 83.8875 24.2783 83.1257 24.2783C82.53 24.2783 82.0027 24.1855 81.5437 24C81.0945 23.8242 80.7185 23.5703 80.4158 23.2383C80.1033 22.9062 79.8689 22.5059 79.7126 22.0371C79.5564 21.5684 79.4783 21.0459 79.4783 20.4697C79.4783 19.9619 79.5417 19.4053 79.6687 18.7998C79.7859 18.1943 79.9617 17.5596 80.196 16.8955L83.9314 6.6416ZM85.1033 2.80371C85.1033 2.46191 85.2205 2.16895 85.4548 1.9248C85.699 1.68066 85.9919 1.55859 86.3337 1.55859C86.6755 1.55859 86.9636 1.68066 87.198 1.9248C87.4421 2.15918 87.5642 2.44727 87.5642 2.78906C87.5642 2.95508 87.53 3.11621 87.4617 3.27246C87.4031 3.41895 87.3152 3.5459 87.198 3.65332C87.0906 3.76074 86.9587 3.84863 86.8025 3.91699C86.656 3.97559 86.4949 4.00488 86.3191 4.00488C85.9773 4.00488 85.6892 3.89258 85.4548 3.66797C85.2205 3.43359 85.1033 3.14551 85.1033 2.80371Z" fill="#F5F5F5"/>
<path d="M92.8523 31.7197C91.905 31.7197 91.1189 31.5928 90.4939 31.3389C89.8591 31.085 89.3562 30.6846 88.9851 30.1377C88.7898 29.874 88.6433 29.5908 88.5457 29.2881C88.4382 28.9951 88.3845 28.7021 88.3845 28.4092C88.3845 27.9697 88.5017 27.623 88.7361 27.3691C88.9607 27.1152 89.2732 26.9883 89.6736 26.9883C90.0154 26.9883 90.2839 27.0811 90.4792 27.2666C90.6746 27.4521 90.7722 27.7109 90.7722 28.043C90.7722 28.3555 90.6892 28.6094 90.5232 28.8047C90.3572 29 90.1472 29.0977 89.8933 29.0977C89.7859 29.0977 89.7029 29.083 89.6443 29.0537C89.5759 29.0244 89.5027 29.0098 89.4246 29.0098C89.3757 29.0098 89.3416 29.0195 89.322 29.0391C89.3025 29.0684 89.2927 29.1221 89.2927 29.2002C89.2927 29.4736 89.3806 29.7227 89.5564 29.9473C89.7322 30.1816 89.9763 30.3818 90.2888 30.5479C90.6013 30.7236 90.9724 30.8555 91.4021 30.9434C91.8318 31.041 92.2957 31.0898 92.7937 31.0898C93.5066 31.0898 94.1609 30.9873 94.7566 30.7822C95.3523 30.5771 95.8943 30.2549 96.3826 29.8154C96.8806 29.3857 97.3298 28.834 97.7302 28.1602C98.1404 27.4961 98.5164 26.6953 98.8582 25.7578L101.641 18.0527C100.391 20.1328 99.1511 21.6904 97.9207 22.7256C96.6902 23.7607 95.4402 24.2783 94.1707 24.2783C93.5652 24.2783 93.0476 24.1709 92.6179 23.9561C92.198 23.7314 91.8513 23.4238 91.5779 23.0332C91.3044 22.6328 91.1042 22.1689 90.9773 21.6416C90.8503 21.1045 90.7869 20.5186 90.7869 19.8838C90.7869 19.2002 90.8552 18.4824 90.9919 17.7305C91.1287 16.9688 91.324 16.207 91.5779 15.4453C91.9294 14.3906 92.3494 13.4336 92.8376 12.5742C93.3259 11.7051 93.8533 10.9336 94.4197 10.2598C94.9958 9.58594 95.5964 9.00488 96.2214 8.5166C96.8562 8.02832 97.4861 7.62793 98.1111 7.31543C98.7458 6.99316 99.366 6.75391 99.9714 6.59766C100.587 6.44141 101.163 6.36328 101.7 6.36328C102.257 6.36328 102.72 6.44629 103.092 6.6123C103.472 6.76855 103.775 6.99805 104 7.30078C104.224 7.60352 104.385 7.96973 104.483 8.39941C104.581 8.8291 104.63 9.30762 104.63 9.83496L105.802 6.6416H107.969L101.055 25.6406C100.333 27.623 99.2732 29.1318 97.8767 30.167C96.4802 31.2021 94.8054 31.7197 92.8523 31.7197ZM94.698 23.5459C95.2253 23.5459 95.7625 23.4092 96.3093 23.1357C96.8562 22.8525 97.3982 22.4717 97.9353 21.9932C98.4822 21.5049 99.0095 20.9385 99.5173 20.2939C100.025 19.6396 100.504 18.9463 100.953 18.2139C101.412 17.4717 101.832 16.71 102.213 15.9287C102.594 15.1475 102.921 14.3809 103.194 13.6289C103.477 12.8672 103.692 12.1445 103.839 11.4609C103.995 10.7676 104.073 10.1475 104.073 9.60059C104.073 9.10254 104.01 8.6875 103.883 8.35547C103.765 8.01367 103.604 7.74023 103.399 7.53516C103.204 7.32031 102.974 7.16895 102.711 7.08105C102.457 6.99316 102.193 6.94922 101.92 6.94922C101.373 6.94922 100.762 7.12012 100.089 7.46191C99.4246 7.79395 98.7458 8.30664 98.0525 9C97.3591 9.68359 96.6755 10.5527 96.0017 11.6074C95.3376 12.6523 94.7273 13.8828 94.1707 15.2988C93.7117 16.4805 93.365 17.5742 93.1306 18.5801C92.906 19.5859 92.7937 20.4258 92.7937 21.0996C92.7937 21.8613 92.9451 22.4619 93.2478 22.9014C93.5603 23.3311 94.0437 23.5459 94.698 23.5459Z" fill="#F5F5F5"/>
<path d="M111.353 15.4893C111.695 14.1807 112.193 12.9697 112.847 11.8564C113.511 10.7432 114.268 9.78125 115.118 8.9707C115.977 8.15039 116.905 7.51074 117.901 7.05176C118.907 6.59277 119.918 6.36328 120.933 6.36328C121.754 6.36328 122.442 6.50488 122.999 6.78809C123.565 7.06152 124.019 7.43262 124.361 7.90137C124.703 8.37012 124.947 8.91211 125.094 9.52734C125.24 10.1426 125.313 10.7871 125.313 11.4609C125.313 12.1934 125.24 12.9258 125.094 13.6582C124.957 14.3906 124.776 15.0889 124.552 15.7529C124.132 16.9834 123.59 18.1211 122.926 19.166C122.261 20.2012 121.519 21.0996 120.699 21.8613C119.888 22.623 119.024 23.2188 118.106 23.6484C117.188 24.0684 116.27 24.2783 115.352 24.2783C114.659 24.2783 114.034 24.1562 113.477 23.9121C112.93 23.6582 112.467 23.2969 112.086 22.8281C111.705 22.3594 111.412 21.7881 111.207 21.1143C111.002 20.4307 110.899 19.6641 110.899 18.8145C110.899 18.2773 110.938 17.7305 111.016 17.1738C111.094 16.6074 111.207 16.0459 111.353 15.4893ZM115.572 23.5459C116.275 23.5459 116.988 23.3457 117.711 22.9453C118.443 22.5449 119.146 21.9883 119.82 21.2754C120.504 20.5527 121.138 19.6934 121.724 18.6973C122.31 17.7012 122.813 16.6074 123.233 15.416C123.35 15.0938 123.463 14.7324 123.57 14.332C123.687 13.9316 123.795 13.5166 123.892 13.0869C123.99 12.6475 124.068 12.2031 124.127 11.7539C124.185 11.2949 124.215 10.8506 124.215 10.4209C124.215 9.95215 124.171 9.50781 124.083 9.08789C123.995 8.6582 123.844 8.28711 123.629 7.97461C123.424 7.66211 123.14 7.41309 122.779 7.22754C122.427 7.04199 121.988 6.94922 121.461 6.94922C120.699 6.94922 119.942 7.1543 119.19 7.56445C118.448 7.96484 117.74 8.53613 117.066 9.27832C116.402 10.0107 115.797 10.8896 115.25 11.915C114.703 12.9404 114.249 14.0732 113.887 15.3135C113.643 16.1436 113.453 16.9785 113.316 17.8184C113.189 18.6484 113.126 19.4053 113.126 20.0889C113.126 22.3936 113.941 23.5459 115.572 23.5459Z" fill="#F5F5F5"/>
</svg>
