<svg width="89" height="25" viewBox="0 0 89 25" fill="none" xmlns="http://www.w3.org/2000/svg">
<path d="M13.3704 18.54C13.6504 18.5 14.0004 18.45 14.4204 18.39C14.8604 18.33 15.2704 18.26 15.6504 18.18C16.0504 18.08 16.3204 17.97 16.4604 17.85C16.7204 18.07 16.8904 18.52 16.9704 19.2C17.0704 19.86 17.0404 20.55 16.8804 21.27C16.7604 21.89 16.5504 22.47 16.2504 23.01C15.9504 23.55 15.5204 23.88 14.9604 24C14.4804 24.1 13.9304 24.16 13.3104 24.18C12.6904 24.2 12.0604 24.2 11.4204 24.18C10.7804 24.16 10.1904 24.14 9.65037 24.12C9.13037 24.1 8.73037 24.09 8.45037 24.09C8.17037 24.09 7.73037 24.09 7.13037 24.09C6.55037 24.11 6.04037 24.13 5.60037 24.15C5.08037 24.21 4.51037 24.25 3.89037 24.27C3.27037 24.29 2.70037 24.27 2.18037 24.21C1.66037 24.15 1.28037 24.05 1.04037 23.91C1.18037 23.63 1.30037 23.21 1.40037 22.65C1.50037 22.07 1.58037 21.44 1.64037 20.76C1.70037 20.08 1.72037 19.43 1.70037 18.81L1.64037 13.32V10.77C1.64037 10.05 1.63037 9.45 1.61037 8.97C1.61037 8.49 1.61037 8.23 1.61037 8.19C1.61037 7.53 1.58037 6.82 1.52037 6.06C1.46037 5.3 1.39037 4.58 1.31037 3.9C1.23037 3.2 1.16037 2.63 1.10037 2.19C1.02037 1.85 0.960371 1.52 0.920371 1.2C0.880371 0.859998 0.870371 0.559999 0.890371 0.299998C1.03037 0.359998 1.41037 0.419998 2.03037 0.479998C2.67037 0.519997 3.41037 0.559997 4.25037 0.599998C4.31037 0.599998 4.60037 0.609998 5.12037 0.629998C5.64037 0.629998 6.28037 0.639998 7.04037 0.659997C7.82037 0.679998 8.62037 0.699999 9.44037 0.719998C10.2804 0.719998 11.0404 0.719998 11.7204 0.719998C12.4004 0.719998 12.9004 0.709999 13.2204 0.689999C14.0404 0.649998 14.7304 0.589998 15.2904 0.509998C15.8704 0.409998 16.2604 0.279998 16.4604 0.119997C16.7004 0.319998 16.9204 0.699999 17.1204 1.26C17.3404 1.8 17.4604 2.37 17.4804 2.97C17.4804 3.55 17.3404 4.1 17.0604 4.62C16.8004 5.12 16.3204 5.46 15.6204 5.64C15.3604 5.7 14.9504 5.75 14.3904 5.79C13.8504 5.83 13.3204 5.86 12.8004 5.88C12.3004 5.88 11.9404 5.87 11.7204 5.85C11.1004 5.79 10.4604 5.86 9.80037 6.06C9.14037 6.24 8.58037 6.49 8.12037 6.81C7.66037 7.11 7.42037 7.44 7.40037 7.8C7.38037 8.14 7.52037 8.42 7.82037 8.64C8.12037 8.86 8.51037 9.04 8.99037 9.18C9.49037 9.3 10.0204 9.38 10.5804 9.42C11.1404 9.46 11.6704 9.47 12.1704 9.45C12.5704 9.41 13.0304 9.34 13.5504 9.24C14.0704 9.14 14.3904 9.04 14.5104 8.94C14.7704 9.16 14.9504 9.57 15.0504 10.17C15.1704 10.77 15.1704 11.39 15.0504 12.03C14.9504 12.55 14.7504 13.03 14.4504 13.47C14.1504 13.91 13.7304 14.21 13.1904 14.37C12.7704 14.49 12.4104 14.57 12.1104 14.61C11.8104 14.63 11.6604 14.64 11.6604 14.64C10.4804 14.64 9.48037 14.85 8.66037 15.27C7.86037 15.67 7.42037 16.15 7.34037 16.71C7.26037 17.19 7.36037 17.63 7.64037 18.03C7.94037 18.43 8.37037 18.65 8.93037 18.69C9.31037 18.71 9.79037 18.72 10.3704 18.72C10.9704 18.7 11.5504 18.68 12.1104 18.66C12.6904 18.62 13.1104 18.58 13.3704 18.54Z" fill="white" fill-opacity="0.89"/>
<path d="M20.3847 21.54C20.3847 21.38 20.3847 20.95 20.3847 20.25C20.3847 19.53 20.3847 18.64 20.3847 17.58C20.3847 16.52 20.3747 15.36 20.3547 14.1C20.3547 12.82 20.3547 11.53 20.3547 10.23C20.3547 8.93 20.3447 7.7 20.3247 6.54C20.3247 5.36 20.3147 4.34 20.2947 3.48C20.2747 2.66 20.2047 1.98 20.0847 1.44C19.9647 0.879998 19.8947 0.539998 19.8747 0.419999C20.1147 0.379998 20.4747 0.369998 20.9547 0.389997C21.4347 0.389997 21.9647 0.449998 22.5447 0.569999C23.1447 0.669998 23.7147 0.839998 24.2547 1.08C24.7947 1.3 25.2447 1.62 25.6047 2.04C25.9647 2.44 26.1547 2.95 26.1747 3.57C26.1947 3.95 26.2047 4.62 26.2047 5.58C26.2247 6.52 26.2347 7.63 26.2347 8.91C26.2547 10.17 26.2747 11.47 26.2947 12.81C26.3147 14.13 26.3247 15.38 26.3247 16.56C26.3447 17.74 26.3547 18.73 26.3547 19.53C26.3747 20.31 26.3847 20.77 26.3847 20.91C26.3847 21.33 26.4947 21.74 26.7147 22.14C26.9547 22.52 27.2047 22.76 27.4647 22.86C27.3447 23.02 27.0747 23.23 26.6547 23.49C26.2347 23.75 25.7447 23.99 25.1847 24.21C24.6447 24.43 24.0947 24.57 23.5347 24.63C23.0747 24.67 22.5947 24.56 22.0947 24.3C21.6147 24.06 21.2047 23.7 20.8647 23.22C20.5447 22.74 20.3847 22.18 20.3847 21.54Z" fill="white" fill-opacity="0.89"/>
<path d="M44.985 16.47C45.485 16.81 45.805 17.3 45.945 17.94C46.105 18.56 46.085 19.24 45.885 19.98C45.705 20.72 45.335 21.43 44.775 22.11C44.215 22.77 43.455 23.32 42.495 23.76C41.555 24.2 40.415 24.43 39.075 24.45C37.955 24.47 36.855 24.33 35.775 24.03C34.715 23.73 33.745 23.27 32.865 22.65C32.005 22.03 31.305 21.23 30.765 20.25C30.225 19.27 29.925 18.1 29.865 16.74C29.845 16.46 29.845 16.17 29.865 15.87C29.885 15.57 29.905 15.26 29.925 14.94C29.925 14.86 29.925 14.78 29.925 14.7C29.945 14.62 29.965 14.54 29.985 14.46C30.185 13.26 30.595 12.16 31.215 11.16C31.855 10.16 32.635 9.31 33.555 8.61C34.475 7.91 35.455 7.4 36.495 7.08C37.555 6.74 38.595 6.62 39.615 6.72C41.195 6.88 42.415 7.3 43.275 7.98C44.155 8.66 44.725 9.5 44.985 10.5C45.265 11.48 45.275 12.54 45.015 13.68C44.875 14.24 44.555 14.8 44.055 15.36C43.575 15.9 42.975 16.39 42.255 16.83C41.535 17.25 40.765 17.58 39.945 17.82C39.145 18.04 38.365 18.13 37.605 18.09C37.225 18.07 37.025 18.19 37.005 18.45C36.985 18.69 37.095 18.96 37.335 19.26C37.575 19.54 37.895 19.73 38.295 19.83C39.235 20.03 40.115 20.04 40.935 19.86C41.775 19.66 42.415 19.39 42.855 19.05C43.215 18.77 43.595 18.4 43.995 17.94C44.395 17.46 44.725 16.97 44.985 16.47ZM38.415 13.44C38.875 13.4 39.275 13.26 39.615 13.02C39.975 12.76 40.155 12.49 40.155 12.21C40.175 11.81 40.075 11.49 39.855 11.25C39.655 10.99 39.305 10.87 38.805 10.89C38.245 10.91 37.705 10.99 37.185 11.13C36.665 11.27 36.355 11.56 36.255 12C36.195 12.3 36.285 12.56 36.525 12.78C36.765 13 37.065 13.17 37.425 13.29C37.785 13.39 38.115 13.44 38.415 13.44Z" fill="white" fill-opacity="0.89"/>
<path d="M57.5714 6.75C58.7514 6.93 59.6314 7.21 60.2114 7.59C60.8114 7.97 61.2014 8.42 61.3814 8.94C61.5814 9.44 61.6314 10 61.5314 10.62C61.4514 11.24 61.3014 11.88 61.0814 12.54C60.9214 13.04 60.6814 13.67 60.3614 14.43C60.0614 15.19 59.7414 15.97 59.4014 16.77C59.0814 17.57 58.7814 18.29 58.5014 18.93C58.2214 19.57 58.0314 20.02 57.9314 20.28C57.5514 21.16 57.2114 21.86 56.9114 22.38C56.6314 22.88 56.3414 23.25 56.0414 23.49C55.7414 23.73 55.3714 23.88 54.9314 23.94C54.3714 24.02 53.8714 23.96 53.4314 23.76C52.9914 23.54 52.6514 23.21 52.4114 22.77C52.3914 22.73 52.3514 22.53 52.2914 22.17C52.2314 21.81 52.1714 21.44 52.1114 21.06C52.0514 20.66 51.9914 20.4 51.9314 20.28C51.7114 19.66 51.4214 18.92 51.0614 18.06C50.7214 17.18 50.3514 16.24 49.9514 15.24C49.5714 14.24 49.1814 13.26 48.7814 12.3C48.4014 11.34 48.0514 10.47 47.7314 9.69C47.4114 8.89 47.1514 8.26 46.9514 7.8C46.7714 7.32 46.6814 7.08 46.6814 7.08C46.9814 7.04 47.4014 6.99 47.9414 6.93C48.4814 6.87 49.0514 6.86 49.6514 6.9C50.2714 6.94 50.8514 7.09 51.3914 7.35C51.9314 7.61 52.3614 8.03 52.6814 8.61C52.7814 8.81 52.9114 9.13 53.0714 9.57C53.2514 9.99 53.4214 10.38 53.5814 10.74C53.7014 10.98 53.8214 11.26 53.9414 11.58C54.0814 11.9 54.2414 12.18 54.4214 12.42C54.6014 12.66 54.8114 12.79 55.0514 12.81C55.3714 12.83 55.6314 12.7 55.8314 12.42C56.0514 12.14 56.2214 11.83 56.3414 11.49C56.4614 11.13 56.5514 10.87 56.6114 10.71C56.7914 10.25 56.9614 9.77 57.1214 9.27C57.3014 8.75 57.4314 8.27 57.5114 7.83C57.6114 7.37 57.6314 7.01 57.5714 6.75Z" fill="white" fill-opacity="0.89"/>
<path d="M67.3558 6.15C66.6758 6.17 66.0658 5.98 65.5258 5.58C65.0058 5.18 64.6058 4.69 64.3258 4.11C64.0658 3.51 63.9658 2.94 64.0258 2.4C64.1258 1.58 64.4958 0.999998 65.1358 0.659997C65.7758 0.319998 66.4458 0.139998 67.1458 0.119997C68.1458 0.0799977 68.9258 0.339998 69.4858 0.899998C70.0458 1.46 70.3258 2.1 70.3258 2.82C70.3258 3.3 70.2158 3.79 69.9958 4.29C69.7958 4.79 69.4758 5.22 69.0358 5.58C68.5958 5.92 68.0358 6.11 67.3558 6.15ZM70.5358 20.97C70.5558 21.33 70.6658 21.64 70.8658 21.9C71.0858 22.14 71.3458 22.37 71.6458 22.59C71.5058 22.77 71.3258 22.96 71.1058 23.16C70.8858 23.36 70.5558 23.55 70.1158 23.73C69.6958 23.89 69.0858 24.02 68.2858 24.12C68.0258 24.14 67.6958 24.11 67.2958 24.03C66.8958 23.97 66.4958 23.78 66.0958 23.46C65.7158 23.12 65.4058 22.59 65.1658 21.87C64.9258 21.13 64.8258 20.12 64.8658 18.84C64.8858 18.62 64.8858 18.19 64.8658 17.55C64.8658 16.91 64.8558 16.15 64.8358 15.27C64.8358 14.39 64.8258 13.48 64.8058 12.54C64.8058 11.6 64.7958 10.73 64.7758 9.93C64.7758 9.11 64.7658 8.45 64.7458 7.95C64.7458 7.43 64.7458 7.17 64.7458 7.17C64.9258 7.15 65.2258 7.13 65.6458 7.11C66.0858 7.07 66.5658 7.07 67.0858 7.11C67.6058 7.15 68.1058 7.25 68.5858 7.41C69.0858 7.55 69.5058 7.78 69.8458 8.1C70.2058 8.42 70.4158 8.85 70.4758 9.39C70.5758 10.15 70.6158 11.17 70.5958 12.45C70.5758 13.71 70.5458 15.09 70.5058 16.59C70.4658 18.07 70.4758 19.53 70.5358 20.97Z" fill="white" fill-opacity="0.89"/>
<path d="M87.9947 21.36C88.0947 21.54 88.1247 21.82 88.0847 22.2C88.0647 22.58 87.9547 22.95 87.7547 23.31C87.5747 23.65 87.2947 23.88 86.9147 24C86.5547 24.12 86.0847 24.13 85.5047 24.03C84.9447 23.93 84.3847 23.77 83.8247 23.55C83.2847 23.31 82.8647 23.06 82.5647 22.8C82.7247 22.52 82.7547 22.22 82.6547 21.9C82.5547 21.56 82.4547 21.3 82.3547 21.12C82.3347 21.08 82.2647 20.97 82.1447 20.79C82.0247 20.61 81.8747 20.44 81.6947 20.28C81.5147 20.12 81.3047 20.06 81.0647 20.1C80.9647 20.12 80.8247 20.19 80.6447 20.31C80.4847 20.43 80.3047 20.62 80.1047 20.88C79.8447 21.22 79.7347 21.58 79.7747 21.96C79.8147 22.32 79.8347 22.5 79.8347 22.5C79.8347 22.5 79.7447 22.62 79.5647 22.86C79.3847 23.1 79.1447 23.35 78.8447 23.61C78.5447 23.87 78.2147 24.03 77.8547 24.09C77.6547 24.11 77.3247 24.08 76.8647 24C76.4247 23.94 75.9647 23.83 75.4847 23.67C75.0047 23.49 74.6247 23.25 74.3447 22.95C74.0647 22.65 73.9847 22.29 74.1047 21.87C74.1647 21.65 74.3747 21.28 74.7347 20.76C75.1147 20.22 75.5247 19.67 75.9647 19.11C76.3847 18.55 76.7047 17.94 76.9247 17.28C77.1647 16.6 77.3047 15.89 77.3447 15.15C77.3647 14.55 77.3147 13.96 77.1947 13.38C77.0947 12.8 76.9047 12.28 76.6247 11.82L74.0747 7.41C74.3547 7.29 74.7247 7.17 75.1847 7.05C75.6447 6.93 76.1547 6.87 76.7147 6.87C77.2947 6.87 77.8647 6.97 78.4247 7.17C79.0047 7.37 79.5347 7.71 80.0147 8.19C80.0547 8.23 80.1747 8.37 80.3747 8.61C80.5947 8.85 80.8047 9.11 81.0047 9.39C81.4047 9.89 81.7047 10.21 81.9047 10.35C82.1247 10.47 82.2747 10.54 82.3547 10.56C82.5747 10.58 82.7547 10.53 82.8947 10.41C83.0347 10.29 83.1547 10.14 83.2547 9.96C83.3347 9.84 83.4647 9.59 83.6447 9.21C83.8447 8.81 84.0347 8.38 84.2147 7.92C84.3947 7.46 84.4947 7.1 84.5147 6.84C85.8547 7.38 86.7847 7.96 87.3047 8.58C87.8247 9.18 88.0247 9.82 87.9047 10.5C87.8047 11.16 87.4747 11.86 86.9147 12.6C86.8747 12.68 86.7947 12.78 86.6747 12.9C86.5747 13.02 86.4947 13.12 86.4347 13.2C86.2147 13.52 86.0447 13.92 85.9247 14.4C85.8047 14.88 85.7647 15.4 85.8047 15.96C85.8647 17 86.1747 18.05 86.7347 19.11C87.0147 19.63 87.2547 20.07 87.4547 20.43C87.6747 20.77 87.8547 21.08 87.9947 21.36Z" fill="white" fill-opacity="0.89"/>
</svg>
