<svg width="630" height="372" viewBox="0 0 630 372" fill="none" xmlns="http://www.w3.org/2000/svg">
<path d="M0 -149.8H630M0 -109.677H630M0 -69.5538H630M0 -29.4308H630M0 10.6923H630M0 50.8154H630M0 90.9384H630M0 131.062H630M0 171.185H630M0 211.308H630M0 251.431H630M0 291.554H630M0 331.677H630M0 371.8H630M47 372V-195M88.3077 372V-195M129.615 372V-195M170.923 372V-195M212.231 372V-195M253.538 372V-195M294.846 372V-195M336.154 372V-195M377.462 372V-195M418.769 372V-195M460.077 372V-195M501.385 372V-195M542.692 372V-195M584 372V-195" stroke="url(#paint0_linear_377_20991)" stroke-opacity="0.38"/>
<defs>
<linearGradient id="paint0_linear_377_20991" x1="315" y1="-215" x2="315" y2="437" gradientUnits="userSpaceOnUse">
<stop offset="0.480769" stop-color="white" stop-opacity="0"/>
<stop offset="1" stop-color="white" stop-opacity="0.1"/>
</linearGradient>
</defs>
</svg>
