<svg width="33" height="32" viewBox="0 0 33 32" fill="none" xmlns="http://www.w3.org/2000/svg">
<path d="M9.83333 22.6667V16M15.1667 22.6667V20M28.5 20L24.7267 16.2267M23.1667 22.6667V26.6667C23.1667 27.0203 23.0262 27.3594 22.7761 27.6095C22.5261 27.8595 22.187 28 21.8333 28H5.83333C5.47971 28 5.14057 27.8595 4.89052 27.6095C4.64048 27.3594 4.5 27.0203 4.5 26.6667V5.33333C4.5 4.97971 4.64048 4.64057 4.89052 4.39052C5.14057 4.14048 5.47971 4 5.83333 4H21.8333M17.8333 13.3333C17.8333 14.1245 18.0679 14.8978 18.5075 15.5556C18.947 16.2134 19.5717 16.7261 20.3026 17.0289C21.0335 17.3316 21.8378 17.4108 22.6137 17.2565C23.3896 17.1021 24.1024 16.7212 24.6618 16.1618C25.2212 15.6024 25.6021 14.8896 25.7565 14.1137C25.9108 13.3378 25.8316 12.5335 25.5289 11.8026C25.2261 11.0717 24.7134 10.447 24.0556 10.0075C23.3978 9.56793 22.6245 9.33333 21.8333 9.33333C20.7725 9.33333 19.7551 9.75476 19.0049 10.5049C18.2548 11.2551 17.8333 12.2725 17.8333 13.3333Z" stroke="#D3FF55" stroke-width="2" stroke-linecap="round" stroke-linejoin="round"/>
</svg>
