<svg width="914" height="67" viewBox="0 0 914 67" fill="none" xmlns="http://www.w3.org/2000/svg">
<path d="M0.333333 64C0.333333 65.4728 1.52724 66.6667 3 66.6667C4.47276 66.6667 5.66667 65.4728 5.66667 64C5.66667 62.5273 4.47276 61.3333 3 61.3333C1.52724 61.3333 0.333333 62.5273 0.333333 64ZM908.333 63.9999C908.333 65.4727 909.527 66.6666 911 66.6666C912.473 66.6666 913.667 65.4727 913.667 63.9999C913.667 62.5272 912.473 61.3333 911 61.3333C909.527 61.3333 908.333 62.5272 908.333 63.9999ZM3 64L3.13568 64.4813C299.927 -19.1955 614.073 -19.1956 910.864 64.4812L911 63.9999L911.136 63.5187C614.167 -20.2081 299.833 -20.2081 2.86432 63.5188L3 64Z" fill="#3E764B"/>
</svg>
