<svg width="33" height="32" viewBox="0 0 33 32" fill="none" xmlns="http://www.w3.org/2000/svg">
<path d="M21.98 22.1067C20.4155 23.3306 18.4864 23.9956 16.5 23.9956C14.5136 23.9956 12.5845 23.3306 11.02 22.1067M16.5 8V4M16.5 8C15.9726 8 15.457 8.1564 15.0185 8.44941C14.5799 8.74243 14.2382 9.15891 14.0363 9.64618C13.8345 10.1334 13.7817 10.6696 13.8846 11.1869C13.9875 11.7042 14.2414 12.1793 14.6144 12.5523C14.9873 12.9252 15.4625 13.1792 15.9798 13.2821C16.497 13.385 17.0332 13.3322 17.5205 13.1303C18.0078 12.9285 18.4242 12.5867 18.7173 12.1482C19.0103 11.7097 19.1667 11.1941 19.1667 10.6667C19.1667 9.95942 18.8857 9.28114 18.3856 8.78105C17.8855 8.28095 17.2072 8 16.5 8ZM14.9933 12.8667L8.5 28M18.0067 12.8667L24.5 28" stroke="#D3FF55" stroke-width="2" stroke-linecap="round" stroke-linejoin="round"/>
</svg>
