<svg width="112" height="99" viewBox="0 0 112 99" fill="none" xmlns="http://www.w3.org/2000/svg">
<path d="M66.8471 98.5293C63.7973 99.4023 60.875 97.0211 60.875 93.8488V83.3346C60.875 81.0264 62.4658 79.0476 64.659 78.3278C71.1 76.214 76.2137 72.9511 80 68.5393C83.3778 64.4161 85.7696 59.6598 87.1753 54.2705C87.9365 51.3523 85.5782 48.6892 82.5625 48.6892H73.375C70.6136 48.6892 68.375 46.4506 68.375 43.6892V5C68.375 2.23857 70.6136 0 73.375 0H106.5C109.261 0 111.5 2.23858 111.5 5V31.8352C111.5 50.0624 107.25 65.1686 98.75 77.1536C91.2916 87.4508 80.6573 94.576 66.8471 98.5293ZM6.47209 98.5293C3.42231 99.4023 0.5 97.0211 0.5 93.8488V83.3346C0.5 81.0264 2.09085 79.0476 4.28396 78.3278C10.725 76.214 15.8387 72.9511 19.625 68.5393C23.0028 64.4161 25.3946 59.6598 26.8003 54.2705C27.5615 51.3523 25.2032 48.6892 22.1875 48.6892H13C10.2386 48.6892 8 46.4506 8 43.6892V5C8 2.23857 10.2386 0 13 0H46.125C48.8864 0 51.125 2.23858 51.125 5V31.8352C51.125 50.0624 46.875 65.1686 38.375 77.1536C30.9166 87.4508 20.2823 94.576 6.47209 98.5293Z" fill="white"/>
</svg>
