<svg width="48" height="48" viewBox="0 0 48 48" fill="none" xmlns="http://www.w3.org/2000/svg">
<path d="M16 26C16 23.1716 16 21.7574 16.8787 20.8786C17.7574 20 19.1716 20 22 20H26C28.8284 20 30.2426 20 31.1214 20.8786C32 21.7574 32 23.1716 32 26V44L32 38C32 35.1716 32 33.7574 32.8786 32.8786C33.7574 32 35.1716 32 38 32C40.8284 32 42.2426 32 43.1214 32.8786C44 33.7574 44 35.1716 44 38V44M16 34V44C16 41.1716 16 39.7574 15.1213 38.8786C14.2426 38 12.8284 38 10 38C7.17158 38 5.75736 38 4.87868 38.8786C4 39.7574 4 41.1716 4 44M22.2918 6.04502C23.0518 4.68168 23.4318 4 24 4C24.5682 4 24.9482 4.68168 25.7082 6.04502L25.9048 6.39774C26.1206 6.78516 26.2286 6.97888 26.397 7.10668C26.5654 7.2345 26.775 7.28194 27.1944 7.37682L27.5762 7.46322C29.052 7.79714 29.79 7.9641 29.9656 8.52864C30.1412 9.09318 29.638 9.68144 28.632 10.858L28.3716 11.1623C28.0858 11.4967 27.9428 11.6638 27.8784 11.8706C27.8142 12.0774 27.8358 12.3005 27.879 12.7465L27.9184 13.1526C28.0704 14.7224 28.1466 15.5072 27.687 15.8561C27.2272 16.205 26.5364 15.8869 25.1546 15.2507L24.7972 15.0861C24.4044 14.9053 24.2082 14.8149 24 14.8149C23.7918 14.8149 23.5956 14.9053 23.2028 15.0861L22.8454 15.2507C21.4636 15.8869 20.7728 16.205 20.313 15.8561C19.8535 15.5072 19.9295 14.7224 20.0816 13.1526L20.121 12.7465C20.1642 12.3005 20.1858 12.0774 20.1216 11.8706C20.0572 11.6638 19.9143 11.4967 19.6284 11.1623L19.3681 10.858C18.3619 9.68144 17.8589 9.09318 18.0345 8.52864C18.21 7.9641 18.9479 7.79714 20.4238 7.46322L20.8056 7.37682C21.225 7.28194 21.4346 7.2345 21.603 7.10668C21.7714 6.97888 21.8794 6.78516 22.0952 6.39774L22.2918 6.04502Z" stroke="url(#paint0_linear_2018_9852)" stroke-width="2" stroke-linecap="round"/>
<defs>
<linearGradient id="paint0_linear_2018_9852" x1="24" y1="44" x2="24" y2="4" gradientUnits="userSpaceOnUse">
<stop stop-color="#E3EF26"/>
<stop offset="1" stop-color="#FFFDEE"/>
</linearGradient>
</defs>
</svg>
