<svg width="48" height="48" viewBox="0 0 48 48" fill="none" xmlns="http://www.w3.org/2000/svg">
<path d="M34 5V43M14 5V43M14 24H4C4 14.5719 4 9.85786 6.92894 6.92894C9.85786 4 14.5719 4 24 4C33.428 4 38.1422 4 41.071 6.92894C42.704 8.56188 43.4266 10.7497 43.7462 14M34 24H44C44 33.428 44 38.1422 41.071 41.071C38.1422 44 33.428 44 24 44C14.5719 44 9.85786 44 6.92894 41.071C5.29598 39.4382 4.57344 37.2502 4.25374 34M5 14H14M43 14H34M43 35.5C43.8284 35.5 44.5 34.8284 44.5 34C44.5 33.1716 43.8284 32.5 43 32.5M43 35.5V32.5M43 35.5H34M43 32.5H34M34 32.5C33.1716 32.5 32.5 33.1716 32.5 34C32.5 34.8284 33.1716 35.5 34 35.5M34 32.5V35.5M14 35.5C14.8284 35.5 15.5 34.8284 15.5 34C15.5 33.1716 14.8284 32.5 14 32.5M14 35.5V32.5M14 35.5H4V32.5H14M28 24C28 22.9444 26.9408 22.2324 24.8224 20.8086C22.675 19.3654 21.6012 18.6438 20.8006 19.1736C20 19.7035 20 21.1356 20 24C20 26.8644 20 28.2966 20.8006 28.8264C21.6012 29.3562 22.675 28.6346 24.8224 27.1914C26.9408 25.7676 28 25.0556 28 24Z" stroke="url(#paint0_linear_2018_10180)" stroke-width="2" stroke-linecap="round"/>
<defs>
<linearGradient id="paint0_linear_2018_10180" x1="24.25" y1="44" x2="24.25" y2="4" gradientUnits="userSpaceOnUse">
<stop stop-color="#E3EF26"/>
<stop offset="1" stop-color="#FFFDEE"/>
</linearGradient>
</defs>
</svg>
