<svg width="48" height="48" viewBox="0 0 48 48" fill="none" xmlns="http://www.w3.org/2000/svg">
<path d="M7.27201 40.727L15.5146 32.4844M19.9995 43.999L25.414 39.5562M4.00049 28L8.44385 22.586M15.7127 8C18.0109 8.1782 20.8698 9.27264 23.8934 11.1205M10.5474 13.1653C10.8778 17.4267 14.3584 23.6158 19.9514 29.2088C27.7642 37.0216 36.7402 40.7126 40 37.4528C41.6512 35.8016 41.5192 32.6842 39.9716 28.994C39.4714 27.8014 38.8232 26.549 38.0398 25.2668M28.4368 20.724C23.9244 16.2116 22.9838 13.7674 22.8052 12.7743C22.7426 12.4254 22.9108 12.1038 23.1614 11.8531C26.8548 8.15972 32.8438 8.1606 36.5384 11.8551L37.3058 12.6225C41.0002 16.317 41.0012 22.306 37.3078 25.9994C37.057 26.25 36.7348 26.4182 36.3858 26.3554C35.7118 26.2342 34.3708 25.7622 32.1702 24.0638M26.057 26.5424C25.2758 27.3234 24.0096 27.3234 23.2284 26.5424C22.4474 25.7614 22.4474 24.495 23.2284 23.714C24.0096 22.933 25.2758 22.933 26.057 23.714C26.838 24.495 26.838 25.7614 26.057 26.5424ZM20.4 18.0571C19.619 18.8381 18.3527 18.8381 17.5716 18.0571C16.7906 17.276 16.7906 16.0097 17.5716 15.2287C18.3527 14.4476 19.619 14.4476 20.4 15.2287C21.1812 16.0097 21.1812 17.276 20.4 18.0571ZM34.5422 32.1992C33.7612 32.9802 32.4948 32.9802 31.7138 32.1992C30.9328 31.4182 30.9328 30.1518 31.7138 29.3708C32.4948 28.5898 33.7612 28.5898 34.5422 29.3708C35.3232 30.1518 35.3232 31.4182 34.5422 32.1992Z" stroke="url(#paint0_linear_2018_10149)" stroke-width="2" stroke-linecap="round"/>
<defs>
<linearGradient id="paint0_linear_2018_10149" x1="22.5933" y1="43.999" x2="22.5933" y2="8" gradientUnits="userSpaceOnUse">
<stop stop-color="#E3EF26"/>
<stop offset="1" stop-color="#FFFDEE"/>
</linearGradient>
</defs>
</svg>
