<svg width="22" height="22" viewBox="0 0 22 22" fill="none" xmlns="http://www.w3.org/2000/svg">
<path d="M10.5523 0.901057C10.7361 0.531029 11.264 0.531028 11.4478 0.901056L14.4246 6.89243C14.4974 7.03896 14.6373 7.1406 14.7992 7.16456L21.4172 8.14426C21.826 8.20477 21.9891 8.70679 21.694 8.99598L16.9157 13.6786C16.7989 13.7931 16.7454 13.9575 16.7727 14.1189L17.886 20.7157C17.9547 21.1232 17.5277 21.4334 17.1615 21.2421L11.2315 18.1447C11.0865 18.069 10.9136 18.069 10.7685 18.1447L4.83859 21.2421C4.47236 21.4334 4.04532 21.1232 4.11408 20.7157L5.22741 14.1189C5.25464 13.9575 5.2012 13.7931 5.08434 13.6786L0.306098 8.99598C0.0109928 8.70679 0.174108 8.20477 0.582838 8.14426L7.20086 7.16456C7.36272 7.1406 7.50262 7.03896 7.57542 6.89243L10.5523 0.901057Z" fill="#D3FF55"/>
</svg>
