<svg width="40" height="41" viewBox="0 0 40 41" fill="none" xmlns="http://www.w3.org/2000/svg">
<path d="M13.3333 15.5V18.8333M20 12.1667V18.8333M26.6667 13.8333V18.8333M5 5.5H8.33333M8.33333 5.5H31.6667M8.33333 5.5V20.1667C8.33333 22.0335 8.33333 22.967 8.69665 23.68C9.01622 24.3072 9.52615 24.8172 10.1534 25.1367C10.8664 25.5 11.7998 25.5 13.6667 25.5H20M35 5.5H31.6667M31.6667 5.5V20.1667C31.6667 22.0335 31.6667 22.967 31.3033 23.68C30.9838 24.3072 30.4738 24.8172 29.8467 25.1367C29.1337 25.5 28.2002 25.5 26.3333 25.5H20M20 30.5L11.6667 35.5M20 30.5L28.3333 35.5M20 30.5V35.5M20 30.5V25.5" stroke="url(#paint0_linear_2029_6917)" stroke-width="2" stroke-linecap="round" stroke-linejoin="round"/>
<defs>
<linearGradient id="paint0_linear_2029_6917" x1="20" y1="35.5" x2="20" y2="5.5" gradientUnits="userSpaceOnUse">
<stop stop-color="#E3EF26"/>
<stop offset="1" stop-color="#FFFDEE"/>
</linearGradient>
</defs>
</svg>
