<svg width="40" height="41" viewBox="0 0 40 41" fill="none" xmlns="http://www.w3.org/2000/svg">
<path d="M24.9999 32.1667L28.3333 35.5L34.9999 28.8333M21.6666 5.5H13.6666C11.7998 5.5 10.8663 5.5 10.1533 5.86332C9.52607 6.18288 9.01614 6.69282 8.69657 7.32003C8.33325 8.03307 8.33325 8.9665 8.33325 10.8333V30.1667C8.33325 32.0335 8.33325 32.967 8.69657 33.68C9.01614 34.3072 9.52607 34.8172 10.1533 35.1367C10.8663 35.5 11.7998 35.5 13.6666 35.5H19.1666M21.6666 5.5L31.6666 15.5M21.6666 5.5V12.8333C21.6666 13.7667 21.6666 14.2335 21.8483 14.59C22.0081 14.9036 22.2629 15.1586 22.5766 15.3184C22.9331 15.5 23.3998 15.5 24.3333 15.5H31.6666M31.6666 15.5V22.8333M14.9999 28.8333H19.1666M14.9999 22.1667H24.9999M14.9999 15.5H16.6666" stroke="url(#paint0_linear_2029_6897)" stroke-width="2" stroke-linecap="round" stroke-linejoin="round"/>
<defs>
<linearGradient id="paint0_linear_2029_6897" x1="21.6666" y1="35.5" x2="21.6666" y2="5.5" gradientUnits="userSpaceOnUse">
<stop stop-color="#E3EF26"/>
<stop offset="1" stop-color="#FFFDEE"/>
</linearGradient>
</defs>
</svg>
