<svg width="40" height="40" viewBox="0 0 40 40" fill="none" xmlns="http://www.w3.org/2000/svg">
<path d="M8.33333 35H5V7.66667C5 6.73325 5 6.26653 5.18165 5.91002C5.34145 5.59642 5.59642 5.34145 5.91002 5.18165C6.26653 5 6.73325 5 7.66667 5H22.3333C23.2668 5 23.7335 5 24.09 5.18165C24.4037 5.34145 24.6585 5.59642 24.8183 5.91002C25 6.26653 25 6.73325 25 7.66667V13.3333M10 11.6667H11.6667M10 16.6667H11.6667M10 21.6667H11.6667M18.3333 11.6667H20M16.6667 25L17.1177 23.6468C17.5548 22.3355 17.7735 21.6797 18.1788 21.195C18.5368 20.7668 18.9965 20.4355 19.5158 20.2313C20.104 20 20.795 20 22.1773 20H27.8227C29.205 20 29.896 20 30.4842 20.2313C31.0035 20.4355 31.4632 20.7668 31.8212 21.195C32.2265 21.6797 32.4452 22.3355 32.8823 23.6468L33.3333 25M35 35V30.3333C35 28.4665 35 27.533 34.6367 26.82C34.3172 26.1928 33.8072 25.6828 33.18 25.3633C32.467 25 31.5335 25 29.6667 25H20.3333C18.4665 25 17.533 25 16.82 25.3633C16.1928 25.6828 15.6829 26.1928 15.3633 26.82C15 27.533 15 28.4665 15 30.3333V35M15 33.3333H35M20 29.1667H20.0167M30 29.1667H30.0167" stroke="url(#paint0_linear_2029_6887)" stroke-width="2" stroke-linecap="round" stroke-linejoin="round"/>
<defs>
<linearGradient id="paint0_linear_2029_6887" x1="20" y1="35" x2="20" y2="5" gradientUnits="userSpaceOnUse">
<stop stop-color="#E3EF26"/>
<stop offset="1" stop-color="#FFFDEE"/>
</linearGradient>
</defs>
</svg>
