<svg width="40" height="32" viewBox="0 0 40 32" fill="none" xmlns="http://www.w3.org/2000/svg">
<path d="M22.7606 32V24.7273C25.3146 24.1305 27.3427 23.049 28.8451 21.4825C30.3474 19.8415 31.3239 17.9021 31.7747 15.6643H25.0141V0H40V9.62238C40 15.6643 38.5352 20.6247 35.6056 24.5035C32.7512 28.3077 28.4695 30.8065 22.7606 32ZM0 32V24.7273C2.47887 24.1305 4.46948 23.049 5.97183 21.4825C7.54929 19.8415 8.52582 17.9021 8.90141 15.6643H2.25352V0H17.1268V9.62238C17.1268 15.6643 15.662 20.6247 12.7324 24.5035C9.87793 28.3077 5.6338 30.8065 0 32Z" fill="#D3FF55"/>
</svg>
